  0
SECTION
  2
HEADER
  9
$ANGBASE
  50
0.0
  9
$ANGDIR
  70
1
  9
$MEASUREMENT
  70
0
  0
ENDSEC
  0
SECTION
  2
TABLES
  0
TABLE
  2
LTYPE
  70
4
  0
LTYPE
  5
40F
  2
CONTINUOUS
  70
0
  3
Solid line
  72
65
  73
0
  40
0.0
  0
LTYPE
  5
410
  2
DASHDOT
 70
0
  3
Dash Dot ____ _ ____ _
 72
65
 73
4
 40
2.0
 49
1.25
 49
-0.25
 49
0.25
 49
-0.25
  0
LTYPE
  5
411
  2
DASHED
 70
0
  3
Dashed __ __ __ __ __
 72
65
 73
2
 40
0.75
 49
0.5
 49
-0.25
  0
LTYPE
  5
43B
  2
DOTTED
 70
0
  3
Dotted .  .  .  .
 72
65
 73
2
 40
0.2
 49
0.0
 49
-0.2
  0
ENDTAB
  0
TABLE
  2
STYLE
  70
4
  0
STYLE
  2
KICAD
  70
0
  40
0
  41
1
  42
1
  50
0
  71
0
  3
isocp.shx
  0
STYLE
  2
KICADB
  70
0
  40
0
  41
1
  42
1
  50
0
  71
0
  3
isocp.shx
  0
STYLE
  2
KICADI
  70
0
  40
0
  41
1
  42
1
  50
15
  71
0
  3
isocp.shx
  0
STYLE
  2
KICADBI
  70
0
  40
0
  41
1
  42
1
  50
15
  71
0
  3
isocp.shx
  0
ENDTAB
  0
TABLE
  2
LAYER
  70
1
  0
LAYER
  2
BLACK
  70
0
  62
7
  6
CONTINUOUS
  0
ENDTAB
  0
ENDSEC
  0
SECTION
  2
ENTITIES
0
LINE
8
BLACK
6
CONTINUOUS
10
0.13886
20
0.367224
11
0.14069
21
0.365112
0
LINE
8
BLACK
6
CONTINUOUS
10
0.14069
20
0.365112
11
0.141138
21
0.363051
0
LINE
8
BLACK
6
CONTINUOUS
10
0.141138
20
0.363051
11
0.141138
21
0.282384
0
LINE
8
BLACK
6
CONTINUOUS
10
0.141138
20
0.282384
11
0.153219
21
0.288451
0
LINE
8
BLACK
6
CONTINUOUS
10
0.153219
20
0.288451
11
0.166126
21
0.293148
0
LINE
8
BLACK
6
CONTINUOUS
10
0.166126
20
0.293148
11
0.17949
21
0.296316
0
LINE
8
BLACK
6
CONTINUOUS
10
0.17949
20
0.296316
11
0.193133
21
0.29791
0
LINE
8
BLACK
6
CONTINUOUS
10
0.193133
20
0.29791
11
0.206867
21
0.29791
0
LINE
8
BLACK
6
CONTINUOUS
10
0.206867
20
0.29791
11
0.22051
21
0.296316
0
LINE
8
BLACK
6
CONTINUOUS
10
0.22051
20
0.296316
11
0.233874
21
0.293148
0
LINE
8
BLACK
6
CONTINUOUS
10
0.233874
20
0.293148
11
0.246781
21
0.288451
0
LINE
8
BLACK
6
CONTINUOUS
10
0.246781
20
0.288451
11
0.259055
21
0.282286
0
LINE
8
BLACK
6
CONTINUOUS
10
0.259055
20
0.282286
11
0.26131
21
0.280803
0
LINE
8
BLACK
6
CONTINUOUS
10
0.26131
20
0.280803
11
0.366412
21
0.280803
0
LINE
8
BLACK
6
CONTINUOUS
10
0.366412
20
0.280803
11
0.366412
21
0.363051
0
LINE
8
BLACK
6
CONTINUOUS
10
0.366412
20
0.363051
11
0.3672
21
0.365733
0
LINE
8
BLACK
6
CONTINUOUS
10
0.3672
20
0.365733
11
0.369312
21
0.367564
0
LINE
8
BLACK
6
CONTINUOUS
10
0.369312
20
0.367564
11
0.371373
21
0.368012
0
LINE
8
BLACK
6
CONTINUOUS
10
0.371373
20
0.368012
11
0.508448
21
0.368012
0
LINE
8
BLACK
6
CONTINUOUS
10
0.508448
20
0.368012
11
0.51113
21
0.367224
0
LINE
8
BLACK
6
CONTINUOUS
10
0.51113
20
0.367224
11
0.51296
21
0.365112
0
LINE
8
BLACK
6
CONTINUOUS
10
0.51296
20
0.365112
11
0.513358
21
0.362345
0
LINE
8
BLACK
6
CONTINUOUS
10
0.513358
20
0.362345
11
0.512197
21
0.359803
0
LINE
8
BLACK
6
CONTINUOUS
10
0.512197
20
0.359803
11
0.511087
21
0.358851
0
LINE
8
BLACK
6
CONTINUOUS
10
0.511087
20
0.358851
11
0.505028
21
0.355044
0
LINE
8
BLACK
6
CONTINUOUS
10
0.505028
20
0.355044
11
0.505028
21
0.355044
0
LINE
8
BLACK
6
CONTINUOUS
10
0.505028
20
0.355044
11
0.499956
21
0.349972
0
LINE
8
BLACK
6
CONTINUOUS
10
0.499956
20
0.349972
11
0.499956
21
0.349972
0
LINE
8
BLACK
6
CONTINUOUS
10
0.499956
20
0.349972
11
0.49614
21
0.343898
0
LINE
8
BLACK
6
CONTINUOUS
10
0.49614
20
0.343898
11
0.49614
21
0.343898
0
LINE
8
BLACK
6
CONTINUOUS
10
0.49614
20
0.343898
11
0.494732
21
0.339874
0
LINE
8
BLACK
6
CONTINUOUS
10
0.494732
20
0.339874
11
0.493557
21
0.338005
0
LINE
8
BLACK
6
CONTINUOUS
10
0.493557
20
0.338005
11
0.485925
21
0.330372
0
LINE
8
BLACK
6
CONTINUOUS
10
0.485925
20
0.330372
11
0.485817
21
0.330271
0
LINE
8
BLACK
6
CONTINUOUS
10
0.485817
20
0.330271
11
0.483968
21
0.328633
0
LINE
8
BLACK
6
CONTINUOUS
10
0.483968
20
0.328633
11
0.483968
21
0.328633
0
LINE
8
BLACK
6
CONTINUOUS
10
0.483968
20
0.328633
11
0.482565
21
0.326601
0
LINE
8
BLACK
6
CONTINUOUS
10
0.482565
20
0.326601
11
0.482476
21
0.32648
0
LINE
8
BLACK
6
CONTINUOUS
10
0.482476
20
0.32648
11
0.480954
21
0.324536
0
LINE
8
BLACK
6
CONTINUOUS
10
0.480954
20
0.324536
11
0.480954
21
0.324536
0
LINE
8
BLACK
6
CONTINUOUS
10
0.480954
20
0.324536
11
0.480954
21
0.324536
0
LINE
8
BLACK
6
CONTINUOUS
10
0.480954
20
0.324536
11
0.480789
21
0.32417
0
LINE
8
BLACK
6
CONTINUOUS
10
0.480789
20
0.32417
11
0.480383
21
0.32345
0
LINE
8
BLACK
6
CONTINUOUS
10
0.480383
20
0.32345
11
0.4817
21
0.32345
0
LINE
8
BLACK
6
CONTINUOUS
10
0.4817
20
0.32345
11
0.4817
21
0.25655
0
LINE
8
BLACK
6
CONTINUOUS
10
0.4817
20
0.25655
11
0.477106
21
0.25655
0
LINE
8
BLACK
6
CONTINUOUS
10
0.477106
20
0.25655
11
0.477106
21
0.234908
0
LINE
8
BLACK
6
CONTINUOUS
10
0.477106
20
0.234908
11
0.476319
21
0.232226
0
LINE
8
BLACK
6
CONTINUOUS
10
0.476319
20
0.232226
11
0.474206
21
0.230396
0
LINE
8
BLACK
6
CONTINUOUS
10
0.474206
20
0.230396
11
0.472676
21
0.229976
0
LINE
8
BLACK
6
CONTINUOUS
10
0.472676
20
0.229976
11
0.471927
21
0.229895
0
LINE
8
BLACK
6
CONTINUOUS
10
0.471927
20
0.229895
11
0.470701
21
0.229763
0
LINE
8
BLACK
6
CONTINUOUS
10
0.470701
20
0.229763
11
0.470701
21
0.229763
0
LINE
8
BLACK
6
CONTINUOUS
10
0.470701
20
0.229763
11
0.467633
21
0.228619
0
LINE
8
BLACK
6
CONTINUOUS
10
0.467633
20
0.228619
11
0.465307
21
0.227752
0
LINE
8
BLACK
6
CONTINUOUS
10
0.465307
20
0.227752
11
0.465307
21
0.227751
0
LINE
8
BLACK
6
CONTINUOUS
10
0.465307
20
0.227751
11
0.465307
21
0.227751
0
LINE
8
BLACK
6
CONTINUOUS
10
0.465307
20
0.227751
11
0.460698
21
0.224302
0
LINE
8
BLACK
6
CONTINUOUS
10
0.460698
20
0.224302
11
0.457249
21
0.219693
0
LINE
8
BLACK
6
CONTINUOUS
10
0.457249
20
0.219693
11
0.457248
21
0.219693
0
LINE
8
BLACK
6
CONTINUOUS
10
0.457248
20
0.219693
11
0.455237
21
0.214299
0
LINE
8
BLACK
6
CONTINUOUS
10
0.455237
20
0.214299
11
0.455237
21
0.214299
0
LINE
8
BLACK
6
CONTINUOUS
10
0.455237
20
0.214299
11
0.45498
21
0.211915
0
LINE
8
BLACK
6
CONTINUOUS
10
0.45498
20
0.211915
11
0.45498
21
0.148085
0
LINE
8
BLACK
6
CONTINUOUS
10
0.45498
20
0.148085
11
0.455237
21
0.145701
0
LINE
8
BLACK
6
CONTINUOUS
10
0.455237
20
0.145701
11
0.455237
21
0.145701
0
LINE
8
BLACK
6
CONTINUOUS
10
0.455237
20
0.145701
11
0.457248
21
0.140307
0
LINE
8
BLACK
6
CONTINUOUS
10
0.457248
20
0.140307
11
0.457249
21
0.140307
0
LINE
8
BLACK
6
CONTINUOUS
10
0.457249
20
0.140307
11
0.460698
21
0.135698
0
LINE
8
BLACK
6
CONTINUOUS
10
0.460698
20
0.135698
11
0.463006
21
0.133971
0
LINE
8
BLACK
6
CONTINUOUS
10
0.463006
20
0.133971
11
0.464681
21
0.131734
0
LINE
8
BLACK
6
CONTINUOUS
10
0.464681
20
0.131734
11
0.46488
21
0.128946
0
LINE
8
BLACK
6
CONTINUOUS
10
0.46488
20
0.128946
11
0.46354
21
0.126492
0
LINE
8
BLACK
6
CONTINUOUS
10
0.46354
20
0.126492
11
0.463006
21
0.126029
0
LINE
8
BLACK
6
CONTINUOUS
10
0.463006
20
0.126029
11
0.460698
21
0.124302
0
LINE
8
BLACK
6
CONTINUOUS
10
0.460698
20
0.124302
11
0.457249
21
0.119693
0
LINE
8
BLACK
6
CONTINUOUS
10
0.457249
20
0.119693
11
0.457248
21
0.119693
0
LINE
8
BLACK
6
CONTINUOUS
10
0.457248
20
0.119693
11
0.455237
21
0.114299
0
LINE
8
BLACK
6
CONTINUOUS
10
0.455237
20
0.114299
11
0.455237
21
0.114299
0
LINE
8
BLACK
6
CONTINUOUS
10
0.455237
20
0.114299
11
0.45498
21
0.111915
0
LINE
8
BLACK
6
CONTINUOUS
10
0.45498
20
0.111915
11
0.45498
21
0.0480846
0
LINE
8
BLACK
6
CONTINUOUS
10
0.45498
20
0.0480846
11
0.455237
21
0.0457009
0
LINE
8
BLACK
6
CONTINUOUS
10
0.455237
20
0.0457009
11
0.455237
21
0.0457006
0
LINE
8
BLACK
6
CONTINUOUS
10
0.455237
20
0.0457006
11
0.457248
21
0.040307
0
LINE
8
BLACK
6
CONTINUOUS
10
0.457248
20
0.040307
11
0.457249
21
0.0403068
0
LINE
8
BLACK
6
CONTINUOUS
10
0.457249
20
0.0403068
11
0.460698
21
0.0356983
0
LINE
8
BLACK
6
CONTINUOUS
10
0.460698
20
0.0356983
11
0.465307
21
0.0322485
0
LINE
8
BLACK
6
CONTINUOUS
10
0.465307
20
0.0322485
11
0.465307
21
0.0322484
0
LINE
8
BLACK
6
CONTINUOUS
10
0.465307
20
0.0322484
11
0.470701
21
0.0302367
0
LINE
8
BLACK
6
CONTINUOUS
10
0.470701
20
0.0302367
11
0.470701
21
0.0302366
0
LINE
8
BLACK
6
CONTINUOUS
10
0.470701
20
0.0302366
11
0.473085
21
0.0299803
0
LINE
8
BLACK
6
CONTINUOUS
10
0.473085
20
0.0299803
11
0.473085
21
0.0299803
0
LINE
8
BLACK
6
CONTINUOUS
10
0.473085
20
0.0299803
11
0.536915
21
0.0299803
0
LINE
8
BLACK
6
CONTINUOUS
10
0.536915
20
0.0299803
11
0.539299
21
0.0302366
0
LINE
8
BLACK
6
CONTINUOUS
10
0.539299
20
0.0302366
11
0.539299
21
0.0302367
0
LINE
8
BLACK
6
CONTINUOUS
10
0.539299
20
0.0302367
11
0.544693
21
0.0322484
0
LINE
8
BLACK
6
CONTINUOUS
10
0.544693
20
0.0322484
11
0.544693
21
0.0322485
0
LINE
8
BLACK
6
CONTINUOUS
10
0.544693
20
0.0322485
11
0.549302
21
0.0356984
0
LINE
8
BLACK
6
CONTINUOUS
10
0.549302
20
0.0356984
11
0.551029
21
0.0380056
0
LINE
8
BLACK
6
CONTINUOUS
10
0.551029
20
0.0380056
11
0.553266
21
0.0396807
0
LINE
8
BLACK
6
CONTINUOUS
10
0.553266
20
0.0396807
11
0.556054
21
0.03988
0
LINE
8
BLACK
6
CONTINUOUS
10
0.556054
20
0.03988
11
0.558508
21
0.0385405
0
LINE
8
BLACK
6
CONTINUOUS
10
0.558508
20
0.0385405
11
0.558971
21
0.0380056
0
LINE
8
BLACK
6
CONTINUOUS
10
0.558971
20
0.0380056
11
0.560698
21
0.0356984
0
LINE
8
BLACK
6
CONTINUOUS
10
0.560698
20
0.0356984
11
0.565307
21
0.0322485
0
LINE
8
BLACK
6
CONTINUOUS
10
0.565307
20
0.0322485
11
0.565307
21
0.0322484
0
LINE
8
BLACK
6
CONTINUOUS
10
0.565307
20
0.0322484
11
0.570701
21
0.0302367
0
LINE
8
BLACK
6
CONTINUOUS
10
0.570701
20
0.0302367
11
0.570701
21
0.0302366
0
LINE
8
BLACK
6
CONTINUOUS
10
0.570701
20
0.0302366
11
0.573085
21
0.0299803
0
LINE
8
BLACK
6
CONTINUOUS
10
0.573085
20
0.0299803
11
0.573085
21
0.0299803
0
LINE
8
BLACK
6
CONTINUOUS
10
0.573085
20
0.0299803
11
0.636915
21
0.0299803
0
LINE
8
BLACK
6
CONTINUOUS
10
0.636915
20
0.0299803
11
0.639299
21
0.0302366
0
LINE
8
BLACK
6
CONTINUOUS
10
0.639299
20
0.0302366
11
0.639299
21
0.0302367
0
LINE
8
BLACK
6
CONTINUOUS
10
0.639299
20
0.0302367
11
0.644693
21
0.0322484
0
LINE
8
BLACK
6
CONTINUOUS
10
0.644693
20
0.0322484
11
0.644693
21
0.0322485
0
LINE
8
BLACK
6
CONTINUOUS
10
0.644693
20
0.0322485
11
0.649302
21
0.0356984
0
LINE
8
BLACK
6
CONTINUOUS
10
0.649302
20
0.0356984
11
0.651029
21
0.0380056
0
LINE
8
BLACK
6
CONTINUOUS
10
0.651029
20
0.0380056
11
0.653266
21
0.0396807
0
LINE
8
BLACK
6
CONTINUOUS
10
0.653266
20
0.0396807
11
0.656054
21
0.03988
0
LINE
8
BLACK
6
CONTINUOUS
10
0.656054
20
0.03988
11
0.658508
21
0.0385405
0
LINE
8
BLACK
6
CONTINUOUS
10
0.658508
20
0.0385405
11
0.658971
21
0.0380056
0
LINE
8
BLACK
6
CONTINUOUS
10
0.658971
20
0.0380056
11
0.660698
21
0.0356984
0
LINE
8
BLACK
6
CONTINUOUS
10
0.660698
20
0.0356984
11
0.665307
21
0.0322485
0
LINE
8
BLACK
6
CONTINUOUS
10
0.665307
20
0.0322485
11
0.665307
21
0.0322484
0
LINE
8
BLACK
6
CONTINUOUS
10
0.665307
20
0.0322484
11
0.670701
21
0.0302367
0
LINE
8
BLACK
6
CONTINUOUS
10
0.670701
20
0.0302367
11
0.670701
21
0.0302366
0
LINE
8
BLACK
6
CONTINUOUS
10
0.670701
20
0.0302366
11
0.673085
21
0.0299803
0
LINE
8
BLACK
6
CONTINUOUS
10
0.673085
20
0.0299803
11
0.673085
21
0.0299803
0
LINE
8
BLACK
6
CONTINUOUS
10
0.673085
20
0.0299803
11
0.67329
21
0.0299803
0
LINE
8
BLACK
6
CONTINUOUS
10
0.67329
20
0.0299803
11
0.675972
21
0.0291928
0
LINE
8
BLACK
6
CONTINUOUS
10
0.675972
20
0.0291928
11
0.677803
21
0.0270804
0
LINE
8
BLACK
6
CONTINUOUS
10
0.677803
20
0.0270804
11
0.67817
21
0.0259141
0
LINE
8
BLACK
6
CONTINUOUS
10
0.67817
20
0.0259141
11
0.678174
21
0.0258926
0
LINE
8
BLACK
6
CONTINUOUS
10
0.678174
20
0.0258926
11
0.678174
21
0.0258923
0
LINE
8
BLACK
6
CONTINUOUS
10
0.678174
20
0.0258923
11
0.679187
21
0.0236408
0
LINE
8
BLACK
6
CONTINUOUS
10
0.679187
20
0.0236408
11
0.679244
21
0.0235024
0
LINE
8
BLACK
6
CONTINUOUS
10
0.679244
20
0.0235024
11
0.68012
21
0.0211939
0
LINE
8
BLACK
6
CONTINUOUS
10
0.68012
20
0.0211939
11
0.680348
21
0.020863
0
LINE
8
BLACK
6
CONTINUOUS
10
0.680348
20
0.020863
11
0.680789
21
0.0200819
0
LINE
8
BLACK
6
CONTINUOUS
10
0.680789
20
0.0200819
11
0.680954
21
0.0197157
0
LINE
8
BLACK
6
CONTINUOUS
10
0.680954
20
0.0197157
11
0.680954
21
0.0197153
0
LINE
8
BLACK
6
CONTINUOUS
10
0.680954
20
0.0197153
11
0.682477
21
0.0177717
0
LINE
8
BLACK
6
CONTINUOUS
10
0.682477
20
0.0177717
11
0.682565
21
0.0176511
0
LINE
8
BLACK
6
CONTINUOUS
10
0.682565
20
0.0176511
11
0.683968
21
0.0156191
0
LINE
8
BLACK
6
CONTINUOUS
10
0.683968
20
0.0156191
11
0.685816
21
0.0139817
0
LINE
8
BLACK
6
CONTINUOUS
10
0.685816
20
0.0139817
11
0.685925
21
0.013879
0
LINE
8
BLACK
6
CONTINUOUS
10
0.685925
20
0.013879
11
0.699348
21
0.000456535
0
LINE
8
BLACK
6
CONTINUOUS
10
0.699348
20
0.000456535
11
0.700687
21
-0.00199669
0
LINE
8
BLACK
6
CONTINUOUS
10
0.700687
20
-0.00199669
11
0.700488
21
-0.00478472
0
LINE
8
BLACK
6
CONTINUOUS
10
0.700488
20
-0.00478472
11
0.698813
21
-0.00702236
0
LINE
8
BLACK
6
CONTINUOUS
10
0.698813
20
-0.00702236
11
0.696194
21
-0.00799917
0
LINE
8
BLACK
6
CONTINUOUS
10
0.696194
20
-0.00799917
11
0.69584
21
-0.00801181
0
LINE
8
BLACK
6
CONTINUOUS
10
0.69584
20
-0.00801181
11
0.104157
21
-0.00801181
0
LINE
8
BLACK
6
CONTINUOUS
10
0.104157
20
-0.00801181
11
0.101475
21
-0.00722433
0
LINE
8
BLACK
6
CONTINUOUS
10
0.101475
20
-0.00722433
11
0.0996449
21
-0.00511189
0
LINE
8
BLACK
6
CONTINUOUS
10
0.0996449
20
-0.00511189
11
0.0991967
21
-0.00305118
0
LINE
8
BLACK
6
CONTINUOUS
10
0.0991967
20
-0.00305118
11
0.0991967
21
0.118776
0
LINE
8
BLACK
6
CONTINUOUS
10
0.0991967
20
0.118776
11
0.0944528
21
0.126992
0
LINE
8
BLACK
6
CONTINUOUS
10
0.0944528
20
0.126992
11
0.0890127
21
0.139604
0
LINE
8
BLACK
6
CONTINUOUS
10
0.0890127
20
0.139604
11
0.0850734
21
0.152762
0
LINE
8
BLACK
6
CONTINUOUS
10
0.0850734
20
0.152762
11
0.0826884
21
0.166288
0
LINE
8
BLACK
6
CONTINUOUS
10
0.0826884
20
0.166288
11
0.0818898
21
0.18
0
LINE
8
BLACK
6
CONTINUOUS
10
0.0818898
20
0.18
11
0.0826884
21
0.193712
0
LINE
8
BLACK
6
CONTINUOUS
10
0.0826884
20
0.193712
11
0.0850734
21
0.207238
0
LINE
8
BLACK
6
CONTINUOUS
10
0.0850734
20
0.207238
11
0.0890127
21
0.220396
0
LINE
8
BLACK
6
CONTINUOUS
10
0.0890127
20
0.220396
11
0.0944528
21
0.233008
0
LINE
8
BLACK
6
CONTINUOUS
10
0.0944528
20
0.233008
11
0.0991967
21
0.241224
0
LINE
8
BLACK
6
CONTINUOUS
10
0.0991967
20
0.241224
11
0.0991967
21
0.363051
0
LINE
8
BLACK
6
CONTINUOUS
10
0.0991967
20
0.363051
11
0.0999841
21
0.365733
0
LINE
8
BLACK
6
CONTINUOUS
10
0.0999841
20
0.365733
11
0.102097
21
0.367564
0
LINE
8
BLACK
6
CONTINUOUS
10
0.102097
20
0.367564
11
0.104157
21
0.368012
0
LINE
8
BLACK
6
CONTINUOUS
10
0.104157
20
0.368012
11
0.136178
21
0.368012
0
LINE
8
BLACK
6
CONTINUOUS
10
0.136178
20
0.368012
11
0.13886
21
0.367224
0
LINE
8
BLACK
6
CONTINUOUS
10
1.3425
20
0.350374
11
1.3825
21
0.350374
0
LINE
8
BLACK
6
CONTINUOUS
10
1.3825
20
0.350374
11
1.3825
21
0.36
0
LINE
8
BLACK
6
CONTINUOUS
10
1.3825
20
0.36
11
1.4375
21
0.36
0
LINE
8
BLACK
6
CONTINUOUS
10
1.4375
20
0.36
11
1.4375
21
0.350374
0
LINE
8
BLACK
6
CONTINUOUS
10
1.4375
20
0.350374
11
1.44999
21
0.350374
0
LINE
8
BLACK
6
CONTINUOUS
10
1.44999
20
0.350374
11
1.45518
21
0.355568
0
LINE
8
BLACK
6
CONTINUOUS
10
1.45518
20
0.355568
11
1.4563
21
0.356271
0
LINE
8
BLACK
6
CONTINUOUS
10
1.4563
20
0.356271
11
1.45733
21
0.357094
0
LINE
8
BLACK
6
CONTINUOUS
10
1.45733
20
0.357094
11
1.45777
21
0.357194
0
LINE
8
BLACK
6
CONTINUOUS
10
1.45777
20
0.357194
11
1.45815
21
0.357432
0
LINE
8
BLACK
6
CONTINUOUS
10
1.45815
20
0.357432
11
1.45946
21
0.35758
0
LINE
8
BLACK
6
CONTINUOUS
10
1.45946
20
0.35758
11
1.46075
21
0.357874
0
LINE
8
BLACK
6
CONTINUOUS
10
1.46075
20
0.357874
11
1.5125
21
0.357874
0
LINE
8
BLACK
6
CONTINUOUS
10
1.5125
20
0.357874
11
1.51379
21
0.35758
0
LINE
8
BLACK
6
CONTINUOUS
10
1.51379
20
0.35758
11
1.5151
21
0.357432
0
LINE
8
BLACK
6
CONTINUOUS
10
1.5151
20
0.357432
11
1.51548
21
0.357194
0
LINE
8
BLACK
6
CONTINUOUS
10
1.51548
20
0.357194
11
1.51592
21
0.357094
0
LINE
8
BLACK
6
CONTINUOUS
10
1.51592
20
0.357094
11
1.51695
21
0.356271
0
LINE
8
BLACK
6
CONTINUOUS
10
1.51695
20
0.356271
11
1.51807
21
0.355568
0
LINE
8
BLACK
6
CONTINUOUS
10
1.51807
20
0.355568
11
1.55114
21
0.3225
0
LINE
8
BLACK
6
CONTINUOUS
10
1.55114
20
0.3225
11
1.57
21
0.3225
0
LINE
8
BLACK
6
CONTINUOUS
10
1.57
20
0.3225
11
1.57
21
0.2675
0
LINE
8
BLACK
6
CONTINUOUS
10
1.57
20
0.2675
11
1.56037
21
0.2675
0
LINE
8
BLACK
6
CONTINUOUS
10
1.56037
20
0.2675
11
1.56037
21
0.24687
0
LINE
8
BLACK
6
CONTINUOUS
10
1.56037
20
0.24687
11
1.56008
21
0.245582
0
LINE
8
BLACK
6
CONTINUOUS
10
1.56008
20
0.245582
11
1.55993
21
0.244269
0
LINE
8
BLACK
6
CONTINUOUS
10
1.55993
20
0.244269
11
1.55969
21
0.24389
0
LINE
8
BLACK
6
CONTINUOUS
10
1.55969
20
0.24389
11
1.55959
21
0.243454
0
LINE
8
BLACK
6
CONTINUOUS
10
1.55959
20
0.243454
11
1.55877
21
0.242421
0
LINE
8
BLACK
6
CONTINUOUS
10
1.55877
20
0.242421
11
1.55807
21
0.241302
0
LINE
8
BLACK
6
CONTINUOUS
10
1.55807
20
0.241302
11
1.54469
21
0.22792
0
LINE
8
BLACK
6
CONTINUOUS
10
1.54469
20
0.22792
11
1.54469
21
0.210821
0
LINE
8
BLACK
6
CONTINUOUS
10
1.54469
20
0.210821
11
1.566
21
0.189505
0
LINE
8
BLACK
6
CONTINUOUS
10
1.566
20
0.189505
11
1.5667
21
0.188386
0
LINE
8
BLACK
6
CONTINUOUS
10
1.5667
20
0.188386
11
1.56753
21
0.187353
0
LINE
8
BLACK
6
CONTINUOUS
10
1.56753
20
0.187353
11
1.56763
21
0.186917
0
LINE
8
BLACK
6
CONTINUOUS
10
1.56763
20
0.186917
11
1.56787
21
0.186538
0
LINE
8
BLACK
6
CONTINUOUS
10
1.56787
20
0.186538
11
1.56801
21
0.185225
0
LINE
8
BLACK
6
CONTINUOUS
10
1.56801
20
0.185225
11
1.56831
21
0.183937
0
LINE
8
BLACK
6
CONTINUOUS
10
1.56831
20
0.183937
11
1.56831
21
0.0596456
0
LINE
8
BLACK
6
CONTINUOUS
10
1.56831
20
0.0596456
11
1.56801
21
0.0583577
0
LINE
8
BLACK
6
CONTINUOUS
10
1.56801
20
0.0583577
11
1.56787
21
0.057045
0
LINE
8
BLACK
6
CONTINUOUS
10
1.56787
20
0.057045
11
1.56763
21
0.0566658
0
LINE
8
BLACK
6
CONTINUOUS
10
1.56763
20
0.0566658
11
1.56753
21
0.0562292
0
LINE
8
BLACK
6
CONTINUOUS
10
1.56753
20
0.0562292
11
1.5667
21
0.0551963
0
LINE
8
BLACK
6
CONTINUOUS
10
1.5667
20
0.0551963
11
1.566
21
0.0540779
0
LINE
8
BLACK
6
CONTINUOUS
10
1.566
20
0.0540779
11
1.52886
21
0.0169322
0
LINE
8
BLACK
6
CONTINUOUS
10
1.52886
20
0.0169322
11
1.52774
21
0.0162294
0
LINE
8
BLACK
6
CONTINUOUS
10
1.52774
20
0.0162294
11
1.5267
21
0.0154057
0
LINE
8
BLACK
6
CONTINUOUS
10
1.5267
20
0.0154057
11
1.52627
21
0.0153061
0
LINE
8
BLACK
6
CONTINUOUS
10
1.52627
20
0.0153061
11
1.52589
21
0.0150678
0
LINE
8
BLACK
6
CONTINUOUS
10
1.52589
20
0.0150678
11
1.52458
21
0.0149199
0
LINE
8
BLACK
6
CONTINUOUS
10
1.52458
20
0.0149199
11
1.52329
21
0.014626
0
LINE
8
BLACK
6
CONTINUOUS
10
1.52329
20
0.014626
11
1.4325
21
0.014626
0
LINE
8
BLACK
6
CONTINUOUS
10
1.4325
20
0.014626
11
1.4325
21
0.005
0
LINE
8
BLACK
6
CONTINUOUS
10
1.4325
20
0.005
11
1.3775
21
0.005
0
LINE
8
BLACK
6
CONTINUOUS
10
1.3775
20
0.005
11
1.3775
21
0.014626
0
LINE
8
BLACK
6
CONTINUOUS
10
1.3775
20
0.014626
11
1.3525
21
0.014626
0
LINE
8
BLACK
6
CONTINUOUS
10
1.3525
20
0.014626
11
1.3525
21
0.005
0
LINE
8
BLACK
6
CONTINUOUS
10
1.3525
20
0.005
11
1.2975
21
0.005
0
LINE
8
BLACK
6
CONTINUOUS
10
1.2975
20
0.005
11
1.2975
21
0.014626
0
LINE
8
BLACK
6
CONTINUOUS
10
1.2975
20
0.014626
11
1.2325
21
0.014626
0
LINE
8
BLACK
6
CONTINUOUS
10
1.2325
20
0.014626
11
1.2325
21
0.005
0
LINE
8
BLACK
6
CONTINUOUS
10
1.2325
20
0.005
11
1.1775
21
0.005
0
LINE
8
BLACK
6
CONTINUOUS
10
1.1775
20
0.005
11
1.1775
21
0.0130125
0
LINE
8
BLACK
6
CONTINUOUS
10
1.1775
20
0.0130125
11
1.13283
21
0.0130125
0
LINE
8
BLACK
6
CONTINUOUS
10
1.13283
20
0.0130125
11
1.13002
21
0.0106579
0
LINE
8
BLACK
6
CONTINUOUS
10
1.13002
20
0.0106579
11
1.12616
21
0.00925496
0
LINE
8
BLACK
6
CONTINUOUS
10
1.12616
20
0.00925496
11
1.12206
21
0.00925496
0
LINE
8
BLACK
6
CONTINUOUS
10
1.12206
20
0.00925496
11
1.11821
21
0.0106579
0
LINE
8
BLACK
6
CONTINUOUS
10
1.11821
20
0.0106579
11
1.11507
21
0.0132946
0
LINE
8
BLACK
6
CONTINUOUS
10
1.11507
20
0.0132946
11
1.11301
21
0.0168469
0
LINE
8
BLACK
6
CONTINUOUS
10
1.11301
20
0.0168469
11
1.1123
21
0.0208865
0
LINE
8
BLACK
6
CONTINUOUS
10
1.1123
20
0.0208865
11
1.11301
21
0.0249261
0
LINE
8
BLACK
6
CONTINUOUS
10
1.11301
20
0.0249261
11
1.11507
21
0.0284785
0
LINE
8
BLACK
6
CONTINUOUS
10
1.11507
20
0.0284785
11
1.11821
21
0.0311152
0
LINE
8
BLACK
6
CONTINUOUS
10
1.11821
20
0.0311152
11
1.12206
21
0.0325181
0
LINE
8
BLACK
6
CONTINUOUS
10
1.12206
20
0.0325181
11
1.12616
21
0.0325181
0
LINE
8
BLACK
6
CONTINUOUS
10
1.12616
20
0.0325181
11
1.13002
21
0.0311152
0
LINE
8
BLACK
6
CONTINUOUS
10
1.13002
20
0.0311152
11
1.13283
21
0.0287606
0
LINE
8
BLACK
6
CONTINUOUS
10
1.13283
20
0.0287606
11
1.1775
21
0.0287606
0
LINE
8
BLACK
6
CONTINUOUS
10
1.1775
20
0.0287606
11
1.1775
21
0.04
0
LINE
8
BLACK
6
CONTINUOUS
10
1.1775
20
0.04
11
1.2325
21
0.04
0
LINE
8
BLACK
6
CONTINUOUS
10
1.2325
20
0.04
11
1.2325
21
0.030374
0
LINE
8
BLACK
6
CONTINUOUS
10
1.2325
20
0.030374
11
1.2975
21
0.030374
0
LINE
8
BLACK
6
CONTINUOUS
10
1.2975
20
0.030374
11
1.2975
21
0.04
0
LINE
8
BLACK
6
CONTINUOUS
10
1.2975
20
0.04
11
1.3525
21
0.04
0
LINE
8
BLACK
6
CONTINUOUS
10
1.3525
20
0.04
11
1.3525
21
0.030374
0
LINE
8
BLACK
6
CONTINUOUS
10
1.3525
20
0.030374
11
1.3775
21
0.030374
0
LINE
8
BLACK
6
CONTINUOUS
10
1.3775
20
0.030374
11
1.3775
21
0.04
0
LINE
8
BLACK
6
CONTINUOUS
10
1.3775
20
0.04
11
1.4325
21
0.04
0
LINE
8
BLACK
6
CONTINUOUS
10
1.4325
20
0.04
11
1.4325
21
0.030374
0
LINE
8
BLACK
6
CONTINUOUS
10
1.4325
20
0.030374
11
1.52003
21
0.030374
0
LINE
8
BLACK
6
CONTINUOUS
10
1.52003
20
0.030374
11
1.55256
21
0.0629071
0
LINE
8
BLACK
6
CONTINUOUS
10
1.55256
20
0.0629071
11
1.55256
21
0.180675
0
LINE
8
BLACK
6
CONTINUOUS
10
1.55256
20
0.180675
11
1.53355
21
0.199685
0
LINE
8
BLACK
6
CONTINUOUS
10
1.53355
20
0.199685
11
1.50531
21
0.199685
0
LINE
8
BLACK
6
CONTINUOUS
10
1.50531
20
0.199685
11
1.50531
21
0.211496
0
LINE
8
BLACK
6
CONTINUOUS
10
1.50531
20
0.211496
11
1.5025
21
0.211496
0
LINE
8
BLACK
6
CONTINUOUS
10
1.5025
20
0.211496
11
1.5025
21
0.2
0
LINE
8
BLACK
6
CONTINUOUS
10
1.5025
20
0.2
11
1.4475
21
0.2
0
LINE
8
BLACK
6
CONTINUOUS
10
1.4475
20
0.2
11
1.4475
21
0.235
0
LINE
8
BLACK
6
CONTINUOUS
10
1.4475
20
0.235
11
1.5025
21
0.235
0
LINE
8
BLACK
6
CONTINUOUS
10
1.5025
20
0.235
11
1.5025
21
0.227244
0
LINE
8
BLACK
6
CONTINUOUS
10
1.5025
20
0.227244
11
1.50531
21
0.227244
0
LINE
8
BLACK
6
CONTINUOUS
10
1.50531
20
0.227244
11
1.50531
21
0.239055
0
LINE
8
BLACK
6
CONTINUOUS
10
1.50531
20
0.239055
11
1.53355
21
0.239055
0
LINE
8
BLACK
6
CONTINUOUS
10
1.53355
20
0.239055
11
1.54463
21
0.250132
0
LINE
8
BLACK
6
CONTINUOUS
10
1.54463
20
0.250132
11
1.54463
21
0.2675
0
LINE
8
BLACK
6
CONTINUOUS
10
1.54463
20
0.2675
11
1.535
21
0.2675
0
LINE
8
BLACK
6
CONTINUOUS
10
1.535
20
0.2675
11
1.535
21
0.316364
0
LINE
8
BLACK
6
CONTINUOUS
10
1.535
20
0.316364
11
1.50924
21
0.342126
0
LINE
8
BLACK
6
CONTINUOUS
10
1.50924
20
0.342126
11
1.46401
21
0.342126
0
LINE
8
BLACK
6
CONTINUOUS
10
1.46401
20
0.342126
11
1.45882
21
0.336932
0
LINE
8
BLACK
6
CONTINUOUS
10
1.45882
20
0.336932
11
1.4577
21
0.336229
0
LINE
8
BLACK
6
CONTINUOUS
10
1.4577
20
0.336229
11
1.45666
21
0.335406
0
LINE
8
BLACK
6
CONTINUOUS
10
1.45666
20
0.335406
11
1.45623
21
0.335306
0
LINE
8
BLACK
6
CONTINUOUS
10
1.45623
20
0.335306
11
1.45585
21
0.335068
0
LINE
8
BLACK
6
CONTINUOUS
10
1.45585
20
0.335068
11
1.45454
21
0.33492
0
LINE
8
BLACK
6
CONTINUOUS
10
1.45454
20
0.33492
11
1.45325
21
0.334626
0
LINE
8
BLACK
6
CONTINUOUS
10
1.45325
20
0.334626
11
1.4375
21
0.334626
0
LINE
8
BLACK
6
CONTINUOUS
10
1.4375
20
0.334626
11
1.4375
21
0.325
0
LINE
8
BLACK
6
CONTINUOUS
10
1.4375
20
0.325
11
1.3825
21
0.325
0
LINE
8
BLACK
6
CONTINUOUS
10
1.3825
20
0.325
11
1.3825
21
0.334626
0
LINE
8
BLACK
6
CONTINUOUS
10
1.3825
20
0.334626
11
1.3425
21
0.334626
0
LINE
8
BLACK
6
CONTINUOUS
10
1.3425
20
0.334626
11
1.3425
21
0.325
0
LINE
8
BLACK
6
CONTINUOUS
10
1.3425
20
0.325
11
1.2875
21
0.325
0
LINE
8
BLACK
6
CONTINUOUS
10
1.2875
20
0.325
11
1.2875
21
0.36
0
LINE
8
BLACK
6
CONTINUOUS
10
1.2875
20
0.36
11
1.3425
21
0.36
0
LINE
8
BLACK
6
CONTINUOUS
10
1.3425
20
0.36
11
1.3425
21
0.350374
0
LINE
8
BLACK
6
CONTINUOUS
10
1.26133
20
0.241793
11
1.26264
21
0.241645
0
LINE
8
BLACK
6
CONTINUOUS
10
1.26264
20
0.241645
11
1.26302
21
0.241406
0
LINE
8
BLACK
6
CONTINUOUS
10
1.26302
20
0.241406
11
1.26346
21
0.241307
0
LINE
8
BLACK
6
CONTINUOUS
10
1.26346
20
0.241307
11
1.26449
21
0.240483
0
LINE
8
BLACK
6
CONTINUOUS
10
1.26449
20
0.240483
11
1.26561
21
0.23978
0
LINE
8
BLACK
6
CONTINUOUS
10
1.26561
20
0.23978
11
1.28692
21
0.218465
0
LINE
8
BLACK
6
CONTINUOUS
10
1.28692
20
0.218465
11
1.31516
21
0.218465
0
LINE
8
BLACK
6
CONTINUOUS
10
1.31516
20
0.218465
11
1.31516
21
0.202717
0
LINE
8
BLACK
6
CONTINUOUS
10
1.31516
20
0.202717
11
1.29547
21
0.202717
0
LINE
8
BLACK
6
CONTINUOUS
10
1.29547
20
0.202717
11
1.28366
21
0.202717
0
LINE
8
BLACK
6
CONTINUOUS
10
1.28366
20
0.202717
11
1.27579
21
0.202717
0
LINE
8
BLACK
6
CONTINUOUS
10
1.27579
20
0.202717
11
1.27579
21
0.207329
0
LINE
8
BLACK
6
CONTINUOUS
10
1.27579
20
0.207329
11
1.25678
21
0.226339
0
LINE
8
BLACK
6
CONTINUOUS
10
1.25678
20
0.226339
11
1.20976
21
0.226339
0
LINE
8
BLACK
6
CONTINUOUS
10
1.20976
20
0.226339
11
1.19171
21
0.208291
0
LINE
8
BLACK
6
CONTINUOUS
10
1.19171
20
0.208291
11
1.19181
21
0.207717
0
LINE
8
BLACK
6
CONTINUOUS
10
1.19181
20
0.207717
11
1.1911
21
0.203677
0
LINE
8
BLACK
6
CONTINUOUS
10
1.1911
20
0.203677
11
1.18905
21
0.200125
0
LINE
8
BLACK
6
CONTINUOUS
10
1.18905
20
0.200125
11
1.18787
21
0.19914
0
LINE
8
BLACK
6
CONTINUOUS
10
1.18787
20
0.19914
11
1.18787
21
0.15901
0
LINE
8
BLACK
6
CONTINUOUS
10
1.18787
20
0.15901
11
1.21057
21
0.136316
0
LINE
8
BLACK
6
CONTINUOUS
10
1.21057
20
0.136316
11
1.21127
21
0.135197
0
LINE
8
BLACK
6
CONTINUOUS
10
1.21127
20
0.135197
11
1.21209
21
0.134164
0
LINE
8
BLACK
6
CONTINUOUS
10
1.21209
20
0.134164
11
1.21219
21
0.133728
0
LINE
8
BLACK
6
CONTINUOUS
10
1.21219
20
0.133728
11
1.21243
21
0.133349
0
LINE
8
BLACK
6
CONTINUOUS
10
1.21243
20
0.133349
11
1.21258
21
0.132036
0
LINE
8
BLACK
6
CONTINUOUS
10
1.21258
20
0.132036
11
1.21287
21
0.130748
0
LINE
8
BLACK
6
CONTINUOUS
10
1.21287
20
0.130748
11
1.21287
21
0.115
0
LINE
8
BLACK
6
CONTINUOUS
10
1.21287
20
0.115
11
1.2325
21
0.115
0
LINE
8
BLACK
6
CONTINUOUS
10
1.2325
20
0.115
11
1.2325
21
0.08
0
LINE
8
BLACK
6
CONTINUOUS
10
1.2325
20
0.08
11
1.1775
21
0.08
0
LINE
8
BLACK
6
CONTINUOUS
10
1.1775
20
0.08
11
1.1775
21
0.089626
0
LINE
8
BLACK
6
CONTINUOUS
10
1.1775
20
0.089626
11
1.16501
21
0.089626
0
LINE
8
BLACK
6
CONTINUOUS
10
1.16501
20
0.089626
11
1.08447
21
0.00907787
0
LINE
8
BLACK
6
CONTINUOUS
10
1.08447
20
0.00907787
11
1.08335
21
0.00837508
0
LINE
8
BLACK
6
CONTINUOUS
10
1.08335
20
0.00837508
11
1.08231
21
0.00755138
0
LINE
8
BLACK
6
CONTINUOUS
10
1.08231
20
0.00755138
11
1.08188
21
0.00745169
0
LINE
8
BLACK
6
CONTINUOUS
10
1.08188
20
0.00745169
11
1.0815
21
0.00721346
0
LINE
8
BLACK
6
CONTINUOUS
10
1.0815
20
0.00721346
11
1.08019
21
0.00706555
0
LINE
8
BLACK
6
CONTINUOUS
10
1.08019
20
0.00706555
11
1.0789
21
0.00677161
0
LINE
8
BLACK
6
CONTINUOUS
10
1.0789
20
0.00677161
11
0.724606
21
0.00677161
0
LINE
8
BLACK
6
CONTINUOUS
10
0.724606
20
0.00677161
11
0.723318
21
0.00706555
0
LINE
8
BLACK
6
CONTINUOUS
10
0.723318
20
0.00706555
11
0.722006
21
0.00721346
0
LINE
8
BLACK
6
CONTINUOUS
10
0.722006
20
0.00721346
11
0.721626
21
0.00745169
0
LINE
8
BLACK
6
CONTINUOUS
10
0.721626
20
0.00745169
11
0.72119
21
0.00755138
0
LINE
8
BLACK
6
CONTINUOUS
10
0.72119
20
0.00755138
11
0.720157
21
0.00837496
0
LINE
8
BLACK
6
CONTINUOUS
10
0.720157
20
0.00837496
11
0.719039
21
0.00907783
0
LINE
8
BLACK
6
CONTINUOUS
10
0.719039
20
0.00907783
11
0.699432
21
0.0286842
0
LINE
8
BLACK
6
CONTINUOUS
10
0.699432
20
0.0286842
11
0.698729
21
0.0298026
0
LINE
8
BLACK
6
CONTINUOUS
10
0.698729
20
0.0298026
11
0.697906
21
0.0308356
0
LINE
8
BLACK
6
CONTINUOUS
10
0.697906
20
0.0308356
11
0.697806
21
0.0312721
0
LINE
8
BLACK
6
CONTINUOUS
10
0.697806
20
0.0312721
11
0.697568
21
0.0316513
0
LINE
8
BLACK
6
CONTINUOUS
10
0.697568
20
0.0316513
11
0.69742
21
0.032964
0
LINE
8
BLACK
6
CONTINUOUS
10
0.69742
20
0.032964
11
0.697126
21
0.034252
0
LINE
8
BLACK
6
CONTINUOUS
10
0.697126
20
0.034252
11
0.697126
21
0.05
0
LINE
8
BLACK
6
CONTINUOUS
10
0.697126
20
0.05
11
0.675
21
0.05
0
LINE
8
BLACK
6
CONTINUOUS
10
0.675
20
0.05
11
0.675
21
0.11
0
LINE
8
BLACK
6
CONTINUOUS
10
0.675
20
0.11
11
0.697126
21
0.11
0
LINE
8
BLACK
6
CONTINUOUS
10
0.697126
20
0.11
11
0.697126
21
0.15
0
LINE
8
BLACK
6
CONTINUOUS
10
0.697126
20
0.15
11
0.675
21
0.15
0
LINE
8
BLACK
6
CONTINUOUS
10
0.675
20
0.15
11
0.675
21
0.21
0
LINE
8
BLACK
6
CONTINUOUS
10
0.675
20
0.21
11
0.735
21
0.21
0
LINE
8
BLACK
6
CONTINUOUS
10
0.735
20
0.21
11
0.735
21
0.15
0
LINE
8
BLACK
6
CONTINUOUS
10
0.735
20
0.15
11
0.712874
21
0.15
0
LINE
8
BLACK
6
CONTINUOUS
10
0.712874
20
0.15
11
0.712874
21
0.11
0
LINE
8
BLACK
6
CONTINUOUS
10
0.712874
20
0.11
11
0.735
21
0.11
0
LINE
8
BLACK
6
CONTINUOUS
10
0.735
20
0.11
11
0.735
21
0.05
0
LINE
8
BLACK
6
CONTINUOUS
10
0.735
20
0.05
11
0.712874
21
0.05
0
LINE
8
BLACK
6
CONTINUOUS
10
0.712874
20
0.05
11
0.712874
21
0.0375135
0
LINE
8
BLACK
6
CONTINUOUS
10
0.712874
20
0.0375135
11
0.727868
21
0.0225196
0
LINE
8
BLACK
6
CONTINUOUS
10
0.727868
20
0.0225196
11
1.07564
21
0.0225196
0
LINE
8
BLACK
6
CONTINUOUS
10
1.07564
20
0.0225196
11
1.15618
21
0.103068
0
LINE
8
BLACK
6
CONTINUOUS
10
1.15618
20
0.103068
11
1.1573
21
0.103771
0
LINE
8
BLACK
6
CONTINUOUS
10
1.1573
20
0.103771
11
1.15834
21
0.104594
0
LINE
8
BLACK
6
CONTINUOUS
10
1.15834
20
0.104594
11
1.15877
21
0.104694
0
LINE
8
BLACK
6
CONTINUOUS
10
1.15877
20
0.104694
11
1.15915
21
0.104932
0
LINE
8
BLACK
6
CONTINUOUS
10
1.15915
20
0.104932
11
1.16046
21
0.10508
0
LINE
8
BLACK
6
CONTINUOUS
10
1.16046
20
0.10508
11
1.16175
21
0.105374
0
LINE
8
BLACK
6
CONTINUOUS
10
1.16175
20
0.105374
11
1.1775
21
0.105374
0
LINE
8
BLACK
6
CONTINUOUS
10
1.1775
20
0.105374
11
1.1775
21
0.115
0
LINE
8
BLACK
6
CONTINUOUS
10
1.1775
20
0.115
11
1.19713
21
0.115
0
LINE
8
BLACK
6
CONTINUOUS
10
1.19713
20
0.115
11
1.19713
21
0.127486
0
LINE
8
BLACK
6
CONTINUOUS
10
1.19713
20
0.127486
11
1.17443
21
0.15018
0
LINE
8
BLACK
6
CONTINUOUS
10
1.17443
20
0.15018
11
1.17373
21
0.151299
0
LINE
8
BLACK
6
CONTINUOUS
10
1.17373
20
0.151299
11
1.17291
21
0.152332
0
LINE
8
BLACK
6
CONTINUOUS
10
1.17291
20
0.152332
11
1.17281
21
0.152768
0
LINE
8
BLACK
6
CONTINUOUS
10
1.17281
20
0.152768
11
1.17257
21
0.153147
0
LINE
8
BLACK
6
CONTINUOUS
10
1.17257
20
0.153147
11
1.17242
21
0.15446
0
LINE
8
BLACK
6
CONTINUOUS
10
1.17242
20
0.15446
11
1.17213
21
0.155748
0
LINE
8
BLACK
6
CONTINUOUS
10
1.17213
20
0.155748
11
1.17213
21
0.19914
0
LINE
8
BLACK
6
CONTINUOUS
10
1.17213
20
0.19914
11
1.17095
21
0.200125
0
LINE
8
BLACK
6
CONTINUOUS
10
1.17095
20
0.200125
11
1.1689
21
0.203677
0
LINE
8
BLACK
6
CONTINUOUS
10
1.1689
20
0.203677
11
1.16819
21
0.207717
0
LINE
8
BLACK
6
CONTINUOUS
10
1.16819
20
0.207717
11
1.1689
21
0.211756
0
LINE
8
BLACK
6
CONTINUOUS
10
1.1689
20
0.211756
11
1.17095
21
0.215309
0
LINE
8
BLACK
6
CONTINUOUS
10
1.17095
20
0.215309
11
1.17409
21
0.217945
0
LINE
8
BLACK
6
CONTINUOUS
10
1.17409
20
0.217945
11
1.17795
21
0.219348
0
LINE
8
BLACK
6
CONTINUOUS
10
1.17795
20
0.219348
11
1.1805
21
0.219348
0
LINE
8
BLACK
6
CONTINUOUS
10
1.1805
20
0.219348
11
1.20093
21
0.23978
0
LINE
8
BLACK
6
CONTINUOUS
10
1.20093
20
0.23978
11
1.20205
21
0.240483
0
LINE
8
BLACK
6
CONTINUOUS
10
1.20205
20
0.240483
11
1.20308
21
0.241307
0
LINE
8
BLACK
6
CONTINUOUS
10
1.20308
20
0.241307
11
1.20352
21
0.241406
0
LINE
8
BLACK
6
CONTINUOUS
10
1.20352
20
0.241406
11
1.2039
21
0.241645
0
LINE
8
BLACK
6
CONTINUOUS
10
1.2039
20
0.241645
11
1.20521
21
0.241793
0
LINE
8
BLACK
6
CONTINUOUS
10
1.20521
20
0.241793
11
1.2065
21
0.242087
0
LINE
8
BLACK
6
CONTINUOUS
10
1.2065
20
0.242087
11
1.26004
21
0.242087
0
LINE
8
BLACK
6
CONTINUOUS
10
1.26004
20
0.242087
11
1.26133
21
0.241793
0
LINE
8
BLACK
6
CONTINUOUS
10
0.0769813
20
0.0603728
11
0.0786656
21
0.0578217
0
LINE
8
BLACK
6
CONTINUOUS
10
0.0786656
20
0.0578217
11
0.0788488
21
0.0547703
0
LINE
8
BLACK
6
CONTINUOUS
10
0.0788488
20
0.0547703
11
0.0774817
21
0.0520361
0
LINE
8
BLACK
6
CONTINUOUS
10
0.0774817
20
0.0520361
11
0.0749306
21
0.0503518
0
LINE
8
BLACK
6
CONTINUOUS
10
0.0749306
20
0.0503518
11
0.0643455
21
0.0468234
0
LINE
8
BLACK
6
CONTINUOUS
10
0.0643455
20
0.0468234
11
0.0643455
21
0.0309643
0
LINE
8
BLACK
6
CONTINUOUS
10
0.0643455
20
0.0309643
11
0.0749307
21
0.0274359
0
LINE
8
BLACK
6
CONTINUOUS
10
0.0749307
20
0.0274359
11
0.0774817
21
0.0257516
0
LINE
8
BLACK
6
CONTINUOUS
10
0.0774817
20
0.0257516
11
0.0788488
21
0.0230174
0
LINE
8
BLACK
6
CONTINUOUS
10
0.0788488
20
0.0230174
11
0.0786656
21
0.019966
0
LINE
8
BLACK
6
CONTINUOUS
10
0.0786656
20
0.019966
11
0.0769813
21
0.017415
0
LINE
8
BLACK
6
CONTINUOUS
10
0.0769813
20
0.017415
11
0.0742471
21
0.0160479
0
LINE
8
BLACK
6
CONTINUOUS
10
0.0742471
20
0.0160479
11
0.0711957
21
0.016231
0
LINE
8
BLACK
6
CONTINUOUS
10
0.0711957
20
0.016231
11
0.0200146
21
0.0332915
0
LINE
8
BLACK
6
CONTINUOUS
10
0.0200146
20
0.0332915
11
0.0190248
21
0.0339449
0
LINE
8
BLACK
6
CONTINUOUS
10
0.0190248
20
0.0339449
11
0.0179639
21
0.0344754
0
LINE
8
BLACK
6
CONTINUOUS
10
0.0179639
20
0.0344754
11
0.0177649
21
0.0347767
0
LINE
8
BLACK
6
CONTINUOUS
10
0.0177649
20
0.0347767
11
0.0174635
21
0.0349757
0
LINE
8
BLACK
6
CONTINUOUS
10
0.0174635
20
0.0349757
11
0.016933
21
0.0360367
0
LINE
8
BLACK
6
CONTINUOUS
10
0.016933
20
0.0360367
11
0.0162796
21
0.0370264
0
LINE
8
BLACK
6
CONTINUOUS
10
0.0162796
20
0.0370264
11
0.0162579
21
0.0373869
0
LINE
8
BLACK
6
CONTINUOUS
10
0.0162579
20
0.0373869
11
0.0160964
21
0.03771
0
LINE
8
BLACK
6
CONTINUOUS
10
0.0160964
20
0.03771
11
0.0161675
21
0.0388937
0
LINE
8
BLACK
6
CONTINUOUS
10
0.0161675
20
0.0388937
11
0.0160964
21
0.0400778
0
LINE
8
BLACK
6
CONTINUOUS
10
0.0160964
20
0.0400778
11
0.016258
21
0.0404009
0
LINE
8
BLACK
6
CONTINUOUS
10
0.016258
20
0.0404009
11
0.0162796
21
0.0407614
0
LINE
8
BLACK
6
CONTINUOUS
10
0.0162796
20
0.0407614
11
0.0169331
21
0.0417511
0
LINE
8
BLACK
6
CONTINUOUS
10
0.0169331
20
0.0417511
11
0.0174635
21
0.042812
0
LINE
8
BLACK
6
CONTINUOUS
10
0.0174635
20
0.042812
11
0.0177649
21
0.043011
0
LINE
8
BLACK
6
CONTINUOUS
10
0.0177649
20
0.043011
11
0.0179639
21
0.0433124
0
LINE
8
BLACK
6
CONTINUOUS
10
0.0179639
20
0.0433124
11
0.0190248
21
0.0438429
0
LINE
8
BLACK
6
CONTINUOUS
10
0.0190248
20
0.0438429
11
0.0200146
21
0.0444964
0
LINE
8
BLACK
6
CONTINUOUS
10
0.0200146
20
0.0444964
11
0.0711957
21
0.0615567
0
LINE
8
BLACK
6
CONTINUOUS
10
0.0711957
20
0.0615567
11
0.0742471
21
0.0617399
0
LINE
8
BLACK
6
CONTINUOUS
10
0.0742471
20
0.0617399
11
0.0769813
21
0.0603728
0
LINE
8
BLACK
6
CONTINUOUS
10
0.0405569
20
0.0388939
11
0.0525345
21
0.0349013
0
LINE
8
BLACK
6
CONTINUOUS
10
0.0525345
20
0.0349013
11
0.0525345
21
0.0428864
0
LINE
8
BLACK
6
CONTINUOUS
10
0.0525345
20
0.0428864
11
0.0405569
21
0.0388939
0
LINE
8
BLACK
6
CONTINUOUS
10
1.2653
20
0.367224
11
1.26713
21
0.365112
0
LINE
8
BLACK
6
CONTINUOUS
10
1.26713
20
0.365112
11
1.26755
21
0.362521
0
LINE
8
BLACK
6
CONTINUOUS
10
1.26755
20
0.362521
11
1.26748
21
0.361915
0
LINE
8
BLACK
6
CONTINUOUS
10
1.26748
20
0.361915
11
1.26748
21
0.323085
0
LINE
8
BLACK
6
CONTINUOUS
10
1.26748
20
0.323085
11
1.26771
21
0.320923
0
LINE
8
BLACK
6
CONTINUOUS
10
1.26771
20
0.320923
11
1.27151
21
0.317126
0
LINE
8
BLACK
6
CONTINUOUS
10
1.27151
20
0.317126
11
1.46
21
0.317126
0
LINE
8
BLACK
6
CONTINUOUS
10
1.46
20
0.317126
11
1.46
21
0.3225
0
LINE
8
BLACK
6
CONTINUOUS
10
1.46
20
0.3225
11
1.47538
21
0.3225
0
LINE
8
BLACK
6
CONTINUOUS
10
1.47538
20
0.3225
11
1.47575
21
0.322677
0
LINE
8
BLACK
6
CONTINUOUS
10
1.47575
20
0.322677
11
1.47707
21
0.322677
0
LINE
8
BLACK
6
CONTINUOUS
10
1.47707
20
0.322677
11
1.47838
21
0.322825
0
LINE
8
BLACK
6
CONTINUOUS
10
1.47838
20
0.322825
11
1.4788
21
0.322677
0
LINE
8
BLACK
6
CONTINUOUS
10
1.4788
20
0.322677
11
1.47925
21
0.322677
0
LINE
8
BLACK
6
CONTINUOUS
10
1.47925
20
0.322677
11
1.47962
21
0.3225
0
LINE
8
BLACK
6
CONTINUOUS
10
1.47962
20
0.3225
11
1.495
21
0.3225
0
LINE
8
BLACK
6
CONTINUOUS
10
1.495
20
0.3225
11
1.495
21
0.322106
0
LINE
8
BLACK
6
CONTINUOUS
10
1.495
20
0.322106
11
1.49889
21
0.322106
0
LINE
8
BLACK
6
CONTINUOUS
10
1.49889
20
0.322106
11
1.50157
21
0.321319
0
LINE
8
BLACK
6
CONTINUOUS
10
1.50157
20
0.321319
11
1.5024
21
0.320653
0
LINE
8
BLACK
6
CONTINUOUS
10
1.5024
20
0.320653
11
1.51353
21
0.309525
0
LINE
8
BLACK
6
CONTINUOUS
10
1.51353
20
0.309525
11
1.51487
21
0.307072
0
LINE
8
BLACK
6
CONTINUOUS
10
1.51487
20
0.307072
11
1.51498
21
0.306017
0
LINE
8
BLACK
6
CONTINUOUS
10
1.51498
20
0.306017
11
1.51498
21
0.265585
0
LINE
8
BLACK
6
CONTINUOUS
10
1.51498
20
0.265585
11
1.51498
21
0.265584
0
LINE
8
BLACK
6
CONTINUOUS
10
1.51498
20
0.265584
11
1.51509
21
0.264566
0
LINE
8
BLACK
6
CONTINUOUS
10
1.51509
20
0.264566
11
1.51459
21
0.261815
0
LINE
8
BLACK
6
CONTINUOUS
10
1.51459
20
0.261815
11
1.51269
21
0.259769
0
LINE
8
BLACK
6
CONTINUOUS
10
1.51269
20
0.259769
11
1.51016
21
0.259075
0
LINE
8
BLACK
6
CONTINUOUS
10
1.51016
20
0.259075
11
1.5034
21
0.259075
0
LINE
8
BLACK
6
CONTINUOUS
10
1.5034
20
0.259075
11
1.5034
21
0.259075
0
LINE
8
BLACK
6
CONTINUOUS
10
1.5034
20
0.259075
11
1.5034
21
0.259075
0
LINE
8
BLACK
6
CONTINUOUS
10
1.5034
20
0.259075
11
1.50102
21
0.258819
0
LINE
8
BLACK
6
CONTINUOUS
10
1.50102
20
0.258819
11
1.50102
21
0.258818
0
LINE
8
BLACK
6
CONTINUOUS
10
1.50102
20
0.258818
11
1.49562
21
0.256807
0
LINE
8
BLACK
6
CONTINUOUS
10
1.49562
20
0.256807
11
1.49562
21
0.256807
0
LINE
8
BLACK
6
CONTINUOUS
10
1.49562
20
0.256807
11
1.49562
21
0.256807
0
LINE
8
BLACK
6
CONTINUOUS
10
1.49562
20
0.256807
11
1.49462
21
0.256057
0
LINE
8
BLACK
6
CONTINUOUS
10
1.49462
20
0.256057
11
1.49456
21
0.256009
0
LINE
8
BLACK
6
CONTINUOUS
10
1.49456
20
0.256009
11
1.49194
21
0.255032
0
LINE
8
BLACK
6
CONTINUOUS
10
1.49194
20
0.255032
11
1.49158
21
0.25502
0
LINE
8
BLACK
6
CONTINUOUS
10
1.49158
20
0.25502
11
1.48556
21
0.25502
0
LINE
8
BLACK
6
CONTINUOUS
10
1.48556
20
0.25502
11
1.48405
21
0.252408
0
LINE
8
BLACK
6
CONTINUOUS
10
1.48405
20
0.252408
11
1.48091
21
0.249771
0
LINE
8
BLACK
6
CONTINUOUS
10
1.48091
20
0.249771
11
1.47705
21
0.248368
0
LINE
8
BLACK
6
CONTINUOUS
10
1.47705
20
0.248368
11
1.47295
21
0.248368
0
LINE
8
BLACK
6
CONTINUOUS
10
1.47295
20
0.248368
11
1.46909
21
0.249771
0
LINE
8
BLACK
6
CONTINUOUS
10
1.46909
20
0.249771
11
1.46595
21
0.252408
0
LINE
8
BLACK
6
CONTINUOUS
10
1.46595
20
0.252408
11
1.46444
21
0.25502
0
LINE
8
BLACK
6
CONTINUOUS
10
1.46444
20
0.25502
11
1.46248
21
0.25502
0
LINE
8
BLACK
6
CONTINUOUS
10
1.46248
20
0.25502
11
1.4598
21
0.255807
0
LINE
8
BLACK
6
CONTINUOUS
10
1.4598
20
0.255807
11
1.45797
21
0.25792
0
LINE
8
BLACK
6
CONTINUOUS
10
1.45797
20
0.25792
11
1.45752
21
0.25998
0
LINE
8
BLACK
6
CONTINUOUS
10
1.45752
20
0.25998
11
1.45752
21
0.286915
0
LINE
8
BLACK
6
CONTINUOUS
10
1.45752
20
0.286915
11
1.45752
21
0.286915
0
LINE
8
BLACK
6
CONTINUOUS
10
1.45752
20
0.286915
11
1.45726
21
0.289299
0
LINE
8
BLACK
6
CONTINUOUS
10
1.45726
20
0.289299
11
1.45726
21
0.289299
0
LINE
8
BLACK
6
CONTINUOUS
10
1.45726
20
0.289299
11
1.45699
21
0.290041
0
LINE
8
BLACK
6
CONTINUOUS
10
1.45699
20
0.290041
11
1.45525
21
0.294693
0
LINE
8
BLACK
6
CONTINUOUS
10
1.45525
20
0.294693
11
1.4518
21
0.299302
0
LINE
8
BLACK
6
CONTINUOUS
10
1.4518
20
0.299302
11
1.45083
21
0.300032
0
LINE
8
BLACK
6
CONTINUOUS
10
1.45083
20
0.300032
11
1.44949
21
0.301029
0
LINE
8
BLACK
6
CONTINUOUS
10
1.44949
20
0.301029
11
1.44923
21
0.301378
0
LINE
8
BLACK
6
CONTINUOUS
10
1.44923
20
0.301378
11
1.27591
21
0.301378
0
LINE
8
BLACK
6
CONTINUOUS
10
1.27591
20
0.301378
11
1.27551
21
0.301029
0
LINE
8
BLACK
6
CONTINUOUS
10
1.27551
20
0.301029
11
1.27447
21
0.300255
0
LINE
8
BLACK
6
CONTINUOUS
10
1.27447
20
0.300255
11
1.2732
21
0.299302
0
LINE
8
BLACK
6
CONTINUOUS
10
1.2732
20
0.299302
11
1.2732
21
0.299301
0
LINE
8
BLACK
6
CONTINUOUS
10
1.2732
20
0.299301
11
1.27297
21
0.299133
0
LINE
8
BLACK
6
CONTINUOUS
10
1.27297
20
0.299133
11
1.27035
21
0.298156
0
LINE
8
BLACK
6
CONTINUOUS
10
1.27035
20
0.298156
11
1.26762
21
0.29875
0
LINE
8
BLACK
6
CONTINUOUS
10
1.26762
20
0.29875
11
1.26703
21
0.299133
0
LINE
8
BLACK
6
CONTINUOUS
10
1.26703
20
0.299133
11
1.2668
21
0.299301
0
LINE
8
BLACK
6
CONTINUOUS
10
1.2668
20
0.299301
11
1.2668
21
0.299302
0
LINE
8
BLACK
6
CONTINUOUS
10
1.2668
20
0.299302
11
1.26219
21
0.302752
0
LINE
8
BLACK
6
CONTINUOUS
10
1.26219
20
0.302752
11
1.2568
21
0.304763
0
LINE
8
BLACK
6
CONTINUOUS
10
1.2568
20
0.304763
11
1.2568
21
0.304763
0
LINE
8
BLACK
6
CONTINUOUS
10
1.2568
20
0.304763
11
1.2568
21
0.304763
0
LINE
8
BLACK
6
CONTINUOUS
10
1.2568
20
0.304763
11
1.25442
21
0.30502
0
LINE
8
BLACK
6
CONTINUOUS
10
1.25442
20
0.30502
11
1.25442
21
0.30502
0
LINE
8
BLACK
6
CONTINUOUS
10
1.25442
20
0.30502
11
1.25441
21
0.30502
0
LINE
8
BLACK
6
CONTINUOUS
10
1.25441
20
0.30502
11
1.19559
21
0.30502
0
LINE
8
BLACK
6
CONTINUOUS
10
1.19559
20
0.30502
11
1.19558
21
0.30502
0
LINE
8
BLACK
6
CONTINUOUS
10
1.19558
20
0.30502
11
1.19558
21
0.30502
0
LINE
8
BLACK
6
CONTINUOUS
10
1.19558
20
0.30502
11
1.1932
21
0.304763
0
LINE
8
BLACK
6
CONTINUOUS
10
1.1932
20
0.304763
11
1.1932
21
0.304763
0
LINE
8
BLACK
6
CONTINUOUS
10
1.1932
20
0.304763
11
1.19101
21
0.303946
0
LINE
8
BLACK
6
CONTINUOUS
10
1.19101
20
0.303946
11
1.18781
21
0.302752
0
LINE
8
BLACK
6
CONTINUOUS
10
1.18781
20
0.302752
11
1.18781
21
0.302751
0
LINE
8
BLACK
6
CONTINUOUS
10
1.18781
20
0.302751
11
1.18781
21
0.302751
0
LINE
8
BLACK
6
CONTINUOUS
10
1.18781
20
0.302751
11
1.1832
21
0.299302
0
LINE
8
BLACK
6
CONTINUOUS
10
1.1832
20
0.299302
11
1.17975
21
0.294693
0
LINE
8
BLACK
6
CONTINUOUS
10
1.17975
20
0.294693
11
1.17975
21
0.294693
0
LINE
8
BLACK
6
CONTINUOUS
10
1.17975
20
0.294693
11
1.17774
21
0.289299
0
LINE
8
BLACK
6
CONTINUOUS
10
1.17774
20
0.289299
11
1.17774
21
0.289299
0
LINE
8
BLACK
6
CONTINUOUS
10
1.17774
20
0.289299
11
1.17748
21
0.286915
0
LINE
8
BLACK
6
CONTINUOUS
10
1.17748
20
0.286915
11
1.17748
21
0.248085
0
LINE
8
BLACK
6
CONTINUOUS
10
1.17748
20
0.248085
11
1.17748
21
0.248085
0
LINE
8
BLACK
6
CONTINUOUS
10
1.17748
20
0.248085
11
1.17756
21
0.247338
0
LINE
8
BLACK
6
CONTINUOUS
10
1.17756
20
0.247338
11
1.17706
21
0.244587
0
LINE
8
BLACK
6
CONTINUOUS
10
1.17706
20
0.244587
11
1.17614
21
0.2433
0
LINE
8
BLACK
6
CONTINUOUS
10
1.17614
20
0.2433
11
1.17199
21
0.239159
0
LINE
8
BLACK
6
CONTINUOUS
10
1.17199
20
0.239159
11
1.17013
21
0.237985
0
LINE
8
BLACK
6
CONTINUOUS
10
1.17013
20
0.237985
11
1.1661
21
0.236577
0
LINE
8
BLACK
6
CONTINUOUS
10
1.1661
20
0.236577
11
1.1661
21
0.236576
0
LINE
8
BLACK
6
CONTINUOUS
10
1.1661
20
0.236576
11
1.16003
21
0.23276
0
LINE
8
BLACK
6
CONTINUOUS
10
1.16003
20
0.23276
11
1.16003
21
0.23276
0
LINE
8
BLACK
6
CONTINUOUS
10
1.16003
20
0.23276
11
1.15496
21
0.227688
0
LINE
8
BLACK
6
CONTINUOUS
10
1.15496
20
0.227688
11
1.15496
21
0.227688
0
LINE
8
BLACK
6
CONTINUOUS
10
1.15496
20
0.227688
11
1.15114
21
0.221615
0
LINE
8
BLACK
6
CONTINUOUS
10
1.15114
20
0.221615
11
1.15114
21
0.221615
0
LINE
8
BLACK
6
CONTINUOUS
10
1.15114
20
0.221615
11
1.14877
21
0.214844
0
LINE
8
BLACK
6
CONTINUOUS
10
1.14877
20
0.214844
11
1.14797
21
0.207717
0
LINE
8
BLACK
6
CONTINUOUS
10
1.14797
20
0.207717
11
1.14877
21
0.200589
0
LINE
8
BLACK
6
CONTINUOUS
10
1.14877
20
0.200589
11
1.14877
21
0.200589
0
LINE
8
BLACK
6
CONTINUOUS
10
1.14877
20
0.200589
11
1.14877
21
0.200589
0
LINE
8
BLACK
6
CONTINUOUS
10
1.14877
20
0.200589
11
1.15114
21
0.193818
0
LINE
8
BLACK
6
CONTINUOUS
10
1.15114
20
0.193818
11
1.15114
21
0.193818
0
LINE
8
BLACK
6
CONTINUOUS
10
1.15114
20
0.193818
11
1.15135
21
0.19349
0
LINE
8
BLACK
6
CONTINUOUS
10
1.15135
20
0.19349
11
1.15211
21
0.190851
0
LINE
8
BLACK
6
CONTINUOUS
10
1.15211
20
0.190851
11
1.15211
21
0.156666
0
LINE
8
BLACK
6
CONTINUOUS
10
1.15211
20
0.156666
11
1.1521
21
0.156516
0
LINE
8
BLACK
6
CONTINUOUS
10
1.1521
20
0.156516
11
1.15195
21
0.154051
0
LINE
8
BLACK
6
CONTINUOUS
10
1.15195
20
0.154051
11
1.1524
21
0.151622
0
LINE
8
BLACK
6
CONTINUOUS
10
1.1524
20
0.151622
11
1.15242
21
0.151474
0
LINE
8
BLACK
6
CONTINUOUS
10
1.15242
20
0.151474
11
1.15272
21
0.149024
0
LINE
8
BLACK
6
CONTINUOUS
10
1.15272
20
0.149024
11
1.15286
21
0.148648
0
LINE
8
BLACK
6
CONTINUOUS
10
1.15286
20
0.148648
11
1.1531
21
0.147784
0
LINE
8
BLACK
6
CONTINUOUS
10
1.1531
20
0.147784
11
1.15317
21
0.147389
0
LINE
8
BLACK
6
CONTINUOUS
10
1.15317
20
0.147389
11
1.15317
21
0.147388
0
LINE
8
BLACK
6
CONTINUOUS
10
1.15317
20
0.147388
11
1.15419
21
0.145137
0
LINE
8
BLACK
6
CONTINUOUS
10
1.15419
20
0.145137
11
1.15424
21
0.144998
0
LINE
8
BLACK
6
CONTINUOUS
10
1.15424
20
0.144998
11
1.15512
21
0.14269
0
LINE
8
BLACK
6
CONTINUOUS
10
1.15512
20
0.14269
11
1.15535
21
0.142359
0
LINE
8
BLACK
6
CONTINUOUS
10
1.15535
20
0.142359
11
1.15579
21
0.141578
0
LINE
8
BLACK
6
CONTINUOUS
10
1.15579
20
0.141578
11
1.15595
21
0.141212
0
LINE
8
BLACK
6
CONTINUOUS
10
1.15595
20
0.141212
11
1.15595
21
0.141211
0
LINE
8
BLACK
6
CONTINUOUS
10
1.15595
20
0.141211
11
1.15748
21
0.139268
0
LINE
8
BLACK
6
CONTINUOUS
10
1.15748
20
0.139268
11
1.15757
21
0.139147
0
LINE
8
BLACK
6
CONTINUOUS
10
1.15757
20
0.139147
11
1.15897
21
0.137115
0
LINE
8
BLACK
6
CONTINUOUS
10
1.15897
20
0.137115
11
1.16082
21
0.135477
0
LINE
8
BLACK
6
CONTINUOUS
10
1.16082
20
0.135477
11
1.16093
21
0.135375
0
LINE
8
BLACK
6
CONTINUOUS
10
1.16093
20
0.135375
11
1.16179
21
0.134514
0
LINE
8
BLACK
6
CONTINUOUS
10
1.16179
20
0.134514
11
1.16313
21
0.132061
0
LINE
8
BLACK
6
CONTINUOUS
10
1.16313
20
0.132061
11
1.16293
21
0.129273
0
LINE
8
BLACK
6
CONTINUOUS
10
1.16293
20
0.129273
11
1.16225
21
0.128034
0
LINE
8
BLACK
6
CONTINUOUS
10
1.16225
20
0.128034
11
1.16204
21
0.127752
0
LINE
8
BLACK
6
CONTINUOUS
10
1.16204
20
0.127752
11
1.16161
21
0.127174
0
LINE
8
BLACK
6
CONTINUOUS
10
1.16161
20
0.127174
11
1.15937
21
0.125499
0
LINE
8
BLACK
6
CONTINUOUS
10
1.15937
20
0.125499
11
1.15853
21
0.125268
0
LINE
8
BLACK
6
CONTINUOUS
10
1.15853
20
0.125268
11
1.15763
21
0.125102
0
LINE
8
BLACK
6
CONTINUOUS
10
1.15763
20
0.125102
11
1.15748
21
0.12508
0
LINE
8
BLACK
6
CONTINUOUS
10
1.15748
20
0.12508
11
1.15503
21
0.124782
0
LINE
8
BLACK
6
CONTINUOUS
10
1.15503
20
0.124782
11
1.15503
21
0.124782
0
LINE
8
BLACK
6
CONTINUOUS
10
1.15503
20
0.124782
11
1.15465
21
0.12464
0
LINE
8
BLACK
6
CONTINUOUS
10
1.15465
20
0.12464
11
1.15379
21
0.124399
0
LINE
8
BLACK
6
CONTINUOUS
10
1.15379
20
0.124399
11
1.15339
21
0.124326
0
LINE
8
BLACK
6
CONTINUOUS
10
1.15339
20
0.124326
11
1.1512
21
0.123341
0
LINE
8
BLACK
6
CONTINUOUS
10
1.1512
20
0.123341
11
1.15114
21
0.123313
0
LINE
8
BLACK
6
CONTINUOUS
10
1.15114
20
0.123313
11
1.151
21
0.123256
0
LINE
8
BLACK
6
CONTINUOUS
10
1.151
20
0.123256
11
1.14972
21
0.12277
0
LINE
8
BLACK
6
CONTINUOUS
10
1.14972
20
0.12277
11
1.14869
21
0.12238
0
LINE
8
BLACK
6
CONTINUOUS
10
1.14869
20
0.12238
11
1.14869
21
0.12238
0
LINE
8
BLACK
6
CONTINUOUS
10
1.14869
20
0.12238
11
1.14869
21
0.12238
0
LINE
8
BLACK
6
CONTINUOUS
10
1.14869
20
0.12238
11
1.14869
21
0.12238
0
LINE
8
BLACK
6
CONTINUOUS
10
1.14869
20
0.12238
11
1.14869
21
0.12238
0
LINE
8
BLACK
6
CONTINUOUS
10
1.14869
20
0.12238
11
1.14836
21
0.122152
0
LINE
8
BLACK
6
CONTINUOUS
10
1.14836
20
0.122152
11
1.14758
21
0.121711
0
LINE
8
BLACK
6
CONTINUOUS
10
1.14758
20
0.121711
11
1.14722
21
0.121546
0
LINE
8
BLACK
6
CONTINUOUS
10
1.14722
20
0.121546
11
1.14565
21
0.120319
0
LINE
8
BLACK
6
CONTINUOUS
10
1.14565
20
0.120319
11
1.14527
21
0.120023
0
LINE
8
BLACK
6
CONTINUOUS
10
1.14527
20
0.120023
11
1.14515
21
0.119935
0
LINE
8
BLACK
6
CONTINUOUS
10
1.14515
20
0.119935
11
1.14312
21
0.118532
0
LINE
8
BLACK
6
CONTINUOUS
10
1.14312
20
0.118532
11
1.14312
21
0.118532
0
LINE
8
BLACK
6
CONTINUOUS
10
1.14312
20
0.118532
11
1.14148
21
0.116683
0
LINE
8
BLACK
6
CONTINUOUS
10
1.14148
20
0.116683
11
1.14138
21
0.116575
0
LINE
8
BLACK
6
CONTINUOUS
10
1.14138
20
0.116575
11
1.10318
21
0.078372
0
LINE
8
BLACK
6
CONTINUOUS
10
1.10318
20
0.078372
11
1.0688
21
0.0439923
0
LINE
8
BLACK
6
CONTINUOUS
10
1.0688
20
0.0439923
11
1.06634
21
0.0426527
0
LINE
8
BLACK
6
CONTINUOUS
10
1.06634
20
0.0426527
11
1.06529
21
0.0425393
0
LINE
8
BLACK
6
CONTINUOUS
10
1.06529
20
0.0425393
11
0.759946
21
0.0425393
0
LINE
8
BLACK
6
CONTINUOUS
10
0.759946
20
0.0425393
11
0.757264
21
0.0433268
0
LINE
8
BLACK
6
CONTINUOUS
10
0.757264
20
0.0433268
11
0.755434
21
0.0454393
0
LINE
8
BLACK
6
CONTINUOUS
10
0.755434
20
0.0454393
11
0.755027
21
0.0479515
0
LINE
8
BLACK
6
CONTINUOUS
10
0.755027
20
0.0479515
11
0.755013
21
0.0479523
0
LINE
8
BLACK
6
CONTINUOUS
10
0.755013
20
0.0479523
11
0.755016
21
0.0480169
0
LINE
8
BLACK
6
CONTINUOUS
10
0.755016
20
0.0480169
11
0.755014
21
0.0480306
0
LINE
8
BLACK
6
CONTINUOUS
10
0.755014
20
0.0480306
11
0.75502
21
0.0480848
0
LINE
8
BLACK
6
CONTINUOUS
10
0.75502
20
0.0480848
11
0.75502
21
0.0480853
0
LINE
8
BLACK
6
CONTINUOUS
10
0.75502
20
0.0480853
11
0.75502
21
0.111915
0
LINE
8
BLACK
6
CONTINUOUS
10
0.75502
20
0.111915
11
0.75502
21
0.111915
0
LINE
8
BLACK
6
CONTINUOUS
10
0.75502
20
0.111915
11
0.754763
21
0.114299
0
LINE
8
BLACK
6
CONTINUOUS
10
0.754763
20
0.114299
11
0.754763
21
0.114299
0
LINE
8
BLACK
6
CONTINUOUS
10
0.754763
20
0.114299
11
0.753895
21
0.116628
0
LINE
8
BLACK
6
CONTINUOUS
10
0.753895
20
0.116628
11
0.752752
21
0.119693
0
LINE
8
BLACK
6
CONTINUOUS
10
0.752752
20
0.119693
11
0.749302
21
0.124302
0
LINE
8
BLACK
6
CONTINUOUS
10
0.749302
20
0.124302
11
0.74866
21
0.124782
0
LINE
8
BLACK
6
CONTINUOUS
10
0.74866
20
0.124782
11
0.746994
21
0.126029
0
LINE
8
BLACK
6
CONTINUOUS
10
0.746994
20
0.126029
11
0.745319
21
0.128266
0
LINE
8
BLACK
6
CONTINUOUS
10
0.745319
20
0.128266
11
0.74512
21
0.131054
0
LINE
8
BLACK
6
CONTINUOUS
10
0.74512
20
0.131054
11
0.746459
21
0.133508
0
LINE
8
BLACK
6
CONTINUOUS
10
0.746459
20
0.133508
11
0.746994
21
0.133971
0
LINE
8
BLACK
6
CONTINUOUS
10
0.746994
20
0.133971
11
0.749302
21
0.135698
0
LINE
8
BLACK
6
CONTINUOUS
10
0.749302
20
0.135698
11
0.752751
21
0.140307
0
LINE
8
BLACK
6
CONTINUOUS
10
0.752751
20
0.140307
11
0.752752
21
0.140307
0
LINE
8
BLACK
6
CONTINUOUS
10
0.752752
20
0.140307
11
0.753089
21
0.141211
0
LINE
8
BLACK
6
CONTINUOUS
10
0.753089
20
0.141211
11
0.754501
21
0.144998
0
LINE
8
BLACK
6
CONTINUOUS
10
0.754501
20
0.144998
11
0.754763
21
0.145701
0
LINE
8
BLACK
6
CONTINUOUS
10
0.754763
20
0.145701
11
0.754763
21
0.145701
0
LINE
8
BLACK
6
CONTINUOUS
10
0.754763
20
0.145701
11
0.75502
21
0.148085
0
LINE
8
BLACK
6
CONTINUOUS
10
0.75502
20
0.148085
11
0.75502
21
0.148085
0
LINE
8
BLACK
6
CONTINUOUS
10
0.75502
20
0.148085
11
0.75502
21
0.211915
0
LINE
8
BLACK
6
CONTINUOUS
10
0.75502
20
0.211915
11
0.75502
21
0.211915
0
LINE
8
BLACK
6
CONTINUOUS
10
0.75502
20
0.211915
11
0.754763
21
0.214299
0
LINE
8
BLACK
6
CONTINUOUS
10
0.754763
20
0.214299
11
0.754763
21
0.214299
0
LINE
8
BLACK
6
CONTINUOUS
10
0.754763
20
0.214299
11
0.75418
21
0.215862
0
LINE
8
BLACK
6
CONTINUOUS
10
0.75418
20
0.215862
11
0.752752
21
0.219693
0
LINE
8
BLACK
6
CONTINUOUS
10
0.752752
20
0.219693
11
0.749302
21
0.224302
0
LINE
8
BLACK
6
CONTINUOUS
10
0.749302
20
0.224302
11
0.744778
21
0.227688
0
LINE
8
BLACK
6
CONTINUOUS
10
0.744778
20
0.227688
11
0.744693
21
0.227751
0
LINE
8
BLACK
6
CONTINUOUS
10
0.744693
20
0.227751
11
0.744693
21
0.227751
0
LINE
8
BLACK
6
CONTINUOUS
10
0.744693
20
0.227751
11
0.744693
21
0.227752
0
LINE
8
BLACK
6
CONTINUOUS
10
0.744693
20
0.227752
11
0.739299
21
0.229763
0
LINE
8
BLACK
6
CONTINUOUS
10
0.739299
20
0.229763
11
0.739299
21
0.229763
0
LINE
8
BLACK
6
CONTINUOUS
10
0.739299
20
0.229763
11
0.739299
21
0.229763
0
LINE
8
BLACK
6
CONTINUOUS
10
0.739299
20
0.229763
11
0.736915
21
0.23002
0
LINE
8
BLACK
6
CONTINUOUS
10
0.736915
20
0.23002
11
0.736915
21
0.23002
0
LINE
8
BLACK
6
CONTINUOUS
10
0.736915
20
0.23002
11
0.736915
21
0.23002
0
LINE
8
BLACK
6
CONTINUOUS
10
0.736915
20
0.23002
11
0.673085
21
0.23002
0
LINE
8
BLACK
6
CONTINUOUS
10
0.673085
20
0.23002
11
0.673085
21
0.23002
0
LINE
8
BLACK
6
CONTINUOUS
10
0.673085
20
0.23002
11
0.673085
21
0.23002
0
LINE
8
BLACK
6
CONTINUOUS
10
0.673085
20
0.23002
11
0.670701
21
0.229763
0
LINE
8
BLACK
6
CONTINUOUS
10
0.670701
20
0.229763
11
0.670701
21
0.229763
0
LINE
8
BLACK
6
CONTINUOUS
10
0.670701
20
0.229763
11
0.667633
21
0.228619
0
LINE
8
BLACK
6
CONTINUOUS
10
0.667633
20
0.228619
11
0.665307
21
0.227752
0
LINE
8
BLACK
6
CONTINUOUS
10
0.665307
20
0.227752
11
0.665307
21
0.227751
0
LINE
8
BLACK
6
CONTINUOUS
10
0.665307
20
0.227751
11
0.665307
21
0.227751
0
LINE
8
BLACK
6
CONTINUOUS
10
0.665307
20
0.227751
11
0.660698
21
0.224302
0
LINE
8
BLACK
6
CONTINUOUS
10
0.660698
20
0.224302
11
0.658971
21
0.221994
0
LINE
8
BLACK
6
CONTINUOUS
10
0.658971
20
0.221994
11
0.656734
21
0.220319
0
LINE
8
BLACK
6
CONTINUOUS
10
0.656734
20
0.220319
11
0.653946
21
0.22012
0
LINE
8
BLACK
6
CONTINUOUS
10
0.653946
20
0.22012
11
0.651492
21
0.221459
0
LINE
8
BLACK
6
CONTINUOUS
10
0.651492
20
0.221459
11
0.651029
21
0.221994
0
LINE
8
BLACK
6
CONTINUOUS
10
0.651029
20
0.221994
11
0.649302
21
0.224302
0
LINE
8
BLACK
6
CONTINUOUS
10
0.649302
20
0.224302
11
0.644693
21
0.227751
0
LINE
8
BLACK
6
CONTINUOUS
10
0.644693
20
0.227751
11
0.644693
21
0.227751
0
LINE
8
BLACK
6
CONTINUOUS
10
0.644693
20
0.227751
11
0.644693
21
0.227752
0
LINE
8
BLACK
6
CONTINUOUS
10
0.644693
20
0.227752
11
0.639299
21
0.229763
0
LINE
8
BLACK
6
CONTINUOUS
10
0.639299
20
0.229763
11
0.639299
21
0.229763
0
LINE
8
BLACK
6
CONTINUOUS
10
0.639299
20
0.229763
11
0.639299
21
0.229763
0
LINE
8
BLACK
6
CONTINUOUS
10
0.639299
20
0.229763
11
0.638172
21
0.229884
0
LINE
8
BLACK
6
CONTINUOUS
10
0.638172
20
0.229884
11
0.637324
21
0.229976
0
LINE
8
BLACK
6
CONTINUOUS
10
0.637324
20
0.229976
11
0.634742
21
0.231045
0
LINE
8
BLACK
6
CONTINUOUS
10
0.634742
20
0.231045
11
0.633148
21
0.233341
0
LINE
8
BLACK
6
CONTINUOUS
10
0.633148
20
0.233341
11
0.632894
21
0.234908
0
LINE
8
BLACK
6
CONTINUOUS
10
0.632894
20
0.234908
11
0.632894
21
0.239384
0
LINE
8
BLACK
6
CONTINUOUS
10
0.632894
20
0.239384
11
0.633681
21
0.242066
0
LINE
8
BLACK
6
CONTINUOUS
10
0.633681
20
0.242066
11
0.633883
21
0.242357
0
LINE
8
BLACK
6
CONTINUOUS
10
0.633883
20
0.242357
11
0.637251
21
0.246857
0
LINE
8
BLACK
6
CONTINUOUS
10
0.637251
20
0.246857
11
0.637252
21
0.246857
0
LINE
8
BLACK
6
CONTINUOUS
10
0.637252
20
0.246857
11
0.63771
21
0.248085
0
LINE
8
BLACK
6
CONTINUOUS
10
0.63771
20
0.248085
11
0.638119
21
0.249183
0
LINE
8
BLACK
6
CONTINUOUS
10
0.638119
20
0.249183
11
0.639263
21
0.252251
0
LINE
8
BLACK
6
CONTINUOUS
10
0.639263
20
0.252251
11
0.639263
21
0.252251
0
LINE
8
BLACK
6
CONTINUOUS
10
0.639263
20
0.252251
11
0.63952
21
0.254635
0
LINE
8
BLACK
6
CONTINUOUS
10
0.63952
20
0.254635
11
0.63952
21
0.254635
0
LINE
8
BLACK
6
CONTINUOUS
10
0.63952
20
0.254635
11
0.63952
21
0.325365
0
LINE
8
BLACK
6
CONTINUOUS
10
0.63952
20
0.325365
11
0.63952
21
0.325365
0
LINE
8
BLACK
6
CONTINUOUS
10
0.63952
20
0.325365
11
0.639263
21
0.327749
0
LINE
8
BLACK
6
CONTINUOUS
10
0.639263
20
0.327749
11
0.639263
21
0.327749
0
LINE
8
BLACK
6
CONTINUOUS
10
0.639263
20
0.327749
11
0.638934
21
0.328633
0
LINE
8
BLACK
6
CONTINUOUS
10
0.638934
20
0.328633
11
0.637252
21
0.333143
0
LINE
8
BLACK
6
CONTINUOUS
10
0.637252
20
0.333143
11
0.633802
21
0.337752
0
LINE
8
BLACK
6
CONTINUOUS
10
0.633802
20
0.337752
11
0.629193
21
0.341202
0
LINE
8
BLACK
6
CONTINUOUS
10
0.629193
20
0.341202
11
0.623799
21
0.343213
0
LINE
8
BLACK
6
CONTINUOUS
10
0.623799
20
0.343213
11
0.623799
21
0.343213
0
LINE
8
BLACK
6
CONTINUOUS
10
0.623799
20
0.343213
11
0.623799
21
0.343213
0
LINE
8
BLACK
6
CONTINUOUS
10
0.623799
20
0.343213
11
0.621415
21
0.34347
0
LINE
8
BLACK
6
CONTINUOUS
10
0.621415
20
0.34347
11
0.621415
21
0.34347
0
LINE
8
BLACK
6
CONTINUOUS
10
0.621415
20
0.34347
11
0.621415
21
0.34347
0
LINE
8
BLACK
6
CONTINUOUS
10
0.621415
20
0.34347
11
0.566385
21
0.34347
0
LINE
8
BLACK
6
CONTINUOUS
10
0.566385
20
0.34347
11
0.566385
21
0.34347
0
LINE
8
BLACK
6
CONTINUOUS
10
0.566385
20
0.34347
11
0.566385
21
0.34347
0
LINE
8
BLACK
6
CONTINUOUS
10
0.566385
20
0.34347
11
0.564001
21
0.343213
0
LINE
8
BLACK
6
CONTINUOUS
10
0.564001
20
0.343213
11
0.564001
21
0.343213
0
LINE
8
BLACK
6
CONTINUOUS
10
0.564001
20
0.343213
11
0.559919
21
0.341691
0
LINE
8
BLACK
6
CONTINUOUS
10
0.559919
20
0.341691
11
0.557131
21
0.341491
0
LINE
8
BLACK
6
CONTINUOUS
10
0.557131
20
0.341491
11
0.554677
21
0.342831
0
LINE
8
BLACK
6
CONTINUOUS
10
0.554677
20
0.342831
11
0.553985
21
0.343699
0
LINE
8
BLACK
6
CONTINUOUS
10
0.553985
20
0.343699
11
0.550044
21
0.349972
0
LINE
8
BLACK
6
CONTINUOUS
10
0.550044
20
0.349972
11
0.550044
21
0.349972
0
LINE
8
BLACK
6
CONTINUOUS
10
0.550044
20
0.349972
11
0.544972
21
0.355044
0
LINE
8
BLACK
6
CONTINUOUS
10
0.544972
20
0.355044
11
0.544972
21
0.355044
0
LINE
8
BLACK
6
CONTINUOUS
10
0.544972
20
0.355044
11
0.538913
21
0.358851
0
LINE
8
BLACK
6
CONTINUOUS
10
0.538913
20
0.358851
11
0.537061
21
0.360945
0
LINE
8
BLACK
6
CONTINUOUS
10
0.537061
20
0.360945
11
0.536635
21
0.363707
0
LINE
8
BLACK
6
CONTINUOUS
10
0.536635
20
0.363707
11
0.53777
21
0.366261
0
LINE
8
BLACK
6
CONTINUOUS
10
0.53777
20
0.366261
11
0.540106
21
0.367796
0
LINE
8
BLACK
6
CONTINUOUS
10
0.540106
20
0.367796
11
0.541552
21
0.368012
0
LINE
8
BLACK
6
CONTINUOUS
10
0.541552
20
0.368012
11
1.26261
21
0.368012
0
LINE
8
BLACK
6
CONTINUOUS
10
1.26261
20
0.368012
11
1.2653
21
0.367224
0
LINE
8
BLACK
6
CONTINUOUS
10
0.530906
20
0.340229
11
0.534048
21
0.337592
0
LINE
8
BLACK
6
CONTINUOUS
10
0.534048
20
0.337592
11
0.536099
21
0.33404
0
LINE
8
BLACK
6
CONTINUOUS
10
0.536099
20
0.33404
11
0.536811
21
0.33
0
LINE
8
BLACK
6
CONTINUOUS
10
0.536811
20
0.33
11
0.536099
21
0.32596
0
LINE
8
BLACK
6
CONTINUOUS
10
0.536099
20
0.32596
11
0.534048
21
0.322408
0
LINE
8
BLACK
6
CONTINUOUS
10
0.534048
20
0.322408
11
0.530906
21
0.319771
0
LINE
8
BLACK
6
CONTINUOUS
10
0.530906
20
0.319771
11
0.527051
21
0.318368
0
LINE
8
BLACK
6
CONTINUOUS
10
0.527051
20
0.318368
11
0.524504
21
0.318368
0
LINE
8
BLACK
6
CONTINUOUS
10
0.524504
20
0.318368
11
0.512874
21
0.306738
0
LINE
8
BLACK
6
CONTINUOUS
10
0.512874
20
0.306738
11
0.512874
21
0.21
0
LINE
8
BLACK
6
CONTINUOUS
10
0.512874
20
0.21
11
0.535
21
0.21
0
LINE
8
BLACK
6
CONTINUOUS
10
0.535
20
0.21
11
0.535
21
0.15
0
LINE
8
BLACK
6
CONTINUOUS
10
0.535
20
0.15
11
0.512874
21
0.15
0
LINE
8
BLACK
6
CONTINUOUS
10
0.512874
20
0.15
11
0.512874
21
0.11
0
LINE
8
BLACK
6
CONTINUOUS
10
0.512874
20
0.11
11
0.535
21
0.11
0
LINE
8
BLACK
6
CONTINUOUS
10
0.535
20
0.11
11
0.535
21
0.05
0
LINE
8
BLACK
6
CONTINUOUS
10
0.535
20
0.05
11
0.475
21
0.05
0
LINE
8
BLACK
6
CONTINUOUS
10
0.475
20
0.05
11
0.475
21
0.11
0
LINE
8
BLACK
6
CONTINUOUS
10
0.475
20
0.11
11
0.497126
21
0.11
0
LINE
8
BLACK
6
CONTINUOUS
10
0.497126
20
0.11
11
0.497126
21
0.15
0
LINE
8
BLACK
6
CONTINUOUS
10
0.497126
20
0.15
11
0.475
21
0.15
0
LINE
8
BLACK
6
CONTINUOUS
10
0.475
20
0.15
11
0.475
21
0.21
0
LINE
8
BLACK
6
CONTINUOUS
10
0.475
20
0.21
11
0.497126
21
0.21
0
LINE
8
BLACK
6
CONTINUOUS
10
0.497126
20
0.21
11
0.497126
21
0.31
0
LINE
8
BLACK
6
CONTINUOUS
10
0.497126
20
0.31
11
0.49742
21
0.311288
0
LINE
8
BLACK
6
CONTINUOUS
10
0.49742
20
0.311288
11
0.497568
21
0.312601
0
LINE
8
BLACK
6
CONTINUOUS
10
0.497568
20
0.312601
11
0.497806
21
0.31298
0
LINE
8
BLACK
6
CONTINUOUS
10
0.497806
20
0.31298
11
0.497906
21
0.313416
0
LINE
8
BLACK
6
CONTINUOUS
10
0.497906
20
0.313416
11
0.498729
21
0.314449
0
LINE
8
BLACK
6
CONTINUOUS
10
0.498729
20
0.314449
11
0.499432
21
0.315568
0
LINE
8
BLACK
6
CONTINUOUS
10
0.499432
20
0.315568
11
0.51329
21
0.329426
0
LINE
8
BLACK
6
CONTINUOUS
10
0.51329
20
0.329426
11
0.513189
21
0.33
0
LINE
8
BLACK
6
CONTINUOUS
10
0.513189
20
0.33
11
0.513901
21
0.33404
0
LINE
8
BLACK
6
CONTINUOUS
10
0.513901
20
0.33404
11
0.515952
21
0.337592
0
LINE
8
BLACK
6
CONTINUOUS
10
0.515952
20
0.337592
11
0.519094
21
0.340229
0
LINE
8
BLACK
6
CONTINUOUS
10
0.519094
20
0.340229
11
0.522949
21
0.341632
0
LINE
8
BLACK
6
CONTINUOUS
10
0.522949
20
0.341632
11
0.527051
21
0.341632
0
LINE
8
BLACK
6
CONTINUOUS
10
0.527051
20
0.341632
11
0.530906
21
0.340229
0
LINE
8
BLACK
6
CONTINUOUS
10
0.6195
20
0.25655
11
0.612874
21
0.25655
0
LINE
8
BLACK
6
CONTINUOUS
10
0.612874
20
0.25655
11
0.612874
21
0.21
0
LINE
8
BLACK
6
CONTINUOUS
10
0.612874
20
0.21
11
0.635
21
0.21
0
LINE
8
BLACK
6
CONTINUOUS
10
0.635
20
0.21
11
0.635
21
0.15
0
LINE
8
BLACK
6
CONTINUOUS
10
0.635
20
0.15
11
0.612874
21
0.15
0
LINE
8
BLACK
6
CONTINUOUS
10
0.612874
20
0.15
11
0.612874
21
0.11
0
LINE
8
BLACK
6
CONTINUOUS
10
0.612874
20
0.11
11
0.635
21
0.11
0
LINE
8
BLACK
6
CONTINUOUS
10
0.635
20
0.11
11
0.635
21
0.05
0
LINE
8
BLACK
6
CONTINUOUS
10
0.635
20
0.05
11
0.575
21
0.05
0
LINE
8
BLACK
6
CONTINUOUS
10
0.575
20
0.05
11
0.575
21
0.11
0
LINE
8
BLACK
6
CONTINUOUS
10
0.575
20
0.11
11
0.597126
21
0.11
0
LINE
8
BLACK
6
CONTINUOUS
10
0.597126
20
0.11
11
0.597126
21
0.15
0
LINE
8
BLACK
6
CONTINUOUS
10
0.597126
20
0.15
11
0.575
21
0.15
0
LINE
8
BLACK
6
CONTINUOUS
10
0.575
20
0.15
11
0.575
21
0.21
0
LINE
8
BLACK
6
CONTINUOUS
10
0.575
20
0.21
11
0.597126
21
0.21
0
LINE
8
BLACK
6
CONTINUOUS
10
0.597126
20
0.21
11
0.597126
21
0.25655
0
LINE
8
BLACK
6
CONTINUOUS
10
0.597126
20
0.25655
11
0.5683
21
0.25655
0
LINE
8
BLACK
6
CONTINUOUS
10
0.5683
20
0.25655
11
0.5683
21
0.32345
0
LINE
8
BLACK
6
CONTINUOUS
10
0.5683
20
0.32345
11
0.6195
21
0.32345
0
LINE
8
BLACK
6
CONTINUOUS
10
0.6195
20
0.32345
11
0.6195
21
0.25655
0
LINE
8
BLACK
6
CONTINUOUS
10
1.4325
20
0.107894
11
1.43536
21
0.107894
0
LINE
8
BLACK
6
CONTINUOUS
10
1.43536
20
0.107894
11
1.43747
21
0.107355
0
LINE
8
BLACK
6
CONTINUOUS
10
1.43747
20
0.107355
11
1.43747
21
0.107372
0
LINE
8
BLACK
6
CONTINUOUS
10
1.43747
20
0.107372
11
1.43763
21
0.107313
0
LINE
8
BLACK
6
CONTINUOUS
10
1.43763
20
0.107313
11
1.43774
21
0.107287
0
LINE
8
BLACK
6
CONTINUOUS
10
1.43774
20
0.107287
11
1.43781
21
0.107248
0
LINE
8
BLACK
6
CONTINUOUS
10
1.43781
20
0.107248
11
1.4432
21
0.105237
0
LINE
8
BLACK
6
CONTINUOUS
10
1.4432
20
0.105237
11
1.4432
21
0.105237
0
LINE
8
BLACK
6
CONTINUOUS
10
1.4432
20
0.105237
11
1.44558
21
0.10498
0
LINE
8
BLACK
6
CONTINUOUS
10
1.44558
20
0.10498
11
1.44559
21
0.10498
0
LINE
8
BLACK
6
CONTINUOUS
10
1.44559
20
0.10498
11
1.49158
21
0.10498
0
LINE
8
BLACK
6
CONTINUOUS
10
1.49158
20
0.10498
11
1.49427
21
0.104193
0
LINE
8
BLACK
6
CONTINUOUS
10
1.49427
20
0.104193
11
1.49456
21
0.103991
0
LINE
8
BLACK
6
CONTINUOUS
10
1.49456
20
0.103991
11
1.49562
21
0.103193
0
LINE
8
BLACK
6
CONTINUOUS
10
1.49562
20
0.103193
11
1.49562
21
0.103193
0
LINE
8
BLACK
6
CONTINUOUS
10
1.49562
20
0.103193
11
1.50102
21
0.101182
0
LINE
8
BLACK
6
CONTINUOUS
10
1.50102
20
0.101182
11
1.50102
21
0.101181
0
LINE
8
BLACK
6
CONTINUOUS
10
1.50102
20
0.101181
11
1.5034
21
0.100925
0
LINE
8
BLACK
6
CONTINUOUS
10
1.5034
20
0.100925
11
1.5034
21
0.100925
0
LINE
8
BLACK
6
CONTINUOUS
10
1.5034
20
0.100925
11
1.52758
21
0.100925
0
LINE
8
BLACK
6
CONTINUOUS
10
1.52758
20
0.100925
11
1.53026
21
0.100138
0
LINE
8
BLACK
6
CONTINUOUS
10
1.53026
20
0.100138
11
1.53209
21
0.0980253
0
LINE
8
BLACK
6
CONTINUOUS
10
1.53209
20
0.0980253
11
1.53254
21
0.0959646
0
LINE
8
BLACK
6
CONTINUOUS
10
1.53254
20
0.0959646
11
1.53254
21
0.0732543
0
LINE
8
BLACK
6
CONTINUOUS
10
1.53254
20
0.0732543
11
1.53175
21
0.0705723
0
LINE
8
BLACK
6
CONTINUOUS
10
1.53175
20
0.0705723
11
1.53109
21
0.0697469
0
LINE
8
BLACK
6
CONTINUOUS
10
1.53109
20
0.0697469
11
1.51319
21
0.0518465
0
LINE
8
BLACK
6
CONTINUOUS
10
1.51319
20
0.0518465
11
1.51073
21
0.050507
0
LINE
8
BLACK
6
CONTINUOUS
10
1.51073
20
0.050507
11
1.50968
21
0.0503937
0
LINE
8
BLACK
6
CONTINUOUS
10
1.50968
20
0.0503937
11
1.45221
21
0.0503937
0
LINE
8
BLACK
6
CONTINUOUS
10
1.45221
20
0.0503937
11
1.44953
21
0.0511812
0
LINE
8
BLACK
6
CONTINUOUS
10
1.44953
20
0.0511812
11
1.44824
21
0.0523815
0
LINE
8
BLACK
6
CONTINUOUS
10
1.44824
20
0.0523815
11
1.4468
21
0.0543016
0
LINE
8
BLACK
6
CONTINUOUS
10
1.4468
20
0.0543016
11
1.44219
21
0.0577515
0
LINE
8
BLACK
6
CONTINUOUS
10
1.44219
20
0.0577515
11
1.44219
21
0.0577515
0
LINE
8
BLACK
6
CONTINUOUS
10
1.44219
20
0.0577515
11
1.44219
21
0.0577515
0
LINE
8
BLACK
6
CONTINUOUS
10
1.44219
20
0.0577515
11
1.43754
21
0.0594866
0
LINE
8
BLACK
6
CONTINUOUS
10
1.43754
20
0.0594866
11
1.4368
21
0.0597633
0
LINE
8
BLACK
6
CONTINUOUS
10
1.4368
20
0.0597633
11
1.4368
21
0.0597633
0
LINE
8
BLACK
6
CONTINUOUS
10
1.4368
20
0.0597633
11
1.4368
21
0.0597633
0
LINE
8
BLACK
6
CONTINUOUS
10
1.4368
20
0.0597633
11
1.4368
21
0.0597633
0
LINE
8
BLACK
6
CONTINUOUS
10
1.4368
20
0.0597633
11
1.4368
21
0.0597634
0
LINE
8
BLACK
6
CONTINUOUS
10
1.4368
20
0.0597634
11
1.43442
21
0.0600196
0
LINE
8
BLACK
6
CONTINUOUS
10
1.43442
20
0.0600196
11
1.43442
21
0.0600196
0
LINE
8
BLACK
6
CONTINUOUS
10
1.43442
20
0.0600196
11
1.43441
21
0.0600197
0
LINE
8
BLACK
6
CONTINUOUS
10
1.43441
20
0.0600197
11
1.37559
21
0.0600197
0
LINE
8
BLACK
6
CONTINUOUS
10
1.37559
20
0.0600197
11
1.37558
21
0.0600196
0
LINE
8
BLACK
6
CONTINUOUS
10
1.37558
20
0.0600196
11
1.37558
21
0.0600196
0
LINE
8
BLACK
6
CONTINUOUS
10
1.37558
20
0.0600196
11
1.37289
21
0.0597302
0
LINE
8
BLACK
6
CONTINUOUS
10
1.37289
20
0.0597302
11
1.37288
21
0.059819
0
LINE
8
BLACK
6
CONTINUOUS
10
1.37288
20
0.059819
11
1.37054
21
0.0599441
0
LINE
8
BLACK
6
CONTINUOUS
10
1.37054
20
0.0599441
11
1.36828
21
0.0615787
0
LINE
8
BLACK
6
CONTINUOUS
10
1.36828
20
0.0615787
11
1.36725
21
0.0641796
0
LINE
8
BLACK
6
CONTINUOUS
10
1.36725
20
0.0641796
11
1.3678
21
0.0669211
0
LINE
8
BLACK
6
CONTINUOUS
10
1.3678
20
0.0669211
11
1.36822
21
0.0675952
0
LINE
8
BLACK
6
CONTINUOUS
10
1.36822
20
0.0675952
11
1.37025
21
0.0703068
0
LINE
8
BLACK
6
CONTINUOUS
10
1.37025
20
0.0703068
11
1.37025
21
0.070307
0
LINE
8
BLACK
6
CONTINUOUS
10
1.37025
20
0.070307
11
1.37039
21
0.0706737
0
LINE
8
BLACK
6
CONTINUOUS
10
1.37039
20
0.0706737
11
1.37226
21
0.0757007
0
LINE
8
BLACK
6
CONTINUOUS
10
1.37226
20
0.0757007
11
1.37226
21
0.0757009
0
LINE
8
BLACK
6
CONTINUOUS
10
1.37226
20
0.0757009
11
1.37252
21
0.0780846
0
LINE
8
BLACK
6
CONTINUOUS
10
1.37252
20
0.0780846
11
1.37252
21
0.0780853
0
LINE
8
BLACK
6
CONTINUOUS
10
1.37252
20
0.0780853
11
1.37252
21
0.102933
0
LINE
8
BLACK
6
CONTINUOUS
10
1.37252
20
0.102933
11
1.37331
21
0.105615
0
LINE
8
BLACK
6
CONTINUOUS
10
1.37331
20
0.105615
11
1.37542
21
0.107445
0
LINE
8
BLACK
6
CONTINUOUS
10
1.37542
20
0.107445
11
1.37748
21
0.107894
0
LINE
8
BLACK
6
CONTINUOUS
10
1.37748
20
0.107894
11
1.3775
21
0.107894
0
LINE
8
BLACK
6
CONTINUOUS
10
1.3775
20
0.107894
11
1.3775
21
0.115
0
LINE
8
BLACK
6
CONTINUOUS
10
1.3775
20
0.115
11
1.4325
21
0.115
0
LINE
8
BLACK
6
CONTINUOUS
10
1.4325
20
0.115
11
1.4325
21
0.107894
0
LINE
8
BLACK
6
CONTINUOUS
10
0.0760159
20
0.104938
11
0.0781775
21
0.102776
0
LINE
8
BLACK
6
CONTINUOUS
10
0.0781775
20
0.102776
11
0.0789687
21
0.0998237
0
LINE
8
BLACK
6
CONTINUOUS
10
0.0789687
20
0.0998237
11
0.0789687
21
0.0705774
0
LINE
8
BLACK
6
CONTINUOUS
10
0.0789687
20
0.0705774
11
0.0781775
21
0.0676246
0
LINE
8
BLACK
6
CONTINUOUS
10
0.0781775
20
0.0676246
11
0.0760159
21
0.0654631
0
LINE
8
BLACK
6
CONTINUOUS
10
0.0760159
20
0.0654631
11
0.0730631
21
0.0646719
0
LINE
8
BLACK
6
CONTINUOUS
10
0.0730631
20
0.0646719
11
0.0701104
21
0.0654631
0
LINE
8
BLACK
6
CONTINUOUS
10
0.0701104
20
0.0654631
11
0.0679488
21
0.0676246
0
LINE
8
BLACK
6
CONTINUOUS
10
0.0679488
20
0.0676246
11
0.0671576
21
0.0705774
0
LINE
8
BLACK
6
CONTINUOUS
10
0.0671576
20
0.0705774
11
0.0671576
21
0.0792951
0
LINE
8
BLACK
6
CONTINUOUS
10
0.0671576
20
0.0792951
11
0.021882
21
0.0792951
0
LINE
8
BLACK
6
CONTINUOUS
10
0.021882
20
0.0792951
11
0.0205831
21
0.0796431
0
LINE
8
BLACK
6
CONTINUOUS
10
0.0205831
20
0.0796431
11
0.0192645
21
0.0799069
0
LINE
8
BLACK
6
CONTINUOUS
10
0.0192645
20
0.0799069
11
0.0191179
21
0.0800357
0
LINE
8
BLACK
6
CONTINUOUS
10
0.0191179
20
0.0800357
11
0.0189293
21
0.0800863
0
LINE
8
BLACK
6
CONTINUOUS
10
0.0189293
20
0.0800863
11
0.0179785
21
0.081037
0
LINE
8
BLACK
6
CONTINUOUS
10
0.0179785
20
0.081037
11
0.0169683
21
0.0819248
0
LINE
8
BLACK
6
CONTINUOUS
10
0.0169683
20
0.0819248
11
0.0169057
21
0.0821098
0
LINE
8
BLACK
6
CONTINUOUS
10
0.0169057
20
0.0821098
11
0.0167677
21
0.0822478
0
LINE
8
BLACK
6
CONTINUOUS
10
0.0167677
20
0.0822478
11
0.0164196
21
0.0835468
0
LINE
8
BLACK
6
CONTINUOUS
10
0.0164196
20
0.0835468
11
0.0159888
21
0.0848206
0
LINE
8
BLACK
6
CONTINUOUS
10
0.0159888
20
0.0848206
11
0.016027
21
0.085012
0
LINE
8
BLACK
6
CONTINUOUS
10
0.016027
20
0.085012
11
0.0159765
21
0.0852006
0
LINE
8
BLACK
6
CONTINUOUS
10
0.0159765
20
0.0852006
11
0.0163246
21
0.0864995
0
LINE
8
BLACK
6
CONTINUOUS
10
0.0163246
20
0.0864995
11
0.0165883
21
0.0878181
0
LINE
8
BLACK
6
CONTINUOUS
10
0.0165883
20
0.0878181
11
0.0167172
21
0.0879647
0
LINE
8
BLACK
6
CONTINUOUS
10
0.0167172
20
0.0879647
11
0.0167677
21
0.0881533
0
LINE
8
BLACK
6
CONTINUOUS
10
0.0167677
20
0.0881533
11
0.0177185
21
0.0891041
0
LINE
8
BLACK
6
CONTINUOUS
10
0.0177185
20
0.0891041
11
0.0186063
21
0.0901143
0
LINE
8
BLACK
6
CONTINUOUS
10
0.0186063
20
0.0901143
11
0.0254313
21
0.0946643
0
LINE
8
BLACK
6
CONTINUOUS
10
0.0254313
20
0.0946643
11
0.0292145
21
0.0984475
0
LINE
8
BLACK
6
CONTINUOUS
10
0.0292145
20
0.0984475
11
0.0312232
21
0.102465
0
LINE
8
BLACK
6
CONTINUOUS
10
0.0312232
20
0.102465
11
0.0332514
21
0.104752
0
LINE
8
BLACK
6
CONTINUOUS
10
0.0332514
20
0.104752
11
0.0361514
21
0.105719
0
LINE
8
BLACK
6
CONTINUOUS
10
0.0361514
20
0.105719
11
0.0391463
21
0.105106
0
LINE
8
BLACK
6
CONTINUOUS
10
0.0391463
20
0.105106
11
0.0414335
21
0.103078
0
LINE
8
BLACK
6
CONTINUOUS
10
0.0414335
20
0.103078
11
0.0424002
21
0.100178
0
LINE
8
BLACK
6
CONTINUOUS
10
0.0424002
20
0.100178
11
0.0417873
21
0.0971827
0
LINE
8
BLACK
6
CONTINUOUS
10
0.0417873
20
0.0971827
11
0.0393501
21
0.0923083
0
LINE
8
BLACK
6
CONTINUOUS
10
0.0393501
20
0.0923083
11
0.0387193
21
0.0915969
0
LINE
8
BLACK
6
CONTINUOUS
10
0.0387193
20
0.0915969
11
0.0384359
21
0.0911061
0
LINE
8
BLACK
6
CONTINUOUS
10
0.0384359
20
0.0911061
11
0.0671576
21
0.0911061
0
LINE
8
BLACK
6
CONTINUOUS
10
0.0671576
20
0.0911061
11
0.0671576
21
0.0998237
0
LINE
8
BLACK
6
CONTINUOUS
10
0.0671576
20
0.0998237
11
0.0679488
21
0.102776
0
LINE
8
BLACK
6
CONTINUOUS
10
0.0679488
20
0.102776
11
0.0701104
21
0.104938
0
LINE
8
BLACK
6
CONTINUOUS
10
0.0701104
20
0.104938
11
0.0730631
21
0.105729
0
LINE
8
BLACK
6
CONTINUOUS
10
0.0730631
20
0.105729
11
0.0760159
21
0.104938
0
LINE
8
BLACK
6
CONTINUOUS
10
1.24469
20
0.192874
11
1.29547
21
0.192874
0
LINE
8
BLACK
6
CONTINUOUS
10
1.29547
20
0.192874
11
1.31516
21
0.192874
0
LINE
8
BLACK
6
CONTINUOUS
10
1.31516
20
0.192874
11
1.31516
21
0.177126
0
LINE
8
BLACK
6
CONTINUOUS
10
1.31516
20
0.177126
11
1.27579
21
0.177126
0
LINE
8
BLACK
6
CONTINUOUS
10
1.27579
20
0.177126
11
1.24469
21
0.177126
0
LINE
8
BLACK
6
CONTINUOUS
10
1.24469
20
0.177126
11
1.24469
21
0.165315
0
LINE
8
BLACK
6
CONTINUOUS
10
1.24469
20
0.165315
11
1.23287
21
0.165315
0
LINE
8
BLACK
6
CONTINUOUS
10
1.23287
20
0.165315
11
1.23287
21
0.152828
0
LINE
8
BLACK
6
CONTINUOUS
10
1.23287
20
0.152828
11
1.28033
21
0.105374
0
LINE
8
BLACK
6
CONTINUOUS
10
1.28033
20
0.105374
11
1.2975
21
0.105374
0
LINE
8
BLACK
6
CONTINUOUS
10
1.2975
20
0.105374
11
1.2975
21
0.115
0
LINE
8
BLACK
6
CONTINUOUS
10
1.2975
20
0.115
11
1.3525
21
0.115
0
LINE
8
BLACK
6
CONTINUOUS
10
1.3525
20
0.115
11
1.3525
21
0.08
0
LINE
8
BLACK
6
CONTINUOUS
10
1.3525
20
0.08
11
1.2975
21
0.08
0
LINE
8
BLACK
6
CONTINUOUS
10
1.2975
20
0.08
11
1.2975
21
0.089626
0
LINE
8
BLACK
6
CONTINUOUS
10
1.2975
20
0.089626
11
1.27707
21
0.089626
0
LINE
8
BLACK
6
CONTINUOUS
10
1.27707
20
0.089626
11
1.27578
21
0.0899199
0
LINE
8
BLACK
6
CONTINUOUS
10
1.27578
20
0.0899199
11
1.27447
21
0.0900678
0
LINE
8
BLACK
6
CONTINUOUS
10
1.27447
20
0.0900678
11
1.27409
21
0.0903061
0
LINE
8
BLACK
6
CONTINUOUS
10
1.27409
20
0.0903061
11
1.27365
21
0.0904057
0
LINE
8
BLACK
6
CONTINUOUS
10
1.27365
20
0.0904057
11
1.27262
21
0.0912294
0
LINE
8
BLACK
6
CONTINUOUS
10
1.27262
20
0.0912294
11
1.2715
21
0.0919322
0
LINE
8
BLACK
6
CONTINUOUS
10
1.2715
20
0.0919322
11
1.21943
21
0.143999
0
LINE
8
BLACK
6
CONTINUOUS
10
1.21943
20
0.143999
11
1.21873
21
0.145118
0
LINE
8
BLACK
6
CONTINUOUS
10
1.21873
20
0.145118
11
1.21791
21
0.146151
0
LINE
8
BLACK
6
CONTINUOUS
10
1.21791
20
0.146151
11
1.21781
21
0.146587
0
LINE
8
BLACK
6
CONTINUOUS
10
1.21781
20
0.146587
11
1.21757
21
0.146966
0
LINE
8
BLACK
6
CONTINUOUS
10
1.21757
20
0.146966
11
1.21742
21
0.148279
0
LINE
8
BLACK
6
CONTINUOUS
10
1.21742
20
0.148279
11
1.21713
21
0.149567
0
LINE
8
BLACK
6
CONTINUOUS
10
1.21713
20
0.149567
11
1.21713
21
0.165315
0
LINE
8
BLACK
6
CONTINUOUS
10
1.21713
20
0.165315
11
1.20531
21
0.165315
0
LINE
8
BLACK
6
CONTINUOUS
10
1.20531
20
0.165315
11
1.20531
21
0.204685
0
LINE
8
BLACK
6
CONTINUOUS
10
1.20531
20
0.204685
11
1.24469
21
0.204685
0
LINE
8
BLACK
6
CONTINUOUS
10
1.24469
20
0.204685
11
1.24469
21
0.192874
0
LINE
8
BLACK
6
CONTINUOUS
10
0.0542694
20
0.154285
11
0.0549979
21
0.154297
0
LINE
8
BLACK
6
CONTINUOUS
10
0.0549979
20
0.154297
11
0.0647467
21
0.15186
0
LINE
8
BLACK
6
CONTINUOUS
10
0.0647467
20
0.15186
11
0.0653166
21
0.151543
0
LINE
8
BLACK
6
CONTINUOUS
10
0.0653166
20
0.151543
11
0.0659554
21
0.151413
0
LINE
8
BLACK
6
CONTINUOUS
10
0.0659554
20
0.151413
11
0.0708298
21
0.148975
0
LINE
8
BLACK
6
CONTINUOUS
10
0.0708298
20
0.148975
11
0.0715412
21
0.148344
0
LINE
8
BLACK
6
CONTINUOUS
10
0.0715412
20
0.148344
11
0.0723646
21
0.147869
0
LINE
8
BLACK
6
CONTINUOUS
10
0.0723646
20
0.147869
11
0.0748018
21
0.145432
0
LINE
8
BLACK
6
CONTINUOUS
10
0.0748018
20
0.145432
11
0.0752772
21
0.144608
0
LINE
8
BLACK
6
CONTINUOUS
10
0.0752772
20
0.144608
11
0.075908
21
0.143897
0
LINE
8
BLACK
6
CONTINUOUS
10
0.075908
20
0.143897
11
0.0783452
21
0.139023
0
LINE
8
BLACK
6
CONTINUOUS
10
0.0783452
20
0.139023
11
0.0786172
21
0.137693
0
LINE
8
BLACK
6
CONTINUOUS
10
0.0786172
20
0.137693
11
0.0789687
21
0.136382
0
LINE
8
BLACK
6
CONTINUOUS
10
0.0789687
20
0.136382
11
0.0789687
21
0.131507
0
LINE
8
BLACK
6
CONTINUOUS
10
0.0789687
20
0.131507
11
0.0786172
21
0.130196
0
LINE
8
BLACK
6
CONTINUOUS
10
0.0786172
20
0.130196
11
0.0783452
21
0.128866
0
LINE
8
BLACK
6
CONTINUOUS
10
0.0783452
20
0.128866
11
0.075908
21
0.123992
0
LINE
8
BLACK
6
CONTINUOUS
10
0.075908
20
0.123992
11
0.0752772
21
0.12328
0
LINE
8
BLACK
6
CONTINUOUS
10
0.0752772
20
0.12328
11
0.0748018
21
0.122457
0
LINE
8
BLACK
6
CONTINUOUS
10
0.0748018
20
0.122457
11
0.0723646
21
0.12002
0
LINE
8
BLACK
6
CONTINUOUS
10
0.0723646
20
0.12002
11
0.0715412
21
0.119544
0
LINE
8
BLACK
6
CONTINUOUS
10
0.0715412
20
0.119544
11
0.0708298
21
0.118914
0
LINE
8
BLACK
6
CONTINUOUS
10
0.0708298
20
0.118914
11
0.0659554
21
0.116476
0
LINE
8
BLACK
6
CONTINUOUS
10
0.0659554
20
0.116476
11
0.0653167
21
0.116346
0
LINE
8
BLACK
6
CONTINUOUS
10
0.0653167
20
0.116346
11
0.0647467
21
0.116029
0
LINE
8
BLACK
6
CONTINUOUS
10
0.0647467
20
0.116029
11
0.0549979
21
0.113592
0
LINE
8
BLACK
6
CONTINUOUS
10
0.0549979
20
0.113592
11
0.0542694
21
0.113604
0
LINE
8
BLACK
6
CONTINUOUS
10
0.0542694
20
0.113604
11
0.0535656
21
0.113416
0
LINE
8
BLACK
6
CONTINUOUS
10
0.0535656
20
0.113416
11
0.0413796
21
0.113416
0
LINE
8
BLACK
6
CONTINUOUS
10
0.0413796
20
0.113416
11
0.0406758
21
0.113604
0
LINE
8
BLACK
6
CONTINUOUS
10
0.0406758
20
0.113604
11
0.0399473
21
0.113592
0
LINE
8
BLACK
6
CONTINUOUS
10
0.0399473
20
0.113592
11
0.0301985
21
0.116029
0
LINE
8
BLACK
6
CONTINUOUS
10
0.0301985
20
0.116029
11
0.0296285
21
0.116346
0
LINE
8
BLACK
6
CONTINUOUS
10
0.0296285
20
0.116346
11
0.0289898
21
0.116476
0
LINE
8
BLACK
6
CONTINUOUS
10
0.0289898
20
0.116476
11
0.0241154
21
0.118914
0
LINE
8
BLACK
6
CONTINUOUS
10
0.0241154
20
0.118914
11
0.0234041
21
0.119544
0
LINE
8
BLACK
6
CONTINUOUS
10
0.0234041
20
0.119544
11
0.0225806
21
0.12002
0
LINE
8
BLACK
6
CONTINUOUS
10
0.0225806
20
0.12002
11
0.0201434
21
0.122457
0
LINE
8
BLACK
6
CONTINUOUS
10
0.0201434
20
0.122457
11
0.019668
21
0.12328
0
LINE
8
BLACK
6
CONTINUOUS
10
0.019668
20
0.12328
11
0.0190372
21
0.123992
0
LINE
8
BLACK
6
CONTINUOUS
10
0.0190372
20
0.123992
11
0.0166
21
0.128866
0
LINE
8
BLACK
6
CONTINUOUS
10
0.0166
20
0.128866
11
0.0163278
21
0.130196
0
LINE
8
BLACK
6
CONTINUOUS
10
0.0163278
20
0.130196
11
0.0159765
21
0.131507
0
LINE
8
BLACK
6
CONTINUOUS
10
0.0159765
20
0.131507
11
0.0159765
21
0.136382
0
LINE
8
BLACK
6
CONTINUOUS
10
0.0159765
20
0.136382
11
0.0163278
21
0.137693
0
LINE
8
BLACK
6
CONTINUOUS
10
0.0163278
20
0.137693
11
0.0166
21
0.139023
0
LINE
8
BLACK
6
CONTINUOUS
10
0.0166
20
0.139023
11
0.0190372
21
0.143897
0
LINE
8
BLACK
6
CONTINUOUS
10
0.0190372
20
0.143897
11
0.019668
21
0.144609
0
LINE
8
BLACK
6
CONTINUOUS
10
0.019668
20
0.144609
11
0.0201434
21
0.145432
0
LINE
8
BLACK
6
CONTINUOUS
10
0.0201434
20
0.145432
11
0.0225806
21
0.147869
0
LINE
8
BLACK
6
CONTINUOUS
10
0.0225806
20
0.147869
11
0.0234041
21
0.148344
0
LINE
8
BLACK
6
CONTINUOUS
10
0.0234041
20
0.148344
11
0.0241154
21
0.148975
0
LINE
8
BLACK
6
CONTINUOUS
10
0.0241154
20
0.148975
11
0.0289898
21
0.151413
0
LINE
8
BLACK
6
CONTINUOUS
10
0.0289898
20
0.151413
11
0.0296285
21
0.151543
0
LINE
8
BLACK
6
CONTINUOUS
10
0.0296285
20
0.151543
11
0.0301985
21
0.15186
0
LINE
8
BLACK
6
CONTINUOUS
10
0.0301985
20
0.15186
11
0.0399473
21
0.154297
0
LINE
8
BLACK
6
CONTINUOUS
10
0.0399473
20
0.154297
11
0.0406759
21
0.154285
0
LINE
8
BLACK
6
CONTINUOUS
10
0.0406759
20
0.154285
11
0.0413796
21
0.154473
0
LINE
8
BLACK
6
CONTINUOUS
10
0.0413796
20
0.154473
11
0.0535656
21
0.154473
0
LINE
8
BLACK
6
CONTINUOUS
10
0.0535656
20
0.154473
11
0.0542694
21
0.154285
0
LINE
8
BLACK
6
CONTINUOUS
10
0.0336921
20
0.140559
11
0.0302546
21
0.13884
0
LINE
8
BLACK
6
CONTINUOUS
10
0.0302546
20
0.13884
11
0.0291727
21
0.137758
0
LINE
8
BLACK
6
CONTINUOUS
10
0.0291727
20
0.137758
11
0.0277876
21
0.134988
0
LINE
8
BLACK
6
CONTINUOUS
10
0.0277876
20
0.134988
11
0.0277876
21
0.132901
0
LINE
8
BLACK
6
CONTINUOUS
10
0.0277876
20
0.132901
11
0.0291727
21
0.130131
0
LINE
8
BLACK
6
CONTINUOUS
10
0.0291727
20
0.130131
11
0.0302546
21
0.129049
0
LINE
8
BLACK
6
CONTINUOUS
10
0.0302546
20
0.129049
11
0.0336922
21
0.12733
0
LINE
8
BLACK
6
CONTINUOUS
10
0.0336922
20
0.12733
11
0.0421066
21
0.125227
0
LINE
8
BLACK
6
CONTINUOUS
10
0.0421066
20
0.125227
11
0.0528387
21
0.125227
0
LINE
8
BLACK
6
CONTINUOUS
10
0.0528387
20
0.125227
11
0.0612531
21
0.12733
0
LINE
8
BLACK
6
CONTINUOUS
10
0.0612531
20
0.12733
11
0.0646906
21
0.129049
0
LINE
8
BLACK
6
CONTINUOUS
10
0.0646906
20
0.129049
11
0.0657725
21
0.130131
0
LINE
8
BLACK
6
CONTINUOUS
10
0.0657725
20
0.130131
11
0.0671576
21
0.132901
0
LINE
8
BLACK
6
CONTINUOUS
10
0.0671576
20
0.132901
11
0.0671576
21
0.134988
0
LINE
8
BLACK
6
CONTINUOUS
10
0.0671576
20
0.134988
11
0.0657725
21
0.137758
0
LINE
8
BLACK
6
CONTINUOUS
10
0.0657725
20
0.137758
11
0.0646906
21
0.13884
0
LINE
8
BLACK
6
CONTINUOUS
10
0.0646906
20
0.13884
11
0.0612532
21
0.140558
0
LINE
8
BLACK
6
CONTINUOUS
10
0.0612532
20
0.140558
11
0.0528387
21
0.142662
0
LINE
8
BLACK
6
CONTINUOUS
10
0.0528387
20
0.142662
11
0.0421065
21
0.142662
0
LINE
8
BLACK
6
CONTINUOUS
10
0.0421065
20
0.142662
11
0.0336921
21
0.140559
0
LINE
8
BLACK
6
CONTINUOUS
10
1.31516
20
0.151535
11
1.30335
21
0.151535
0
LINE
8
BLACK
6
CONTINUOUS
10
1.30335
20
0.151535
11
1.30335
21
0.143661
0
LINE
8
BLACK
6
CONTINUOUS
10
1.30335
20
0.143661
11
1.4475
21
0.143661
0
LINE
8
BLACK
6
CONTINUOUS
10
1.4475
20
0.143661
11
1.4475
21
0.16
0
LINE
8
BLACK
6
CONTINUOUS
10
1.4475
20
0.16
11
1.5025
21
0.16
0
LINE
8
BLACK
6
CONTINUOUS
10
1.5025
20
0.16
11
1.5025
21
0.148504
0
LINE
8
BLACK
6
CONTINUOUS
10
1.5025
20
0.148504
11
1.50531
21
0.148504
0
LINE
8
BLACK
6
CONTINUOUS
10
1.50531
20
0.148504
11
1.50531
21
0.160315
0
LINE
8
BLACK
6
CONTINUOUS
10
1.50531
20
0.160315
11
1.54469
21
0.160315
0
LINE
8
BLACK
6
CONTINUOUS
10
1.54469
20
0.160315
11
1.54469
21
0.120945
0
LINE
8
BLACK
6
CONTINUOUS
10
1.54469
20
0.120945
11
1.50531
21
0.120945
0
LINE
8
BLACK
6
CONTINUOUS
10
1.50531
20
0.120945
11
1.50531
21
0.132756
0
LINE
8
BLACK
6
CONTINUOUS
10
1.50531
20
0.132756
11
1.5025
21
0.132756
0
LINE
8
BLACK
6
CONTINUOUS
10
1.5025
20
0.132756
11
1.5025
21
0.125
0
LINE
8
BLACK
6
CONTINUOUS
10
1.5025
20
0.125
11
1.4475
21
0.125
0
LINE
8
BLACK
6
CONTINUOUS
10
1.4475
20
0.125
11
1.4475
21
0.127913
0
LINE
8
BLACK
6
CONTINUOUS
10
1.4475
20
0.127913
11
1.29547
21
0.127913
0
LINE
8
BLACK
6
CONTINUOUS
10
1.29547
20
0.127913
11
1.29461
21
0.128111
0
LINE
8
BLACK
6
CONTINUOUS
10
1.29461
20
0.128111
11
1.29372
21
0.128111
0
LINE
8
BLACK
6
CONTINUOUS
10
1.29372
20
0.128111
11
1.29292
21
0.128496
0
LINE
8
BLACK
6
CONTINUOUS
10
1.29292
20
0.128496
11
1.29206
21
0.128693
0
LINE
8
BLACK
6
CONTINUOUS
10
1.29206
20
0.128693
11
1.29136
21
0.129246
0
LINE
8
BLACK
6
CONTINUOUS
10
1.29136
20
0.129246
11
1.29056
21
0.129631
0
LINE
8
BLACK
6
CONTINUOUS
10
1.29056
20
0.129631
11
1.29001
21
0.130325
0
LINE
8
BLACK
6
CONTINUOUS
10
1.29001
20
0.130325
11
1.28932
21
0.130878
0
LINE
8
BLACK
6
CONTINUOUS
10
1.28932
20
0.130878
11
1.28893
21
0.131677
0
LINE
8
BLACK
6
CONTINUOUS
10
1.28893
20
0.131677
11
1.28838
21
0.132371
0
LINE
8
BLACK
6
CONTINUOUS
10
1.28838
20
0.132371
11
1.28818
21
0.133236
0
LINE
8
BLACK
6
CONTINUOUS
10
1.28818
20
0.133236
11
1.2878
21
0.134035
0
LINE
8
BLACK
6
CONTINUOUS
10
1.2878
20
0.134035
11
1.2878
21
0.134922
0
LINE
8
BLACK
6
CONTINUOUS
10
1.2878
20
0.134922
11
1.2876
21
0.135787
0
LINE
8
BLACK
6
CONTINUOUS
10
1.2876
20
0.135787
11
1.2876
21
0.151535
0
LINE
8
BLACK
6
CONTINUOUS
10
1.2876
20
0.151535
11
1.27579
21
0.151535
0
LINE
8
BLACK
6
CONTINUOUS
10
1.27579
20
0.151535
11
1.27579
21
0.167283
0
LINE
8
BLACK
6
CONTINUOUS
10
1.27579
20
0.167283
11
1.31516
21
0.167283
0
LINE
8
BLACK
6
CONTINUOUS
10
1.31516
20
0.167283
11
1.31516
21
0.151535
0
LINE
8
BLACK
6
CONTINUOUS
10
1.42591
20
0.185229
11
1.42793
21
0.183526
0
LINE
8
BLACK
6
CONTINUOUS
10
1.42793
20
0.183526
11
1.42839
21
0.183983
0
LINE
8
BLACK
6
CONTINUOUS
10
1.42839
20
0.183983
11
1.43084
21
0.185322
0
LINE
8
BLACK
6
CONTINUOUS
10
1.43084
20
0.185322
11
1.43363
21
0.185123
0
LINE
8
BLACK
6
CONTINUOUS
10
1.43363
20
0.185123
11
1.43487
21
0.184446
0
LINE
8
BLACK
6
CONTINUOUS
10
1.43487
20
0.184446
11
1.43551
21
0.183971
0
LINE
8
BLACK
6
CONTINUOUS
10
1.43551
20
0.183971
11
1.43718
21
0.181734
0
LINE
8
BLACK
6
CONTINUOUS
10
1.43718
20
0.181734
11
1.43738
21
0.178946
0
LINE
8
BLACK
6
CONTINUOUS
10
1.43738
20
0.178946
11
1.43604
21
0.176492
0
LINE
8
BLACK
6
CONTINUOUS
10
1.43604
20
0.176492
11
1.43551
21
0.176029
0
LINE
8
BLACK
6
CONTINUOUS
10
1.43551
20
0.176029
11
1.4332
21
0.174302
0
LINE
8
BLACK
6
CONTINUOUS
10
1.4332
20
0.174302
11
1.43122
21
0.171662
0
LINE
8
BLACK
6
CONTINUOUS
10
1.43122
20
0.171662
11
1.4311
21
0.17096
0
LINE
8
BLACK
6
CONTINUOUS
10
1.4311
20
0.17096
11
1.42905
21
0.167408
0
LINE
8
BLACK
6
CONTINUOUS
10
1.42905
20
0.167408
11
1.42883
21
0.167223
0
LINE
8
BLACK
6
CONTINUOUS
10
1.42883
20
0.167223
11
1.42871
21
0.166908
0
LINE
8
BLACK
6
CONTINUOUS
10
1.42871
20
0.166908
11
1.42703
21
0.164671
0
LINE
8
BLACK
6
CONTINUOUS
10
1.42703
20
0.164671
11
1.42442
21
0.163694
0
LINE
8
BLACK
6
CONTINUOUS
10
1.42442
20
0.163694
11
1.42406
21
0.163681
0
LINE
8
BLACK
6
CONTINUOUS
10
1.42406
20
0.163681
11
1.42291
21
0.163681
0
LINE
8
BLACK
6
CONTINUOUS
10
1.42291
20
0.163681
11
1.42205
21
0.163368
0
LINE
8
BLACK
6
CONTINUOUS
10
1.42205
20
0.163368
11
1.4195
21
0.163368
0
LINE
8
BLACK
6
CONTINUOUS
10
1.4195
20
0.163368
11
1.40998
21
0.153842
0
LINE
8
BLACK
6
CONTINUOUS
10
1.40998
20
0.153842
11
1.40886
21
0.153139
0
LINE
8
BLACK
6
CONTINUOUS
10
1.40886
20
0.153139
11
1.40783
21
0.152315
0
LINE
8
BLACK
6
CONTINUOUS
10
1.40783
20
0.152315
11
1.40739
21
0.152216
0
LINE
8
BLACK
6
CONTINUOUS
10
1.40739
20
0.152216
11
1.40701
21
0.151977
0
LINE
8
BLACK
6
CONTINUOUS
10
1.40701
20
0.151977
11
1.4057
21
0.151829
0
LINE
8
BLACK
6
CONTINUOUS
10
1.4057
20
0.151829
11
1.40441
21
0.151535
0
LINE
8
BLACK
6
CONTINUOUS
10
1.40441
20
0.151535
11
1.35453
21
0.151535
0
LINE
8
BLACK
6
CONTINUOUS
10
1.35453
20
0.151535
11
1.33484
21
0.151535
0
LINE
8
BLACK
6
CONTINUOUS
10
1.33484
20
0.151535
11
1.33484
21
0.167283
0
LINE
8
BLACK
6
CONTINUOUS
10
1.33484
20
0.167283
11
1.37421
21
0.167283
0
LINE
8
BLACK
6
CONTINUOUS
10
1.37421
20
0.167283
11
1.40115
21
0.167283
0
LINE
8
BLACK
6
CONTINUOUS
10
1.40115
20
0.167283
11
1.40829
21
0.174426
0
LINE
8
BLACK
6
CONTINUOUS
10
1.40829
20
0.174426
11
1.40819
21
0.175
0
LINE
8
BLACK
6
CONTINUOUS
10
1.40819
20
0.175
11
1.4089
21
0.17904
0
LINE
8
BLACK
6
CONTINUOUS
10
1.4089
20
0.17904
11
1.41095
21
0.182592
0
LINE
8
BLACK
6
CONTINUOUS
10
1.41095
20
0.182592
11
1.41409
21
0.185229
0
LINE
8
BLACK
6
CONTINUOUS
10
1.41409
20
0.185229
11
1.41795
21
0.186632
0
LINE
8
BLACK
6
CONTINUOUS
10
1.41795
20
0.186632
11
1.42205
21
0.186632
0
LINE
8
BLACK
6
CONTINUOUS
10
1.42205
20
0.186632
11
1.42591
21
0.185229
0
LINE
8
BLACK
6
CONTINUOUS
10
0.0518322
20
0.205466
11
0.0525607
21
0.205478
0
LINE
8
BLACK
6
CONTINUOUS
10
0.0525607
20
0.205478
11
0.0623094
21
0.203041
0
LINE
8
BLACK
6
CONTINUOUS
10
0.0623094
20
0.203041
11
0.0628794
21
0.202724
0
LINE
8
BLACK
6
CONTINUOUS
10
0.0628794
20
0.202724
11
0.0635182
21
0.202594
0
LINE
8
BLACK
6
CONTINUOUS
10
0.0635182
20
0.202594
11
0.0683926
21
0.200156
0
LINE
8
BLACK
6
CONTINUOUS
10
0.0683926
20
0.200156
11
0.069104
21
0.199526
0
LINE
8
BLACK
6
CONTINUOUS
10
0.069104
20
0.199526
11
0.0699274
21
0.19905
0
LINE
8
BLACK
6
CONTINUOUS
10
0.0699274
20
0.19905
11
0.0748018
21
0.194176
0
LINE
8
BLACK
6
CONTINUOUS
10
0.0748018
20
0.194176
11
0.0754804
21
0.193
0
LINE
8
BLACK
6
CONTINUOUS
10
0.0754804
20
0.193
11
0.0762285
21
0.191867
0
LINE
8
BLACK
6
CONTINUOUS
10
0.0762285
20
0.191867
11
0.0786656
21
0.184556
0
LINE
8
BLACK
6
CONTINUOUS
10
0.0786656
20
0.184556
11
0.0787226
21
0.183607
0
LINE
8
BLACK
6
CONTINUOUS
10
0.0787226
20
0.183607
11
0.0789687
21
0.182688
0
LINE
8
BLACK
6
CONTINUOUS
10
0.0789687
20
0.182688
11
0.0789687
21
0.177814
0
LINE
8
BLACK
6
CONTINUOUS
10
0.0789687
20
0.177814
11
0.0787226
21
0.176896
0
LINE
8
BLACK
6
CONTINUOUS
10
0.0787226
20
0.176896
11
0.0786656
21
0.175947
0
LINE
8
BLACK
6
CONTINUOUS
10
0.0786656
20
0.175947
11
0.0762285
21
0.168635
0
LINE
8
BLACK
6
CONTINUOUS
10
0.0762285
20
0.168635
11
0.0754806
21
0.167502
0
LINE
8
BLACK
6
CONTINUOUS
10
0.0754806
20
0.167502
11
0.0748018
21
0.166327
0
LINE
8
BLACK
6
CONTINUOUS
10
0.0748018
20
0.166327
11
0.0723646
21
0.163889
0
LINE
8
BLACK
6
CONTINUOUS
10
0.0723646
20
0.163889
11
0.0697172
21
0.162361
0
LINE
8
BLACK
6
CONTINUOUS
10
0.0697172
20
0.162361
11
0.0666603
21
0.162361
0
LINE
8
BLACK
6
CONTINUOUS
10
0.0666603
20
0.162361
11
0.0640129
21
0.163889
0
LINE
8
BLACK
6
CONTINUOUS
10
0.0640129
20
0.163889
11
0.0624845
21
0.166537
0
LINE
8
BLACK
6
CONTINUOUS
10
0.0624845
20
0.166537
11
0.0624845
21
0.169594
0
LINE
8
BLACK
6
CONTINUOUS
10
0.0624845
20
0.169594
11
0.064013
21
0.172241
0
LINE
8
BLACK
6
CONTINUOUS
10
0.064013
20
0.172241
11
0.0654643
21
0.173692
0
LINE
8
BLACK
6
CONTINUOUS
10
0.0654643
20
0.173692
11
0.0671576
21
0.178772
0
LINE
8
BLACK
6
CONTINUOUS
10
0.0671576
20
0.178772
11
0.0671576
21
0.18173
0
LINE
8
BLACK
6
CONTINUOUS
10
0.0671576
20
0.18173
11
0.0654643
21
0.18681
0
LINE
8
BLACK
6
CONTINUOUS
10
0.0654643
20
0.18681
11
0.0622534
21
0.190021
0
LINE
8
BLACK
6
CONTINUOUS
10
0.0622534
20
0.190021
11
0.058816
21
0.19174
0
LINE
8
BLACK
6
CONTINUOUS
10
0.058816
20
0.19174
11
0.0504015
21
0.193843
0
LINE
8
BLACK
6
CONTINUOUS
10
0.0504015
20
0.193843
11
0.0445437
21
0.193843
0
LINE
8
BLACK
6
CONTINUOUS
10
0.0445437
20
0.193843
11
0.0361293
21
0.19174
0
LINE
8
BLACK
6
CONTINUOUS
10
0.0361293
20
0.19174
11
0.0326918
21
0.190021
0
LINE
8
BLACK
6
CONTINUOUS
10
0.0326918
20
0.190021
11
0.0294808
21
0.18681
0
LINE
8
BLACK
6
CONTINUOUS
10
0.0294808
20
0.18681
11
0.0277876
21
0.18173
0
LINE
8
BLACK
6
CONTINUOUS
10
0.0277876
20
0.18173
11
0.0277876
21
0.178772
0
LINE
8
BLACK
6
CONTINUOUS
10
0.0277876
20
0.178772
11
0.0294809
21
0.173692
0
LINE
8
BLACK
6
CONTINUOUS
10
0.0294809
20
0.173692
11
0.0309322
21
0.172241
0
LINE
8
BLACK
6
CONTINUOUS
10
0.0309322
20
0.172241
11
0.0324607
21
0.169594
0
LINE
8
BLACK
6
CONTINUOUS
10
0.0324607
20
0.169594
11
0.0324607
21
0.166537
0
LINE
8
BLACK
6
CONTINUOUS
10
0.0324607
20
0.166537
11
0.0309323
21
0.163889
0
LINE
8
BLACK
6
CONTINUOUS
10
0.0309323
20
0.163889
11
0.028285
21
0.162361
0
LINE
8
BLACK
6
CONTINUOUS
10
0.028285
20
0.162361
11
0.025228
21
0.162361
0
LINE
8
BLACK
6
CONTINUOUS
10
0.025228
20
0.162361
11
0.0225807
21
0.163889
0
LINE
8
BLACK
6
CONTINUOUS
10
0.0225807
20
0.163889
11
0.0201435
21
0.166327
0
LINE
8
BLACK
6
CONTINUOUS
10
0.0201435
20
0.166327
11
0.0194647
21
0.167502
0
LINE
8
BLACK
6
CONTINUOUS
10
0.0194647
20
0.167502
11
0.0187168
21
0.168635
0
LINE
8
BLACK
6
CONTINUOUS
10
0.0187168
20
0.168635
11
0.0162796
21
0.175947
0
LINE
8
BLACK
6
CONTINUOUS
10
0.0162796
20
0.175947
11
0.0162226
21
0.176896
0
LINE
8
BLACK
6
CONTINUOUS
10
0.0162226
20
0.176896
11
0.0159765
21
0.177814
0
LINE
8
BLACK
6
CONTINUOUS
10
0.0159765
20
0.177814
11
0.0159765
21
0.182688
0
LINE
8
BLACK
6
CONTINUOUS
10
0.0159765
20
0.182688
11
0.0162226
21
0.183607
0
LINE
8
BLACK
6
CONTINUOUS
10
0.0162226
20
0.183607
11
0.0162796
21
0.184556
0
LINE
8
BLACK
6
CONTINUOUS
10
0.0162796
20
0.184556
11
0.0187168
21
0.191867
0
LINE
8
BLACK
6
CONTINUOUS
10
0.0187168
20
0.191867
11
0.0194646
21
0.193
0
LINE
8
BLACK
6
CONTINUOUS
10
0.0194646
20
0.193
11
0.0201434
21
0.194176
0
LINE
8
BLACK
6
CONTINUOUS
10
0.0201434
20
0.194176
11
0.0250178
21
0.19905
0
LINE
8
BLACK
6
CONTINUOUS
10
0.0250178
20
0.19905
11
0.0258413
21
0.199526
0
LINE
8
BLACK
6
CONTINUOUS
10
0.0258413
20
0.199526
11
0.0265526
21
0.200156
0
LINE
8
BLACK
6
CONTINUOUS
10
0.0265526
20
0.200156
11
0.031427
21
0.202594
0
LINE
8
BLACK
6
CONTINUOUS
10
0.031427
20
0.202594
11
0.0320657
21
0.202724
0
LINE
8
BLACK
6
CONTINUOUS
10
0.0320657
20
0.202724
11
0.0326357
21
0.203041
0
LINE
8
BLACK
6
CONTINUOUS
10
0.0326357
20
0.203041
11
0.0423845
21
0.205478
0
LINE
8
BLACK
6
CONTINUOUS
10
0.0423845
20
0.205478
11
0.0431131
21
0.205466
0
LINE
8
BLACK
6
CONTINUOUS
10
0.0431131
20
0.205466
11
0.0438168
21
0.205654
0
LINE
8
BLACK
6
CONTINUOUS
10
0.0438168
20
0.205654
11
0.0511284
21
0.205654
0
LINE
8
BLACK
6
CONTINUOUS
10
0.0511284
20
0.205654
11
0.0518322
21
0.205466
0
LINE
8
BLACK
6
CONTINUOUS
10
1.37091
20
0.285229
11
1.37405
21
0.282592
0
LINE
8
BLACK
6
CONTINUOUS
10
1.37405
20
0.282592
11
1.3761
21
0.27904
0
LINE
8
BLACK
6
CONTINUOUS
10
1.3761
20
0.27904
11
1.37675
21
0.275374
0
LINE
8
BLACK
6
CONTINUOUS
10
1.37675
20
0.275374
11
1.3825
21
0.275374
0
LINE
8
BLACK
6
CONTINUOUS
10
1.3825
20
0.275374
11
1.3825
21
0.285
0
LINE
8
BLACK
6
CONTINUOUS
10
1.3825
20
0.285
11
1.4375
21
0.285
0
LINE
8
BLACK
6
CONTINUOUS
10
1.4375
20
0.285
11
1.4375
21
0.25
0
LINE
8
BLACK
6
CONTINUOUS
10
1.4375
20
0.25
11
1.41787
21
0.25
0
LINE
8
BLACK
6
CONTINUOUS
10
1.41787
20
0.25
11
1.41787
21
0.234252
0
LINE
8
BLACK
6
CONTINUOUS
10
1.41787
20
0.234252
11
1.41787
21
0.205039
0
LINE
8
BLACK
6
CONTINUOUS
10
1.41787
20
0.205039
11
1.41758
21
0.203751
0
LINE
8
BLACK
6
CONTINUOUS
10
1.41758
20
0.203751
11
1.41743
21
0.202439
0
LINE
8
BLACK
6
CONTINUOUS
10
1.41743
20
0.202439
11
1.41719
21
0.20206
0
LINE
8
BLACK
6
CONTINUOUS
10
1.41719
20
0.20206
11
1.41709
21
0.201623
0
LINE
8
BLACK
6
CONTINUOUS
10
1.41709
20
0.201623
11
1.41627
21
0.20059
0
LINE
8
BLACK
6
CONTINUOUS
10
1.41627
20
0.20059
11
1.41557
21
0.199472
0
LINE
8
BLACK
6
CONTINUOUS
10
1.41557
20
0.199472
11
1.39553
21
0.179432
0
LINE
8
BLACK
6
CONTINUOUS
10
1.39553
20
0.179432
11
1.39441
21
0.178729
0
LINE
8
BLACK
6
CONTINUOUS
10
1.39441
20
0.178729
11
1.39338
21
0.177906
0
LINE
8
BLACK
6
CONTINUOUS
10
1.39338
20
0.177906
11
1.39294
21
0.177806
0
LINE
8
BLACK
6
CONTINUOUS
10
1.39294
20
0.177806
11
1.39256
21
0.177568
0
LINE
8
BLACK
6
CONTINUOUS
10
1.39256
20
0.177568
11
1.39125
21
0.17742
0
LINE
8
BLACK
6
CONTINUOUS
10
1.39125
20
0.17742
11
1.38996
21
0.177126
0
LINE
8
BLACK
6
CONTINUOUS
10
1.38996
20
0.177126
11
1.35453
21
0.177126
0
LINE
8
BLACK
6
CONTINUOUS
10
1.35453
20
0.177126
11
1.33484
21
0.177126
0
LINE
8
BLACK
6
CONTINUOUS
10
1.33484
20
0.177126
11
1.33484
21
0.192874
0
LINE
8
BLACK
6
CONTINUOUS
10
1.33484
20
0.192874
11
1.37421
21
0.192874
0
LINE
8
BLACK
6
CONTINUOUS
10
1.37421
20
0.192874
11
1.3867
21
0.192874
0
LINE
8
BLACK
6
CONTINUOUS
10
1.3867
20
0.192874
11
1.40213
21
0.208301
0
LINE
8
BLACK
6
CONTINUOUS
10
1.40213
20
0.208301
11
1.40213
21
0.234252
0
LINE
8
BLACK
6
CONTINUOUS
10
1.40213
20
0.234252
11
1.40213
21
0.25
0
LINE
8
BLACK
6
CONTINUOUS
10
1.40213
20
0.25
11
1.3825
21
0.25
0
LINE
8
BLACK
6
CONTINUOUS
10
1.3825
20
0.25
11
1.3825
21
0.259626
0
LINE
8
BLACK
6
CONTINUOUS
10
1.3825
20
0.259626
11
1.3725
21
0.259626
0
LINE
8
BLACK
6
CONTINUOUS
10
1.3725
20
0.259626
11
1.37121
21
0.25992
0
LINE
8
BLACK
6
CONTINUOUS
10
1.37121
20
0.25992
11
1.3699
21
0.260068
0
LINE
8
BLACK
6
CONTINUOUS
10
1.3699
20
0.260068
11
1.36952
21
0.260306
0
LINE
8
BLACK
6
CONTINUOUS
10
1.36952
20
0.260306
11
1.36908
21
0.260406
0
LINE
8
BLACK
6
CONTINUOUS
10
1.36908
20
0.260406
11
1.36805
21
0.261229
0
LINE
8
BLACK
6
CONTINUOUS
10
1.36805
20
0.261229
11
1.36693
21
0.261932
0
LINE
8
BLACK
6
CONTINUOUS
10
1.36693
20
0.261932
11
1.3655
21
0.263368
0
LINE
8
BLACK
6
CONTINUOUS
10
1.3655
20
0.263368
11
1.36295
21
0.263368
0
LINE
8
BLACK
6
CONTINUOUS
10
1.36295
20
0.263368
11
1.35909
21
0.264771
0
LINE
8
BLACK
6
CONTINUOUS
10
1.35909
20
0.264771
11
1.35595
21
0.267408
0
LINE
8
BLACK
6
CONTINUOUS
10
1.35595
20
0.267408
11
1.3539
21
0.27096
0
LINE
8
BLACK
6
CONTINUOUS
10
1.3539
20
0.27096
11
1.35319
21
0.275
0
LINE
8
BLACK
6
CONTINUOUS
10
1.35319
20
0.275
11
1.3539
21
0.27904
0
LINE
8
BLACK
6
CONTINUOUS
10
1.3539
20
0.27904
11
1.35595
21
0.282592
0
LINE
8
BLACK
6
CONTINUOUS
10
1.35595
20
0.282592
11
1.35909
21
0.285229
0
LINE
8
BLACK
6
CONTINUOUS
10
1.35909
20
0.285229
11
1.36295
21
0.286632
0
LINE
8
BLACK
6
CONTINUOUS
10
1.36295
20
0.286632
11
1.36705
21
0.286632
0
LINE
8
BLACK
6
CONTINUOUS
10
1.36705
20
0.286632
11
1.37091
21
0.285229
0
LINE
8
BLACK
6
CONTINUOUS
10
1.2525
20
0.275374
11
1.2875
21
0.275374
0
LINE
8
BLACK
6
CONTINUOUS
10
1.2875
20
0.275374
11
1.2875
21
0.285
0
LINE
8
BLACK
6
CONTINUOUS
10
1.2875
20
0.285
11
1.3425
21
0.285
0
LINE
8
BLACK
6
CONTINUOUS
10
1.3425
20
0.285
11
1.3425
21
0.266136
0
LINE
8
BLACK
6
CONTINUOUS
10
1.3425
20
0.266136
11
1.3601
21
0.24854
0
LINE
8
BLACK
6
CONTINUOUS
10
1.3601
20
0.24854
11
1.3608
21
0.247422
0
LINE
8
BLACK
6
CONTINUOUS
10
1.3608
20
0.247422
11
1.36162
21
0.246389
0
LINE
8
BLACK
6
CONTINUOUS
10
1.36162
20
0.246389
11
1.36172
21
0.245952
0
LINE
8
BLACK
6
CONTINUOUS
10
1.36172
20
0.245952
11
1.36196
21
0.245573
0
LINE
8
BLACK
6
CONTINUOUS
10
1.36196
20
0.245573
11
1.36211
21
0.24426
0
LINE
8
BLACK
6
CONTINUOUS
10
1.36211
20
0.24426
11
1.3624
21
0.242972
0
LINE
8
BLACK
6
CONTINUOUS
10
1.3624
20
0.242972
11
1.3624
21
0.218465
0
LINE
8
BLACK
6
CONTINUOUS
10
1.3624
20
0.218465
11
1.37421
21
0.218465
0
LINE
8
BLACK
6
CONTINUOUS
10
1.37421
20
0.218465
11
1.37421
21
0.202717
0
LINE
8
BLACK
6
CONTINUOUS
10
1.37421
20
0.202717
11
1.33484
21
0.202717
0
LINE
8
BLACK
6
CONTINUOUS
10
1.33484
20
0.202717
11
1.33484
21
0.218465
0
LINE
8
BLACK
6
CONTINUOUS
10
1.33484
20
0.218465
11
1.34665
21
0.218465
0
LINE
8
BLACK
6
CONTINUOUS
10
1.34665
20
0.218465
11
1.34665
21
0.239711
0
LINE
8
BLACK
6
CONTINUOUS
10
1.34665
20
0.239711
11
1.33636
21
0.25
0
LINE
8
BLACK
6
CONTINUOUS
10
1.33636
20
0.25
11
1.2875
21
0.25
0
LINE
8
BLACK
6
CONTINUOUS
10
1.2875
20
0.25
11
1.2875
21
0.259626
0
LINE
8
BLACK
6
CONTINUOUS
10
1.2875
20
0.259626
11
1.2525
21
0.259626
0
LINE
8
BLACK
6
CONTINUOUS
10
1.2525
20
0.259626
11
1.2525
21
0.25
0
LINE
8
BLACK
6
CONTINUOUS
10
1.2525
20
0.25
11
1.1975
21
0.25
0
LINE
8
BLACK
6
CONTINUOUS
10
1.1975
20
0.25
11
1.1975
21
0.285
0
LINE
8
BLACK
6
CONTINUOUS
10
1.1975
20
0.285
11
1.2525
21
0.285
0
LINE
8
BLACK
6
CONTINUOUS
10
1.2525
20
0.285
11
1.2525
21
0.275374
0
LINE
8
BLACK
6
CONTINUOUS
10
0.0760159
20
0.253607
11
0.0781775
21
0.251445
0
LINE
8
BLACK
6
CONTINUOUS
10
0.0781775
20
0.251445
11
0.0789687
21
0.248493
0
LINE
8
BLACK
6
CONTINUOUS
10
0.0789687
20
0.248493
11
0.0789687
21
0.228995
0
LINE
8
BLACK
6
CONTINUOUS
10
0.0789687
20
0.228995
11
0.0786172
21
0.227684
0
LINE
8
BLACK
6
CONTINUOUS
10
0.0786172
20
0.227684
11
0.0783452
21
0.226354
0
LINE
8
BLACK
6
CONTINUOUS
10
0.0783452
20
0.226354
11
0.0759081
21
0.22148
0
LINE
8
BLACK
6
CONTINUOUS
10
0.0759081
20
0.22148
11
0.0752772
21
0.220768
0
LINE
8
BLACK
6
CONTINUOUS
10
0.0752772
20
0.220768
11
0.0748018
21
0.219945
0
LINE
8
BLACK
6
CONTINUOUS
10
0.0748018
20
0.219945
11
0.0723646
21
0.217508
0
LINE
8
BLACK
6
CONTINUOUS
10
0.0723646
20
0.217508
11
0.0715412
21
0.217032
0
LINE
8
BLACK
6
CONTINUOUS
10
0.0715412
20
0.217032
11
0.0708298
21
0.216401
0
LINE
8
BLACK
6
CONTINUOUS
10
0.0708298
20
0.216401
11
0.0659554
21
0.213964
0
LINE
8
BLACK
6
CONTINUOUS
10
0.0659554
20
0.213964
11
0.0646252
21
0.213692
0
LINE
8
BLACK
6
CONTINUOUS
10
0.0646252
20
0.213692
11
0.0633144
21
0.213341
0
LINE
8
BLACK
6
CONTINUOUS
10
0.0633144
20
0.213341
11
0.0560028
21
0.213341
0
LINE
8
BLACK
6
CONTINUOUS
10
0.0560028
20
0.213341
11
0.0546913
21
0.213692
0
LINE
8
BLACK
6
CONTINUOUS
10
0.0546913
20
0.213692
11
0.0533618
21
0.213964
0
LINE
8
BLACK
6
CONTINUOUS
10
0.0533618
20
0.213964
11
0.0484874
21
0.216401
0
LINE
8
BLACK
6
CONTINUOUS
10
0.0484874
20
0.216401
11
0.0477759
21
0.217032
0
LINE
8
BLACK
6
CONTINUOUS
10
0.0477759
20
0.217032
11
0.0469525
21
0.217508
0
LINE
8
BLACK
6
CONTINUOUS
10
0.0469525
20
0.217508
11
0.0448961
21
0.219564
0
LINE
8
BLACK
6
CONTINUOUS
10
0.0448961
20
0.219564
11
0.044732
21
0.219469
0
LINE
8
BLACK
6
CONTINUOUS
10
0.044732
20
0.219469
11
0.0440207
21
0.218839
0
LINE
8
BLACK
6
CONTINUOUS
10
0.0440207
20
0.218839
11
0.0391463
21
0.216401
0
LINE
8
BLACK
6
CONTINUOUS
10
0.0391463
20
0.216401
11
0.0378163
21
0.216129
0
LINE
8
BLACK
6
CONTINUOUS
10
0.0378163
20
0.216129
11
0.0365052
21
0.215778
0
LINE
8
BLACK
6
CONTINUOUS
10
0.0365052
20
0.215778
11
0.0316308
21
0.215778
0
LINE
8
BLACK
6
CONTINUOUS
10
0.0316308
20
0.215778
11
0.0303197
21
0.216129
0
LINE
8
BLACK
6
CONTINUOUS
10
0.0303197
20
0.216129
11
0.0289898
21
0.216401
0
LINE
8
BLACK
6
CONTINUOUS
10
0.0289898
20
0.216401
11
0.0241154
21
0.218839
0
LINE
8
BLACK
6
CONTINUOUS
10
0.0241154
20
0.218839
11
0.0234041
21
0.219469
0
LINE
8
BLACK
6
CONTINUOUS
10
0.0234041
20
0.219469
11
0.0225806
21
0.219945
0
LINE
8
BLACK
6
CONTINUOUS
10
0.0225806
20
0.219945
11
0.0201434
21
0.222382
0
LINE
8
BLACK
6
CONTINUOUS
10
0.0201434
20
0.222382
11
0.019668
21
0.223205
0
LINE
8
BLACK
6
CONTINUOUS
10
0.019668
20
0.223205
11
0.0190372
21
0.223917
0
LINE
8
BLACK
6
CONTINUOUS
10
0.0190372
20
0.223917
11
0.0166
21
0.228791
0
LINE
8
BLACK
6
CONTINUOUS
10
0.0166
20
0.228791
11
0.0163278
21
0.230121
0
LINE
8
BLACK
6
CONTINUOUS
10
0.0163278
20
0.230121
11
0.0159765
21
0.231432
0
LINE
8
BLACK
6
CONTINUOUS
10
0.0159765
20
0.231432
11
0.0159765
21
0.248493
0
LINE
8
BLACK
6
CONTINUOUS
10
0.0159765
20
0.248493
11
0.0167677
21
0.251445
0
LINE
8
BLACK
6
CONTINUOUS
10
0.0167677
20
0.251445
11
0.0189293
21
0.253607
0
LINE
8
BLACK
6
CONTINUOUS
10
0.0189293
20
0.253607
11
0.021882
21
0.254398
0
LINE
8
BLACK
6
CONTINUOUS
10
0.021882
20
0.254398
11
0.0730631
21
0.254398
0
LINE
8
BLACK
6
CONTINUOUS
10
0.0730631
20
0.254398
11
0.0760159
21
0.253607
0
LINE
8
BLACK
6
CONTINUOUS
10
0.0521595
20
0.232391
11
0.0538528
21
0.227311
0
LINE
8
BLACK
6
CONTINUOUS
10
0.0538528
20
0.227311
11
0.0546265
21
0.226537
0
LINE
8
BLACK
6
CONTINUOUS
10
0.0546265
20
0.226537
11
0.0573969
21
0.225152
0
LINE
8
BLACK
6
CONTINUOUS
10
0.0573969
20
0.225152
11
0.0619203
21
0.225152
0
LINE
8
BLACK
6
CONTINUOUS
10
0.0619203
20
0.225152
11
0.0646906
21
0.226537
0
LINE
8
BLACK
6
CONTINUOUS
10
0.0646906
20
0.226537
11
0.0657724
21
0.227619
0
LINE
8
BLACK
6
CONTINUOUS
10
0.0657724
20
0.227619
11
0.0671576
21
0.230389
0
LINE
8
BLACK
6
CONTINUOUS
10
0.0671576
20
0.230389
11
0.0671576
21
0.242587
0
LINE
8
BLACK
6
CONTINUOUS
10
0.0671576
20
0.242587
11
0.0521595
21
0.242587
0
LINE
8
BLACK
6
CONTINUOUS
10
0.0521595
20
0.242587
11
0.0521595
21
0.232391
0
LINE
8
BLACK
6
CONTINUOUS
10
0.0277876
20
0.232826
11
0.0291727
21
0.230056
0
LINE
8
BLACK
6
CONTINUOUS
10
0.0291727
20
0.230056
11
0.0302546
21
0.228974
0
LINE
8
BLACK
6
CONTINUOUS
10
0.0302546
20
0.228974
11
0.033025
21
0.227589
0
LINE
8
BLACK
6
CONTINUOUS
10
0.033025
20
0.227589
11
0.0351111
21
0.227589
0
LINE
8
BLACK
6
CONTINUOUS
10
0.0351111
20
0.227589
11
0.0378814
21
0.228974
0
LINE
8
BLACK
6
CONTINUOUS
10
0.0378814
20
0.228974
11
0.0389633
21
0.230056
0
LINE
8
BLACK
6
CONTINUOUS
10
0.0389633
20
0.230056
11
0.0403485
21
0.232826
0
LINE
8
BLACK
6
CONTINUOUS
10
0.0403485
20
0.232826
11
0.0403485
21
0.242587
0
LINE
8
BLACK
6
CONTINUOUS
10
0.0403485
20
0.242587
11
0.0277876
21
0.242587
0
LINE
8
BLACK
6
CONTINUOUS
10
0.0277876
20
0.242587
11
0.0277876
21
0.232826
0
LINE
8
BLACK
6
CONTINUOUS
10
0.0518322
20
0.307828
11
0.0525607
21
0.30784
0
LINE
8
BLACK
6
CONTINUOUS
10
0.0525607
20
0.30784
11
0.0623094
21
0.305403
0
LINE
8
BLACK
6
CONTINUOUS
10
0.0623094
20
0.305403
11
0.0628794
21
0.305087
0
LINE
8
BLACK
6
CONTINUOUS
10
0.0628794
20
0.305087
11
0.0635182
21
0.304956
0
LINE
8
BLACK
6
CONTINUOUS
10
0.0635182
20
0.304956
11
0.0683926
21
0.302519
0
LINE
8
BLACK
6
CONTINUOUS
10
0.0683926
20
0.302519
11
0.069104
21
0.301888
0
LINE
8
BLACK
6
CONTINUOUS
10
0.069104
20
0.301888
11
0.0699274
21
0.301412
0
LINE
8
BLACK
6
CONTINUOUS
10
0.0699274
20
0.301412
11
0.0748018
21
0.296538
0
LINE
8
BLACK
6
CONTINUOUS
10
0.0748018
20
0.296538
11
0.0754804
21
0.295363
0
LINE
8
BLACK
6
CONTINUOUS
10
0.0754804
20
0.295363
11
0.0762285
21
0.29423
0
LINE
8
BLACK
6
CONTINUOUS
10
0.0762285
20
0.29423
11
0.0786656
21
0.286918
0
LINE
8
BLACK
6
CONTINUOUS
10
0.0786656
20
0.286918
11
0.0787226
21
0.285969
0
LINE
8
BLACK
6
CONTINUOUS
10
0.0787226
20
0.285969
11
0.0789687
21
0.285051
0
LINE
8
BLACK
6
CONTINUOUS
10
0.0789687
20
0.285051
11
0.0789687
21
0.280176
0
LINE
8
BLACK
6
CONTINUOUS
10
0.0789687
20
0.280176
11
0.0787226
21
0.279258
0
LINE
8
BLACK
6
CONTINUOUS
10
0.0787226
20
0.279258
11
0.0786656
21
0.278309
0
LINE
8
BLACK
6
CONTINUOUS
10
0.0786656
20
0.278309
11
0.0762285
21
0.270997
0
LINE
8
BLACK
6
CONTINUOUS
10
0.0762285
20
0.270997
11
0.0754806
21
0.269864
0
LINE
8
BLACK
6
CONTINUOUS
10
0.0754806
20
0.269864
11
0.0748018
21
0.268689
0
LINE
8
BLACK
6
CONTINUOUS
10
0.0748018
20
0.268689
11
0.0723646
21
0.266252
0
LINE
8
BLACK
6
CONTINUOUS
10
0.0723646
20
0.266252
11
0.0716913
21
0.265863
0
LINE
8
BLACK
6
CONTINUOUS
10
0.0716913
20
0.265863
11
0.0711415
21
0.265313
0
LINE
8
BLACK
6
CONTINUOUS
10
0.0711415
20
0.265313
11
0.0703905
21
0.265112
0
LINE
8
BLACK
6
CONTINUOUS
10
0.0703905
20
0.265112
11
0.0697172
21
0.264723
0
LINE
8
BLACK
6
CONTINUOUS
10
0.0697172
20
0.264723
11
0.0689398
21
0.264723
0
LINE
8
BLACK
6
CONTINUOUS
10
0.0689398
20
0.264723
11
0.0681888
21
0.264522
0
LINE
8
BLACK
6
CONTINUOUS
10
0.0681888
20
0.264522
11
0.0511284
21
0.264522
0
LINE
8
BLACK
6
CONTINUOUS
10
0.0511284
20
0.264522
11
0.0481756
21
0.265313
0
LINE
8
BLACK
6
CONTINUOUS
10
0.0481756
20
0.265313
11
0.0460141
21
0.267475
0
LINE
8
BLACK
6
CONTINUOUS
10
0.0460141
20
0.267475
11
0.0452229
21
0.270427
0
LINE
8
BLACK
6
CONTINUOUS
10
0.0452229
20
0.270427
11
0.0452229
21
0.280176
0
LINE
8
BLACK
6
CONTINUOUS
10
0.0452229
20
0.280176
11
0.0460141
21
0.283129
0
LINE
8
BLACK
6
CONTINUOUS
10
0.0460141
20
0.283129
11
0.0481756
21
0.285291
0
LINE
8
BLACK
6
CONTINUOUS
10
0.0481756
20
0.285291
11
0.0511284
21
0.286082
0
LINE
8
BLACK
6
CONTINUOUS
10
0.0511284
20
0.286082
11
0.0540811
21
0.285291
0
LINE
8
BLACK
6
CONTINUOUS
10
0.0540811
20
0.285291
11
0.0562427
21
0.283129
0
LINE
8
BLACK
6
CONTINUOUS
10
0.0562427
20
0.283129
11
0.0570339
21
0.280176
0
LINE
8
BLACK
6
CONTINUOUS
10
0.0570339
20
0.280176
11
0.0570339
21
0.276333
0
LINE
8
BLACK
6
CONTINUOUS
10
0.0570339
20
0.276333
11
0.0655571
21
0.276333
0
LINE
8
BLACK
6
CONTINUOUS
10
0.0655571
20
0.276333
11
0.0671576
21
0.281135
0
LINE
8
BLACK
6
CONTINUOUS
10
0.0671576
20
0.281135
11
0.0671576
21
0.284092
0
LINE
8
BLACK
6
CONTINUOUS
10
0.0671576
20
0.284092
11
0.0654643
21
0.289172
0
LINE
8
BLACK
6
CONTINUOUS
10
0.0654643
20
0.289172
11
0.0622534
21
0.292383
0
LINE
8
BLACK
6
CONTINUOUS
10
0.0622534
20
0.292383
11
0.058816
21
0.294102
0
LINE
8
BLACK
6
CONTINUOUS
10
0.058816
20
0.294102
11
0.0504015
21
0.296205
0
LINE
8
BLACK
6
CONTINUOUS
10
0.0504015
20
0.296205
11
0.0445437
21
0.296205
0
LINE
8
BLACK
6
CONTINUOUS
10
0.0445437
20
0.296205
11
0.0361293
21
0.294102
0
LINE
8
BLACK
6
CONTINUOUS
10
0.0361293
20
0.294102
11
0.0326918
21
0.292383
0
LINE
8
BLACK
6
CONTINUOUS
10
0.0326918
20
0.292383
11
0.0294808
21
0.289172
0
LINE
8
BLACK
6
CONTINUOUS
10
0.0294808
20
0.289172
11
0.0277876
21
0.284092
0
LINE
8
BLACK
6
CONTINUOUS
10
0.0277876
20
0.284092
11
0.0277876
21
0.279133
0
LINE
8
BLACK
6
CONTINUOUS
10
0.0277876
20
0.279133
11
0.0296013
21
0.275506
0
LINE
8
BLACK
6
CONTINUOUS
10
0.0296013
20
0.275506
11
0.0302142
21
0.272511
0
LINE
8
BLACK
6
CONTINUOUS
10
0.0302142
20
0.272511
11
0.0292475
21
0.269611
0
LINE
8
BLACK
6
CONTINUOUS
10
0.0292475
20
0.269611
11
0.0269603
21
0.267583
0
LINE
8
BLACK
6
CONTINUOUS
10
0.0269603
20
0.267583
11
0.0239654
21
0.26697
0
LINE
8
BLACK
6
CONTINUOUS
10
0.0239654
20
0.26697
11
0.0210654
21
0.267936
0
LINE
8
BLACK
6
CONTINUOUS
10
0.0210654
20
0.267936
11
0.0190372
21
0.270224
0
LINE
8
BLACK
6
CONTINUOUS
10
0.0190372
20
0.270224
11
0.0166
21
0.275098
0
LINE
8
BLACK
6
CONTINUOUS
10
0.0166
20
0.275098
11
0.0163278
21
0.276428
0
LINE
8
BLACK
6
CONTINUOUS
10
0.0163278
20
0.276428
11
0.0159765
21
0.277739
0
LINE
8
BLACK
6
CONTINUOUS
10
0.0159765
20
0.277739
11
0.0159765
21
0.285051
0
LINE
8
BLACK
6
CONTINUOUS
10
0.0159765
20
0.285051
11
0.0162226
21
0.285969
0
LINE
8
BLACK
6
CONTINUOUS
10
0.0162226
20
0.285969
11
0.0162796
21
0.286918
0
LINE
8
BLACK
6
CONTINUOUS
10
0.0162796
20
0.286918
11
0.0187168
21
0.29423
0
LINE
8
BLACK
6
CONTINUOUS
10
0.0187168
20
0.29423
11
0.0194646
21
0.295362
0
LINE
8
BLACK
6
CONTINUOUS
10
0.0194646
20
0.295362
11
0.0201434
21
0.296538
0
LINE
8
BLACK
6
CONTINUOUS
10
0.0201434
20
0.296538
11
0.0250178
21
0.301412
0
LINE
8
BLACK
6
CONTINUOUS
10
0.0250178
20
0.301412
11
0.0258413
21
0.301888
0
LINE
8
BLACK
6
CONTINUOUS
10
0.0258413
20
0.301888
11
0.0265526
21
0.302519
0
LINE
8
BLACK
6
CONTINUOUS
10
0.0265526
20
0.302519
11
0.031427
21
0.304956
0
LINE
8
BLACK
6
CONTINUOUS
10
0.031427
20
0.304956
11
0.0320657
21
0.305087
0
LINE
8
BLACK
6
CONTINUOUS
10
0.0320657
20
0.305087
11
0.0326357
21
0.305403
0
LINE
8
BLACK
6
CONTINUOUS
10
0.0326357
20
0.305403
11
0.0423845
21
0.30784
0
LINE
8
BLACK
6
CONTINUOUS
10
0.0423845
20
0.30784
11
0.0431131
21
0.307828
0
LINE
8
BLACK
6
CONTINUOUS
10
0.0431131
20
0.307828
11
0.0438168
21
0.308016
0
LINE
8
BLACK
6
CONTINUOUS
10
0.0438168
20
0.308016
11
0.0511284
21
0.308016
0
LINE
8
BLACK
6
CONTINUOUS
10
0.0511284
20
0.308016
11
0.0518322
21
0.307828
0
LINE
8
BLACK
6
CONTINUOUS
10
0.19946
20
0.363232
11
0.201622
21
0.361071
0
LINE
8
BLACK
6
CONTINUOUS
10
0.201622
20
0.361071
11
0.202413
21
0.358118
0
LINE
8
BLACK
6
CONTINUOUS
10
0.202413
20
0.358118
11
0.202413
21
0.306937
0
LINE
8
BLACK
6
CONTINUOUS
10
0.202413
20
0.306937
11
0.201622
21
0.303984
0
LINE
8
BLACK
6
CONTINUOUS
10
0.201622
20
0.303984
11
0.19946
21
0.301822
0
LINE
8
BLACK
6
CONTINUOUS
10
0.19946
20
0.301822
11
0.196507
21
0.301031
0
LINE
8
BLACK
6
CONTINUOUS
10
0.196507
20
0.301031
11
0.17701
21
0.301031
0
LINE
8
BLACK
6
CONTINUOUS
10
0.17701
20
0.301031
11
0.175699
21
0.301383
0
LINE
8
BLACK
6
CONTINUOUS
10
0.175699
20
0.301383
11
0.174369
21
0.301655
0
LINE
8
BLACK
6
CONTINUOUS
10
0.174369
20
0.301655
11
0.169494
21
0.304092
0
LINE
8
BLACK
6
CONTINUOUS
10
0.169494
20
0.304092
11
0.168783
21
0.304723
0
LINE
8
BLACK
6
CONTINUOUS
10
0.168783
20
0.304723
11
0.16796
21
0.305198
0
LINE
8
BLACK
6
CONTINUOUS
10
0.16796
20
0.305198
11
0.165522
21
0.307635
0
LINE
8
BLACK
6
CONTINUOUS
10
0.165522
20
0.307635
11
0.165047
21
0.308459
0
LINE
8
BLACK
6
CONTINUOUS
10
0.165047
20
0.308459
11
0.164416
21
0.30917
0
LINE
8
BLACK
6
CONTINUOUS
10
0.164416
20
0.30917
11
0.161979
21
0.314045
0
LINE
8
BLACK
6
CONTINUOUS
10
0.161979
20
0.314045
11
0.161707
21
0.315375
0
LINE
8
BLACK
6
CONTINUOUS
10
0.161707
20
0.315375
11
0.161355
21
0.316686
0
LINE
8
BLACK
6
CONTINUOUS
10
0.161355
20
0.316686
11
0.161355
21
0.323997
0
LINE
8
BLACK
6
CONTINUOUS
10
0.161355
20
0.323997
11
0.161707
21
0.325308
0
LINE
8
BLACK
6
CONTINUOUS
10
0.161707
20
0.325308
11
0.161979
21
0.326638
0
LINE
8
BLACK
6
CONTINUOUS
10
0.161979
20
0.326638
11
0.164416
21
0.331513
0
LINE
8
BLACK
6
CONTINUOUS
10
0.164416
20
0.331513
11
0.165047
21
0.332224
0
LINE
8
BLACK
6
CONTINUOUS
10
0.165047
20
0.332224
11
0.165522
21
0.333047
0
LINE
8
BLACK
6
CONTINUOUS
10
0.165522
20
0.333047
11
0.167579
21
0.335104
0
LINE
8
BLACK
6
CONTINUOUS
10
0.167579
20
0.335104
11
0.167484
21
0.335268
0
LINE
8
BLACK
6
CONTINUOUS
10
0.167484
20
0.335268
11
0.166853
21
0.335979
0
LINE
8
BLACK
6
CONTINUOUS
10
0.166853
20
0.335979
11
0.164416
21
0.340854
0
LINE
8
BLACK
6
CONTINUOUS
10
0.164416
20
0.340854
11
0.164144
21
0.342184
0
LINE
8
BLACK
6
CONTINUOUS
10
0.164144
20
0.342184
11
0.163793
21
0.343495
0
LINE
8
BLACK
6
CONTINUOUS
10
0.163793
20
0.343495
11
0.163793
21
0.348369
0
LINE
8
BLACK
6
CONTINUOUS
10
0.163793
20
0.348369
11
0.164144
21
0.34968
0
LINE
8
BLACK
6
CONTINUOUS
10
0.164144
20
0.34968
11
0.164416
21
0.35101
0
LINE
8
BLACK
6
CONTINUOUS
10
0.164416
20
0.35101
11
0.166853
21
0.355885
0
LINE
8
BLACK
6
CONTINUOUS
10
0.166853
20
0.355885
11
0.167484
21
0.356596
0
LINE
8
BLACK
6
CONTINUOUS
10
0.167484
20
0.356596
11
0.167959
21
0.357419
0
LINE
8
BLACK
6
CONTINUOUS
10
0.167959
20
0.357419
11
0.170397
21
0.359857
0
LINE
8
BLACK
6
CONTINUOUS
10
0.170397
20
0.359857
11
0.17122
21
0.360332
0
LINE
8
BLACK
6
CONTINUOUS
10
0.17122
20
0.360332
11
0.171931
21
0.360963
0
LINE
8
BLACK
6
CONTINUOUS
10
0.171931
20
0.360963
11
0.176806
21
0.3634
0
LINE
8
BLACK
6
CONTINUOUS
10
0.176806
20
0.3634
11
0.178136
21
0.363672
0
LINE
8
BLACK
6
CONTINUOUS
10
0.178136
20
0.363672
11
0.179447
21
0.364023
0
LINE
8
BLACK
6
CONTINUOUS
10
0.179447
20
0.364023
11
0.196507
21
0.364023
0
LINE
8
BLACK
6
CONTINUOUS
10
0.196507
20
0.364023
11
0.19946
21
0.363232
0
LINE
8
BLACK
6
CONTINUOUS
10
0.175325
20
0.326147
11
0.174552
21
0.325373
0
LINE
8
BLACK
6
CONTINUOUS
10
0.174552
20
0.325373
11
0.173166
21
0.322603
0
LINE
8
BLACK
6
CONTINUOUS
10
0.173166
20
0.322603
11
0.173166
21
0.31808
0
LINE
8
BLACK
6
CONTINUOUS
10
0.173166
20
0.31808
11
0.174552
21
0.315309
0
LINE
8
BLACK
6
CONTINUOUS
10
0.174552
20
0.315309
11
0.175633
21
0.314227
0
LINE
8
BLACK
6
CONTINUOUS
10
0.175633
20
0.314227
11
0.178404
21
0.312842
0
LINE
8
BLACK
6
CONTINUOUS
10
0.178404
20
0.312842
11
0.190602
21
0.312842
0
LINE
8
BLACK
6
CONTINUOUS
10
0.190602
20
0.312842
11
0.190602
21
0.32784
0
LINE
8
BLACK
6
CONTINUOUS
10
0.190602
20
0.32784
11
0.180405
21
0.32784
0
LINE
8
BLACK
6
CONTINUOUS
10
0.180405
20
0.32784
11
0.175325
21
0.326147
0
LINE
8
BLACK
6
CONTINUOUS
10
0.178071
20
0.350827
11
0.176989
21
0.349745
0
LINE
8
BLACK
6
CONTINUOUS
10
0.176989
20
0.349745
11
0.175604
21
0.346975
0
LINE
8
BLACK
6
CONTINUOUS
10
0.175604
20
0.346975
11
0.175604
21
0.344889
0
LINE
8
BLACK
6
CONTINUOUS
10
0.175604
20
0.344889
11
0.176989
21
0.342119
0
LINE
8
BLACK
6
CONTINUOUS
10
0.176989
20
0.342119
11
0.178071
21
0.341037
0
LINE
8
BLACK
6
CONTINUOUS
10
0.178071
20
0.341037
11
0.180841
21
0.339651
0
LINE
8
BLACK
6
CONTINUOUS
10
0.180841
20
0.339651
11
0.190602
21
0.339651
0
LINE
8
BLACK
6
CONTINUOUS
10
0.190602
20
0.339651
11
0.190602
21
0.352212
0
LINE
8
BLACK
6
CONTINUOUS
10
0.190602
20
0.352212
11
0.180841
21
0.352212
0
LINE
8
BLACK
6
CONTINUOUS
10
0.180841
20
0.352212
11
0.178071
21
0.350827
0
LINE
8
BLACK
6
CONTINUOUS
10
0.284762
20
0.363232
11
0.286923
21
0.361071
0
LINE
8
BLACK
6
CONTINUOUS
10
0.286923
20
0.361071
11
0.287715
21
0.358118
0
LINE
8
BLACK
6
CONTINUOUS
10
0.287715
20
0.358118
11
0.287715
21
0.306937
0
LINE
8
BLACK
6
CONTINUOUS
10
0.287715
20
0.306937
11
0.286923
21
0.303984
0
LINE
8
BLACK
6
CONTINUOUS
10
0.286923
20
0.303984
11
0.284762
21
0.301822
0
LINE
8
BLACK
6
CONTINUOUS
10
0.284762
20
0.301822
11
0.281809
21
0.301031
0
LINE
8
BLACK
6
CONTINUOUS
10
0.281809
20
0.301031
11
0.257437
21
0.301031
0
LINE
8
BLACK
6
CONTINUOUS
10
0.257437
20
0.301031
11
0.254484
21
0.301822
0
LINE
8
BLACK
6
CONTINUOUS
10
0.254484
20
0.301822
11
0.252501
21
0.303806
0
LINE
8
BLACK
6
CONTINUOUS
10
0.252501
20
0.303806
11
0.252107
21
0.303019
0
LINE
8
BLACK
6
CONTINUOUS
10
0.252107
20
0.303019
11
0.249556
21
0.301334
0
LINE
8
BLACK
6
CONTINUOUS
10
0.249556
20
0.301334
11
0.246504
21
0.301151
0
LINE
8
BLACK
6
CONTINUOUS
10
0.246504
20
0.301151
11
0.24377
21
0.302518
0
LINE
8
BLACK
6
CONTINUOUS
10
0.24377
20
0.302518
11
0.242086
21
0.305069
0
LINE
8
BLACK
6
CONTINUOUS
10
0.242086
20
0.305069
11
0.238558
21
0.315654
0
LINE
8
BLACK
6
CONTINUOUS
10
0.238558
20
0.315654
11
0.222698
21
0.315654
0
LINE
8
BLACK
6
CONTINUOUS
10
0.222698
20
0.315654
11
0.21917
21
0.305069
0
LINE
8
BLACK
6
CONTINUOUS
10
0.21917
20
0.305069
11
0.217486
21
0.302518
0
LINE
8
BLACK
6
CONTINUOUS
10
0.217486
20
0.302518
11
0.214752
21
0.301151
0
LINE
8
BLACK
6
CONTINUOUS
10
0.214752
20
0.301151
11
0.2117
21
0.301334
0
LINE
8
BLACK
6
CONTINUOUS
10
0.2117
20
0.301334
11
0.209149
21
0.303019
0
LINE
8
BLACK
6
CONTINUOUS
10
0.209149
20
0.303019
11
0.207782
21
0.305753
0
LINE
8
BLACK
6
CONTINUOUS
10
0.207782
20
0.305753
11
0.207965
21
0.308804
0
LINE
8
BLACK
6
CONTINUOUS
10
0.207965
20
0.308804
11
0.225026
21
0.359985
0
LINE
8
BLACK
6
CONTINUOUS
10
0.225026
20
0.359985
11
0.225679
21
0.360975
0
LINE
8
BLACK
6
CONTINUOUS
10
0.225679
20
0.360975
11
0.22621
21
0.362036
0
LINE
8
BLACK
6
CONTINUOUS
10
0.22621
20
0.362036
11
0.226511
21
0.362235
0
LINE
8
BLACK
6
CONTINUOUS
10
0.226511
20
0.362235
11
0.22671
21
0.362536
0
LINE
8
BLACK
6
CONTINUOUS
10
0.22671
20
0.362536
11
0.227771
21
0.363067
0
LINE
8
BLACK
6
CONTINUOUS
10
0.227771
20
0.363067
11
0.228761
21
0.36372
0
LINE
8
BLACK
6
CONTINUOUS
10
0.228761
20
0.36372
11
0.229121
21
0.363742
0
LINE
8
BLACK
6
CONTINUOUS
10
0.229121
20
0.363742
11
0.229444
21
0.363904
0
LINE
8
BLACK
6
CONTINUOUS
10
0.229444
20
0.363904
11
0.230628
21
0.363832
0
LINE
8
BLACK
6
CONTINUOUS
10
0.230628
20
0.363832
11
0.231812
21
0.363904
0
LINE
8
BLACK
6
CONTINUOUS
10
0.231812
20
0.363904
11
0.232135
21
0.363742
0
LINE
8
BLACK
6
CONTINUOUS
10
0.232135
20
0.363742
11
0.232496
21
0.36372
0
LINE
8
BLACK
6
CONTINUOUS
10
0.232496
20
0.36372
11
0.233485
21
0.363067
0
LINE
8
BLACK
6
CONTINUOUS
10
0.233485
20
0.363067
11
0.234546
21
0.362536
0
LINE
8
BLACK
6
CONTINUOUS
10
0.234546
20
0.362536
11
0.234745
21
0.362235
0
LINE
8
BLACK
6
CONTINUOUS
10
0.234745
20
0.362235
11
0.235047
21
0.362036
0
LINE
8
BLACK
6
CONTINUOUS
10
0.235047
20
0.362036
11
0.235577
21
0.360975
0
LINE
8
BLACK
6
CONTINUOUS
10
0.235577
20
0.360975
11
0.236231
21
0.359985
0
LINE
8
BLACK
6
CONTINUOUS
10
0.236231
20
0.359985
11
0.252777
21
0.310344
0
LINE
8
BLACK
6
CONTINUOUS
10
0.252777
20
0.310344
11
0.254484
21
0.312051
0
LINE
8
BLACK
6
CONTINUOUS
10
0.254484
20
0.312051
11
0.257437
21
0.312842
0
LINE
8
BLACK
6
CONTINUOUS
10
0.257437
20
0.312842
11
0.275904
21
0.312842
0
LINE
8
BLACK
6
CONTINUOUS
10
0.275904
20
0.312842
11
0.275904
21
0.358118
0
LINE
8
BLACK
6
CONTINUOUS
10
0.275904
20
0.358118
11
0.276695
21
0.361071
0
LINE
8
BLACK
6
CONTINUOUS
10
0.276695
20
0.361071
11
0.278856
21
0.363232
0
LINE
8
BLACK
6
CONTINUOUS
10
0.278856
20
0.363232
11
0.281809
21
0.364023
0
LINE
8
BLACK
6
CONTINUOUS
10
0.281809
20
0.364023
11
0.284762
21
0.363232
0
LINE
8
BLACK
6
CONTINUOUS
10
0.226635
20
0.327465
11
0.234621
21
0.327465
0
LINE
8
BLACK
6
CONTINUOUS
10
0.234621
20
0.327465
11
0.230628
21
0.339443
0
LINE
8
BLACK
6
CONTINUOUS
10
0.230628
20
0.339443
11
0.226635
21
0.327465
0
LINE
8
BLACK
6
CONTINUOUS
10
0.341538
20
0.363692
11
0.342799
21
0.363469
0
LINE
8
BLACK
6
CONTINUOUS
10
0.342799
20
0.363469
11
0.343001
21
0.3633
0
LINE
8
BLACK
6
CONTINUOUS
10
0.343001
20
0.3633
11
0.343255
21
0.363232
0
LINE
8
BLACK
6
CONTINUOUS
10
0.343255
20
0.363232
11
0.34416
21
0.362327
0
LINE
8
BLACK
6
CONTINUOUS
10
0.34416
20
0.362327
11
0.34514
21
0.361504
0
LINE
8
BLACK
6
CONTINUOUS
10
0.34514
20
0.361504
11
0.34523
21
0.361257
0
LINE
8
BLACK
6
CONTINUOUS
10
0.34523
20
0.361257
11
0.345416
21
0.361071
0
LINE
8
BLACK
6
CONTINUOUS
10
0.345416
20
0.361071
11
0.345748
21
0.359834
0
LINE
8
BLACK
6
CONTINUOUS
10
0.345748
20
0.359834
11
0.346185
21
0.358631
0
LINE
8
BLACK
6
CONTINUOUS
10
0.346185
20
0.358631
11
0.346139
21
0.358372
0
LINE
8
BLACK
6
CONTINUOUS
10
0.346139
20
0.358372
11
0.346207
21
0.358118
0
LINE
8
BLACK
6
CONTINUOUS
10
0.346207
20
0.358118
11
0.346207
21
0.306937
0
LINE
8
BLACK
6
CONTINUOUS
10
0.346207
20
0.306937
11
0.345416
21
0.303984
0
LINE
8
BLACK
6
CONTINUOUS
10
0.345416
20
0.303984
11
0.343255
21
0.301822
0
LINE
8
BLACK
6
CONTINUOUS
10
0.343255
20
0.301822
11
0.340302
21
0.301031
0
LINE
8
BLACK
6
CONTINUOUS
10
0.340302
20
0.301031
11
0.337349
21
0.301822
0
LINE
8
BLACK
6
CONTINUOUS
10
0.337349
20
0.301822
11
0.335187
21
0.303984
0
LINE
8
BLACK
6
CONTINUOUS
10
0.335187
20
0.303984
11
0.334396
21
0.306937
0
LINE
8
BLACK
6
CONTINUOUS
10
0.334396
20
0.306937
11
0.334396
21
0.331498
0
LINE
8
BLACK
6
CONTINUOUS
10
0.334396
20
0.331498
11
0.328593
21
0.319063
0
LINE
8
BLACK
6
CONTINUOUS
10
0.328593
20
0.319063
11
0.328258
21
0.318664
0
LINE
8
BLACK
6
CONTINUOUS
10
0.328258
20
0.318664
11
0.32808
21
0.318174
0
LINE
8
BLACK
6
CONTINUOUS
10
0.32808
20
0.318174
11
0.32729
21
0.317511
0
LINE
8
BLACK
6
CONTINUOUS
10
0.32729
20
0.317511
11
0.326627
21
0.316721
0
LINE
8
BLACK
6
CONTINUOUS
10
0.326627
20
0.316721
11
0.326138
21
0.316543
0
LINE
8
BLACK
6
CONTINUOUS
10
0.326138
20
0.316543
11
0.325739
21
0.316208
0
LINE
8
BLACK
6
CONTINUOUS
10
0.325739
20
0.316208
11
0.324723
21
0.316029
0
LINE
8
BLACK
6
CONTINUOUS
10
0.324723
20
0.316029
11
0.323754
21
0.315677
0
LINE
8
BLACK
6
CONTINUOUS
10
0.323754
20
0.315677
11
0.323241
21
0.315767
0
LINE
8
BLACK
6
CONTINUOUS
10
0.323241
20
0.315767
11
0.322728
21
0.315677
0
LINE
8
BLACK
6
CONTINUOUS
10
0.322728
20
0.315677
11
0.321759
21
0.316029
0
LINE
8
BLACK
6
CONTINUOUS
10
0.321759
20
0.316029
11
0.320744
21
0.316209
0
LINE
8
BLACK
6
CONTINUOUS
10
0.320744
20
0.316209
11
0.320345
21
0.316543
0
LINE
8
BLACK
6
CONTINUOUS
10
0.320345
20
0.316543
11
0.319856
21
0.316721
0
LINE
8
BLACK
6
CONTINUOUS
10
0.319856
20
0.316721
11
0.319192
21
0.317511
0
LINE
8
BLACK
6
CONTINUOUS
10
0.319192
20
0.317511
11
0.318403
21
0.318174
0
LINE
8
BLACK
6
CONTINUOUS
10
0.318403
20
0.318174
11
0.318225
21
0.318664
0
LINE
8
BLACK
6
CONTINUOUS
10
0.318225
20
0.318664
11
0.31789
21
0.319063
0
LINE
8
BLACK
6
CONTINUOUS
10
0.31789
20
0.319063
11
0.312087
21
0.331498
0
LINE
8
BLACK
6
CONTINUOUS
10
0.312087
20
0.331498
11
0.312087
21
0.306937
0
LINE
8
BLACK
6
CONTINUOUS
10
0.312087
20
0.306937
11
0.311295
21
0.303984
0
LINE
8
BLACK
6
CONTINUOUS
10
0.311295
20
0.303984
11
0.309134
21
0.301822
0
LINE
8
BLACK
6
CONTINUOUS
10
0.309134
20
0.301822
11
0.306181
21
0.301031
0
LINE
8
BLACK
6
CONTINUOUS
10
0.306181
20
0.301031
11
0.303228
21
0.301822
0
LINE
8
BLACK
6
CONTINUOUS
10
0.303228
20
0.301822
11
0.301067
21
0.303984
0
LINE
8
BLACK
6
CONTINUOUS
10
0.301067
20
0.303984
11
0.300276
21
0.306937
0
LINE
8
BLACK
6
CONTINUOUS
10
0.300276
20
0.306937
11
0.300276
21
0.358118
0
LINE
8
BLACK
6
CONTINUOUS
10
0.300276
20
0.358118
11
0.300344
21
0.358372
0
LINE
8
BLACK
6
CONTINUOUS
10
0.300344
20
0.358372
11
0.300298
21
0.358631
0
LINE
8
BLACK
6
CONTINUOUS
10
0.300298
20
0.358631
11
0.300735
21
0.359834
0
LINE
8
BLACK
6
CONTINUOUS
10
0.300735
20
0.359834
11
0.301067
21
0.361071
0
LINE
8
BLACK
6
CONTINUOUS
10
0.301067
20
0.361071
11
0.301253
21
0.361257
0
LINE
8
BLACK
6
CONTINUOUS
10
0.301253
20
0.361257
11
0.301343
21
0.361504
0
LINE
8
BLACK
6
CONTINUOUS
10
0.301343
20
0.361504
11
0.302323
21
0.362327
0
LINE
8
BLACK
6
CONTINUOUS
10
0.302323
20
0.362327
11
0.303228
21
0.363232
0
LINE
8
BLACK
6
CONTINUOUS
10
0.303228
20
0.363232
11
0.303482
21
0.3633
0
LINE
8
BLACK
6
CONTINUOUS
10
0.303482
20
0.3633
11
0.303684
21
0.363469
0
LINE
8
BLACK
6
CONTINUOUS
10
0.303684
20
0.363469
11
0.304945
21
0.363692
0
LINE
8
BLACK
6
CONTINUOUS
10
0.304945
20
0.363692
11
0.306181
21
0.364023
0
LINE
8
BLACK
6
CONTINUOUS
10
0.306181
20
0.364023
11
0.306435
21
0.363955
0
LINE
8
BLACK
6
CONTINUOUS
10
0.306435
20
0.363955
11
0.306694
21
0.364001
0
LINE
8
BLACK
6
CONTINUOUS
10
0.306694
20
0.364001
11
0.307897
21
0.363564
0
LINE
8
BLACK
6
CONTINUOUS
10
0.307897
20
0.363564
11
0.309134
21
0.363232
0
LINE
8
BLACK
6
CONTINUOUS
10
0.309134
20
0.363232
11
0.30932
21
0.363046
0
LINE
8
BLACK
6
CONTINUOUS
10
0.30932
20
0.363046
11
0.309567
21
0.362956
0
LINE
8
BLACK
6
CONTINUOUS
10
0.309567
20
0.362956
11
0.31039
21
0.361976
0
LINE
8
BLACK
6
CONTINUOUS
10
0.31039
20
0.361976
11
0.311295
21
0.361071
0
LINE
8
BLACK
6
CONTINUOUS
10
0.311295
20
0.361071
11
0.311363
21
0.360817
0
LINE
8
BLACK
6
CONTINUOUS
10
0.311363
20
0.360817
11
0.311533
21
0.360615
0
LINE
8
BLACK
6
CONTINUOUS
10
0.311533
20
0.360615
11
0.323241
21
0.335525
0
LINE
8
BLACK
6
CONTINUOUS
10
0.323241
20
0.335525
11
0.33495
21
0.360615
0
LINE
8
BLACK
6
CONTINUOUS
10
0.33495
20
0.360615
11
0.335119
21
0.360817
0
LINE
8
BLACK
6
CONTINUOUS
10
0.335119
20
0.360817
11
0.335187
21
0.361071
0
LINE
8
BLACK
6
CONTINUOUS
10
0.335187
20
0.361071
11
0.336093
21
0.361976
0
LINE
8
BLACK
6
CONTINUOUS
10
0.336093
20
0.361976
11
0.336916
21
0.362956
0
LINE
8
BLACK
6
CONTINUOUS
10
0.336916
20
0.362956
11
0.337163
21
0.363046
0
LINE
8
BLACK
6
CONTINUOUS
10
0.337163
20
0.363046
11
0.337349
21
0.363232
0
LINE
8
BLACK
6
CONTINUOUS
10
0.337349
20
0.363232
11
0.338586
21
0.363564
0
LINE
8
BLACK
6
CONTINUOUS
10
0.338586
20
0.363564
11
0.339789
21
0.364001
0
LINE
8
BLACK
6
CONTINUOUS
10
0.339789
20
0.364001
11
0.340048
21
0.363955
0
LINE
8
BLACK
6
CONTINUOUS
10
0.340048
20
0.363955
11
0.340302
21
0.364023
0
LINE
8
BLACK
6
CONTINUOUS
10
0.340302
20
0.364023
11
0.341538
21
0.363692
0
LINE
8
BLACK
6
CONTINUOUS
10
0.0760159
20
0.355969
11
0.0781775
21
0.353808
0
LINE
8
BLACK
6
CONTINUOUS
10
0.0781775
20
0.353808
11
0.0789687
21
0.350855
0
LINE
8
BLACK
6
CONTINUOUS
10
0.0789687
20
0.350855
11
0.0781775
21
0.347902
0
LINE
8
BLACK
6
CONTINUOUS
10
0.0781775
20
0.347902
11
0.0760159
21
0.345741
0
LINE
8
BLACK
6
CONTINUOUS
10
0.0760159
20
0.345741
11
0.0730631
21
0.344949
0
LINE
8
BLACK
6
CONTINUOUS
10
0.0730631
20
0.344949
11
0.0545967
21
0.344949
0
LINE
8
BLACK
6
CONTINUOUS
10
0.0545967
20
0.344949
11
0.0545967
21
0.341744
0
LINE
8
BLACK
6
CONTINUOUS
10
0.0545967
20
0.341744
11
0.0764497
21
0.326447
0
LINE
8
BLACK
6
CONTINUOUS
10
0.0764497
20
0.326447
11
0.078415
21
0.324105
0
LINE
8
BLACK
6
CONTINUOUS
10
0.078415
20
0.324105
11
0.0789463
21
0.321095
0
LINE
8
BLACK
6
CONTINUOUS
10
0.0789463
20
0.321095
11
0.0779011
21
0.318222
0
LINE
8
BLACK
6
CONTINUOUS
10
0.0779011
20
0.318222
11
0.0755597
21
0.316257
0
LINE
8
BLACK
6
CONTINUOUS
10
0.0755597
20
0.316257
11
0.0725493
21
0.315725
0
LINE
8
BLACK
6
CONTINUOUS
10
0.0725493
20
0.315725
11
0.0696765
21
0.316771
0
LINE
8
BLACK
6
CONTINUOUS
10
0.0696765
20
0.316771
11
0.0536201
21
0.32801
0
LINE
8
BLACK
6
CONTINUOUS
10
0.0536201
20
0.32801
11
0.0515361
21
0.323842
0
LINE
8
BLACK
6
CONTINUOUS
10
0.0515361
20
0.323842
11
0.0509052
21
0.32313
0
LINE
8
BLACK
6
CONTINUOUS
10
0.0509052
20
0.32313
11
0.0504298
21
0.322307
0
LINE
8
BLACK
6
CONTINUOUS
10
0.0504298
20
0.322307
11
0.0479926
21
0.31987
0
LINE
8
BLACK
6
CONTINUOUS
10
0.0479926
20
0.31987
11
0.0471691
21
0.319394
0
LINE
8
BLACK
6
CONTINUOUS
10
0.0471691
20
0.319394
11
0.0464578
21
0.318764
0
LINE
8
BLACK
6
CONTINUOUS
10
0.0464578
20
0.318764
11
0.0415835
21
0.316326
0
LINE
8
BLACK
6
CONTINUOUS
10
0.0415835
20
0.316326
11
0.0402536
21
0.316054
0
LINE
8
BLACK
6
CONTINUOUS
10
0.0402536
20
0.316054
11
0.0389424
21
0.315703
0
LINE
8
BLACK
6
CONTINUOUS
10
0.0389424
20
0.315703
11
0.0316308
21
0.315703
0
LINE
8
BLACK
6
CONTINUOUS
10
0.0316308
20
0.315703
11
0.0303194
21
0.316054
0
LINE
8
BLACK
6
CONTINUOUS
10
0.0303194
20
0.316054
11
0.0289898
21
0.316326
0
LINE
8
BLACK
6
CONTINUOUS
10
0.0289898
20
0.316326
11
0.0241154
21
0.318764
0
LINE
8
BLACK
6
CONTINUOUS
10
0.0241154
20
0.318764
11
0.023404
21
0.319394
0
LINE
8
BLACK
6
CONTINUOUS
10
0.023404
20
0.319394
11
0.0225806
21
0.31987
0
LINE
8
BLACK
6
CONTINUOUS
10
0.0225806
20
0.31987
11
0.0201434
21
0.322307
0
LINE
8
BLACK
6
CONTINUOUS
10
0.0201434
20
0.322307
11
0.019668
21
0.32313
0
LINE
8
BLACK
6
CONTINUOUS
10
0.019668
20
0.32313
11
0.0190372
21
0.323842
0
LINE
8
BLACK
6
CONTINUOUS
10
0.0190372
20
0.323842
11
0.0166
21
0.328716
0
LINE
8
BLACK
6
CONTINUOUS
10
0.0166
20
0.328716
11
0.0163278
21
0.330046
0
LINE
8
BLACK
6
CONTINUOUS
10
0.0163278
20
0.330046
11
0.0159765
21
0.331357
0
LINE
8
BLACK
6
CONTINUOUS
10
0.0159765
20
0.331357
11
0.0159765
21
0.350855
0
LINE
8
BLACK
6
CONTINUOUS
10
0.0159765
20
0.350855
11
0.0167677
21
0.353808
0
LINE
8
BLACK
6
CONTINUOUS
10
0.0167677
20
0.353808
11
0.0189293
21
0.355969
0
LINE
8
BLACK
6
CONTINUOUS
10
0.0189293
20
0.355969
11
0.021882
21
0.35676
0
LINE
8
BLACK
6
CONTINUOUS
10
0.021882
20
0.35676
11
0.0730631
21
0.35676
0
LINE
8
BLACK
6
CONTINUOUS
10
0.0730631
20
0.35676
11
0.0760159
21
0.355969
0
LINE
8
BLACK
6
CONTINUOUS
10
0.0277876
20
0.332751
11
0.0291727
21
0.329981
0
LINE
8
BLACK
6
CONTINUOUS
10
0.0291727
20
0.329981
11
0.0302546
21
0.328899
0
LINE
8
BLACK
6
CONTINUOUS
10
0.0302546
20
0.328899
11
0.0330249
21
0.327514
0
LINE
8
BLACK
6
CONTINUOUS
10
0.0330249
20
0.327514
11
0.0375483
21
0.327514
0
LINE
8
BLACK
6
CONTINUOUS
10
0.0375483
20
0.327514
11
0.0403186
21
0.328899
0
LINE
8
BLACK
6
CONTINUOUS
10
0.0403186
20
0.328899
11
0.0414005
21
0.329981
0
LINE
8
BLACK
6
CONTINUOUS
10
0.0414005
20
0.329981
11
0.0427857
21
0.332751
0
LINE
8
BLACK
6
CONTINUOUS
10
0.0427857
20
0.332751
11
0.0427857
21
0.344949
0
LINE
8
BLACK
6
CONTINUOUS
10
0.0427857
20
0.344949
11
0.0277876
21
0.344949
0
LINE
8
BLACK
6
CONTINUOUS
10
0.0277876
20
0.344949
11
0.0277876
21
0.332751
0
CIRCLE
8
BLACK
10
1.525
20
0.21937
40
0.00688976
0
CIRCLE
8
BLACK
10
1.525
20
0.14063
40
0.00688976
0
CIRCLE
8
BLACK
10
1.225
20
0.185
40
0.00688976
0
CIRCLE
8
BLACK
10
0.405
20
0.08
40
0.00688976
0
CIRCLE
8
BLACK
10
0.405
20
0.18
40
0.00688976
0
CIRCLE
8
BLACK
10
0.505
20
0.08
40
0.00688976
0
CIRCLE
8
BLACK
10
0.505
20
0.18
40
0.00688976
0
CIRCLE
8
BLACK
10
0.605
20
0.08
40
0.00688976
0
CIRCLE
8
BLACK
10
0.605
20
0.18
40
0.00688976
0
CIRCLE
8
BLACK
10
0.705
20
0.08
40
0.00688976
0
CIRCLE
8
BLACK
10
0.705
20
0.18
40
0.00688976
0
CIRCLE
8
BLACK
10
0.805
20
0.08
40
0.00688976
0
CIRCLE
8
BLACK
10
0.805
20
0.18
40
0.00688976
0
CIRCLE
8
BLACK
10
0.2
20
0.18
40
0.00688976
0
CIRCLE
8
BLACK
10
1
20
0.18
40
0.00688976
0
CIRCLE
8
BLACK
10
1.12411
20
0.0208865
40
0.00787402
0
CIRCLE
8
BLACK
10
1.42
20
0.175
40
0.00787402
0
CIRCLE
8
BLACK
10
1.475
20
0.26
40
0.00787402
0
CIRCLE
8
BLACK
10
1.49
20
0.065
40
0.00787402
0
CIRCLE
8
BLACK
10
1.46
20
0.065
40
0.00787402
0
CIRCLE
8
BLACK
10
0.805
20
0.27
40
0.00787402
0
CIRCLE
8
BLACK
10
1.365
20
0.275
40
0.00787402
0
CIRCLE
8
BLACK
10
0.525
20
0.33
40
0.00787402
0
CIRCLE
8
BLACK
10
1.18
20
0.207717
40
0.00787402
  0
ENDSEC
  0
EOF
