  0
SECTION
  2
HEADER
  9
$ANGBASE
  50
0.0
  9
$ANGDIR
  70
1
  9
$MEASUREMENT
  70
0
  0
ENDSEC
  0
SECTION
  2
TABLES
  0
TABLE
  2
LTYPE
  70
4
  0
LTYPE
  5
40F
  2
CONTINUOUS
  70
0
  3
Solid line
  72
65
  73
0
  40
0.0
  0
LTYPE
  5
410
  2
DASHDOT
 70
0
  3
Dash Dot ____ _ ____ _
 72
65
 73
4
 40
2.0
 49
1.25
 49
-0.25
 49
0.25
 49
-0.25
  0
LTYPE
  5
411
  2
DASHED
 70
0
  3
Dashed __ __ __ __ __
 72
65
 73
2
 40
0.75
 49
0.5
 49
-0.25
  0
LTYPE
  5
43B
  2
DOTTED
 70
0
  3
Dotted .  .  .  .
 72
65
 73
2
 40
0.2
 49
0.0
 49
-0.2
  0
ENDTAB
  0
TABLE
  2
STYLE
  70
4
  0
STYLE
  2
KICAD
  70
0
  40
0
  41
1
  42
1
  50
0
  71
0
  3
isocp.shx
  0
STYLE
  2
KICADB
  70
0
  40
0
  41
1
  42
1
  50
0
  71
0
  3
isocp.shx
  0
STYLE
  2
KICADI
  70
0
  40
0
  41
1
  42
1
  50
15
  71
0
  3
isocp.shx
  0
STYLE
  2
KICADBI
  70
0
  40
0
  41
1
  42
1
  50
15
  71
0
  3
isocp.shx
  0
ENDTAB
  0
TABLE
  2
LAYER
  70
1
  0
LAYER
  2
BLACK
  70
0
  62
7
  6
CONTINUOUS
  0
ENDTAB
  0
ENDSEC
  0
SECTION
  2
ENTITIES
0
LINE
8
BLACK
6
CONTINUOUS
10
0.4147
20
0.0213203
11
0.414989
21
0.0206243
0
LINE
8
BLACK
6
CONTINUOUS
10
0.414989
20
0.0206243
11
0.414989
21
0.00937571
0
LINE
8
BLACK
6
CONTINUOUS
10
0.414989
20
0.00937571
11
0.4147
21
0.00867972
0
LINE
8
BLACK
6
CONTINUOUS
10
0.4147
20
0.00867972
11
0.414004
21
0.00839146
0
LINE
8
BLACK
6
CONTINUOUS
10
0.414004
20
0.00839146
11
0.413308
21
0.00867972
0
LINE
8
BLACK
6
CONTINUOUS
10
0.413308
20
0.00867972
11
0.41302
21
0.00937571
0
LINE
8
BLACK
6
CONTINUOUS
10
0.41302
20
0.00937571
11
0.41302
21
0.0140157
0
LINE
8
BLACK
6
CONTINUOUS
10
0.41302
20
0.0140157
11
0.39757
21
0.0140157
0
LINE
8
BLACK
6
CONTINUOUS
10
0.39757
20
0.0140157
11
0.397677
21
0.0139442
0
LINE
8
BLACK
6
CONTINUOUS
10
0.397677
20
0.0139442
11
0.397734
21
0.01386
0
LINE
8
BLACK
6
CONTINUOUS
10
0.397734
20
0.01386
11
0.397827
21
0.0138212
0
LINE
8
BLACK
6
CONTINUOUS
10
0.397827
20
0.0138212
11
0.399702
21
0.0119465
0
LINE
8
BLACK
6
CONTINUOUS
10
0.399702
20
0.0119465
11
0.399764
21
0.0117968
0
LINE
8
BLACK
6
CONTINUOUS
10
0.399764
20
0.0117968
11
0.399887
21
0.0116906
0
LINE
8
BLACK
6
CONTINUOUS
10
0.399887
20
0.0116906
11
0.400824
21
0.00981591
0
LINE
8
BLACK
6
CONTINUOUS
10
0.400824
20
0.00981591
11
0.400877
21
0.00906445
0
LINE
8
BLACK
6
CONTINUOUS
10
0.400877
20
0.00906445
11
0.400384
21
0.00849539
0
LINE
8
BLACK
6
CONTINUOUS
10
0.400384
20
0.00849539
11
0.399632
21
0.00844197
0
LINE
8
BLACK
6
CONTINUOUS
10
0.399632
20
0.00844197
11
0.399063
21
0.00893555
0
LINE
8
BLACK
6
CONTINUOUS
10
0.399063
20
0.00893555
11
0.398197
21
0.0106674
0
LINE
8
BLACK
6
CONTINUOUS
10
0.398197
20
0.0106674
11
0.396504
21
0.0123604
0
LINE
8
BLACK
6
CONTINUOUS
10
0.396504
20
0.0123604
11
0.393773
21
0.0141811
0
LINE
8
BLACK
6
CONTINUOUS
10
0.393773
20
0.0141811
11
0.393717
21
0.0142652
0
LINE
8
BLACK
6
CONTINUOUS
10
0.393717
20
0.0142652
11
0.393623
21
0.014304
0
LINE
8
BLACK
6
CONTINUOUS
10
0.393623
20
0.014304
11
0.393514
21
0.0145689
0
LINE
8
BLACK
6
CONTINUOUS
10
0.393514
20
0.0145689
11
0.393354
21
0.014807
0
LINE
8
BLACK
6
CONTINUOUS
10
0.393354
20
0.014807
11
0.393374
21
0.0149064
0
LINE
8
BLACK
6
CONTINUOUS
10
0.393374
20
0.0149064
11
0.393335
21
0.015
0
LINE
8
BLACK
6
CONTINUOUS
10
0.393335
20
0.015
11
0.393445
21
0.0152648
0
LINE
8
BLACK
6
CONTINUOUS
10
0.393445
20
0.0152648
11
0.3935
21
0.0155459
0
LINE
8
BLACK
6
CONTINUOUS
10
0.3935
20
0.0155459
11
0.393584
21
0.0156023
0
LINE
8
BLACK
6
CONTINUOUS
10
0.393584
20
0.0156023
11
0.393623
21
0.015696
0
LINE
8
BLACK
6
CONTINUOUS
10
0.393623
20
0.015696
11
0.393888
21
0.0158057
0
LINE
8
BLACK
6
CONTINUOUS
10
0.393888
20
0.0158057
11
0.394126
21
0.0159652
0
LINE
8
BLACK
6
CONTINUOUS
10
0.394126
20
0.0159652
11
0.394226
21
0.0159455
0
LINE
8
BLACK
6
CONTINUOUS
10
0.394226
20
0.0159455
11
0.394319
21
0.0159843
0
LINE
8
BLACK
6
CONTINUOUS
10
0.394319
20
0.0159843
11
0.41302
21
0.0159843
0
LINE
8
BLACK
6
CONTINUOUS
10
0.41302
20
0.0159843
11
0.41302
21
0.0206243
0
LINE
8
BLACK
6
CONTINUOUS
10
0.41302
20
0.0206243
11
0.413308
21
0.0213203
0
LINE
8
BLACK
6
CONTINUOUS
10
0.413308
20
0.0213203
11
0.414004
21
0.0216085
0
LINE
8
BLACK
6
CONTINUOUS
10
0.414004
20
0.0216085
11
0.4147
21
0.0213203
0
LINE
8
BLACK
6
CONTINUOUS
10
1.16244
20
0.0736721
11
1.16377
21
0.0734
0
LINE
8
BLACK
6
CONTINUOUS
10
1.16377
20
0.0734
11
1.16865
21
0.0709628
0
LINE
8
BLACK
6
CONTINUOUS
10
1.16865
20
0.0709628
11
1.17093
21
0.0689346
0
LINE
8
BLACK
6
CONTINUOUS
10
1.17093
20
0.0689346
11
1.1719
21
0.0660345
0
LINE
8
BLACK
6
CONTINUOUS
10
1.1719
20
0.0660345
11
1.17129
21
0.0630397
0
LINE
8
BLACK
6
CONTINUOUS
10
1.17129
20
0.0630397
11
1.16926
21
0.0607525
0
LINE
8
BLACK
6
CONTINUOUS
10
1.16926
20
0.0607525
11
1.16636
21
0.0597858
0
LINE
8
BLACK
6
CONTINUOUS
10
1.16636
20
0.0597858
11
1.16336
21
0.0603987
0
LINE
8
BLACK
6
CONTINUOUS
10
1.16336
20
0.0603987
11
1.15974
21
0.0622124
0
LINE
8
BLACK
6
CONTINUOUS
10
1.15974
20
0.0622124
11
1.15478
21
0.0622124
0
LINE
8
BLACK
6
CONTINUOUS
10
1.15478
20
0.0622124
11
1.1497
21
0.0605191
0
LINE
8
BLACK
6
CONTINUOUS
10
1.1497
20
0.0605191
11
1.14649
21
0.0573081
0
LINE
8
BLACK
6
CONTINUOUS
10
1.14649
20
0.0573081
11
1.14477
21
0.0538708
0
LINE
8
BLACK
6
CONTINUOUS
10
1.14477
20
0.0538708
11
1.14266
21
0.0454562
0
LINE
8
BLACK
6
CONTINUOUS
10
1.14266
20
0.0454562
11
1.14266
21
0.0395985
0
LINE
8
BLACK
6
CONTINUOUS
10
1.14266
20
0.0395985
11
1.14477
21
0.0311839
0
LINE
8
BLACK
6
CONTINUOUS
10
1.14477
20
0.0311839
11
1.14649
21
0.0277466
0
LINE
8
BLACK
6
CONTINUOUS
10
1.14649
20
0.0277466
11
1.1497
21
0.0245356
0
LINE
8
BLACK
6
CONTINUOUS
10
1.1497
20
0.0245356
11
1.15478
21
0.0228423
0
LINE
8
BLACK
6
CONTINUOUS
10
1.15478
20
0.0228423
11
1.15773
21
0.0228423
0
LINE
8
BLACK
6
CONTINUOUS
10
1.15773
20
0.0228423
11
1.16254
21
0.0244428
0
LINE
8
BLACK
6
CONTINUOUS
10
1.16254
20
0.0244428
11
1.16254
21
0.0329661
0
LINE
8
BLACK
6
CONTINUOUS
10
1.16254
20
0.0329661
11
1.15869
21
0.0329661
0
LINE
8
BLACK
6
CONTINUOUS
10
1.15869
20
0.0329661
11
1.15574
21
0.0337572
0
LINE
8
BLACK
6
CONTINUOUS
10
1.15574
20
0.0337572
11
1.15358
21
0.0359188
0
LINE
8
BLACK
6
CONTINUOUS
10
1.15358
20
0.0359188
11
1.15279
21
0.0388716
0
LINE
8
BLACK
6
CONTINUOUS
10
1.15279
20
0.0388716
11
1.15358
21
0.0418243
0
LINE
8
BLACK
6
CONTINUOUS
10
1.15358
20
0.0418243
11
1.15574
21
0.0439859
0
LINE
8
BLACK
6
CONTINUOUS
10
1.15574
20
0.0439859
11
1.15869
21
0.0447771
0
LINE
8
BLACK
6
CONTINUOUS
10
1.15869
20
0.0447771
11
1.16844
21
0.0447771
0
LINE
8
BLACK
6
CONTINUOUS
10
1.16844
20
0.0447771
11
1.17139
21
0.0439859
0
LINE
8
BLACK
6
CONTINUOUS
10
1.17139
20
0.0439859
11
1.17356
21
0.0418243
0
LINE
8
BLACK
6
CONTINUOUS
10
1.17356
20
0.0418243
11
1.17435
21
0.0388716
0
LINE
8
BLACK
6
CONTINUOUS
10
1.17435
20
0.0388716
11
1.17435
21
0.0218112
0
LINE
8
BLACK
6
CONTINUOUS
10
1.17435
20
0.0218112
11
1.17415
21
0.0210602
0
LINE
8
BLACK
6
CONTINUOUS
10
1.17415
20
0.0210602
11
1.17415
21
0.0202827
0
LINE
8
BLACK
6
CONTINUOUS
10
1.17415
20
0.0202827
11
1.17376
21
0.0196094
0
LINE
8
BLACK
6
CONTINUOUS
10
1.17376
20
0.0196094
11
1.17356
21
0.0188584
0
LINE
8
BLACK
6
CONTINUOUS
10
1.17356
20
0.0188584
11
1.17301
21
0.0183086
0
LINE
8
BLACK
6
CONTINUOUS
10
1.17301
20
0.0183086
11
1.17262
21
0.0176354
0
LINE
8
BLACK
6
CONTINUOUS
10
1.17262
20
0.0176354
11
1.17018
21
0.0151982
0
LINE
8
BLACK
6
CONTINUOUS
10
1.17018
20
0.0151982
11
1.16901
21
0.0145194
0
LINE
8
BLACK
6
CONTINUOUS
10
1.16901
20
0.0145194
11
1.16787
21
0.0137716
0
LINE
8
BLACK
6
CONTINUOUS
10
1.16787
20
0.0137716
11
1.16056
21
0.0113344
0
LINE
8
BLACK
6
CONTINUOUS
10
1.16056
20
0.0113344
11
1.15961
21
0.0112774
0
LINE
8
BLACK
6
CONTINUOUS
10
1.15961
20
0.0112774
11
1.15869
21
0.0110313
0
LINE
8
BLACK
6
CONTINUOUS
10
1.15869
20
0.0110313
11
1.15382
21
0.0110313
0
LINE
8
BLACK
6
CONTINUOUS
10
1.15382
20
0.0110313
11
1.1529
21
0.0112774
0
LINE
8
BLACK
6
CONTINUOUS
10
1.1529
20
0.0112774
11
1.15195
21
0.0113344
0
LINE
8
BLACK
6
CONTINUOUS
10
1.15195
20
0.0113344
11
1.14464
21
0.0137716
0
LINE
8
BLACK
6
CONTINUOUS
10
1.14464
20
0.0137716
11
1.14351
21
0.0145194
0
LINE
8
BLACK
6
CONTINUOUS
10
1.14351
20
0.0145194
11
1.14233
21
0.0151982
0
LINE
8
BLACK
6
CONTINUOUS
10
1.14233
20
0.0151982
11
1.13746
21
0.0200726
0
LINE
8
BLACK
6
CONTINUOUS
10
1.13746
20
0.0200726
11
1.13698
21
0.0208959
0
LINE
8
BLACK
6
CONTINUOUS
10
1.13698
20
0.0208959
11
1.13635
21
0.0216074
0
LINE
8
BLACK
6
CONTINUOUS
10
1.13635
20
0.0216074
11
1.13391
21
0.0264818
0
LINE
8
BLACK
6
CONTINUOUS
10
1.13391
20
0.0264818
11
1.13378
21
0.0271205
0
LINE
8
BLACK
6
CONTINUOUS
10
1.13378
20
0.0271205
11
1.13347
21
0.0276905
0
LINE
8
BLACK
6
CONTINUOUS
10
1.13347
20
0.0276905
11
1.13103
21
0.0374393
0
LINE
8
BLACK
6
CONTINUOUS
10
1.13103
20
0.0374393
11
1.13104
21
0.0381677
0
LINE
8
BLACK
6
CONTINUOUS
10
1.13104
20
0.0381677
11
1.13085
21
0.0388716
0
LINE
8
BLACK
6
CONTINUOUS
10
1.13085
20
0.0388716
11
1.13085
21
0.0461831
0
LINE
8
BLACK
6
CONTINUOUS
10
1.13085
20
0.0461831
11
1.13104
21
0.046887
0
LINE
8
BLACK
6
CONTINUOUS
10
1.13104
20
0.046887
11
1.13103
21
0.0476154
0
LINE
8
BLACK
6
CONTINUOUS
10
1.13103
20
0.0476154
11
1.13347
21
0.0573642
0
LINE
8
BLACK
6
CONTINUOUS
10
1.13347
20
0.0573642
11
1.13378
21
0.0579342
0
LINE
8
BLACK
6
CONTINUOUS
10
1.13378
20
0.0579342
11
1.13391
21
0.058573
0
LINE
8
BLACK
6
CONTINUOUS
10
1.13391
20
0.058573
11
1.13635
21
0.0634474
0
LINE
8
BLACK
6
CONTINUOUS
10
1.13635
20
0.0634474
11
1.13698
21
0.0641587
0
LINE
8
BLACK
6
CONTINUOUS
10
1.13698
20
0.0641587
11
1.13746
21
0.0649821
0
LINE
8
BLACK
6
CONTINUOUS
10
1.13746
20
0.0649821
11
1.14233
21
0.0698565
0
LINE
8
BLACK
6
CONTINUOUS
10
1.14233
20
0.0698565
11
1.14351
21
0.0705354
0
LINE
8
BLACK
6
CONTINUOUS
10
1.14351
20
0.0705354
11
1.14464
21
0.0712831
0
LINE
8
BLACK
6
CONTINUOUS
10
1.14464
20
0.0712831
11
1.15195
21
0.0737204
0
LINE
8
BLACK
6
CONTINUOUS
10
1.15195
20
0.0737204
11
1.1529
21
0.0737773
0
LINE
8
BLACK
6
CONTINUOUS
10
1.1529
20
0.0737773
11
1.15382
21
0.0740234
0
LINE
8
BLACK
6
CONTINUOUS
10
1.15382
20
0.0740234
11
1.16113
21
0.0740234
0
LINE
8
BLACK
6
CONTINUOUS
10
1.16113
20
0.0740234
11
1.16244
21
0.0736721
0
LINE
8
BLACK
6
CONTINUOUS
10
1.22258
20
0.0732322
11
1.22474
21
0.0710707
0
LINE
8
BLACK
6
CONTINUOUS
10
1.22474
20
0.0710707
11
1.22553
21
0.0681179
0
LINE
8
BLACK
6
CONTINUOUS
10
1.22553
20
0.0681179
11
1.22553
21
0.0169368
0
LINE
8
BLACK
6
CONTINUOUS
10
1.22553
20
0.0169368
11
1.22553
21
0.0169236
0
LINE
8
BLACK
6
CONTINUOUS
10
1.22553
20
0.0169236
11
1.22553
21
0.0169106
0
LINE
8
BLACK
6
CONTINUOUS
10
1.22553
20
0.0169106
11
1.22513
21
0.0154559
0
LINE
8
BLACK
6
CONTINUOUS
10
1.22513
20
0.0154559
11
1.22474
21
0.0139841
0
LINE
8
BLACK
6
CONTINUOUS
10
1.22474
20
0.0139841
11
1.22473
21
0.0139744
0
LINE
8
BLACK
6
CONTINUOUS
10
1.22473
20
0.0139744
11
1.22472
21
0.0139613
0
LINE
8
BLACK
6
CONTINUOUS
10
1.22472
20
0.0139613
11
1.22365
21
0.0128963
0
LINE
8
BLACK
6
CONTINUOUS
10
1.22365
20
0.0128963
11
1.22258
21
0.0118225
0
LINE
8
BLACK
6
CONTINUOUS
10
1.22258
20
0.0118225
11
1.22256
21
0.0118189
0
LINE
8
BLACK
6
CONTINUOUS
10
1.22256
20
0.0118189
11
1.22255
21
0.0118094
0
LINE
8
BLACK
6
CONTINUOUS
10
1.22255
20
0.0118094
11
1.22109
21
0.0114249
0
LINE
8
BLACK
6
CONTINUOUS
10
1.22109
20
0.0114249
11
1.21962
21
0.0110313
0
LINE
8
BLACK
6
CONTINUOUS
10
1.21962
20
0.0110313
11
1.21961
21
0.0110348
0
LINE
8
BLACK
6
CONTINUOUS
10
1.21961
20
0.0110348
11
1.2196
21
0.0110314
0
LINE
8
BLACK
6
CONTINUOUS
10
1.2196
20
0.0110314
11
1.21814
21
0.0114289
0
LINE
8
BLACK
6
CONTINUOUS
10
1.21814
20
0.0114289
11
1.21667
21
0.0118225
0
LINE
8
BLACK
6
CONTINUOUS
10
1.21667
20
0.0118225
11
1.21666
21
0.0118321
0
LINE
8
BLACK
6
CONTINUOUS
10
1.21666
20
0.0118321
11
1.21665
21
0.0118357
0
LINE
8
BLACK
6
CONTINUOUS
10
1.21665
20
0.0118357
11
1.21558
21
0.0129124
0
LINE
8
BLACK
6
CONTINUOUS
10
1.21558
20
0.0129124
11
1.21451
21
0.0139841
0
LINE
8
BLACK
6
CONTINUOUS
10
1.21451
20
0.0139841
11
1.21451
21
0.0139972
0
LINE
8
BLACK
6
CONTINUOUS
10
1.21451
20
0.0139972
11
1.2145
21
0.0140069
0
LINE
8
BLACK
6
CONTINUOUS
10
1.2145
20
0.0140069
11
1.19628
21
0.0458803
0
LINE
8
BLACK
6
CONTINUOUS
10
1.19628
20
0.0458803
11
1.19628
21
0.0169368
0
LINE
8
BLACK
6
CONTINUOUS
10
1.19628
20
0.0169368
11
1.19549
21
0.0139841
0
LINE
8
BLACK
6
CONTINUOUS
10
1.19549
20
0.0139841
11
1.19333
21
0.0118225
0
LINE
8
BLACK
6
CONTINUOUS
10
1.19333
20
0.0118225
11
1.19038
21
0.0110313
0
LINE
8
BLACK
6
CONTINUOUS
10
1.19038
20
0.0110313
11
1.18742
21
0.0118225
0
LINE
8
BLACK
6
CONTINUOUS
10
1.18742
20
0.0118225
11
1.18526
21
0.0139841
0
LINE
8
BLACK
6
CONTINUOUS
10
1.18526
20
0.0139841
11
1.18447
21
0.0169368
0
LINE
8
BLACK
6
CONTINUOUS
10
1.18447
20
0.0169368
11
1.18447
21
0.0681179
0
LINE
8
BLACK
6
CONTINUOUS
10
1.18447
20
0.0681179
11
1.18447
21
0.068131
0
LINE
8
BLACK
6
CONTINUOUS
10
1.18447
20
0.068131
11
1.18447
21
0.0681442
0
LINE
8
BLACK
6
CONTINUOUS
10
1.18447
20
0.0681442
11
1.18487
21
0.06961
0
LINE
8
BLACK
6
CONTINUOUS
10
1.18487
20
0.06961
11
1.18526
21
0.0710707
0
LINE
8
BLACK
6
CONTINUOUS
10
1.18526
20
0.0710707
11
1.18527
21
0.0710802
0
LINE
8
BLACK
6
CONTINUOUS
10
1.18527
20
0.0710802
11
1.18528
21
0.0710934
0
LINE
8
BLACK
6
CONTINUOUS
10
1.18528
20
0.0710934
11
1.18635
21
0.0721606
0
LINE
8
BLACK
6
CONTINUOUS
10
1.18635
20
0.0721606
11
1.18742
21
0.0732322
0
LINE
8
BLACK
6
CONTINUOUS
10
1.18742
20
0.0732322
11
1.18744
21
0.0732357
0
LINE
8
BLACK
6
CONTINUOUS
10
1.18744
20
0.0732357
11
1.18745
21
0.0732453
0
LINE
8
BLACK
6
CONTINUOUS
10
1.18745
20
0.0732453
11
1.18891
21
0.0736309
0
LINE
8
BLACK
6
CONTINUOUS
10
1.18891
20
0.0736309
11
1.19038
21
0.0740234
0
LINE
8
BLACK
6
CONTINUOUS
10
1.19038
20
0.0740234
11
1.19039
21
0.0740199
0
LINE
8
BLACK
6
CONTINUOUS
10
1.19039
20
0.0740199
11
1.1904
21
0.0740234
0
LINE
8
BLACK
6
CONTINUOUS
10
1.1904
20
0.0740234
11
1.19187
21
0.0736236
0
LINE
8
BLACK
6
CONTINUOUS
10
1.19187
20
0.0736236
11
1.19333
21
0.0732322
0
LINE
8
BLACK
6
CONTINUOUS
10
1.19333
20
0.0732322
11
1.19334
21
0.0732226
0
LINE
8
BLACK
6
CONTINUOUS
10
1.19334
20
0.0732226
11
1.19335
21
0.0732191
0
LINE
8
BLACK
6
CONTINUOUS
10
1.19335
20
0.0732191
11
1.19442
21
0.0721423
0
LINE
8
BLACK
6
CONTINUOUS
10
1.19442
20
0.0721423
11
1.19549
21
0.0710707
0
LINE
8
BLACK
6
CONTINUOUS
10
1.19549
20
0.0710707
11
1.19549
21
0.0710575
0
LINE
8
BLACK
6
CONTINUOUS
10
1.19549
20
0.0710575
11
1.1955
21
0.0710479
0
LINE
8
BLACK
6
CONTINUOUS
10
1.1955
20
0.0710479
11
1.21372
21
0.0391744
0
LINE
8
BLACK
6
CONTINUOUS
10
1.21372
20
0.0391744
11
1.21372
21
0.0681179
0
LINE
8
BLACK
6
CONTINUOUS
10
1.21372
20
0.0681179
11
1.21451
21
0.0710707
0
LINE
8
BLACK
6
CONTINUOUS
10
1.21451
20
0.0710707
11
1.21667
21
0.0732322
0
LINE
8
BLACK
6
CONTINUOUS
10
1.21667
20
0.0732322
11
1.21962
21
0.0740234
0
LINE
8
BLACK
6
CONTINUOUS
10
1.21962
20
0.0740234
11
1.22258
21
0.0732322
0
LINE
8
BLACK
6
CONTINUOUS
10
1.2571
20
0.0737773
11
1.25805
21
0.0737204
0
LINE
8
BLACK
6
CONTINUOUS
10
1.25805
20
0.0737204
11
1.26536
21
0.0712831
0
LINE
8
BLACK
6
CONTINUOUS
10
1.26536
20
0.0712831
11
1.26649
21
0.0705353
0
LINE
8
BLACK
6
CONTINUOUS
10
1.26649
20
0.0705353
11
1.26767
21
0.0698565
0
LINE
8
BLACK
6
CONTINUOUS
10
1.26767
20
0.0698565
11
1.27254
21
0.0649821
0
LINE
8
BLACK
6
CONTINUOUS
10
1.27254
20
0.0649821
11
1.27302
21
0.0641587
0
LINE
8
BLACK
6
CONTINUOUS
10
1.27302
20
0.0641587
11
1.27365
21
0.0634473
0
LINE
8
BLACK
6
CONTINUOUS
10
1.27365
20
0.0634473
11
1.27609
21
0.058573
0
LINE
8
BLACK
6
CONTINUOUS
10
1.27609
20
0.058573
11
1.27622
21
0.0579342
0
LINE
8
BLACK
6
CONTINUOUS
10
1.27622
20
0.0579342
11
1.27653
21
0.0573642
0
LINE
8
BLACK
6
CONTINUOUS
10
1.27653
20
0.0573642
11
1.27897
21
0.0476154
0
LINE
8
BLACK
6
CONTINUOUS
10
1.27897
20
0.0476154
11
1.27896
21
0.0468869
0
LINE
8
BLACK
6
CONTINUOUS
10
1.27896
20
0.0468869
11
1.27915
21
0.0461831
0
LINE
8
BLACK
6
CONTINUOUS
10
1.27915
20
0.0461831
11
1.27915
21
0.0388716
0
LINE
8
BLACK
6
CONTINUOUS
10
1.27915
20
0.0388716
11
1.27896
21
0.0381678
0
LINE
8
BLACK
6
CONTINUOUS
10
1.27896
20
0.0381678
11
1.27897
21
0.0374393
0
LINE
8
BLACK
6
CONTINUOUS
10
1.27897
20
0.0374393
11
1.27653
21
0.0276905
0
LINE
8
BLACK
6
CONTINUOUS
10
1.27653
20
0.0276905
11
1.27622
21
0.0271205
0
LINE
8
BLACK
6
CONTINUOUS
10
1.27622
20
0.0271205
11
1.27609
21
0.0264818
0
LINE
8
BLACK
6
CONTINUOUS
10
1.27609
20
0.0264818
11
1.27365
21
0.0216074
0
LINE
8
BLACK
6
CONTINUOUS
10
1.27365
20
0.0216074
11
1.27302
21
0.0208959
0
LINE
8
BLACK
6
CONTINUOUS
10
1.27302
20
0.0208959
11
1.27254
21
0.0200726
0
LINE
8
BLACK
6
CONTINUOUS
10
1.27254
20
0.0200726
11
1.26767
21
0.0151982
0
LINE
8
BLACK
6
CONTINUOUS
10
1.26767
20
0.0151982
11
1.26649
21
0.0145195
0
LINE
8
BLACK
6
CONTINUOUS
10
1.26649
20
0.0145195
11
1.26536
21
0.0137716
0
LINE
8
BLACK
6
CONTINUOUS
10
1.26536
20
0.0137716
11
1.25805
21
0.0113344
0
LINE
8
BLACK
6
CONTINUOUS
10
1.25805
20
0.0113344
11
1.2571
21
0.0112774
0
LINE
8
BLACK
6
CONTINUOUS
10
1.2571
20
0.0112774
11
1.25618
21
0.0110313
0
LINE
8
BLACK
6
CONTINUOUS
10
1.25618
20
0.0110313
11
1.244
21
0.0110313
0
LINE
8
BLACK
6
CONTINUOUS
10
1.244
20
0.0110313
11
1.24104
21
0.0118225
0
LINE
8
BLACK
6
CONTINUOUS
10
1.24104
20
0.0118225
11
1.23888
21
0.0139841
0
LINE
8
BLACK
6
CONTINUOUS
10
1.23888
20
0.0139841
11
1.23809
21
0.0169368
0
LINE
8
BLACK
6
CONTINUOUS
10
1.23809
20
0.0169368
11
1.23809
21
0.0681179
0
LINE
8
BLACK
6
CONTINUOUS
10
1.23809
20
0.0681179
11
1.23888
21
0.0710707
0
LINE
8
BLACK
6
CONTINUOUS
10
1.23888
20
0.0710707
11
1.24104
21
0.0732322
0
LINE
8
BLACK
6
CONTINUOUS
10
1.24104
20
0.0732322
11
1.244
21
0.0740234
0
LINE
8
BLACK
6
CONTINUOUS
10
1.244
20
0.0740234
11
1.25618
21
0.0740234
0
LINE
8
BLACK
6
CONTINUOUS
10
1.25618
20
0.0740234
11
1.2571
21
0.0737773
0
LINE
8
BLACK
6
CONTINUOUS
10
1.2499
20
0.0228423
11
1.25522
21
0.0228423
0
LINE
8
BLACK
6
CONTINUOUS
10
1.25522
20
0.0228423
11
1.2603
21
0.0245356
0
LINE
8
BLACK
6
CONTINUOUS
10
1.2603
20
0.0245356
11
1.26351
21
0.0277466
0
LINE
8
BLACK
6
CONTINUOUS
10
1.26351
20
0.0277466
11
1.26523
21
0.031184
0
LINE
8
BLACK
6
CONTINUOUS
10
1.26523
20
0.031184
11
1.26734
21
0.0395985
0
LINE
8
BLACK
6
CONTINUOUS
10
1.26734
20
0.0395985
11
1.26734
21
0.0454562
0
LINE
8
BLACK
6
CONTINUOUS
10
1.26734
20
0.0454562
11
1.26523
21
0.0538706
0
LINE
8
BLACK
6
CONTINUOUS
10
1.26523
20
0.0538706
11
1.26351
21
0.0573081
0
LINE
8
BLACK
6
CONTINUOUS
10
1.26351
20
0.0573081
11
1.2603
21
0.0605191
0
LINE
8
BLACK
6
CONTINUOUS
10
1.2603
20
0.0605191
11
1.25522
21
0.0622124
0
LINE
8
BLACK
6
CONTINUOUS
10
1.25522
20
0.0622124
11
1.2499
21
0.0622124
0
LINE
8
BLACK
6
CONTINUOUS
10
1.2499
20
0.0622124
11
1.2499
21
0.0228423
0
LINE
8
BLACK
6
CONTINUOUS
10
1.52249
20
0.0924636
11
1.52465
21
0.090302
0
LINE
8
BLACK
6
CONTINUOUS
10
1.52465
20
0.090302
11
1.52544
21
0.0873493
0
LINE
8
BLACK
6
CONTINUOUS
10
1.52544
20
0.0873493
11
1.52544
21
0.0678606
0
LINE
8
BLACK
6
CONTINUOUS
10
1.52544
20
0.0678606
11
1.5491
21
0.0915251
0
LINE
8
BLACK
6
CONTINUOUS
10
1.5491
20
0.0915251
11
1.55175
21
0.0930535
0
LINE
8
BLACK
6
CONTINUOUS
10
1.55175
20
0.0930535
11
1.55481
21
0.0930535
0
LINE
8
BLACK
6
CONTINUOUS
10
1.55481
20
0.0930535
11
1.55745
21
0.0915251
0
LINE
8
BLACK
6
CONTINUOUS
10
1.55745
20
0.0915251
11
1.55898
21
0.0888777
0
LINE
8
BLACK
6
CONTINUOUS
10
1.55898
20
0.0888777
11
1.55898
21
0.0858208
0
LINE
8
BLACK
6
CONTINUOUS
10
1.55898
20
0.0858208
11
1.55745
21
0.0831734
0
LINE
8
BLACK
6
CONTINUOUS
10
1.55745
20
0.0831734
11
1.53577
21
0.0614857
0
LINE
8
BLACK
6
CONTINUOUS
10
1.53577
20
0.0614857
11
1.558
21
0.0318374
0
LINE
8
BLACK
6
CONTINUOUS
10
1.558
20
0.0318374
11
1.55914
21
0.0290005
0
LINE
8
BLACK
6
CONTINUOUS
10
1.55914
20
0.0290005
11
1.55871
21
0.0259743
0
LINE
8
BLACK
6
CONTINUOUS
10
1.55871
20
0.0259743
11
1.55682
21
0.0235697
0
LINE
8
BLACK
6
CONTINUOUS
10
1.55682
20
0.0235697
11
1.55399
21
0.022431
0
LINE
8
BLACK
6
CONTINUOUS
10
1.55399
20
0.022431
11
1.55096
21
0.0228633
0
LINE
8
BLACK
6
CONTINUOUS
10
1.55096
20
0.0228633
11
1.54855
21
0.0247508
0
LINE
8
BLACK
6
CONTINUOUS
10
1.54855
20
0.0247508
11
1.52733
21
0.0530493
0
LINE
8
BLACK
6
CONTINUOUS
10
1.52733
20
0.0530493
11
1.52544
21
0.0511573
0
LINE
8
BLACK
6
CONTINUOUS
10
1.52544
20
0.0511573
11
1.52544
21
0.0282941
0
LINE
8
BLACK
6
CONTINUOUS
10
1.52544
20
0.0282941
11
1.52465
21
0.0253414
0
LINE
8
BLACK
6
CONTINUOUS
10
1.52465
20
0.0253414
11
1.52249
21
0.0231798
0
LINE
8
BLACK
6
CONTINUOUS
10
1.52249
20
0.0231798
11
1.51953
21
0.0223886
0
LINE
8
BLACK
6
CONTINUOUS
10
1.51953
20
0.0223886
11
1.51658
21
0.0231798
0
LINE
8
BLACK
6
CONTINUOUS
10
1.51658
20
0.0231798
11
1.51442
21
0.0253414
0
LINE
8
BLACK
6
CONTINUOUS
10
1.51442
20
0.0253414
11
1.51363
21
0.0282941
0
LINE
8
BLACK
6
CONTINUOUS
10
1.51363
20
0.0282941
11
1.51363
21
0.0873493
0
LINE
8
BLACK
6
CONTINUOUS
10
1.51363
20
0.0873493
11
1.51442
21
0.090302
0
LINE
8
BLACK
6
CONTINUOUS
10
1.51442
20
0.090302
11
1.51658
21
0.0924636
0
LINE
8
BLACK
6
CONTINUOUS
10
1.51658
20
0.0924636
11
1.51953
21
0.0932548
0
LINE
8
BLACK
6
CONTINUOUS
10
1.51953
20
0.0932548
11
1.52249
21
0.0924636
0
LINE
8
BLACK
6
CONTINUOUS
10
0.435
20
0.05
11
0.375
21
0.05
0
LINE
8
BLACK
6
CONTINUOUS
10
0.375
20
0.05
11
0.375
21
0.11
0
LINE
8
BLACK
6
CONTINUOUS
10
0.375
20
0.11
11
0.435
21
0.11
0
LINE
8
BLACK
6
CONTINUOUS
10
0.435
20
0.11
11
0.435
21
0.05
0
LINE
8
BLACK
6
CONTINUOUS
10
0.535
20
0.05
11
0.475
21
0.05
0
LINE
8
BLACK
6
CONTINUOUS
10
0.475
20
0.05
11
0.475
21
0.11
0
LINE
8
BLACK
6
CONTINUOUS
10
0.475
20
0.11
11
0.535
21
0.11
0
LINE
8
BLACK
6
CONTINUOUS
10
0.535
20
0.11
11
0.535
21
0.05
0
LINE
8
BLACK
6
CONTINUOUS
10
0.635
20
0.05
11
0.575
21
0.05
0
LINE
8
BLACK
6
CONTINUOUS
10
0.575
20
0.05
11
0.575
21
0.11
0
LINE
8
BLACK
6
CONTINUOUS
10
0.575
20
0.11
11
0.635
21
0.11
0
LINE
8
BLACK
6
CONTINUOUS
10
0.635
20
0.11
11
0.635
21
0.05
0
LINE
8
BLACK
6
CONTINUOUS
10
0.735
20
0.05
11
0.675
21
0.05
0
LINE
8
BLACK
6
CONTINUOUS
10
0.675
20
0.05
11
0.675
21
0.11
0
LINE
8
BLACK
6
CONTINUOUS
10
0.675
20
0.11
11
0.735
21
0.11
0
LINE
8
BLACK
6
CONTINUOUS
10
0.735
20
0.11
11
0.735
21
0.05
0
LINE
8
BLACK
6
CONTINUOUS
10
0.835
20
0.05
11
0.775
21
0.05
0
LINE
8
BLACK
6
CONTINUOUS
10
0.775
20
0.05
11
0.775
21
0.11
0
LINE
8
BLACK
6
CONTINUOUS
10
0.775
20
0.11
11
0.835
21
0.11
0
LINE
8
BLACK
6
CONTINUOUS
10
0.835
20
0.11
11
0.835
21
0.05
0
LINE
8
BLACK
6
CONTINUOUS
10
0.435
20
0.15
11
0.375
21
0.15
0
LINE
8
BLACK
6
CONTINUOUS
10
0.375
20
0.15
11
0.375
21
0.21
0
LINE
8
BLACK
6
CONTINUOUS
10
0.375
20
0.21
11
0.435
21
0.21
0
LINE
8
BLACK
6
CONTINUOUS
10
0.435
20
0.21
11
0.435
21
0.15
0
LINE
8
BLACK
6
CONTINUOUS
10
0.535
20
0.15
11
0.475
21
0.15
0
LINE
8
BLACK
6
CONTINUOUS
10
0.475
20
0.15
11
0.475
21
0.21
0
LINE
8
BLACK
6
CONTINUOUS
10
0.475
20
0.21
11
0.535
21
0.21
0
LINE
8
BLACK
6
CONTINUOUS
10
0.535
20
0.21
11
0.535
21
0.15
0
LINE
8
BLACK
6
CONTINUOUS
10
0.635
20
0.15
11
0.575
21
0.15
0
LINE
8
BLACK
6
CONTINUOUS
10
0.575
20
0.15
11
0.575
21
0.21
0
LINE
8
BLACK
6
CONTINUOUS
10
0.575
20
0.21
11
0.635
21
0.21
0
LINE
8
BLACK
6
CONTINUOUS
10
0.635
20
0.21
11
0.635
21
0.15
0
LINE
8
BLACK
6
CONTINUOUS
10
0.735
20
0.15
11
0.675
21
0.15
0
LINE
8
BLACK
6
CONTINUOUS
10
0.675
20
0.15
11
0.675
21
0.21
0
LINE
8
BLACK
6
CONTINUOUS
10
0.675
20
0.21
11
0.735
21
0.21
0
LINE
8
BLACK
6
CONTINUOUS
10
0.735
20
0.21
11
0.735
21
0.15
0
LINE
8
BLACK
6
CONTINUOUS
10
0.835
20
0.15
11
0.775
21
0.15
0
LINE
8
BLACK
6
CONTINUOUS
10
0.775
20
0.15
11
0.775
21
0.21
0
LINE
8
BLACK
6
CONTINUOUS
10
0.775
20
0.21
11
0.835
21
0.21
0
LINE
8
BLACK
6
CONTINUOUS
10
0.835
20
0.21
11
0.835
21
0.15
0
LINE
8
BLACK
6
CONTINUOUS
10
0.855384
20
0.232885
11
0.855513
21
0.232908
0
LINE
8
BLACK
6
CONTINUOUS
10
0.855513
20
0.232908
11
0.855626
21
0.232842
0
LINE
8
BLACK
6
CONTINUOUS
10
0.855626
20
0.232842
11
0.85601
21
0.232775
0
LINE
8
BLACK
6
CONTINUOUS
10
0.85601
20
0.232775
11
0.856598
21
0.232282
0
LINE
8
BLACK
6
CONTINUOUS
10
0.856598
20
0.232282
11
0.857262
21
0.231898
0
LINE
8
BLACK
6
CONTINUOUS
10
0.857262
20
0.231898
11
0.857353
21
0.231648
0
LINE
8
BLACK
6
CONTINUOUS
10
0.857353
20
0.231648
11
0.857557
21
0.231476
0
LINE
8
BLACK
6
CONTINUOUS
10
0.857557
20
0.231476
11
0.85769
21
0.230721
0
LINE
8
BLACK
6
CONTINUOUS
10
0.85769
20
0.230721
11
0.857953
21
0.23
0
LINE
8
BLACK
6
CONTINUOUS
10
0.857953
20
0.23
11
0.857953
21
0.03
0
LINE
8
BLACK
6
CONTINUOUS
10
0.857953
20
0.03
11
0.857885
21
0.0296165
0
LINE
8
BLACK
6
CONTINUOUS
10
0.857885
20
0.0296165
11
0.857908
21
0.0294872
0
LINE
8
BLACK
6
CONTINUOUS
10
0.857908
20
0.0294872
11
0.857842
21
0.0293736
0
LINE
8
BLACK
6
CONTINUOUS
10
0.857842
20
0.0293736
11
0.857775
21
0.0289901
0
LINE
8
BLACK
6
CONTINUOUS
10
0.857775
20
0.0289901
11
0.857282
21
0.0284024
0
LINE
8
BLACK
6
CONTINUOUS
10
0.857282
20
0.0284024
11
0.856898
21
0.0277381
0
LINE
8
BLACK
6
CONTINUOUS
10
0.856898
20
0.0277381
11
0.856648
21
0.0276469
0
LINE
8
BLACK
6
CONTINUOUS
10
0.856648
20
0.0276469
11
0.856476
21
0.0274428
0
LINE
8
BLACK
6
CONTINUOUS
10
0.856476
20
0.0274428
11
0.855721
21
0.0273096
0
LINE
8
BLACK
6
CONTINUOUS
10
0.855721
20
0.0273096
11
0.855
21
0.0270472
0
LINE
8
BLACK
6
CONTINUOUS
10
0.855
20
0.0270472
11
0.355
21
0.0270472
0
LINE
8
BLACK
6
CONTINUOUS
10
0.355
20
0.0270472
11
0.354616
21
0.0271148
0
LINE
8
BLACK
6
CONTINUOUS
10
0.354616
20
0.0271148
11
0.354487
21
0.0270921
0
LINE
8
BLACK
6
CONTINUOUS
10
0.354487
20
0.0270921
11
0.354374
21
0.0271577
0
LINE
8
BLACK
6
CONTINUOUS
10
0.354374
20
0.0271577
11
0.35399
21
0.0272253
0
LINE
8
BLACK
6
CONTINUOUS
10
0.35399
20
0.0272253
11
0.353402
21
0.0277184
0
LINE
8
BLACK
6
CONTINUOUS
10
0.353402
20
0.0277184
11
0.352738
21
0.028102
0
LINE
8
BLACK
6
CONTINUOUS
10
0.352738
20
0.028102
11
0.352647
21
0.0283523
0
LINE
8
BLACK
6
CONTINUOUS
10
0.352647
20
0.0283523
11
0.352443
21
0.0285236
0
LINE
8
BLACK
6
CONTINUOUS
10
0.352443
20
0.0285236
11
0.35231
21
0.0292792
0
LINE
8
BLACK
6
CONTINUOUS
10
0.35231
20
0.0292792
11
0.352047
21
0.03
0
LINE
8
BLACK
6
CONTINUOUS
10
0.352047
20
0.03
11
0.352047
21
0.23
0
LINE
8
BLACK
6
CONTINUOUS
10
0.352047
20
0.23
11
0.352115
21
0.230384
0
LINE
8
BLACK
6
CONTINUOUS
10
0.352115
20
0.230384
11
0.352092
21
0.230513
0
LINE
8
BLACK
6
CONTINUOUS
10
0.352092
20
0.230513
11
0.352158
21
0.230626
0
LINE
8
BLACK
6
CONTINUOUS
10
0.352158
20
0.230626
11
0.352225
21
0.23101
0
LINE
8
BLACK
6
CONTINUOUS
10
0.352225
20
0.23101
11
0.352718
21
0.231598
0
LINE
8
BLACK
6
CONTINUOUS
10
0.352718
20
0.231598
11
0.353102
21
0.232262
0
LINE
8
BLACK
6
CONTINUOUS
10
0.353102
20
0.232262
11
0.353352
21
0.232353
0
LINE
8
BLACK
6
CONTINUOUS
10
0.353352
20
0.232353
11
0.353524
21
0.232557
0
LINE
8
BLACK
6
CONTINUOUS
10
0.353524
20
0.232557
11
0.354279
21
0.23269
0
LINE
8
BLACK
6
CONTINUOUS
10
0.354279
20
0.23269
11
0.355
21
0.232953
0
LINE
8
BLACK
6
CONTINUOUS
10
0.355
20
0.232953
11
0.855
21
0.232953
0
LINE
8
BLACK
6
CONTINUOUS
10
0.855
20
0.232953
11
0.855384
21
0.232885
0
LINE
8
BLACK
6
CONTINUOUS
10
0.357953
20
0.227047
11
0.357953
21
0.0329528
0
LINE
8
BLACK
6
CONTINUOUS
10
0.357953
20
0.0329528
11
0.852047
21
0.0329528
0
LINE
8
BLACK
6
CONTINUOUS
10
0.852047
20
0.0329528
11
0.852047
21
0.227047
0
LINE
8
BLACK
6
CONTINUOUS
10
0.852047
20
0.227047
11
0.357953
21
0.227047
0
LINE
8
BLACK
6
CONTINUOUS
10
1.24469
20
0.165315
11
1.20531
21
0.165315
0
LINE
8
BLACK
6
CONTINUOUS
10
1.20531
20
0.165315
11
1.20531
21
0.204685
0
LINE
8
BLACK
6
CONTINUOUS
10
1.20531
20
0.204685
11
1.24469
21
0.204685
0
LINE
8
BLACK
6
CONTINUOUS
10
1.24469
20
0.204685
11
1.24469
21
0.165315
0
LINE
8
BLACK
6
CONTINUOUS
10
1.20714
20
0.283777
11
1.20809
21
0.28372
0
LINE
8
BLACK
6
CONTINUOUS
10
1.20809
20
0.28372
11
1.2154
21
0.281283
0
LINE
8
BLACK
6
CONTINUOUS
10
1.2154
20
0.281283
11
1.21653
21
0.280535
0
LINE
8
BLACK
6
CONTINUOUS
10
1.21653
20
0.280535
11
1.21771
21
0.279857
0
LINE
8
BLACK
6
CONTINUOUS
10
1.21771
20
0.279857
11
1.22258
21
0.274982
0
LINE
8
BLACK
6
CONTINUOUS
10
1.22258
20
0.274982
11
1.22306
21
0.274159
0
LINE
8
BLACK
6
CONTINUOUS
10
1.22306
20
0.274159
11
1.22369
21
0.273447
0
LINE
8
BLACK
6
CONTINUOUS
10
1.22369
20
0.273447
11
1.22612
21
0.268573
0
LINE
8
BLACK
6
CONTINUOUS
10
1.22612
20
0.268573
11
1.22625
21
0.267934
0
LINE
8
BLACK
6
CONTINUOUS
10
1.22625
20
0.267934
11
1.22657
21
0.267364
0
LINE
8
BLACK
6
CONTINUOUS
10
1.22657
20
0.267364
11
1.22901
21
0.257615
0
LINE
8
BLACK
6
CONTINUOUS
10
1.22901
20
0.257615
11
1.229
21
0.256887
0
LINE
8
BLACK
6
CONTINUOUS
10
1.229
20
0.256887
11
1.22918
21
0.256183
0
LINE
8
BLACK
6
CONTINUOUS
10
1.22918
20
0.256183
11
1.22918
21
0.248872
0
LINE
8
BLACK
6
CONTINUOUS
10
1.22918
20
0.248872
11
1.229
21
0.248168
0
LINE
8
BLACK
6
CONTINUOUS
10
1.229
20
0.248168
11
1.22901
21
0.247439
0
LINE
8
BLACK
6
CONTINUOUS
10
1.22901
20
0.247439
11
1.22657
21
0.237691
0
LINE
8
BLACK
6
CONTINUOUS
10
1.22657
20
0.237691
11
1.22625
21
0.237121
0
LINE
8
BLACK
6
CONTINUOUS
10
1.22625
20
0.237121
11
1.22612
21
0.236482
0
LINE
8
BLACK
6
CONTINUOUS
10
1.22612
20
0.236482
11
1.22369
21
0.231607
0
LINE
8
BLACK
6
CONTINUOUS
10
1.22369
20
0.231607
11
1.22306
21
0.230896
0
LINE
8
BLACK
6
CONTINUOUS
10
1.22306
20
0.230896
11
1.22258
21
0.230073
0
LINE
8
BLACK
6
CONTINUOUS
10
1.22258
20
0.230073
11
1.21885
21
0.226339
0
LINE
8
BLACK
6
CONTINUOUS
10
1.21885
20
0.226339
11
1.23215
21
0.226339
0
LINE
8
BLACK
6
CONTINUOUS
10
1.23215
20
0.226339
11
1.2323
21
0.228804
0
LINE
8
BLACK
6
CONTINUOUS
10
1.2323
20
0.228804
11
1.24936
21
0.279985
0
LINE
8
BLACK
6
CONTINUOUS
10
1.24936
20
0.279985
11
1.25001
21
0.280975
0
LINE
8
BLACK
6
CONTINUOUS
10
1.25001
20
0.280975
11
1.25054
21
0.282036
0
LINE
8
BLACK
6
CONTINUOUS
10
1.25054
20
0.282036
11
1.25085
21
0.282235
0
LINE
8
BLACK
6
CONTINUOUS
10
1.25085
20
0.282235
11
1.25104
21
0.282536
0
LINE
8
BLACK
6
CONTINUOUS
10
1.25104
20
0.282536
11
1.25211
21
0.283067
0
LINE
8
BLACK
6
CONTINUOUS
10
1.25211
20
0.283067
11
1.2531
21
0.28372
0
LINE
8
BLACK
6
CONTINUOUS
10
1.2531
20
0.28372
11
1.25346
21
0.283742
0
LINE
8
BLACK
6
CONTINUOUS
10
1.25346
20
0.283742
11
1.25378
21
0.283904
0
LINE
8
BLACK
6
CONTINUOUS
10
1.25378
20
0.283904
11
1.25496
21
0.283832
0
LINE
8
BLACK
6
CONTINUOUS
10
1.25496
20
0.283832
11
1.25615
21
0.283904
0
LINE
8
BLACK
6
CONTINUOUS
10
1.25615
20
0.283904
11
1.25647
21
0.283742
0
LINE
8
BLACK
6
CONTINUOUS
10
1.25647
20
0.283742
11
1.25683
21
0.28372
0
LINE
8
BLACK
6
CONTINUOUS
10
1.25683
20
0.28372
11
1.25782
21
0.283067
0
LINE
8
BLACK
6
CONTINUOUS
10
1.25782
20
0.283067
11
1.25888
21
0.282536
0
LINE
8
BLACK
6
CONTINUOUS
10
1.25888
20
0.282536
11
1.25908
21
0.282235
0
LINE
8
BLACK
6
CONTINUOUS
10
1.25908
20
0.282235
11
1.25938
21
0.282036
0
LINE
8
BLACK
6
CONTINUOUS
10
1.25938
20
0.282036
11
1.25991
21
0.280975
0
LINE
8
BLACK
6
CONTINUOUS
10
1.25991
20
0.280975
11
1.26056
21
0.279985
0
LINE
8
BLACK
6
CONTINUOUS
10
1.26056
20
0.279985
11
1.27763
21
0.228804
0
LINE
8
BLACK
6
CONTINUOUS
10
1.27763
20
0.228804
11
1.27781
21
0.225753
0
LINE
8
BLACK
6
CONTINUOUS
10
1.27781
20
0.225753
11
1.27644
21
0.223019
0
LINE
8
BLACK
6
CONTINUOUS
10
1.27644
20
0.223019
11
1.27389
21
0.221334
0
LINE
8
BLACK
6
CONTINUOUS
10
1.27389
20
0.221334
11
1.27084
21
0.221151
0
LINE
8
BLACK
6
CONTINUOUS
10
1.27084
20
0.221151
11
1.2681
21
0.222518
0
LINE
8
BLACK
6
CONTINUOUS
10
1.2681
20
0.222518
11
1.26642
21
0.225069
0
LINE
8
BLACK
6
CONTINUOUS
10
1.26642
20
0.225069
11
1.26289
21
0.235654
0
LINE
8
BLACK
6
CONTINUOUS
10
1.26289
20
0.235654
11
1.24703
21
0.235654
0
LINE
8
BLACK
6
CONTINUOUS
10
1.24703
20
0.235654
11
1.24393
21
0.226339
0
LINE
8
BLACK
6
CONTINUOUS
10
1.24393
20
0.226339
11
1.26437
21
0.226339
0
LINE
8
BLACK
6
CONTINUOUS
10
1.26437
20
0.226339
11
1.26576
21
0.225762
0
LINE
8
BLACK
6
CONTINUOUS
10
1.26576
20
0.225762
11
1.26634
21
0.22437
0
LINE
8
BLACK
6
CONTINUOUS
10
1.26634
20
0.22437
11
1.26634
21
0.14563
0
LINE
8
BLACK
6
CONTINUOUS
10
1.26634
20
0.14563
11
1.26576
21
0.144238
0
LINE
8
BLACK
6
CONTINUOUS
10
1.26576
20
0.144238
11
1.26437
21
0.143661
0
LINE
8
BLACK
6
CONTINUOUS
10
1.26437
20
0.143661
11
1.26399
21
0.143661
0
LINE
8
BLACK
6
CONTINUOUS
10
1.26399
20
0.143661
11
1.26767
21
0.139982
0
LINE
8
BLACK
6
CONTINUOUS
10
1.26767
20
0.139982
11
1.26814
21
0.139159
0
LINE
8
BLACK
6
CONTINUOUS
10
1.26814
20
0.139159
11
1.26877
21
0.138447
0
LINE
8
BLACK
6
CONTINUOUS
10
1.26877
20
0.138447
11
1.27121
21
0.133573
0
LINE
8
BLACK
6
CONTINUOUS
10
1.27121
20
0.133573
11
1.27134
21
0.132934
0
LINE
8
BLACK
6
CONTINUOUS
10
1.27134
20
0.132934
11
1.27166
21
0.132364
0
LINE
8
BLACK
6
CONTINUOUS
10
1.27166
20
0.132364
11
1.2741
21
0.122615
0
LINE
8
BLACK
6
CONTINUOUS
10
1.2741
20
0.122615
11
1.27408
21
0.121887
0
LINE
8
BLACK
6
CONTINUOUS
10
1.27408
20
0.121887
11
1.27427
21
0.121183
0
LINE
8
BLACK
6
CONTINUOUS
10
1.27427
20
0.121183
11
1.27427
21
0.113872
0
LINE
8
BLACK
6
CONTINUOUS
10
1.27427
20
0.113872
11
1.27408
21
0.113168
0
LINE
8
BLACK
6
CONTINUOUS
10
1.27408
20
0.113168
11
1.2741
21
0.112439
0
LINE
8
BLACK
6
CONTINUOUS
10
1.2741
20
0.112439
11
1.27166
21
0.102691
0
LINE
8
BLACK
6
CONTINUOUS
10
1.27166
20
0.102691
11
1.27134
21
0.102121
0
LINE
8
BLACK
6
CONTINUOUS
10
1.27134
20
0.102121
11
1.27121
21
0.101482
0
LINE
8
BLACK
6
CONTINUOUS
10
1.27121
20
0.101482
11
1.26877
21
0.0966074
0
LINE
8
BLACK
6
CONTINUOUS
10
1.26877
20
0.0966074
11
1.26814
21
0.0958959
0
LINE
8
BLACK
6
CONTINUOUS
10
1.26814
20
0.0958959
11
1.26767
21
0.0950726
0
LINE
8
BLACK
6
CONTINUOUS
10
1.26767
20
0.0950726
11
1.26279
21
0.0901982
0
LINE
8
BLACK
6
CONTINUOUS
10
1.26279
20
0.0901982
11
1.26162
21
0.0895195
0
LINE
8
BLACK
6
CONTINUOUS
10
1.26162
20
0.0895195
11
1.26049
21
0.0887716
0
LINE
8
BLACK
6
CONTINUOUS
10
1.26049
20
0.0887716
11
1.25317
21
0.0863344
0
LINE
8
BLACK
6
CONTINUOUS
10
1.25317
20
0.0863344
11
1.25223
21
0.0862774
0
LINE
8
BLACK
6
CONTINUOUS
10
1.25223
20
0.0862774
11
1.25131
21
0.0860313
0
LINE
8
BLACK
6
CONTINUOUS
10
1.25131
20
0.0860313
11
1.23912
21
0.0860313
0
LINE
8
BLACK
6
CONTINUOUS
10
1.23912
20
0.0860313
11
1.23617
21
0.0868225
0
LINE
8
BLACK
6
CONTINUOUS
10
1.23617
20
0.0868225
11
1.23401
21
0.0889841
0
LINE
8
BLACK
6
CONTINUOUS
10
1.23401
20
0.0889841
11
1.23322
21
0.0919368
0
LINE
8
BLACK
6
CONTINUOUS
10
1.23322
20
0.0919368
11
1.23322
21
0.143118
0
LINE
8
BLACK
6
CONTINUOUS
10
1.23322
20
0.143118
11
1.23336
21
0.143661
0
LINE
8
BLACK
6
CONTINUOUS
10
1.23336
20
0.143661
11
1.21281
21
0.143661
0
LINE
8
BLACK
6
CONTINUOUS
10
1.21281
20
0.143661
11
1.21649
21
0.139982
0
LINE
8
BLACK
6
CONTINUOUS
10
1.21649
20
0.139982
11
1.21696
21
0.139159
0
LINE
8
BLACK
6
CONTINUOUS
10
1.21696
20
0.139159
11
1.21759
21
0.138447
0
LINE
8
BLACK
6
CONTINUOUS
10
1.21759
20
0.138447
11
1.22003
21
0.133573
0
LINE
8
BLACK
6
CONTINUOUS
10
1.22003
20
0.133573
11
1.22016
21
0.132934
0
LINE
8
BLACK
6
CONTINUOUS
10
1.22016
20
0.132934
11
1.22048
21
0.132364
0
LINE
8
BLACK
6
CONTINUOUS
10
1.22048
20
0.132364
11
1.22292
21
0.122615
0
LINE
8
BLACK
6
CONTINUOUS
10
1.22292
20
0.122615
11
1.2229
21
0.121887
0
LINE
8
BLACK
6
CONTINUOUS
10
1.2229
20
0.121887
11
1.22309
21
0.121183
0
LINE
8
BLACK
6
CONTINUOUS
10
1.22309
20
0.121183
11
1.22309
21
0.113872
0
LINE
8
BLACK
6
CONTINUOUS
10
1.22309
20
0.113872
11
1.2229
21
0.113168
0
LINE
8
BLACK
6
CONTINUOUS
10
1.2229
20
0.113168
11
1.22292
21
0.112439
0
LINE
8
BLACK
6
CONTINUOUS
10
1.22292
20
0.112439
11
1.22048
21
0.102691
0
LINE
8
BLACK
6
CONTINUOUS
10
1.22048
20
0.102691
11
1.22016
21
0.102121
0
LINE
8
BLACK
6
CONTINUOUS
10
1.22016
20
0.102121
11
1.22003
21
0.101482
0
LINE
8
BLACK
6
CONTINUOUS
10
1.22003
20
0.101482
11
1.21759
21
0.0966074
0
LINE
8
BLACK
6
CONTINUOUS
10
1.21759
20
0.0966074
11
1.21696
21
0.0958959
0
LINE
8
BLACK
6
CONTINUOUS
10
1.21696
20
0.0958959
11
1.21649
21
0.0950726
0
LINE
8
BLACK
6
CONTINUOUS
10
1.21649
20
0.0950726
11
1.21161
21
0.0901982
0
LINE
8
BLACK
6
CONTINUOUS
10
1.21161
20
0.0901982
11
1.21044
21
0.0895195
0
LINE
8
BLACK
6
CONTINUOUS
10
1.21044
20
0.0895195
11
1.2093
21
0.0887716
0
LINE
8
BLACK
6
CONTINUOUS
10
1.2093
20
0.0887716
11
1.20199
21
0.0863344
0
LINE
8
BLACK
6
CONTINUOUS
10
1.20199
20
0.0863344
11
1.20104
21
0.0862774
0
LINE
8
BLACK
6
CONTINUOUS
10
1.20104
20
0.0862774
11
1.20013
21
0.0860313
0
LINE
8
BLACK
6
CONTINUOUS
10
1.20013
20
0.0860313
11
1.18794
21
0.0860313
0
LINE
8
BLACK
6
CONTINUOUS
10
1.18794
20
0.0860313
11
1.18499
21
0.0868225
0
LINE
8
BLACK
6
CONTINUOUS
10
1.18499
20
0.0868225
11
1.18283
21
0.0889841
0
LINE
8
BLACK
6
CONTINUOUS
10
1.18283
20
0.0889841
11
1.18203
21
0.0919368
0
LINE
8
BLACK
6
CONTINUOUS
10
1.18203
20
0.0919368
11
1.18203
21
0.143118
0
LINE
8
BLACK
6
CONTINUOUS
10
1.18203
20
0.143118
11
1.18283
21
0.146071
0
LINE
8
BLACK
6
CONTINUOUS
10
1.18283
20
0.146071
11
1.18366
21
0.146907
0
LINE
8
BLACK
6
CONTINUOUS
10
1.18366
20
0.146907
11
1.18366
21
0.22437
0
LINE
8
BLACK
6
CONTINUOUS
10
1.18366
20
0.22437
11
1.18424
21
0.225762
0
LINE
8
BLACK
6
CONTINUOUS
10
1.18424
20
0.225762
11
1.18563
21
0.226339
0
LINE
8
BLACK
6
CONTINUOUS
10
1.18563
20
0.226339
11
1.18829
21
0.226339
0
LINE
8
BLACK
6
CONTINUOUS
10
1.18829
20
0.226339
11
1.18813
21
0.226937
0
LINE
8
BLACK
6
CONTINUOUS
10
1.18813
20
0.226937
11
1.18813
21
0.278118
0
LINE
8
BLACK
6
CONTINUOUS
10
1.18813
20
0.278118
11
1.18892
21
0.281071
0
LINE
8
BLACK
6
CONTINUOUS
10
1.18892
20
0.281071
11
1.19108
21
0.283232
0
LINE
8
BLACK
6
CONTINUOUS
10
1.19108
20
0.283232
11
1.19403
21
0.284023
0
LINE
8
BLACK
6
CONTINUOUS
10
1.19403
20
0.284023
11
1.20622
21
0.284023
0
LINE
8
BLACK
6
CONTINUOUS
10
1.20622
20
0.284023
11
1.20714
21
0.283777
0
LINE
8
BLACK
6
CONTINUOUS
10
1.19385
20
0.0978423
11
1.19917
21
0.0978423
0
LINE
8
BLACK
6
CONTINUOUS
10
1.19917
20
0.0978423
11
1.20425
21
0.0995356
0
LINE
8
BLACK
6
CONTINUOUS
10
1.20425
20
0.0995356
11
1.20746
21
0.102747
0
LINE
8
BLACK
6
CONTINUOUS
10
1.20746
20
0.102747
11
1.20918
21
0.106184
0
LINE
8
BLACK
6
CONTINUOUS
10
1.20918
20
0.106184
11
1.21128
21
0.114598
0
LINE
8
BLACK
6
CONTINUOUS
10
1.21128
20
0.114598
11
1.21128
21
0.120456
0
LINE
8
BLACK
6
CONTINUOUS
10
1.21128
20
0.120456
11
1.20918
21
0.128871
0
LINE
8
BLACK
6
CONTINUOUS
10
1.20918
20
0.128871
11
1.20746
21
0.132308
0
LINE
8
BLACK
6
CONTINUOUS
10
1.20746
20
0.132308
11
1.20425
21
0.135519
0
LINE
8
BLACK
6
CONTINUOUS
10
1.20425
20
0.135519
11
1.19917
21
0.137212
0
LINE
8
BLACK
6
CONTINUOUS
10
1.19917
20
0.137212
11
1.19385
21
0.137212
0
LINE
8
BLACK
6
CONTINUOUS
10
1.19385
20
0.137212
11
1.19385
21
0.0978423
0
LINE
8
BLACK
6
CONTINUOUS
10
1.24503
20
0.0978423
11
1.25035
21
0.0978423
0
LINE
8
BLACK
6
CONTINUOUS
10
1.25035
20
0.0978423
11
1.25543
21
0.0995356
0
LINE
8
BLACK
6
CONTINUOUS
10
1.25543
20
0.0995356
11
1.25864
21
0.102747
0
LINE
8
BLACK
6
CONTINUOUS
10
1.25864
20
0.102747
11
1.26036
21
0.106184
0
LINE
8
BLACK
6
CONTINUOUS
10
1.26036
20
0.106184
11
1.26246
21
0.114598
0
LINE
8
BLACK
6
CONTINUOUS
10
1.26246
20
0.114598
11
1.26246
21
0.120456
0
LINE
8
BLACK
6
CONTINUOUS
10
1.26246
20
0.120456
11
1.26036
21
0.128871
0
LINE
8
BLACK
6
CONTINUOUS
10
1.26036
20
0.128871
11
1.25864
21
0.132308
0
LINE
8
BLACK
6
CONTINUOUS
10
1.25864
20
0.132308
11
1.25543
21
0.135519
0
LINE
8
BLACK
6
CONTINUOUS
10
1.25543
20
0.135519
11
1.25035
21
0.137212
0
LINE
8
BLACK
6
CONTINUOUS
10
1.25035
20
0.137212
11
1.24503
21
0.137212
0
LINE
8
BLACK
6
CONTINUOUS
10
1.24503
20
0.137212
11
1.24503
21
0.0978423
0
LINE
8
BLACK
6
CONTINUOUS
10
1.24159
20
0.222402
11
1.23909
21
0.221151
0
LINE
8
BLACK
6
CONTINUOUS
10
1.23909
20
0.221151
11
1.23603
21
0.221334
0
LINE
8
BLACK
6
CONTINUOUS
10
1.23603
20
0.221334
11
1.23442
21
0.222402
0
LINE
8
BLACK
6
CONTINUOUS
10
1.23442
20
0.222402
11
1.21129
21
0.222402
0
LINE
8
BLACK
6
CONTINUOUS
10
1.21129
20
0.222402
11
1.20809
21
0.221334
0
LINE
8
BLACK
6
CONTINUOUS
10
1.20809
20
0.221334
11
1.20714
21
0.221277
0
LINE
8
BLACK
6
CONTINUOUS
10
1.20714
20
0.221277
11
1.20622
21
0.221031
0
LINE
8
BLACK
6
CONTINUOUS
10
1.20622
20
0.221031
11
1.19403
21
0.221031
0
LINE
8
BLACK
6
CONTINUOUS
10
1.19403
20
0.221031
11
1.19108
21
0.221822
0
LINE
8
BLACK
6
CONTINUOUS
10
1.19108
20
0.221822
11
1.1905
21
0.222402
0
LINE
8
BLACK
6
CONTINUOUS
10
1.1905
20
0.222402
11
1.1876
21
0.222402
0
LINE
8
BLACK
6
CONTINUOUS
10
1.1876
20
0.222402
11
1.1876
21
0.148932
0
LINE
8
BLACK
6
CONTINUOUS
10
1.1876
20
0.148932
11
1.18794
21
0.149023
0
LINE
8
BLACK
6
CONTINUOUS
10
1.18794
20
0.149023
11
1.20013
21
0.149023
0
LINE
8
BLACK
6
CONTINUOUS
10
1.20013
20
0.149023
11
1.20104
21
0.148777
0
LINE
8
BLACK
6
CONTINUOUS
10
1.20104
20
0.148777
11
1.20199
21
0.14872
0
LINE
8
BLACK
6
CONTINUOUS
10
1.20199
20
0.14872
11
1.20536
21
0.147598
0
LINE
8
BLACK
6
CONTINUOUS
10
1.20536
20
0.147598
11
1.23553
21
0.147598
0
LINE
8
BLACK
6
CONTINUOUS
10
1.23553
20
0.147598
11
1.23617
21
0.148232
0
LINE
8
BLACK
6
CONTINUOUS
10
1.23617
20
0.148232
11
1.23912
21
0.149023
0
LINE
8
BLACK
6
CONTINUOUS
10
1.23912
20
0.149023
11
1.25131
21
0.149023
0
LINE
8
BLACK
6
CONTINUOUS
10
1.25131
20
0.149023
11
1.25223
21
0.148777
0
LINE
8
BLACK
6
CONTINUOUS
10
1.25223
20
0.148777
11
1.25317
21
0.14872
0
LINE
8
BLACK
6
CONTINUOUS
10
1.25317
20
0.14872
11
1.25654
21
0.147598
0
LINE
8
BLACK
6
CONTINUOUS
10
1.25654
20
0.147598
11
1.2624
21
0.147598
0
LINE
8
BLACK
6
CONTINUOUS
10
1.2624
20
0.147598
11
1.2624
21
0.222402
0
LINE
8
BLACK
6
CONTINUOUS
10
1.2624
20
0.222402
11
1.24159
21
0.222402
0
LINE
8
BLACK
6
CONTINUOUS
10
1.19994
20
0.232842
11
1.20526
21
0.232842
0
LINE
8
BLACK
6
CONTINUOUS
10
1.20526
20
0.232842
11
1.21034
21
0.234536
0
LINE
8
BLACK
6
CONTINUOUS
10
1.21034
20
0.234536
11
1.21355
21
0.237747
0
LINE
8
BLACK
6
CONTINUOUS
10
1.21355
20
0.237747
11
1.21527
21
0.241184
0
LINE
8
BLACK
6
CONTINUOUS
10
1.21527
20
0.241184
11
1.21737
21
0.249598
0
LINE
8
BLACK
6
CONTINUOUS
10
1.21737
20
0.249598
11
1.21737
21
0.255456
0
LINE
8
BLACK
6
CONTINUOUS
10
1.21737
20
0.255456
11
1.21527
21
0.263871
0
LINE
8
BLACK
6
CONTINUOUS
10
1.21527
20
0.263871
11
1.21355
21
0.267308
0
LINE
8
BLACK
6
CONTINUOUS
10
1.21355
20
0.267308
11
1.21034
21
0.270519
0
LINE
8
BLACK
6
CONTINUOUS
10
1.21034
20
0.270519
11
1.20526
21
0.272212
0
LINE
8
BLACK
6
CONTINUOUS
10
1.20526
20
0.272212
11
1.19994
21
0.272212
0
LINE
8
BLACK
6
CONTINUOUS
10
1.19994
20
0.272212
11
1.19994
21
0.232842
0
LINE
8
BLACK
6
CONTINUOUS
10
1.25097
20
0.247465
11
1.25896
21
0.247465
0
LINE
8
BLACK
6
CONTINUOUS
10
1.25896
20
0.247465
11
1.25496
21
0.259443
0
LINE
8
BLACK
6
CONTINUOUS
10
1.25496
20
0.259443
11
1.25097
21
0.247465
0
LINE
8
BLACK
6
CONTINUOUS
10
1.17275
20
0.14872
11
1.1753
21
0.147036
0
LINE
8
BLACK
6
CONTINUOUS
10
1.1753
20
0.147036
11
1.17666
21
0.144302
0
LINE
8
BLACK
6
CONTINUOUS
10
1.17666
20
0.144302
11
1.17648
21
0.14125
0
LINE
8
BLACK
6
CONTINUOUS
10
1.17648
20
0.14125
11
1.15942
21
0.0900693
0
LINE
8
BLACK
6
CONTINUOUS
10
1.15942
20
0.0900693
11
1.15877
21
0.0890794
0
LINE
8
BLACK
6
CONTINUOUS
10
1.15877
20
0.0890794
11
1.15824
21
0.0880187
0
LINE
8
BLACK
6
CONTINUOUS
10
1.15824
20
0.0880187
11
1.15794
21
0.0878198
0
LINE
8
BLACK
6
CONTINUOUS
10
1.15794
20
0.0878198
11
1.15774
21
0.0875183
0
LINE
8
BLACK
6
CONTINUOUS
10
1.15774
20
0.0875183
11
1.15668
21
0.0869877
0
LINE
8
BLACK
6
CONTINUOUS
10
1.15668
20
0.0869877
11
1.15569
21
0.0863344
0
LINE
8
BLACK
6
CONTINUOUS
10
1.15569
20
0.0863344
11
1.15533
21
0.0863127
0
LINE
8
BLACK
6
CONTINUOUS
10
1.15533
20
0.0863127
11
1.155
21
0.0861512
0
LINE
8
BLACK
6
CONTINUOUS
10
1.155
20
0.0861512
11
1.15382
21
0.0862222
0
LINE
8
BLACK
6
CONTINUOUS
10
1.15382
20
0.0862222
11
1.15263
21
0.0861512
0
LINE
8
BLACK
6
CONTINUOUS
10
1.15263
20
0.0861512
11
1.15231
21
0.0863127
0
LINE
8
BLACK
6
CONTINUOUS
10
1.15231
20
0.0863127
11
1.15195
21
0.0863344
0
LINE
8
BLACK
6
CONTINUOUS
10
1.15195
20
0.0863344
11
1.15096
21
0.0869878
0
LINE
8
BLACK
6
CONTINUOUS
10
1.15096
20
0.0869878
11
1.1499
21
0.0875183
0
LINE
8
BLACK
6
CONTINUOUS
10
1.1499
20
0.0875183
11
1.1497
21
0.0878196
0
LINE
8
BLACK
6
CONTINUOUS
10
1.1497
20
0.0878196
11
1.1494
21
0.0880187
0
LINE
8
BLACK
6
CONTINUOUS
10
1.1494
20
0.0880187
11
1.14887
21
0.0890796
0
LINE
8
BLACK
6
CONTINUOUS
10
1.14887
20
0.0890796
11
1.14822
21
0.0900693
0
LINE
8
BLACK
6
CONTINUOUS
10
1.14822
20
0.0900693
11
1.13116
21
0.14125
0
LINE
8
BLACK
6
CONTINUOUS
10
1.13116
20
0.14125
11
1.13097
21
0.144302
0
LINE
8
BLACK
6
CONTINUOUS
10
1.13097
20
0.144302
11
1.13234
21
0.147036
0
LINE
8
BLACK
6
CONTINUOUS
10
1.13234
20
0.147036
11
1.13489
21
0.14872
0
LINE
8
BLACK
6
CONTINUOUS
10
1.13489
20
0.14872
11
1.13794
21
0.148904
0
LINE
8
BLACK
6
CONTINUOUS
10
1.13794
20
0.148904
11
1.14068
21
0.147536
0
LINE
8
BLACK
6
CONTINUOUS
10
1.14068
20
0.147536
11
1.14236
21
0.144985
0
LINE
8
BLACK
6
CONTINUOUS
10
1.14236
20
0.144985
11
1.15382
21
0.110612
0
LINE
8
BLACK
6
CONTINUOUS
10
1.15382
20
0.110612
11
1.16528
21
0.144985
0
LINE
8
BLACK
6
CONTINUOUS
10
1.16528
20
0.144985
11
1.16696
21
0.147536
0
LINE
8
BLACK
6
CONTINUOUS
10
1.16696
20
0.147536
11
1.1697
21
0.148904
0
LINE
8
BLACK
6
CONTINUOUS
10
1.1697
20
0.148904
11
1.17275
21
0.14872
0
LINE
8
BLACK
6
CONTINUOUS
10
1.54469
20
0.120945
11
1.50531
21
0.120945
0
LINE
8
BLACK
6
CONTINUOUS
10
1.50531
20
0.120945
11
1.50531
21
0.160315
0
LINE
8
BLACK
6
CONTINUOUS
10
1.50531
20
0.160315
11
1.54469
21
0.160315
0
LINE
8
BLACK
6
CONTINUOUS
10
1.54469
20
0.160315
11
1.54469
21
0.120945
0
LINE
8
BLACK
6
CONTINUOUS
10
1.54469
20
0.199685
11
1.50531
21
0.199685
0
LINE
8
BLACK
6
CONTINUOUS
10
1.50531
20
0.199685
11
1.50531
21
0.239055
0
LINE
8
BLACK
6
CONTINUOUS
10
1.50531
20
0.239055
11
1.54469
21
0.239055
0
LINE
8
BLACK
6
CONTINUOUS
10
1.54469
20
0.239055
11
1.54469
21
0.199685
0
LINE
8
BLACK
6
CONTINUOUS
10
1.56437
20
0.260709
11
1.56576
21
0.260132
0
LINE
8
BLACK
6
CONTINUOUS
10
1.56576
20
0.260132
11
1.56634
21
0.25874
0
LINE
8
BLACK
6
CONTINUOUS
10
1.56634
20
0.25874
11
1.56634
21
0.10126
0
LINE
8
BLACK
6
CONTINUOUS
10
1.56634
20
0.10126
11
1.56576
21
0.0998679
0
LINE
8
BLACK
6
CONTINUOUS
10
1.56576
20
0.0998679
11
1.56437
21
0.0992913
0
LINE
8
BLACK
6
CONTINUOUS
10
1.56437
20
0.0992913
11
1.48563
21
0.0992913
0
LINE
8
BLACK
6
CONTINUOUS
10
1.48563
20
0.0992913
11
1.48424
21
0.0998679
0
LINE
8
BLACK
6
CONTINUOUS
10
1.48424
20
0.0998679
11
1.48366
21
0.10126
0
LINE
8
BLACK
6
CONTINUOUS
10
1.48366
20
0.10126
11
1.48366
21
0.25874
0
LINE
8
BLACK
6
CONTINUOUS
10
1.48366
20
0.25874
11
1.48424
21
0.260132
0
LINE
8
BLACK
6
CONTINUOUS
10
1.48424
20
0.260132
11
1.48563
21
0.260709
0
LINE
8
BLACK
6
CONTINUOUS
10
1.48563
20
0.260709
11
1.56437
21
0.260709
0
LINE
8
BLACK
6
CONTINUOUS
10
1.4876
20
0.256772
11
1.4876
21
0.103228
0
LINE
8
BLACK
6
CONTINUOUS
10
1.4876
20
0.103228
11
1.5624
21
0.103228
0
LINE
8
BLACK
6
CONTINUOUS
10
1.5624
20
0.103228
11
1.5624
21
0.256772
0
LINE
8
BLACK
6
CONTINUOUS
10
1.5624
20
0.256772
11
1.4876
21
0.256772
0
LINE
8
BLACK
6
CONTINUOUS
10
1.1657
20
0.283777
11
1.16665
21
0.28372
0
LINE
8
BLACK
6
CONTINUOUS
10
1.16665
20
0.28372
11
1.17397
21
0.281283
0
LINE
8
BLACK
6
CONTINUOUS
10
1.17397
20
0.281283
11
1.17652
21
0.279599
0
LINE
8
BLACK
6
CONTINUOUS
10
1.17652
20
0.279599
11
1.17788
21
0.276865
0
LINE
8
BLACK
6
CONTINUOUS
10
1.17788
20
0.276865
11
1.1777
21
0.273813
0
LINE
8
BLACK
6
CONTINUOUS
10
1.1777
20
0.273813
11
1.17602
21
0.271262
0
LINE
8
BLACK
6
CONTINUOUS
10
1.17602
20
0.271262
11
1.17328
21
0.269895
0
LINE
8
BLACK
6
CONTINUOUS
10
1.17328
20
0.269895
11
1.17023
21
0.270078
0
LINE
8
BLACK
6
CONTINUOUS
10
1.17023
20
0.270078
11
1.16383
21
0.272212
0
LINE
8
BLACK
6
CONTINUOUS
10
1.16383
20
0.272212
11
1.15399
21
0.272212
0
LINE
8
BLACK
6
CONTINUOUS
10
1.15399
20
0.272212
11
1.15122
21
0.270827
0
LINE
8
BLACK
6
CONTINUOUS
10
1.15122
20
0.270827
11
1.15014
21
0.269745
0
LINE
8
BLACK
6
CONTINUOUS
10
1.15014
20
0.269745
11
1.14876
21
0.266975
0
LINE
8
BLACK
6
CONTINUOUS
10
1.14876
20
0.266975
11
1.14876
21
0.264889
0
LINE
8
BLACK
6
CONTINUOUS
10
1.14876
20
0.264889
11
1.15014
21
0.262119
0
LINE
8
BLACK
6
CONTINUOUS
10
1.15014
20
0.262119
11
1.15122
21
0.261037
0
LINE
8
BLACK
6
CONTINUOUS
10
1.15122
20
0.261037
11
1.15466
21
0.259318
0
LINE
8
BLACK
6
CONTINUOUS
10
1.15466
20
0.259318
11
1.16378
21
0.257038
0
LINE
8
BLACK
6
CONTINUOUS
10
1.16378
20
0.257038
11
1.16435
21
0.256721
0
LINE
8
BLACK
6
CONTINUOUS
10
1.16435
20
0.256721
11
1.16499
21
0.256591
0
LINE
8
BLACK
6
CONTINUOUS
10
1.16499
20
0.256591
11
1.16986
21
0.254154
0
LINE
8
BLACK
6
CONTINUOUS
10
1.16986
20
0.254154
11
1.17058
21
0.253523
0
LINE
8
BLACK
6
CONTINUOUS
10
1.17058
20
0.253523
11
1.1714
21
0.253047
0
LINE
8
BLACK
6
CONTINUOUS
10
1.1714
20
0.253047
11
1.17384
21
0.25061
0
LINE
8
BLACK
6
CONTINUOUS
10
1.17384
20
0.25061
11
1.17431
21
0.249787
0
LINE
8
BLACK
6
CONTINUOUS
10
1.17431
20
0.249787
11
1.17494
21
0.249075
0
LINE
8
BLACK
6
CONTINUOUS
10
1.17494
20
0.249075
11
1.17738
21
0.244201
0
LINE
8
BLACK
6
CONTINUOUS
10
1.17738
20
0.244201
11
1.17765
21
0.242871
0
LINE
8
BLACK
6
CONTINUOUS
10
1.17765
20
0.242871
11
1.178
21
0.24156
0
LINE
8
BLACK
6
CONTINUOUS
10
1.178
20
0.24156
11
1.178
21
0.236686
0
LINE
8
BLACK
6
CONTINUOUS
10
1.178
20
0.236686
11
1.17765
21
0.235374
0
LINE
8
BLACK
6
CONTINUOUS
10
1.17765
20
0.235374
11
1.17738
21
0.234045
0
LINE
8
BLACK
6
CONTINUOUS
10
1.17738
20
0.234045
11
1.17494
21
0.22917
0
LINE
8
BLACK
6
CONTINUOUS
10
1.17494
20
0.22917
11
1.17431
21
0.228459
0
LINE
8
BLACK
6
CONTINUOUS
10
1.17431
20
0.228459
11
1.17384
21
0.227635
0
LINE
8
BLACK
6
CONTINUOUS
10
1.17384
20
0.227635
11
1.1714
21
0.225198
0
LINE
8
BLACK
6
CONTINUOUS
10
1.1714
20
0.225198
11
1.17058
21
0.224723
0
LINE
8
BLACK
6
CONTINUOUS
10
1.17058
20
0.224723
11
1.16986
21
0.224092
0
LINE
8
BLACK
6
CONTINUOUS
10
1.16986
20
0.224092
11
1.16499
21
0.221655
0
LINE
8
BLACK
6
CONTINUOUS
10
1.16499
20
0.221655
11
1.16366
21
0.221383
0
LINE
8
BLACK
6
CONTINUOUS
10
1.16366
20
0.221383
11
1.16235
21
0.221031
0
LINE
8
BLACK
6
CONTINUOUS
10
1.16235
20
0.221031
11
1.15016
21
0.221031
0
LINE
8
BLACK
6
CONTINUOUS
10
1.15016
20
0.221031
11
1.14924
21
0.221277
0
LINE
8
BLACK
6
CONTINUOUS
10
1.14924
20
0.221277
11
1.1483
21
0.221334
0
LINE
8
BLACK
6
CONTINUOUS
10
1.1483
20
0.221334
11
1.14098
21
0.223772
0
LINE
8
BLACK
6
CONTINUOUS
10
1.14098
20
0.223772
11
1.13843
21
0.225456
0
LINE
8
BLACK
6
CONTINUOUS
10
1.13843
20
0.225456
11
1.13707
21
0.22819
0
LINE
8
BLACK
6
CONTINUOUS
10
1.13707
20
0.22819
11
1.13725
21
0.231241
0
LINE
8
BLACK
6
CONTINUOUS
10
1.13725
20
0.231241
11
1.13893
21
0.233793
0
LINE
8
BLACK
6
CONTINUOUS
10
1.13893
20
0.233793
11
1.14167
21
0.23516
0
LINE
8
BLACK
6
CONTINUOUS
10
1.14167
20
0.23516
11
1.14472
21
0.234976
0
LINE
8
BLACK
6
CONTINUOUS
10
1.14472
20
0.234976
11
1.15112
21
0.232842
0
LINE
8
BLACK
6
CONTINUOUS
10
1.15112
20
0.232842
11
1.16095
21
0.232842
0
LINE
8
BLACK
6
CONTINUOUS
10
1.16095
20
0.232842
11
1.16373
21
0.234227
0
LINE
8
BLACK
6
CONTINUOUS
10
1.16373
20
0.234227
11
1.16481
21
0.235309
0
LINE
8
BLACK
6
CONTINUOUS
10
1.16481
20
0.235309
11
1.16619
21
0.23808
0
LINE
8
BLACK
6
CONTINUOUS
10
1.16619
20
0.23808
11
1.16619
21
0.240166
0
LINE
8
BLACK
6
CONTINUOUS
10
1.16619
20
0.240166
11
1.16481
21
0.242936
0
LINE
8
BLACK
6
CONTINUOUS
10
1.16481
20
0.242936
11
1.16373
21
0.244018
0
LINE
8
BLACK
6
CONTINUOUS
10
1.16373
20
0.244018
11
1.16029
21
0.245737
0
LINE
8
BLACK
6
CONTINUOUS
10
1.16029
20
0.245737
11
1.15117
21
0.248017
0
LINE
8
BLACK
6
CONTINUOUS
10
1.15117
20
0.248017
11
1.1506
21
0.248333
0
LINE
8
BLACK
6
CONTINUOUS
10
1.1506
20
0.248333
11
1.14996
21
0.248464
0
LINE
8
BLACK
6
CONTINUOUS
10
1.14996
20
0.248464
11
1.14508
21
0.250901
0
LINE
8
BLACK
6
CONTINUOUS
10
1.14508
20
0.250901
11
1.14437
21
0.251532
0
LINE
8
BLACK
6
CONTINUOUS
10
1.14437
20
0.251532
11
1.14355
21
0.252007
0
LINE
8
BLACK
6
CONTINUOUS
10
1.14355
20
0.252007
11
1.14111
21
0.254445
0
LINE
8
BLACK
6
CONTINUOUS
10
1.14111
20
0.254445
11
1.14064
21
0.255268
0
LINE
8
BLACK
6
CONTINUOUS
10
1.14064
20
0.255268
11
1.14001
21
0.255979
0
LINE
8
BLACK
6
CONTINUOUS
10
1.14001
20
0.255979
11
1.13757
21
0.260854
0
LINE
8
BLACK
6
CONTINUOUS
10
1.13757
20
0.260854
11
1.1373
21
0.262184
0
LINE
8
BLACK
6
CONTINUOUS
10
1.1373
20
0.262184
11
1.13695
21
0.263495
0
LINE
8
BLACK
6
CONTINUOUS
10
1.13695
20
0.263495
11
1.13695
21
0.268369
0
LINE
8
BLACK
6
CONTINUOUS
10
1.13695
20
0.268369
11
1.1373
21
0.26968
0
LINE
8
BLACK
6
CONTINUOUS
10
1.1373
20
0.26968
11
1.13757
21
0.27101
0
LINE
8
BLACK
6
CONTINUOUS
10
1.13757
20
0.27101
11
1.14001
21
0.275884
0
LINE
8
BLACK
6
CONTINUOUS
10
1.14001
20
0.275884
11
1.14064
21
0.276596
0
LINE
8
BLACK
6
CONTINUOUS
10
1.14064
20
0.276596
11
1.14111
21
0.277419
0
LINE
8
BLACK
6
CONTINUOUS
10
1.14111
20
0.277419
11
1.14355
21
0.279857
0
LINE
8
BLACK
6
CONTINUOUS
10
1.14355
20
0.279857
11
1.14437
21
0.280332
0
LINE
8
BLACK
6
CONTINUOUS
10
1.14437
20
0.280332
11
1.14508
21
0.280963
0
LINE
8
BLACK
6
CONTINUOUS
10
1.14508
20
0.280963
11
1.14996
21
0.2834
0
LINE
8
BLACK
6
CONTINUOUS
10
1.14996
20
0.2834
11
1.15129
21
0.283672
0
LINE
8
BLACK
6
CONTINUOUS
10
1.15129
20
0.283672
11
1.1526
21
0.284023
0
LINE
8
BLACK
6
CONTINUOUS
10
1.1526
20
0.284023
11
1.16479
21
0.284023
0
LINE
8
BLACK
6
CONTINUOUS
10
1.16479
20
0.284023
11
1.1657
21
0.283777
0
LINE
8
BLACK
6
CONTINUOUS
10
0.421036
20
0.274295
11
0.421748
21
0.274295
0
LINE
8
BLACK
6
CONTINUOUS
10
0.421748
20
0.274295
11
0.422365
21
0.273939
0
LINE
8
BLACK
6
CONTINUOUS
10
0.422365
20
0.273939
11
0.423054
21
0.273754
0
LINE
8
BLACK
6
CONTINUOUS
10
0.423054
20
0.273754
11
0.423558
21
0.273251
0
LINE
8
BLACK
6
CONTINUOUS
10
0.423558
20
0.273251
11
0.424175
21
0.272894
0
LINE
8
BLACK
6
CONTINUOUS
10
0.424175
20
0.272894
11
0.426237
21
0.270832
0
LINE
8
BLACK
6
CONTINUOUS
10
0.426237
20
0.270832
11
0.426859
21
0.269754
0
LINE
8
BLACK
6
CONTINUOUS
10
0.426859
20
0.269754
11
0.427545
21
0.268716
0
LINE
8
BLACK
6
CONTINUOUS
10
0.427545
20
0.268716
11
0.429607
21
0.262529
0
LINE
8
BLACK
6
CONTINUOUS
10
0.429607
20
0.262529
11
0.429659
21
0.261659
0
LINE
8
BLACK
6
CONTINUOUS
10
0.429659
20
0.261659
11
0.429885
21
0.260817
0
LINE
8
BLACK
6
CONTINUOUS
10
0.429885
20
0.260817
11
0.429885
21
0.256693
0
LINE
8
BLACK
6
CONTINUOUS
10
0.429885
20
0.256693
11
0.429659
21
0.255851
0
LINE
8
BLACK
6
CONTINUOUS
10
0.429659
20
0.255851
11
0.429607
21
0.254981
0
LINE
8
BLACK
6
CONTINUOUS
10
0.429607
20
0.254981
11
0.427545
21
0.248794
0
LINE
8
BLACK
6
CONTINUOUS
10
0.427545
20
0.248794
11
0.426859
21
0.247756
0
LINE
8
BLACK
6
CONTINUOUS
10
0.426859
20
0.247756
11
0.426237
21
0.246678
0
LINE
8
BLACK
6
CONTINUOUS
10
0.426237
20
0.246678
11
0.422113
21
0.242554
0
LINE
8
BLACK
6
CONTINUOUS
10
0.422113
20
0.242554
11
0.421358
21
0.242118
0
LINE
8
BLACK
6
CONTINUOUS
10
0.421358
20
0.242118
11
0.420706
21
0.24154
0
LINE
8
BLACK
6
CONTINUOUS
10
0.420706
20
0.24154
11
0.416581
21
0.239478
0
LINE
8
BLACK
6
CONTINUOUS
10
0.416581
20
0.239478
11
0.415996
21
0.239358
0
LINE
8
BLACK
6
CONTINUOUS
10
0.415996
20
0.239358
11
0.415473
21
0.239068
0
LINE
8
BLACK
6
CONTINUOUS
10
0.415473
20
0.239068
11
0.407224
21
0.237005
0
LINE
8
BLACK
6
CONTINUOUS
10
0.407224
20
0.237005
11
0.406557
21
0.237017
0
LINE
8
BLACK
6
CONTINUOUS
10
0.406557
20
0.237017
11
0.405911
21
0.236844
0
LINE
8
BLACK
6
CONTINUOUS
10
0.405911
20
0.236844
11
0.399725
21
0.236844
0
LINE
8
BLACK
6
CONTINUOUS
10
0.399725
20
0.236844
11
0.39908
21
0.237017
0
LINE
8
BLACK
6
CONTINUOUS
10
0.39908
20
0.237017
11
0.398412
21
0.237005
0
LINE
8
BLACK
6
CONTINUOUS
10
0.398412
20
0.237005
11
0.390163
21
0.239068
0
LINE
8
BLACK
6
CONTINUOUS
10
0.390163
20
0.239068
11
0.38964
21
0.239358
0
LINE
8
BLACK
6
CONTINUOUS
10
0.38964
20
0.239358
11
0.389055
21
0.239478
0
LINE
8
BLACK
6
CONTINUOUS
10
0.389055
20
0.239478
11
0.38493
21
0.24154
0
LINE
8
BLACK
6
CONTINUOUS
10
0.38493
20
0.24154
11
0.384278
21
0.242118
0
LINE
8
BLACK
6
CONTINUOUS
10
0.384278
20
0.242118
11
0.383523
21
0.242554
0
LINE
8
BLACK
6
CONTINUOUS
10
0.383523
20
0.242554
11
0.379399
21
0.246678
0
LINE
8
BLACK
6
CONTINUOUS
10
0.379399
20
0.246678
11
0.378777
21
0.247756
0
LINE
8
BLACK
6
CONTINUOUS
10
0.378777
20
0.247756
11
0.378091
21
0.248794
0
LINE
8
BLACK
6
CONTINUOUS
10
0.378091
20
0.248794
11
0.376029
21
0.254981
0
LINE
8
BLACK
6
CONTINUOUS
10
0.376029
20
0.254981
11
0.375977
21
0.255851
0
LINE
8
BLACK
6
CONTINUOUS
10
0.375977
20
0.255851
11
0.375751
21
0.256693
0
LINE
8
BLACK
6
CONTINUOUS
10
0.375751
20
0.256693
11
0.375751
21
0.26288
0
LINE
8
BLACK
6
CONTINUOUS
10
0.375751
20
0.26288
11
0.376073
21
0.264081
0
LINE
8
BLACK
6
CONTINUOUS
10
0.376073
20
0.264081
11
0.376323
21
0.265301
0
LINE
8
BLACK
6
CONTINUOUS
10
0.376323
20
0.265301
11
0.378385
21
0.269425
0
LINE
8
BLACK
6
CONTINUOUS
10
0.378385
20
0.269425
11
0.380244
21
0.271522
0
LINE
8
BLACK
6
CONTINUOUS
10
0.380244
20
0.271522
11
0.382902
21
0.272408
0
LINE
8
BLACK
6
CONTINUOUS
10
0.382902
20
0.272408
11
0.385648
21
0.271846
0
LINE
8
BLACK
6
CONTINUOUS
10
0.385648
20
0.271846
11
0.387744
21
0.269987
0
LINE
8
BLACK
6
CONTINUOUS
10
0.387744
20
0.269987
11
0.38863
21
0.267328
0
LINE
8
BLACK
6
CONTINUOUS
10
0.38863
20
0.267328
11
0.388069
21
0.264583
0
LINE
8
BLACK
6
CONTINUOUS
10
0.388069
20
0.264583
11
0.386578
21
0.261602
0
LINE
8
BLACK
6
CONTINUOUS
10
0.386578
20
0.261602
11
0.386578
21
0.257571
0
LINE
8
BLACK
6
CONTINUOUS
10
0.386578
20
0.257571
11
0.387958
21
0.25343
0
LINE
8
BLACK
6
CONTINUOUS
10
0.387958
20
0.25343
11
0.390558
21
0.250831
0
LINE
8
BLACK
6
CONTINUOUS
10
0.390558
20
0.250831
11
0.393365
21
0.249427
0
LINE
8
BLACK
6
CONTINUOUS
10
0.393365
20
0.249427
11
0.400391
21
0.247671
0
LINE
8
BLACK
6
CONTINUOUS
10
0.400391
20
0.247671
11
0.405245
21
0.247671
0
LINE
8
BLACK
6
CONTINUOUS
10
0.405245
20
0.247671
11
0.412271
21
0.249427
0
LINE
8
BLACK
6
CONTINUOUS
10
0.412271
20
0.249427
11
0.415078
21
0.250831
0
LINE
8
BLACK
6
CONTINUOUS
10
0.415078
20
0.250831
11
0.417678
21
0.25343
0
LINE
8
BLACK
6
CONTINUOUS
10
0.417678
20
0.25343
11
0.419058
21
0.257571
0
LINE
8
BLACK
6
CONTINUOUS
10
0.419058
20
0.257571
11
0.419058
21
0.259939
0
LINE
8
BLACK
6
CONTINUOUS
10
0.419058
20
0.259939
11
0.41782
21
0.263653
0
LINE
8
BLACK
6
CONTINUOUS
10
0.41782
20
0.263653
11
0.411325
21
0.263653
0
LINE
8
BLACK
6
CONTINUOUS
10
0.411325
20
0.263653
11
0.411325
21
0.260817
0
LINE
8
BLACK
6
CONTINUOUS
10
0.411325
20
0.260817
11
0.4106
21
0.258111
0
LINE
8
BLACK
6
CONTINUOUS
10
0.4106
20
0.258111
11
0.408618
21
0.256129
0
LINE
8
BLACK
6
CONTINUOUS
10
0.408618
20
0.256129
11
0.405911
21
0.255404
0
LINE
8
BLACK
6
CONTINUOUS
10
0.405911
20
0.255404
11
0.403205
21
0.256129
0
LINE
8
BLACK
6
CONTINUOUS
10
0.403205
20
0.256129
11
0.401223
21
0.258111
0
LINE
8
BLACK
6
CONTINUOUS
10
0.401223
20
0.258111
11
0.400498
21
0.260817
0
LINE
8
BLACK
6
CONTINUOUS
10
0.400498
20
0.260817
11
0.400498
21
0.269066
0
LINE
8
BLACK
6
CONTINUOUS
10
0.400498
20
0.269066
11
0.401223
21
0.271773
0
LINE
8
BLACK
6
CONTINUOUS
10
0.401223
20
0.271773
11
0.403205
21
0.273754
0
LINE
8
BLACK
6
CONTINUOUS
10
0.403205
20
0.273754
11
0.405911
21
0.27448
0
LINE
8
BLACK
6
CONTINUOUS
10
0.405911
20
0.27448
11
0.420347
21
0.27448
0
LINE
8
BLACK
6
CONTINUOUS
10
0.420347
20
0.27448
11
0.421036
21
0.274295
0
LINE
8
BLACK
6
CONTINUOUS
10
0.582876
20
0.276264
11
0.626184
21
0.261829
0
LINE
8
BLACK
6
CONTINUOUS
10
0.626184
20
0.261829
11
0.627091
21
0.261229
0
LINE
8
BLACK
6
CONTINUOUS
10
0.627091
20
0.261229
11
0.628063
21
0.260743
0
LINE
8
BLACK
6
CONTINUOUS
10
0.628063
20
0.260743
11
0.628246
21
0.260467
0
LINE
8
BLACK
6
CONTINUOUS
10
0.628246
20
0.260467
11
0.628522
21
0.260285
0
LINE
8
BLACK
6
CONTINUOUS
10
0.628522
20
0.260285
11
0.629008
21
0.259312
0
LINE
8
BLACK
6
CONTINUOUS
10
0.629008
20
0.259312
11
0.629607
21
0.258405
0
LINE
8
BLACK
6
CONTINUOUS
10
0.629607
20
0.258405
11
0.629627
21
0.258074
0
LINE
8
BLACK
6
CONTINUOUS
10
0.629627
20
0.258074
11
0.629775
21
0.257778
0
LINE
8
BLACK
6
CONTINUOUS
10
0.629775
20
0.257778
11
0.62971
21
0.256693
0
LINE
8
BLACK
6
CONTINUOUS
10
0.62971
20
0.256693
11
0.629775
21
0.255608
0
LINE
8
BLACK
6
CONTINUOUS
10
0.629775
20
0.255608
11
0.629627
21
0.255312
0
LINE
8
BLACK
6
CONTINUOUS
10
0.629627
20
0.255312
11
0.629607
21
0.254981
0
LINE
8
BLACK
6
CONTINUOUS
10
0.629607
20
0.254981
11
0.629008
21
0.254074
0
LINE
8
BLACK
6
CONTINUOUS
10
0.629008
20
0.254074
11
0.628522
21
0.253101
0
LINE
8
BLACK
6
CONTINUOUS
10
0.628522
20
0.253101
11
0.628246
21
0.252919
0
LINE
8
BLACK
6
CONTINUOUS
10
0.628246
20
0.252919
11
0.628063
21
0.252643
0
LINE
8
BLACK
6
CONTINUOUS
10
0.628063
20
0.252643
11
0.627091
21
0.252156
0
LINE
8
BLACK
6
CONTINUOUS
10
0.627091
20
0.252156
11
0.626184
21
0.251557
0
LINE
8
BLACK
6
CONTINUOUS
10
0.626184
20
0.251557
11
0.582876
21
0.237122
0
LINE
8
BLACK
6
CONTINUOUS
10
0.582876
20
0.237122
11
0.580079
21
0.236954
0
LINE
8
BLACK
6
CONTINUOUS
10
0.580079
20
0.236954
11
0.577573
21
0.238207
0
LINE
8
BLACK
6
CONTINUOUS
10
0.577573
20
0.238207
11
0.576029
21
0.240545
0
LINE
8
BLACK
6
CONTINUOUS
10
0.576029
20
0.240545
11
0.575861
21
0.243342
0
LINE
8
BLACK
6
CONTINUOUS
10
0.575861
20
0.243342
11
0.577114
21
0.245849
0
LINE
8
BLACK
6
CONTINUOUS
10
0.577114
20
0.245849
11
0.579453
21
0.247393
0
LINE
8
BLACK
6
CONTINUOUS
10
0.579453
20
0.247393
11
0.607353
21
0.256693
0
LINE
8
BLACK
6
CONTINUOUS
10
0.607353
20
0.256693
11
0.579453
21
0.265993
0
LINE
8
BLACK
6
CONTINUOUS
10
0.579453
20
0.265993
11
0.577114
21
0.267537
0
LINE
8
BLACK
6
CONTINUOUS
10
0.577114
20
0.267537
11
0.575861
21
0.270043
0
LINE
8
BLACK
6
CONTINUOUS
10
0.575861
20
0.270043
11
0.576029
21
0.27284
0
LINE
8
BLACK
6
CONTINUOUS
10
0.576029
20
0.27284
11
0.577573
21
0.275179
0
LINE
8
BLACK
6
CONTINUOUS
10
0.577573
20
0.275179
11
0.580079
21
0.276432
0
LINE
8
BLACK
6
CONTINUOUS
10
0.580079
20
0.276432
11
0.582876
21
0.276264
0
LINE
8
BLACK
6
CONTINUOUS
10
0.717424
20
0.277251
11
0.718644
21
0.277002
0
LINE
8
BLACK
6
CONTINUOUS
10
0.718644
20
0.277002
11
0.722768
21
0.274939
0
LINE
8
BLACK
6
CONTINUOUS
10
0.722768
20
0.274939
11
0.72342
21
0.274361
0
LINE
8
BLACK
6
CONTINUOUS
10
0.72342
20
0.274361
11
0.724175
21
0.273925
0
LINE
8
BLACK
6
CONTINUOUS
10
0.724175
20
0.273925
11
0.726237
21
0.271863
0
LINE
8
BLACK
6
CONTINUOUS
10
0.726237
20
0.271863
11
0.726673
21
0.271108
0
LINE
8
BLACK
6
CONTINUOUS
10
0.726673
20
0.271108
11
0.727251
21
0.270456
0
LINE
8
BLACK
6
CONTINUOUS
10
0.727251
20
0.270456
11
0.729314
21
0.266332
0
LINE
8
BLACK
6
CONTINUOUS
10
0.729314
20
0.266332
11
0.729563
21
0.265113
0
LINE
8
BLACK
6
CONTINUOUS
10
0.729563
20
0.265113
11
0.729885
21
0.263911
0
LINE
8
BLACK
6
CONTINUOUS
10
0.729885
20
0.263911
11
0.729885
21
0.2536
0
LINE
8
BLACK
6
CONTINUOUS
10
0.729885
20
0.2536
11
0.729659
21
0.252758
0
LINE
8
BLACK
6
CONTINUOUS
10
0.729659
20
0.252758
11
0.729607
21
0.251888
0
LINE
8
BLACK
6
CONTINUOUS
10
0.729607
20
0.251888
11
0.727545
21
0.245701
0
LINE
8
BLACK
6
CONTINUOUS
10
0.727545
20
0.245701
11
0.726001
21
0.243363
0
LINE
8
BLACK
6
CONTINUOUS
10
0.726001
20
0.243363
11
0.723495
21
0.242109
0
LINE
8
BLACK
6
CONTINUOUS
10
0.723495
20
0.242109
11
0.720698
21
0.242277
0
LINE
8
BLACK
6
CONTINUOUS
10
0.720698
20
0.242277
11
0.718359
21
0.243821
0
LINE
8
BLACK
6
CONTINUOUS
10
0.718359
20
0.243821
11
0.717106
21
0.246327
0
LINE
8
BLACK
6
CONTINUOUS
10
0.717106
20
0.246327
11
0.717274
21
0.249125
0
LINE
8
BLACK
6
CONTINUOUS
10
0.717274
20
0.249125
11
0.719058
21
0.254478
0
LINE
8
BLACK
6
CONTINUOUS
10
0.719058
20
0.254478
11
0.719058
21
0.262633
0
LINE
8
BLACK
6
CONTINUOUS
10
0.719058
20
0.262633
11
0.71796
21
0.264829
0
LINE
8
BLACK
6
CONTINUOUS
10
0.71796
20
0.264829
11
0.717141
21
0.265648
0
LINE
8
BLACK
6
CONTINUOUS
10
0.717141
20
0.265648
11
0.714945
21
0.266746
0
LINE
8
BLACK
6
CONTINUOUS
10
0.714945
20
0.266746
11
0.713376
21
0.266746
0
LINE
8
BLACK
6
CONTINUOUS
10
0.713376
20
0.266746
11
0.71118
21
0.265648
0
LINE
8
BLACK
6
CONTINUOUS
10
0.71118
20
0.265648
11
0.710361
21
0.264829
0
LINE
8
BLACK
6
CONTINUOUS
10
0.710361
20
0.264829
11
0.708957
21
0.262021
0
LINE
8
BLACK
6
CONTINUOUS
10
0.708957
20
0.262021
11
0.707039
21
0.254349
0
LINE
8
BLACK
6
CONTINUOUS
10
0.707039
20
0.254349
11
0.706749
21
0.253826
0
LINE
8
BLACK
6
CONTINUOUS
10
0.706749
20
0.253826
11
0.706629
21
0.253241
0
LINE
8
BLACK
6
CONTINUOUS
10
0.706629
20
0.253241
11
0.704567
21
0.249116
0
LINE
8
BLACK
6
CONTINUOUS
10
0.704567
20
0.249116
11
0.703988
21
0.248464
0
LINE
8
BLACK
6
CONTINUOUS
10
0.703988
20
0.248464
11
0.703553
21
0.247709
0
LINE
8
BLACK
6
CONTINUOUS
10
0.703553
20
0.247709
11
0.70149
21
0.245647
0
LINE
8
BLACK
6
CONTINUOUS
10
0.70149
20
0.245647
11
0.700736
21
0.245211
0
LINE
8
BLACK
6
CONTINUOUS
10
0.700736
20
0.245211
11
0.700083
21
0.244633
0
LINE
8
BLACK
6
CONTINUOUS
10
0.700083
20
0.244633
11
0.695959
21
0.242571
0
LINE
8
BLACK
6
CONTINUOUS
10
0.695959
20
0.242571
11
0.69474
21
0.242321
0
LINE
8
BLACK
6
CONTINUOUS
10
0.69474
20
0.242321
11
0.693538
21
0.241999
0
LINE
8
BLACK
6
CONTINUOUS
10
0.693538
20
0.241999
11
0.689414
21
0.241999
0
LINE
8
BLACK
6
CONTINUOUS
10
0.689414
20
0.241999
11
0.688212
21
0.242321
0
LINE
8
BLACK
6
CONTINUOUS
10
0.688212
20
0.242321
11
0.686993
21
0.242571
0
LINE
8
BLACK
6
CONTINUOUS
10
0.686993
20
0.242571
11
0.682868
21
0.244633
0
LINE
8
BLACK
6
CONTINUOUS
10
0.682868
20
0.244633
11
0.682216
21
0.245211
0
LINE
8
BLACK
6
CONTINUOUS
10
0.682216
20
0.245211
11
0.681461
21
0.245647
0
LINE
8
BLACK
6
CONTINUOUS
10
0.681461
20
0.245647
11
0.679399
21
0.247709
0
LINE
8
BLACK
6
CONTINUOUS
10
0.679399
20
0.247709
11
0.678963
21
0.248464
0
LINE
8
BLACK
6
CONTINUOUS
10
0.678963
20
0.248464
11
0.678385
21
0.249116
0
LINE
8
BLACK
6
CONTINUOUS
10
0.678385
20
0.249116
11
0.676323
21
0.253241
0
LINE
8
BLACK
6
CONTINUOUS
10
0.676323
20
0.253241
11
0.676073
21
0.25446
0
LINE
8
BLACK
6
CONTINUOUS
10
0.676073
20
0.25446
11
0.675751
21
0.255662
0
LINE
8
BLACK
6
CONTINUOUS
10
0.675751
20
0.255662
11
0.675751
21
0.265973
0
LINE
8
BLACK
6
CONTINUOUS
10
0.675751
20
0.265973
11
0.675977
21
0.266815
0
LINE
8
BLACK
6
CONTINUOUS
10
0.675977
20
0.266815
11
0.676029
21
0.267685
0
LINE
8
BLACK
6
CONTINUOUS
10
0.676029
20
0.267685
11
0.678091
21
0.273872
0
LINE
8
BLACK
6
CONTINUOUS
10
0.678091
20
0.273872
11
0.679635
21
0.27621
0
LINE
8
BLACK
6
CONTINUOUS
10
0.679635
20
0.27621
11
0.682142
21
0.277463
0
LINE
8
BLACK
6
CONTINUOUS
10
0.682142
20
0.277463
11
0.684939
21
0.277295
0
LINE
8
BLACK
6
CONTINUOUS
10
0.684939
20
0.277295
11
0.687277
21
0.275751
0
LINE
8
BLACK
6
CONTINUOUS
10
0.687277
20
0.275751
11
0.68853
21
0.273245
0
LINE
8
BLACK
6
CONTINUOUS
10
0.68853
20
0.273245
11
0.688362
21
0.270448
0
LINE
8
BLACK
6
CONTINUOUS
10
0.688362
20
0.270448
11
0.686578
21
0.265094
0
LINE
8
BLACK
6
CONTINUOUS
10
0.686578
20
0.265094
11
0.686578
21
0.25694
0
LINE
8
BLACK
6
CONTINUOUS
10
0.686578
20
0.25694
11
0.687676
21
0.254744
0
LINE
8
BLACK
6
CONTINUOUS
10
0.687676
20
0.254744
11
0.688496
21
0.253924
0
LINE
8
BLACK
6
CONTINUOUS
10
0.688496
20
0.253924
11
0.690691
21
0.252826
0
LINE
8
BLACK
6
CONTINUOUS
10
0.690691
20
0.252826
11
0.69226
21
0.252826
0
LINE
8
BLACK
6
CONTINUOUS
10
0.69226
20
0.252826
11
0.694456
21
0.253924
0
LINE
8
BLACK
6
CONTINUOUS
10
0.694456
20
0.253924
11
0.695276
21
0.254744
0
LINE
8
BLACK
6
CONTINUOUS
10
0.695276
20
0.254744
11
0.696679
21
0.257551
0
LINE
8
BLACK
6
CONTINUOUS
10
0.696679
20
0.257551
11
0.698597
21
0.265224
0
LINE
8
BLACK
6
CONTINUOUS
10
0.698597
20
0.265224
11
0.698888
21
0.265746
0
LINE
8
BLACK
6
CONTINUOUS
10
0.698888
20
0.265746
11
0.699007
21
0.266332
0
LINE
8
BLACK
6
CONTINUOUS
10
0.699007
20
0.266332
11
0.70107
21
0.270456
0
LINE
8
BLACK
6
CONTINUOUS
10
0.70107
20
0.270456
11
0.701648
21
0.271108
0
LINE
8
BLACK
6
CONTINUOUS
10
0.701648
20
0.271108
11
0.702084
21
0.271863
0
LINE
8
BLACK
6
CONTINUOUS
10
0.702084
20
0.271863
11
0.704146
21
0.273925
0
LINE
8
BLACK
6
CONTINUOUS
10
0.704146
20
0.273925
11
0.704901
21
0.274361
0
LINE
8
BLACK
6
CONTINUOUS
10
0.704901
20
0.274361
11
0.705553
21
0.274939
0
LINE
8
BLACK
6
CONTINUOUS
10
0.705553
20
0.274939
11
0.709677
21
0.277002
0
LINE
8
BLACK
6
CONTINUOUS
10
0.709677
20
0.277002
11
0.710896
21
0.277251
0
LINE
8
BLACK
6
CONTINUOUS
10
0.710896
20
0.277251
11
0.712098
21
0.277573
0
LINE
8
BLACK
6
CONTINUOUS
10
0.712098
20
0.277573
11
0.716223
21
0.277573
0
LINE
8
BLACK
6
CONTINUOUS
10
0.716223
20
0.277573
11
0.717424
21
0.277251
0
LINE
8
BLACK
6
CONTINUOUS
10
0.517424
20
0.278282
11
0.518644
21
0.278033
0
LINE
8
BLACK
6
CONTINUOUS
10
0.518644
20
0.278033
11
0.522768
21
0.275971
0
LINE
8
BLACK
6
CONTINUOUS
10
0.522768
20
0.275971
11
0.52342
21
0.275392
0
LINE
8
BLACK
6
CONTINUOUS
10
0.52342
20
0.275392
11
0.524175
21
0.274956
0
LINE
8
BLACK
6
CONTINUOUS
10
0.524175
20
0.274956
11
0.526237
21
0.272894
0
LINE
8
BLACK
6
CONTINUOUS
10
0.526237
20
0.272894
11
0.526673
21
0.272139
0
LINE
8
BLACK
6
CONTINUOUS
10
0.526673
20
0.272139
11
0.527251
21
0.271487
0
LINE
8
BLACK
6
CONTINUOUS
10
0.527251
20
0.271487
11
0.529314
21
0.267363
0
LINE
8
BLACK
6
CONTINUOUS
10
0.529314
20
0.267363
11
0.529563
21
0.266144
0
LINE
8
BLACK
6
CONTINUOUS
10
0.529563
20
0.266144
11
0.529885
21
0.264942
0
LINE
8
BLACK
6
CONTINUOUS
10
0.529885
20
0.264942
11
0.529885
21
0.254631
0
LINE
8
BLACK
6
CONTINUOUS
10
0.529885
20
0.254631
11
0.529659
21
0.253789
0
LINE
8
BLACK
6
CONTINUOUS
10
0.529659
20
0.253789
11
0.529607
21
0.252919
0
LINE
8
BLACK
6
CONTINUOUS
10
0.529607
20
0.252919
11
0.527545
21
0.246732
0
LINE
8
BLACK
6
CONTINUOUS
10
0.527545
20
0.246732
11
0.526001
21
0.244394
0
LINE
8
BLACK
6
CONTINUOUS
10
0.526001
20
0.244394
11
0.523495
21
0.24314
0
LINE
8
BLACK
6
CONTINUOUS
10
0.523495
20
0.24314
11
0.520698
21
0.243308
0
LINE
8
BLACK
6
CONTINUOUS
10
0.520698
20
0.243308
11
0.518359
21
0.244852
0
LINE
8
BLACK
6
CONTINUOUS
10
0.518359
20
0.244852
11
0.517106
21
0.247359
0
LINE
8
BLACK
6
CONTINUOUS
10
0.517106
20
0.247359
11
0.517274
21
0.250156
0
LINE
8
BLACK
6
CONTINUOUS
10
0.517274
20
0.250156
11
0.519058
21
0.255509
0
LINE
8
BLACK
6
CONTINUOUS
10
0.519058
20
0.255509
11
0.519058
21
0.263664
0
LINE
8
BLACK
6
CONTINUOUS
10
0.519058
20
0.263664
11
0.51796
21
0.26586
0
LINE
8
BLACK
6
CONTINUOUS
10
0.51796
20
0.26586
11
0.517141
21
0.26668
0
LINE
8
BLACK
6
CONTINUOUS
10
0.517141
20
0.26668
11
0.514945
21
0.267777
0
LINE
8
BLACK
6
CONTINUOUS
10
0.514945
20
0.267777
11
0.513376
21
0.267777
0
LINE
8
BLACK
6
CONTINUOUS
10
0.513376
20
0.267777
11
0.51118
21
0.26668
0
LINE
8
BLACK
6
CONTINUOUS
10
0.51118
20
0.26668
11
0.510361
21
0.26586
0
LINE
8
BLACK
6
CONTINUOUS
10
0.510361
20
0.26586
11
0.508957
21
0.263052
0
LINE
8
BLACK
6
CONTINUOUS
10
0.508957
20
0.263052
11
0.507039
21
0.25538
0
LINE
8
BLACK
6
CONTINUOUS
10
0.507039
20
0.25538
11
0.506749
21
0.254857
0
LINE
8
BLACK
6
CONTINUOUS
10
0.506749
20
0.254857
11
0.506629
21
0.254272
0
LINE
8
BLACK
6
CONTINUOUS
10
0.506629
20
0.254272
11
0.504567
21
0.250147
0
LINE
8
BLACK
6
CONTINUOUS
10
0.504567
20
0.250147
11
0.503988
21
0.249495
0
LINE
8
BLACK
6
CONTINUOUS
10
0.503988
20
0.249495
11
0.503553
21
0.248741
0
LINE
8
BLACK
6
CONTINUOUS
10
0.503553
20
0.248741
11
0.50149
21
0.246678
0
LINE
8
BLACK
6
CONTINUOUS
10
0.50149
20
0.246678
11
0.500736
21
0.246243
0
LINE
8
BLACK
6
CONTINUOUS
10
0.500736
20
0.246243
11
0.500083
21
0.245664
0
LINE
8
BLACK
6
CONTINUOUS
10
0.500083
20
0.245664
11
0.495959
21
0.243602
0
LINE
8
BLACK
6
CONTINUOUS
10
0.495959
20
0.243602
11
0.49474
21
0.243353
0
LINE
8
BLACK
6
CONTINUOUS
10
0.49474
20
0.243353
11
0.493538
21
0.243031
0
LINE
8
BLACK
6
CONTINUOUS
10
0.493538
20
0.243031
11
0.489414
21
0.243031
0
LINE
8
BLACK
6
CONTINUOUS
10
0.489414
20
0.243031
11
0.488212
21
0.243353
0
LINE
8
BLACK
6
CONTINUOUS
10
0.488212
20
0.243353
11
0.486993
21
0.243602
0
LINE
8
BLACK
6
CONTINUOUS
10
0.486993
20
0.243602
11
0.482868
21
0.245664
0
LINE
8
BLACK
6
CONTINUOUS
10
0.482868
20
0.245664
11
0.482216
21
0.246243
0
LINE
8
BLACK
6
CONTINUOUS
10
0.482216
20
0.246243
11
0.481461
21
0.246678
0
LINE
8
BLACK
6
CONTINUOUS
10
0.481461
20
0.246678
11
0.479399
21
0.248741
0
LINE
8
BLACK
6
CONTINUOUS
10
0.479399
20
0.248741
11
0.478963
21
0.249495
0
LINE
8
BLACK
6
CONTINUOUS
10
0.478963
20
0.249495
11
0.478385
21
0.250148
0
LINE
8
BLACK
6
CONTINUOUS
10
0.478385
20
0.250148
11
0.476323
21
0.254272
0
LINE
8
BLACK
6
CONTINUOUS
10
0.476323
20
0.254272
11
0.476073
21
0.255491
0
LINE
8
BLACK
6
CONTINUOUS
10
0.476073
20
0.255491
11
0.475751
21
0.256693
0
LINE
8
BLACK
6
CONTINUOUS
10
0.475751
20
0.256693
11
0.475751
21
0.267004
0
LINE
8
BLACK
6
CONTINUOUS
10
0.475751
20
0.267004
11
0.475977
21
0.267846
0
LINE
8
BLACK
6
CONTINUOUS
10
0.475977
20
0.267846
11
0.476029
21
0.268716
0
LINE
8
BLACK
6
CONTINUOUS
10
0.476029
20
0.268716
11
0.478091
21
0.274903
0
LINE
8
BLACK
6
CONTINUOUS
10
0.478091
20
0.274903
11
0.479635
21
0.277241
0
LINE
8
BLACK
6
CONTINUOUS
10
0.479635
20
0.277241
11
0.482142
21
0.278494
0
LINE
8
BLACK
6
CONTINUOUS
10
0.482142
20
0.278494
11
0.484939
21
0.278326
0
LINE
8
BLACK
6
CONTINUOUS
10
0.484939
20
0.278326
11
0.487277
21
0.276782
0
LINE
8
BLACK
6
CONTINUOUS
10
0.487277
20
0.276782
11
0.48853
21
0.274276
0
LINE
8
BLACK
6
CONTINUOUS
10
0.48853
20
0.274276
11
0.488362
21
0.271479
0
LINE
8
BLACK
6
CONTINUOUS
10
0.488362
20
0.271479
11
0.486578
21
0.266126
0
LINE
8
BLACK
6
CONTINUOUS
10
0.486578
20
0.266126
11
0.486578
21
0.257971
0
LINE
8
BLACK
6
CONTINUOUS
10
0.486578
20
0.257971
11
0.487676
21
0.255775
0
LINE
8
BLACK
6
CONTINUOUS
10
0.487676
20
0.255775
11
0.488496
21
0.254955
0
LINE
8
BLACK
6
CONTINUOUS
10
0.488496
20
0.254955
11
0.490691
21
0.253857
0
LINE
8
BLACK
6
CONTINUOUS
10
0.490691
20
0.253857
11
0.49226
21
0.253857
0
LINE
8
BLACK
6
CONTINUOUS
10
0.49226
20
0.253857
11
0.494456
21
0.254955
0
LINE
8
BLACK
6
CONTINUOUS
10
0.494456
20
0.254955
11
0.495276
21
0.255775
0
LINE
8
BLACK
6
CONTINUOUS
10
0.495276
20
0.255775
11
0.496679
21
0.258582
0
LINE
8
BLACK
6
CONTINUOUS
10
0.496679
20
0.258582
11
0.498597
21
0.266255
0
LINE
8
BLACK
6
CONTINUOUS
10
0.498597
20
0.266255
11
0.498888
21
0.266777
0
LINE
8
BLACK
6
CONTINUOUS
10
0.498888
20
0.266777
11
0.499007
21
0.267363
0
LINE
8
BLACK
6
CONTINUOUS
10
0.499007
20
0.267363
11
0.50107
21
0.271487
0
LINE
8
BLACK
6
CONTINUOUS
10
0.50107
20
0.271487
11
0.501648
21
0.272139
0
LINE
8
BLACK
6
CONTINUOUS
10
0.501648
20
0.272139
11
0.502084
21
0.272894
0
LINE
8
BLACK
6
CONTINUOUS
10
0.502084
20
0.272894
11
0.504146
21
0.274956
0
LINE
8
BLACK
6
CONTINUOUS
10
0.504146
20
0.274956
11
0.504901
21
0.275392
0
LINE
8
BLACK
6
CONTINUOUS
10
0.504901
20
0.275392
11
0.505553
21
0.275971
0
LINE
8
BLACK
6
CONTINUOUS
10
0.505553
20
0.275971
11
0.509677
21
0.278033
0
LINE
8
BLACK
6
CONTINUOUS
10
0.509677
20
0.278033
11
0.510896
21
0.278282
0
LINE
8
BLACK
6
CONTINUOUS
10
0.510896
20
0.278282
11
0.512098
21
0.278604
0
LINE
8
BLACK
6
CONTINUOUS
10
0.512098
20
0.278604
11
0.516223
21
0.278604
0
LINE
8
BLACK
6
CONTINUOUS
10
0.516223
20
0.278604
11
0.517424
21
0.278282
0
LINE
8
BLACK
6
CONTINUOUS
10
0.606557
20
0.315552
11
0.607224
21
0.315563
0
LINE
8
BLACK
6
CONTINUOUS
10
0.607224
20
0.315563
11
0.615473
21
0.313501
0
LINE
8
BLACK
6
CONTINUOUS
10
0.615473
20
0.313501
11
0.615996
21
0.313211
0
LINE
8
BLACK
6
CONTINUOUS
10
0.615996
20
0.313211
11
0.616581
21
0.313091
0
LINE
8
BLACK
6
CONTINUOUS
10
0.616581
20
0.313091
11
0.620706
21
0.311029
0
LINE
8
BLACK
6
CONTINUOUS
10
0.620706
20
0.311029
11
0.621358
21
0.31045
0
LINE
8
BLACK
6
CONTINUOUS
10
0.621358
20
0.31045
11
0.622113
21
0.310015
0
LINE
8
BLACK
6
CONTINUOUS
10
0.622113
20
0.310015
11
0.626237
21
0.30589
0
LINE
8
BLACK
6
CONTINUOUS
10
0.626237
20
0.30589
11
0.626859
21
0.304812
0
LINE
8
BLACK
6
CONTINUOUS
10
0.626859
20
0.304812
11
0.627545
21
0.303774
0
LINE
8
BLACK
6
CONTINUOUS
10
0.627545
20
0.303774
11
0.629607
21
0.297587
0
LINE
8
BLACK
6
CONTINUOUS
10
0.629607
20
0.297587
11
0.629659
21
0.296717
0
LINE
8
BLACK
6
CONTINUOUS
10
0.629659
20
0.296717
11
0.629885
21
0.295876
0
LINE
8
BLACK
6
CONTINUOUS
10
0.629885
20
0.295876
11
0.629885
21
0.285564
0
LINE
8
BLACK
6
CONTINUOUS
10
0.629885
20
0.285564
11
0.62916
21
0.282858
0
LINE
8
BLACK
6
CONTINUOUS
10
0.62916
20
0.282858
11
0.627178
21
0.280876
0
LINE
8
BLACK
6
CONTINUOUS
10
0.627178
20
0.280876
11
0.624472
21
0.280151
0
LINE
8
BLACK
6
CONTINUOUS
10
0.624472
20
0.280151
11
0.581165
21
0.280151
0
LINE
8
BLACK
6
CONTINUOUS
10
0.581165
20
0.280151
11
0.578458
21
0.280876
0
LINE
8
BLACK
6
CONTINUOUS
10
0.578458
20
0.280876
11
0.576476
21
0.282858
0
LINE
8
BLACK
6
CONTINUOUS
10
0.576476
20
0.282858
11
0.575751
21
0.285564
0
LINE
8
BLACK
6
CONTINUOUS
10
0.575751
20
0.285564
11
0.575751
21
0.295876
0
LINE
8
BLACK
6
CONTINUOUS
10
0.575751
20
0.295876
11
0.575977
21
0.296717
0
LINE
8
BLACK
6
CONTINUOUS
10
0.575977
20
0.296717
11
0.576029
21
0.297587
0
LINE
8
BLACK
6
CONTINUOUS
10
0.576029
20
0.297587
11
0.578091
21
0.303774
0
LINE
8
BLACK
6
CONTINUOUS
10
0.578091
20
0.303774
11
0.578777
21
0.304813
0
LINE
8
BLACK
6
CONTINUOUS
10
0.578777
20
0.304813
11
0.579399
21
0.30589
0
LINE
8
BLACK
6
CONTINUOUS
10
0.579399
20
0.30589
11
0.583523
21
0.310015
0
LINE
8
BLACK
6
CONTINUOUS
10
0.583523
20
0.310015
11
0.584278
21
0.31045
0
LINE
8
BLACK
6
CONTINUOUS
10
0.584278
20
0.31045
11
0.58493
21
0.311029
0
LINE
8
BLACK
6
CONTINUOUS
10
0.58493
20
0.311029
11
0.589055
21
0.313091
0
LINE
8
BLACK
6
CONTINUOUS
10
0.589055
20
0.313091
11
0.58964
21
0.313211
0
LINE
8
BLACK
6
CONTINUOUS
10
0.58964
20
0.313211
11
0.590163
21
0.313501
0
LINE
8
BLACK
6
CONTINUOUS
10
0.590163
20
0.313501
11
0.598412
21
0.315563
0
LINE
8
BLACK
6
CONTINUOUS
10
0.598412
20
0.315563
11
0.59908
21
0.315552
0
LINE
8
BLACK
6
CONTINUOUS
10
0.59908
20
0.315552
11
0.599725
21
0.315725
0
LINE
8
BLACK
6
CONTINUOUS
10
0.599725
20
0.315725
11
0.605911
21
0.315725
0
LINE
8
BLACK
6
CONTINUOUS
10
0.605911
20
0.315725
11
0.606557
21
0.315552
0
LINE
8
BLACK
6
CONTINUOUS
10
0.593365
20
0.303141
11
0.590558
21
0.301738
0
LINE
8
BLACK
6
CONTINUOUS
10
0.590558
20
0.301738
11
0.587958
21
0.299138
0
LINE
8
BLACK
6
CONTINUOUS
10
0.587958
20
0.299138
11
0.586578
21
0.294997
0
LINE
8
BLACK
6
CONTINUOUS
10
0.586578
20
0.294997
11
0.586578
21
0.290978
0
LINE
8
BLACK
6
CONTINUOUS
10
0.586578
20
0.290978
11
0.619058
21
0.290978
0
LINE
8
BLACK
6
CONTINUOUS
10
0.619058
20
0.290978
11
0.619058
21
0.294997
0
LINE
8
BLACK
6
CONTINUOUS
10
0.619058
20
0.294997
11
0.617678
21
0.299138
0
LINE
8
BLACK
6
CONTINUOUS
10
0.617678
20
0.299138
11
0.615078
21
0.301738
0
LINE
8
BLACK
6
CONTINUOUS
10
0.615078
20
0.301738
11
0.612271
21
0.303141
0
LINE
8
BLACK
6
CONTINUOUS
10
0.612271
20
0.303141
11
0.605245
21
0.304898
0
LINE
8
BLACK
6
CONTINUOUS
10
0.605245
20
0.304898
11
0.600391
21
0.304898
0
LINE
8
BLACK
6
CONTINUOUS
10
0.600391
20
0.304898
11
0.593365
21
0.303141
0
LINE
8
BLACK
6
CONTINUOUS
10
0.424484
20
0.317784
11
0.424496
21
0.317787
0
LINE
8
BLACK
6
CONTINUOUS
10
0.424496
20
0.317787
11
0.425835
21
0.317421
0
LINE
8
BLACK
6
CONTINUOUS
10
0.425835
20
0.317421
11
0.427178
21
0.317062
0
LINE
8
BLACK
6
CONTINUOUS
10
0.427178
20
0.317062
11
0.427187
21
0.317053
0
LINE
8
BLACK
6
CONTINUOUS
10
0.427187
20
0.317053
11
0.427199
21
0.317049
0
LINE
8
BLACK
6
CONTINUOUS
10
0.427199
20
0.317049
11
0.428179
21
0.316061
0
LINE
8
BLACK
6
CONTINUOUS
10
0.428179
20
0.316061
11
0.42916
21
0.31508
0
LINE
8
BLACK
6
CONTINUOUS
10
0.42916
20
0.31508
11
0.429163
21
0.315068
0
LINE
8
BLACK
6
CONTINUOUS
10
0.429163
20
0.315068
11
0.429172
21
0.315059
0
LINE
8
BLACK
6
CONTINUOUS
10
0.429172
20
0.315059
11
0.429527
21
0.31371
0
LINE
8
BLACK
6
CONTINUOUS
10
0.429527
20
0.31371
11
0.429885
21
0.312373
0
LINE
8
BLACK
6
CONTINUOUS
10
0.429885
20
0.312373
11
0.429882
21
0.312361
0
LINE
8
BLACK
6
CONTINUOUS
10
0.429882
20
0.312361
11
0.429885
21
0.312349
0
LINE
8
BLACK
6
CONTINUOUS
10
0.429885
20
0.312349
11
0.429519
21
0.311007
0
LINE
8
BLACK
6
CONTINUOUS
10
0.429519
20
0.311007
11
0.42916
21
0.309667
0
LINE
8
BLACK
6
CONTINUOUS
10
0.42916
20
0.309667
11
0.429151
21
0.309658
0
LINE
8
BLACK
6
CONTINUOUS
10
0.429151
20
0.309658
11
0.429148
21
0.309646
0
LINE
8
BLACK
6
CONTINUOUS
10
0.429148
20
0.309646
11
0.428159
21
0.308666
0
LINE
8
BLACK
6
CONTINUOUS
10
0.428159
20
0.308666
11
0.427178
21
0.307685
0
LINE
8
BLACK
6
CONTINUOUS
10
0.427178
20
0.307685
11
0.427166
21
0.307682
0
LINE
8
BLACK
6
CONTINUOUS
10
0.427166
20
0.307682
11
0.427157
21
0.307673
0
LINE
8
BLACK
6
CONTINUOUS
10
0.427157
20
0.307673
11
0.401549
21
0.29304
0
LINE
8
BLACK
6
CONTINUOUS
10
0.401549
20
0.29304
11
0.424472
21
0.29304
0
LINE
8
BLACK
6
CONTINUOUS
10
0.424472
20
0.29304
11
0.427178
21
0.292315
0
LINE
8
BLACK
6
CONTINUOUS
10
0.427178
20
0.292315
11
0.42916
21
0.290333
0
LINE
8
BLACK
6
CONTINUOUS
10
0.42916
20
0.290333
11
0.429885
21
0.287627
0
LINE
8
BLACK
6
CONTINUOUS
10
0.429885
20
0.287627
11
0.42916
21
0.28492
0
LINE
8
BLACK
6
CONTINUOUS
10
0.42916
20
0.28492
11
0.427178
21
0.282938
0
LINE
8
BLACK
6
CONTINUOUS
10
0.427178
20
0.282938
11
0.424472
21
0.282213
0
LINE
8
BLACK
6
CONTINUOUS
10
0.424472
20
0.282213
11
0.381165
21
0.282213
0
LINE
8
BLACK
6
CONTINUOUS
10
0.381165
20
0.282213
11
0.381152
21
0.282216
0
LINE
8
BLACK
6
CONTINUOUS
10
0.381152
20
0.282216
11
0.38114
21
0.282213
0
LINE
8
BLACK
6
CONTINUOUS
10
0.38114
20
0.282213
11
0.379802
21
0.282578
0
LINE
8
BLACK
6
CONTINUOUS
10
0.379802
20
0.282578
11
0.378458
21
0.282938
0
LINE
8
BLACK
6
CONTINUOUS
10
0.378458
20
0.282938
11
0.378449
21
0.282947
0
LINE
8
BLACK
6
CONTINUOUS
10
0.378449
20
0.282947
11
0.378437
21
0.282951
0
LINE
8
BLACK
6
CONTINUOUS
10
0.378437
20
0.282951
11
0.37746
21
0.283937
0
LINE
8
BLACK
6
CONTINUOUS
10
0.37746
20
0.283937
11
0.376476
21
0.28492
0
LINE
8
BLACK
6
CONTINUOUS
10
0.376476
20
0.28492
11
0.376473
21
0.284932
0
LINE
8
BLACK
6
CONTINUOUS
10
0.376473
20
0.284932
11
0.376464
21
0.284941
0
LINE
8
BLACK
6
CONTINUOUS
10
0.376464
20
0.284941
11
0.376111
21
0.286282
0
LINE
8
BLACK
6
CONTINUOUS
10
0.376111
20
0.286282
11
0.375751
21
0.287627
0
LINE
8
BLACK
6
CONTINUOUS
10
0.375751
20
0.287627
11
0.375754
21
0.287639
0
LINE
8
BLACK
6
CONTINUOUS
10
0.375754
20
0.287639
11
0.375751
21
0.287651
0
LINE
8
BLACK
6
CONTINUOUS
10
0.375751
20
0.287651
11
0.376116
21
0.288989
0
LINE
8
BLACK
6
CONTINUOUS
10
0.376116
20
0.288989
11
0.376476
21
0.290333
0
LINE
8
BLACK
6
CONTINUOUS
10
0.376476
20
0.290333
11
0.376485
21
0.290342
0
LINE
8
BLACK
6
CONTINUOUS
10
0.376485
20
0.290342
11
0.376489
21
0.290354
0
LINE
8
BLACK
6
CONTINUOUS
10
0.376489
20
0.290354
11
0.377475
21
0.291332
0
LINE
8
BLACK
6
CONTINUOUS
10
0.377475
20
0.291332
11
0.378458
21
0.292315
0
LINE
8
BLACK
6
CONTINUOUS
10
0.378458
20
0.292315
11
0.37847
21
0.292318
0
LINE
8
BLACK
6
CONTINUOUS
10
0.37847
20
0.292318
11
0.378479
21
0.292327
0
LINE
8
BLACK
6
CONTINUOUS
10
0.378479
20
0.292327
11
0.404087
21
0.30696
0
LINE
8
BLACK
6
CONTINUOUS
10
0.404087
20
0.30696
11
0.381165
21
0.30696
0
LINE
8
BLACK
6
CONTINUOUS
10
0.381165
20
0.30696
11
0.378458
21
0.307685
0
LINE
8
BLACK
6
CONTINUOUS
10
0.378458
20
0.307685
11
0.376476
21
0.309667
0
LINE
8
BLACK
6
CONTINUOUS
10
0.376476
20
0.309667
11
0.375751
21
0.312373
0
LINE
8
BLACK
6
CONTINUOUS
10
0.375751
20
0.312373
11
0.376476
21
0.31508
0
LINE
8
BLACK
6
CONTINUOUS
10
0.376476
20
0.31508
11
0.378458
21
0.317062
0
LINE
8
BLACK
6
CONTINUOUS
10
0.378458
20
0.317062
11
0.381165
21
0.317787
0
LINE
8
BLACK
6
CONTINUOUS
10
0.381165
20
0.317787
11
0.424472
21
0.317787
0
LINE
8
BLACK
6
CONTINUOUS
10
0.424472
20
0.317787
11
0.424484
21
0.317784
0
LINE
8
BLACK
6
CONTINUOUS
10
0.489117
20
0.320326
11
0.490518
21
0.317899
0
LINE
8
BLACK
6
CONTINUOUS
10
0.490518
20
0.317899
11
0.490518
21
0.315097
0
LINE
8
BLACK
6
CONTINUOUS
10
0.490518
20
0.315097
11
0.489117
21
0.31267
0
LINE
8
BLACK
6
CONTINUOUS
10
0.489117
20
0.31267
11
0.487958
21
0.311511
0
LINE
8
BLACK
6
CONTINUOUS
10
0.487958
20
0.311511
11
0.486578
21
0.30737
0
LINE
8
BLACK
6
CONTINUOUS
10
0.486578
20
0.30737
11
0.486578
21
0.305003
0
LINE
8
BLACK
6
CONTINUOUS
10
0.486578
20
0.305003
11
0.487958
21
0.300862
0
LINE
8
BLACK
6
CONTINUOUS
10
0.487958
20
0.300862
11
0.490558
21
0.298262
0
LINE
8
BLACK
6
CONTINUOUS
10
0.490558
20
0.298262
11
0.493365
21
0.296859
0
LINE
8
BLACK
6
CONTINUOUS
10
0.493365
20
0.296859
11
0.500391
21
0.295102
0
LINE
8
BLACK
6
CONTINUOUS
10
0.500391
20
0.295102
11
0.505245
21
0.295102
0
LINE
8
BLACK
6
CONTINUOUS
10
0.505245
20
0.295102
11
0.512271
21
0.296859
0
LINE
8
BLACK
6
CONTINUOUS
10
0.512271
20
0.296859
11
0.515078
21
0.298262
0
LINE
8
BLACK
6
CONTINUOUS
10
0.515078
20
0.298262
11
0.517678
21
0.300862
0
LINE
8
BLACK
6
CONTINUOUS
10
0.517678
20
0.300862
11
0.519058
21
0.305003
0
LINE
8
BLACK
6
CONTINUOUS
10
0.519058
20
0.305003
11
0.519058
21
0.307371
0
LINE
8
BLACK
6
CONTINUOUS
10
0.519058
20
0.307371
11
0.517678
21
0.311511
0
LINE
8
BLACK
6
CONTINUOUS
10
0.517678
20
0.311511
11
0.516519
21
0.31267
0
LINE
8
BLACK
6
CONTINUOUS
10
0.516519
20
0.31267
11
0.515118
21
0.315097
0
LINE
8
BLACK
6
CONTINUOUS
10
0.515118
20
0.315097
11
0.515118
21
0.317899
0
LINE
8
BLACK
6
CONTINUOUS
10
0.515118
20
0.317899
11
0.516519
21
0.320326
0
LINE
8
BLACK
6
CONTINUOUS
10
0.516519
20
0.320326
11
0.518946
21
0.321727
0
LINE
8
BLACK
6
CONTINUOUS
10
0.518946
20
0.321727
11
0.521748
21
0.321727
0
LINE
8
BLACK
6
CONTINUOUS
10
0.521748
20
0.321727
11
0.524175
21
0.320326
0
LINE
8
BLACK
6
CONTINUOUS
10
0.524175
20
0.320326
11
0.526237
21
0.318264
0
LINE
8
BLACK
6
CONTINUOUS
10
0.526237
20
0.318264
11
0.526859
21
0.317186
0
LINE
8
BLACK
6
CONTINUOUS
10
0.526859
20
0.317186
11
0.527545
21
0.316148
0
LINE
8
BLACK
6
CONTINUOUS
10
0.527545
20
0.316148
11
0.529607
21
0.309961
0
LINE
8
BLACK
6
CONTINUOUS
10
0.529607
20
0.309961
11
0.529659
21
0.309091
0
LINE
8
BLACK
6
CONTINUOUS
10
0.529659
20
0.309091
11
0.529885
21
0.308249
0
LINE
8
BLACK
6
CONTINUOUS
10
0.529885
20
0.308249
11
0.529885
21
0.304124
0
LINE
8
BLACK
6
CONTINUOUS
10
0.529885
20
0.304124
11
0.529659
21
0.303283
0
LINE
8
BLACK
6
CONTINUOUS
10
0.529659
20
0.303283
11
0.529607
21
0.302413
0
LINE
8
BLACK
6
CONTINUOUS
10
0.529607
20
0.302413
11
0.527545
21
0.296226
0
LINE
8
BLACK
6
CONTINUOUS
10
0.527545
20
0.296226
11
0.526859
21
0.295188
0
LINE
8
BLACK
6
CONTINUOUS
10
0.526859
20
0.295188
11
0.526237
21
0.29411
0
LINE
8
BLACK
6
CONTINUOUS
10
0.526237
20
0.29411
11
0.522113
21
0.289985
0
LINE
8
BLACK
6
CONTINUOUS
10
0.522113
20
0.289985
11
0.521358
21
0.28955
0
LINE
8
BLACK
6
CONTINUOUS
10
0.521358
20
0.28955
11
0.520706
21
0.288971
0
LINE
8
BLACK
6
CONTINUOUS
10
0.520706
20
0.288971
11
0.516581
21
0.286909
0
LINE
8
BLACK
6
CONTINUOUS
10
0.516581
20
0.286909
11
0.515996
21
0.286789
0
LINE
8
BLACK
6
CONTINUOUS
10
0.515996
20
0.286789
11
0.515473
21
0.286499
0
LINE
8
BLACK
6
CONTINUOUS
10
0.515473
20
0.286499
11
0.507224
21
0.284437
0
LINE
8
BLACK
6
CONTINUOUS
10
0.507224
20
0.284437
11
0.506557
21
0.284448
0
LINE
8
BLACK
6
CONTINUOUS
10
0.506557
20
0.284448
11
0.505911
21
0.284275
0
LINE
8
BLACK
6
CONTINUOUS
10
0.505911
20
0.284275
11
0.499725
21
0.284275
0
LINE
8
BLACK
6
CONTINUOUS
10
0.499725
20
0.284275
11
0.49908
21
0.284448
0
LINE
8
BLACK
6
CONTINUOUS
10
0.49908
20
0.284448
11
0.498412
21
0.284437
0
LINE
8
BLACK
6
CONTINUOUS
10
0.498412
20
0.284437
11
0.490163
21
0.286499
0
LINE
8
BLACK
6
CONTINUOUS
10
0.490163
20
0.286499
11
0.48964
21
0.286789
0
LINE
8
BLACK
6
CONTINUOUS
10
0.48964
20
0.286789
11
0.489055
21
0.286909
0
LINE
8
BLACK
6
CONTINUOUS
10
0.489055
20
0.286909
11
0.48493
21
0.288971
0
LINE
8
BLACK
6
CONTINUOUS
10
0.48493
20
0.288971
11
0.484278
21
0.28955
0
LINE
8
BLACK
6
CONTINUOUS
10
0.484278
20
0.28955
11
0.483523
21
0.289985
0
LINE
8
BLACK
6
CONTINUOUS
10
0.483523
20
0.289985
11
0.479399
21
0.29411
0
LINE
8
BLACK
6
CONTINUOUS
10
0.479399
20
0.29411
11
0.478777
21
0.295187
0
LINE
8
BLACK
6
CONTINUOUS
10
0.478777
20
0.295187
11
0.478091
21
0.296226
0
LINE
8
BLACK
6
CONTINUOUS
10
0.478091
20
0.296226
11
0.476029
21
0.302413
0
LINE
8
BLACK
6
CONTINUOUS
10
0.476029
20
0.302413
11
0.475977
21
0.303283
0
LINE
8
BLACK
6
CONTINUOUS
10
0.475977
20
0.303283
11
0.475751
21
0.304124
0
LINE
8
BLACK
6
CONTINUOUS
10
0.475751
20
0.304124
11
0.475751
21
0.308249
0
LINE
8
BLACK
6
CONTINUOUS
10
0.475751
20
0.308249
11
0.475977
21
0.309091
0
LINE
8
BLACK
6
CONTINUOUS
10
0.475977
20
0.309091
11
0.476029
21
0.309961
0
LINE
8
BLACK
6
CONTINUOUS
10
0.476029
20
0.309961
11
0.478091
21
0.316148
0
LINE
8
BLACK
6
CONTINUOUS
10
0.478091
20
0.316148
11
0.478777
21
0.317186
0
LINE
8
BLACK
6
CONTINUOUS
10
0.478777
20
0.317186
11
0.479399
21
0.318264
0
LINE
8
BLACK
6
CONTINUOUS
10
0.479399
20
0.318264
11
0.481461
21
0.320326
0
LINE
8
BLACK
6
CONTINUOUS
10
0.481461
20
0.320326
11
0.483888
21
0.321727
0
LINE
8
BLACK
6
CONTINUOUS
10
0.483888
20
0.321727
11
0.48669
21
0.321727
0
LINE
8
BLACK
6
CONTINUOUS
10
0.48669
20
0.321727
11
0.489117
21
0.320326
0
LINE
8
BLACK
6
CONTINUOUS
10
0.706557
20
0.320707
11
0.707224
21
0.320719
0
LINE
8
BLACK
6
CONTINUOUS
10
0.707224
20
0.320719
11
0.715473
21
0.318656
0
LINE
8
BLACK
6
CONTINUOUS
10
0.715473
20
0.318656
11
0.715996
21
0.318366
0
LINE
8
BLACK
6
CONTINUOUS
10
0.715996
20
0.318366
11
0.716581
21
0.318246
0
LINE
8
BLACK
6
CONTINUOUS
10
0.716581
20
0.318246
11
0.720706
21
0.316184
0
LINE
8
BLACK
6
CONTINUOUS
10
0.720706
20
0.316184
11
0.721358
21
0.315606
0
LINE
8
BLACK
6
CONTINUOUS
10
0.721358
20
0.315606
11
0.722113
21
0.31517
0
LINE
8
BLACK
6
CONTINUOUS
10
0.722113
20
0.31517
11
0.726237
21
0.311046
0
LINE
8
BLACK
6
CONTINUOUS
10
0.726237
20
0.311046
11
0.726859
21
0.309968
0
LINE
8
BLACK
6
CONTINUOUS
10
0.726859
20
0.309968
11
0.727545
21
0.30893
0
LINE
8
BLACK
6
CONTINUOUS
10
0.727545
20
0.30893
11
0.729607
21
0.302743
0
LINE
8
BLACK
6
CONTINUOUS
10
0.729607
20
0.302743
11
0.729659
21
0.301873
0
LINE
8
BLACK
6
CONTINUOUS
10
0.729659
20
0.301873
11
0.729885
21
0.301031
0
LINE
8
BLACK
6
CONTINUOUS
10
0.729885
20
0.301031
11
0.729885
21
0.29072
0
LINE
8
BLACK
6
CONTINUOUS
10
0.729885
20
0.29072
11
0.72916
21
0.288013
0
LINE
8
BLACK
6
CONTINUOUS
10
0.72916
20
0.288013
11
0.727178
21
0.286032
0
LINE
8
BLACK
6
CONTINUOUS
10
0.727178
20
0.286032
11
0.724472
21
0.285306
0
LINE
8
BLACK
6
CONTINUOUS
10
0.724472
20
0.285306
11
0.681165
21
0.285306
0
LINE
8
BLACK
6
CONTINUOUS
10
0.681165
20
0.285306
11
0.678458
21
0.286032
0
LINE
8
BLACK
6
CONTINUOUS
10
0.678458
20
0.286032
11
0.676476
21
0.288013
0
LINE
8
BLACK
6
CONTINUOUS
10
0.676476
20
0.288013
11
0.675751
21
0.29072
0
LINE
8
BLACK
6
CONTINUOUS
10
0.675751
20
0.29072
11
0.675751
21
0.301031
0
LINE
8
BLACK
6
CONTINUOUS
10
0.675751
20
0.301031
11
0.675977
21
0.301873
0
LINE
8
BLACK
6
CONTINUOUS
10
0.675977
20
0.301873
11
0.676029
21
0.302743
0
LINE
8
BLACK
6
CONTINUOUS
10
0.676029
20
0.302743
11
0.678091
21
0.30893
0
LINE
8
BLACK
6
CONTINUOUS
10
0.678091
20
0.30893
11
0.678777
21
0.309968
0
LINE
8
BLACK
6
CONTINUOUS
10
0.678777
20
0.309968
11
0.679399
21
0.311046
0
LINE
8
BLACK
6
CONTINUOUS
10
0.679399
20
0.311046
11
0.683523
21
0.31517
0
LINE
8
BLACK
6
CONTINUOUS
10
0.683523
20
0.31517
11
0.684278
21
0.315606
0
LINE
8
BLACK
6
CONTINUOUS
10
0.684278
20
0.315606
11
0.68493
21
0.316184
0
LINE
8
BLACK
6
CONTINUOUS
10
0.68493
20
0.316184
11
0.689055
21
0.318246
0
LINE
8
BLACK
6
CONTINUOUS
10
0.689055
20
0.318246
11
0.68964
21
0.318366
0
LINE
8
BLACK
6
CONTINUOUS
10
0.68964
20
0.318366
11
0.690163
21
0.318656
0
LINE
8
BLACK
6
CONTINUOUS
10
0.690163
20
0.318656
11
0.698412
21
0.320719
0
LINE
8
BLACK
6
CONTINUOUS
10
0.698412
20
0.320719
11
0.69908
21
0.320707
0
LINE
8
BLACK
6
CONTINUOUS
10
0.69908
20
0.320707
11
0.699725
21
0.32088
0
LINE
8
BLACK
6
CONTINUOUS
10
0.699725
20
0.32088
11
0.705911
21
0.32088
0
LINE
8
BLACK
6
CONTINUOUS
10
0.705911
20
0.32088
11
0.706557
21
0.320707
0
LINE
8
BLACK
6
CONTINUOUS
10
0.693365
20
0.308297
11
0.690558
21
0.306893
0
LINE
8
BLACK
6
CONTINUOUS
10
0.690558
20
0.306893
11
0.687958
21
0.304294
0
LINE
8
BLACK
6
CONTINUOUS
10
0.687958
20
0.304294
11
0.686578
21
0.300153
0
LINE
8
BLACK
6
CONTINUOUS
10
0.686578
20
0.300153
11
0.686578
21
0.296133
0
LINE
8
BLACK
6
CONTINUOUS
10
0.686578
20
0.296133
11
0.719058
21
0.296133
0
LINE
8
BLACK
6
CONTINUOUS
10
0.719058
20
0.296133
11
0.719058
21
0.300153
0
LINE
8
BLACK
6
CONTINUOUS
10
0.719058
20
0.300153
11
0.717678
21
0.304294
0
LINE
8
BLACK
6
CONTINUOUS
10
0.717678
20
0.304294
11
0.715078
21
0.306893
0
LINE
8
BLACK
6
CONTINUOUS
10
0.715078
20
0.306893
11
0.712271
21
0.308297
0
LINE
8
BLACK
6
CONTINUOUS
10
0.712271
20
0.308297
11
0.705245
21
0.310053
0
LINE
8
BLACK
6
CONTINUOUS
10
0.705245
20
0.310053
11
0.700391
21
0.310053
0
LINE
8
BLACK
6
CONTINUOUS
10
0.700391
20
0.310053
11
0.693365
21
0.308297
0
LINE
8
BLACK
6
CONTINUOUS
10
1.16692
20
0.358777
11
1.16787
21
0.35872
0
LINE
8
BLACK
6
CONTINUOUS
10
1.16787
20
0.35872
11
1.17518
21
0.356283
0
LINE
8
BLACK
6
CONTINUOUS
10
1.17518
20
0.356283
11
1.17773
21
0.354599
0
LINE
8
BLACK
6
CONTINUOUS
10
1.17773
20
0.354599
11
1.1791
21
0.351865
0
LINE
8
BLACK
6
CONTINUOUS
10
1.1791
20
0.351865
11
1.17892
21
0.348813
0
LINE
8
BLACK
6
CONTINUOUS
10
1.17892
20
0.348813
11
1.17723
21
0.346262
0
LINE
8
BLACK
6
CONTINUOUS
10
1.17723
20
0.346262
11
1.1745
21
0.344895
0
LINE
8
BLACK
6
CONTINUOUS
10
1.1745
20
0.344895
11
1.17145
21
0.345078
0
LINE
8
BLACK
6
CONTINUOUS
10
1.17145
20
0.345078
11
1.16505
21
0.347212
0
LINE
8
BLACK
6
CONTINUOUS
10
1.16505
20
0.347212
11
1.15521
21
0.347212
0
LINE
8
BLACK
6
CONTINUOUS
10
1.15521
20
0.347212
11
1.15244
21
0.345827
0
LINE
8
BLACK
6
CONTINUOUS
10
1.15244
20
0.345827
11
1.15136
21
0.344745
0
LINE
8
BLACK
6
CONTINUOUS
10
1.15136
20
0.344745
11
1.14998
21
0.341975
0
LINE
8
BLACK
6
CONTINUOUS
10
1.14998
20
0.341975
11
1.14998
21
0.339889
0
LINE
8
BLACK
6
CONTINUOUS
10
1.14998
20
0.339889
11
1.15136
21
0.337119
0
LINE
8
BLACK
6
CONTINUOUS
10
1.15136
20
0.337119
11
1.15244
21
0.336037
0
LINE
8
BLACK
6
CONTINUOUS
10
1.15244
20
0.336037
11
1.15588
21
0.334318
0
LINE
8
BLACK
6
CONTINUOUS
10
1.15588
20
0.334318
11
1.165
21
0.332038
0
LINE
8
BLACK
6
CONTINUOUS
10
1.165
20
0.332038
11
1.16557
21
0.331721
0
LINE
8
BLACK
6
CONTINUOUS
10
1.16557
20
0.331721
11
1.16621
21
0.331591
0
LINE
8
BLACK
6
CONTINUOUS
10
1.16621
20
0.331591
11
1.17108
21
0.329154
0
LINE
8
BLACK
6
CONTINUOUS
10
1.17108
20
0.329154
11
1.17179
21
0.328523
0
LINE
8
BLACK
6
CONTINUOUS
10
1.17179
20
0.328523
11
1.17262
21
0.328047
0
LINE
8
BLACK
6
CONTINUOUS
10
1.17262
20
0.328047
11
1.17506
21
0.32561
0
LINE
8
BLACK
6
CONTINUOUS
10
1.17506
20
0.32561
11
1.17553
21
0.324787
0
LINE
8
BLACK
6
CONTINUOUS
10
1.17553
20
0.324787
11
1.17616
21
0.324075
0
LINE
8
BLACK
6
CONTINUOUS
10
1.17616
20
0.324075
11
1.1786
21
0.319201
0
LINE
8
BLACK
6
CONTINUOUS
10
1.1786
20
0.319201
11
1.17887
21
0.317871
0
LINE
8
BLACK
6
CONTINUOUS
10
1.17887
20
0.317871
11
1.17922
21
0.31656
0
LINE
8
BLACK
6
CONTINUOUS
10
1.17922
20
0.31656
11
1.17922
21
0.311686
0
LINE
8
BLACK
6
CONTINUOUS
10
1.17922
20
0.311686
11
1.17887
21
0.310374
0
LINE
8
BLACK
6
CONTINUOUS
10
1.17887
20
0.310374
11
1.1786
21
0.309045
0
LINE
8
BLACK
6
CONTINUOUS
10
1.1786
20
0.309045
11
1.17616
21
0.30417
0
LINE
8
BLACK
6
CONTINUOUS
10
1.17616
20
0.30417
11
1.17553
21
0.303459
0
LINE
8
BLACK
6
CONTINUOUS
10
1.17553
20
0.303459
11
1.17506
21
0.302635
0
LINE
8
BLACK
6
CONTINUOUS
10
1.17506
20
0.302635
11
1.17262
21
0.300198
0
LINE
8
BLACK
6
CONTINUOUS
10
1.17262
20
0.300198
11
1.17179
21
0.299723
0
LINE
8
BLACK
6
CONTINUOUS
10
1.17179
20
0.299723
11
1.17108
21
0.299092
0
LINE
8
BLACK
6
CONTINUOUS
10
1.17108
20
0.299092
11
1.16621
21
0.296655
0
LINE
8
BLACK
6
CONTINUOUS
10
1.16621
20
0.296655
11
1.16488
21
0.296383
0
LINE
8
BLACK
6
CONTINUOUS
10
1.16488
20
0.296383
11
1.16357
21
0.296031
0
LINE
8
BLACK
6
CONTINUOUS
10
1.16357
20
0.296031
11
1.15138
21
0.296031
0
LINE
8
BLACK
6
CONTINUOUS
10
1.15138
20
0.296031
11
1.15046
21
0.296277
0
LINE
8
BLACK
6
CONTINUOUS
10
1.15046
20
0.296277
11
1.14951
21
0.296334
0
LINE
8
BLACK
6
CONTINUOUS
10
1.14951
20
0.296334
11
1.1422
21
0.298772
0
LINE
8
BLACK
6
CONTINUOUS
10
1.1422
20
0.298772
11
1.13965
21
0.300456
0
LINE
8
BLACK
6
CONTINUOUS
10
1.13965
20
0.300456
11
1.13828
21
0.30319
0
LINE
8
BLACK
6
CONTINUOUS
10
1.13828
20
0.30319
11
1.13847
21
0.306241
0
LINE
8
BLACK
6
CONTINUOUS
10
1.13847
20
0.306241
11
1.14015
21
0.308793
0
LINE
8
BLACK
6
CONTINUOUS
10
1.14015
20
0.308793
11
1.14289
21
0.31016
0
LINE
8
BLACK
6
CONTINUOUS
10
1.14289
20
0.31016
11
1.14594
21
0.309976
0
LINE
8
BLACK
6
CONTINUOUS
10
1.14594
20
0.309976
11
1.15234
21
0.307842
0
LINE
8
BLACK
6
CONTINUOUS
10
1.15234
20
0.307842
11
1.16217
21
0.307842
0
LINE
8
BLACK
6
CONTINUOUS
10
1.16217
20
0.307842
11
1.16494
21
0.309227
0
LINE
8
BLACK
6
CONTINUOUS
10
1.16494
20
0.309227
11
1.16603
21
0.310309
0
LINE
8
BLACK
6
CONTINUOUS
10
1.16603
20
0.310309
11
1.16741
21
0.31308
0
LINE
8
BLACK
6
CONTINUOUS
10
1.16741
20
0.31308
11
1.16741
21
0.315166
0
LINE
8
BLACK
6
CONTINUOUS
10
1.16741
20
0.315166
11
1.16603
21
0.317936
0
LINE
8
BLACK
6
CONTINUOUS
10
1.16603
20
0.317936
11
1.16494
21
0.319018
0
LINE
8
BLACK
6
CONTINUOUS
10
1.16494
20
0.319018
11
1.16151
21
0.320737
0
LINE
8
BLACK
6
CONTINUOUS
10
1.16151
20
0.320737
11
1.15239
21
0.323017
0
LINE
8
BLACK
6
CONTINUOUS
10
1.15239
20
0.323017
11
1.15182
21
0.323333
0
LINE
8
BLACK
6
CONTINUOUS
10
1.15182
20
0.323333
11
1.15118
21
0.323464
0
LINE
8
BLACK
6
CONTINUOUS
10
1.15118
20
0.323464
11
1.1463
21
0.325901
0
LINE
8
BLACK
6
CONTINUOUS
10
1.1463
20
0.325901
11
1.14559
21
0.326532
0
LINE
8
BLACK
6
CONTINUOUS
10
1.14559
20
0.326532
11
1.14477
21
0.327007
0
LINE
8
BLACK
6
CONTINUOUS
10
1.14477
20
0.327007
11
1.14233
21
0.329445
0
LINE
8
BLACK
6
CONTINUOUS
10
1.14233
20
0.329445
11
1.14186
21
0.330268
0
LINE
8
BLACK
6
CONTINUOUS
10
1.14186
20
0.330268
11
1.14123
21
0.330979
0
LINE
8
BLACK
6
CONTINUOUS
10
1.14123
20
0.330979
11
1.13879
21
0.335854
0
LINE
8
BLACK
6
CONTINUOUS
10
1.13879
20
0.335854
11
1.13852
21
0.337184
0
LINE
8
BLACK
6
CONTINUOUS
10
1.13852
20
0.337184
11
1.13816
21
0.338495
0
LINE
8
BLACK
6
CONTINUOUS
10
1.13816
20
0.338495
11
1.13816
21
0.343369
0
LINE
8
BLACK
6
CONTINUOUS
10
1.13816
20
0.343369
11
1.13852
21
0.34468
0
LINE
8
BLACK
6
CONTINUOUS
10
1.13852
20
0.34468
11
1.13879
21
0.34601
0
LINE
8
BLACK
6
CONTINUOUS
10
1.13879
20
0.34601
11
1.14123
21
0.350884
0
LINE
8
BLACK
6
CONTINUOUS
10
1.14123
20
0.350884
11
1.14186
21
0.351596
0
LINE
8
BLACK
6
CONTINUOUS
10
1.14186
20
0.351596
11
1.14233
21
0.352419
0
LINE
8
BLACK
6
CONTINUOUS
10
1.14233
20
0.352419
11
1.14477
21
0.354857
0
LINE
8
BLACK
6
CONTINUOUS
10
1.14477
20
0.354857
11
1.14559
21
0.355332
0
LINE
8
BLACK
6
CONTINUOUS
10
1.14559
20
0.355332
11
1.1463
21
0.355963
0
LINE
8
BLACK
6
CONTINUOUS
10
1.1463
20
0.355963
11
1.15118
21
0.3584
0
LINE
8
BLACK
6
CONTINUOUS
10
1.15118
20
0.3584
11
1.15251
21
0.358672
0
LINE
8
BLACK
6
CONTINUOUS
10
1.15251
20
0.358672
11
1.15382
21
0.359023
0
LINE
8
BLACK
6
CONTINUOUS
10
1.15382
20
0.359023
11
1.166
21
0.359023
0
LINE
8
BLACK
6
CONTINUOUS
10
1.166
20
0.359023
11
1.16692
21
0.358777
0
LINE
8
BLACK
6
CONTINUOUS
10
1.21567
20
0.358777
11
1.21662
21
0.35872
0
LINE
8
BLACK
6
CONTINUOUS
10
1.21662
20
0.35872
11
1.22393
21
0.356283
0
LINE
8
BLACK
6
CONTINUOUS
10
1.22393
20
0.356283
11
1.22506
21
0.355535
0
LINE
8
BLACK
6
CONTINUOUS
10
1.22506
20
0.355535
11
1.22624
21
0.354856
0
LINE
8
BLACK
6
CONTINUOUS
10
1.22624
20
0.354856
11
1.22867
21
0.352419
0
LINE
8
BLACK
6
CONTINUOUS
10
1.22867
20
0.352419
11
1.2302
21
0.349772
0
LINE
8
BLACK
6
CONTINUOUS
10
1.2302
20
0.349772
11
1.2302
21
0.346715
0
LINE
8
BLACK
6
CONTINUOUS
10
1.2302
20
0.346715
11
1.22867
21
0.344068
0
LINE
8
BLACK
6
CONTINUOUS
10
1.22867
20
0.344068
11
1.22603
21
0.342539
0
LINE
8
BLACK
6
CONTINUOUS
10
1.22603
20
0.342539
11
1.22297
21
0.342539
0
LINE
8
BLACK
6
CONTINUOUS
10
1.22297
20
0.342539
11
1.22032
21
0.344068
0
LINE
8
BLACK
6
CONTINUOUS
10
1.22032
20
0.344068
11
1.21887
21
0.345519
0
LINE
8
BLACK
6
CONTINUOUS
10
1.21887
20
0.345519
11
1.21379
21
0.347212
0
LINE
8
BLACK
6
CONTINUOUS
10
1.21379
20
0.347212
11
1.21083
21
0.347212
0
LINE
8
BLACK
6
CONTINUOUS
10
1.21083
20
0.347212
11
1.20575
21
0.345519
0
LINE
8
BLACK
6
CONTINUOUS
10
1.20575
20
0.345519
11
1.20254
21
0.342308
0
LINE
8
BLACK
6
CONTINUOUS
10
1.20254
20
0.342308
11
1.20082
21
0.338871
0
LINE
8
BLACK
6
CONTINUOUS
10
1.20082
20
0.338871
11
1.19872
21
0.330456
0
LINE
8
BLACK
6
CONTINUOUS
10
1.19872
20
0.330456
11
1.19872
21
0.324599
0
LINE
8
BLACK
6
CONTINUOUS
10
1.19872
20
0.324599
11
1.20082
21
0.316184
0
LINE
8
BLACK
6
CONTINUOUS
10
1.20082
20
0.316184
11
1.20254
21
0.312747
0
LINE
8
BLACK
6
CONTINUOUS
10
1.20254
20
0.312747
11
1.20575
21
0.309536
0
LINE
8
BLACK
6
CONTINUOUS
10
1.20575
20
0.309536
11
1.21083
21
0.307842
0
LINE
8
BLACK
6
CONTINUOUS
10
1.21083
20
0.307842
11
1.21379
21
0.307842
0
LINE
8
BLACK
6
CONTINUOUS
10
1.21379
20
0.307842
11
1.21887
21
0.309536
0
LINE
8
BLACK
6
CONTINUOUS
10
1.21887
20
0.309536
11
1.22032
21
0.310987
0
LINE
8
BLACK
6
CONTINUOUS
10
1.22032
20
0.310987
11
1.22297
21
0.312515
0
LINE
8
BLACK
6
CONTINUOUS
10
1.22297
20
0.312515
11
1.22603
21
0.312515
0
LINE
8
BLACK
6
CONTINUOUS
10
1.22603
20
0.312515
11
1.22867
21
0.310987
0
LINE
8
BLACK
6
CONTINUOUS
10
1.22867
20
0.310987
11
1.2302
21
0.30834
0
LINE
8
BLACK
6
CONTINUOUS
10
1.2302
20
0.30834
11
1.2302
21
0.305283
0
LINE
8
BLACK
6
CONTINUOUS
10
1.2302
20
0.305283
11
1.22867
21
0.302635
0
LINE
8
BLACK
6
CONTINUOUS
10
1.22867
20
0.302635
11
1.22624
21
0.300198
0
LINE
8
BLACK
6
CONTINUOUS
10
1.22624
20
0.300198
11
1.22506
21
0.299519
0
LINE
8
BLACK
6
CONTINUOUS
10
1.22506
20
0.299519
11
1.22393
21
0.298772
0
LINE
8
BLACK
6
CONTINUOUS
10
1.22393
20
0.298772
11
1.21662
21
0.296334
0
LINE
8
BLACK
6
CONTINUOUS
10
1.21662
20
0.296334
11
1.21567
21
0.296277
0
LINE
8
BLACK
6
CONTINUOUS
10
1.21567
20
0.296277
11
1.21475
21
0.296031
0
LINE
8
BLACK
6
CONTINUOUS
10
1.21475
20
0.296031
11
1.20987
21
0.296031
0
LINE
8
BLACK
6
CONTINUOUS
10
1.20987
20
0.296031
11
1.20896
21
0.296277
0
LINE
8
BLACK
6
CONTINUOUS
10
1.20896
20
0.296277
11
1.20801
21
0.296334
0
LINE
8
BLACK
6
CONTINUOUS
10
1.20801
20
0.296334
11
1.2007
21
0.298772
0
LINE
8
BLACK
6
CONTINUOUS
10
1.2007
20
0.298772
11
1.19956
21
0.299519
0
LINE
8
BLACK
6
CONTINUOUS
10
1.19956
20
0.299519
11
1.19839
21
0.300198
0
LINE
8
BLACK
6
CONTINUOUS
10
1.19839
20
0.300198
11
1.19351
21
0.305073
0
LINE
8
BLACK
6
CONTINUOUS
10
1.19351
20
0.305073
11
1.19304
21
0.305896
0
LINE
8
BLACK
6
CONTINUOUS
10
1.19304
20
0.305896
11
1.19241
21
0.306607
0
LINE
8
BLACK
6
CONTINUOUS
10
1.19241
20
0.306607
11
1.18997
21
0.311482
0
LINE
8
BLACK
6
CONTINUOUS
10
1.18997
20
0.311482
11
1.18984
21
0.312121
0
LINE
8
BLACK
6
CONTINUOUS
10
1.18984
20
0.312121
11
1.18952
21
0.312691
0
LINE
8
BLACK
6
CONTINUOUS
10
1.18952
20
0.312691
11
1.18708
21
0.322439
0
LINE
8
BLACK
6
CONTINUOUS
10
1.18708
20
0.322439
11
1.1871
21
0.323168
0
LINE
8
BLACK
6
CONTINUOUS
10
1.1871
20
0.323168
11
1.18691
21
0.323872
0
LINE
8
BLACK
6
CONTINUOUS
10
1.18691
20
0.323872
11
1.18691
21
0.331183
0
LINE
8
BLACK
6
CONTINUOUS
10
1.18691
20
0.331183
11
1.1871
21
0.331887
0
LINE
8
BLACK
6
CONTINUOUS
10
1.1871
20
0.331887
11
1.18708
21
0.332615
0
LINE
8
BLACK
6
CONTINUOUS
10
1.18708
20
0.332615
11
1.18952
21
0.342364
0
LINE
8
BLACK
6
CONTINUOUS
10
1.18952
20
0.342364
11
1.18984
21
0.342934
0
LINE
8
BLACK
6
CONTINUOUS
10
1.18984
20
0.342934
11
1.18997
21
0.343573
0
LINE
8
BLACK
6
CONTINUOUS
10
1.18997
20
0.343573
11
1.19241
21
0.348447
0
LINE
8
BLACK
6
CONTINUOUS
10
1.19241
20
0.348447
11
1.19304
21
0.349159
0
LINE
8
BLACK
6
CONTINUOUS
10
1.19304
20
0.349159
11
1.19351
21
0.349982
0
LINE
8
BLACK
6
CONTINUOUS
10
1.19351
20
0.349982
11
1.19839
21
0.354857
0
LINE
8
BLACK
6
CONTINUOUS
10
1.19839
20
0.354857
11
1.19956
21
0.355535
0
LINE
8
BLACK
6
CONTINUOUS
10
1.19956
20
0.355535
11
1.2007
21
0.356283
0
LINE
8
BLACK
6
CONTINUOUS
10
1.2007
20
0.356283
11
1.20801
21
0.35872
0
LINE
8
BLACK
6
CONTINUOUS
10
1.20801
20
0.35872
11
1.20896
21
0.358777
0
LINE
8
BLACK
6
CONTINUOUS
10
1.20896
20
0.358777
11
1.20987
21
0.359023
0
LINE
8
BLACK
6
CONTINUOUS
10
1.20987
20
0.359023
11
1.21475
21
0.359023
0
LINE
8
BLACK
6
CONTINUOUS
10
1.21475
20
0.359023
11
1.21567
21
0.358777
0
LINE
8
BLACK
6
CONTINUOUS
10
1.24939
20
0.358232
11
1.25155
21
0.356071
0
LINE
8
BLACK
6
CONTINUOUS
10
1.25155
20
0.356071
11
1.25234
21
0.353118
0
LINE
8
BLACK
6
CONTINUOUS
10
1.25234
20
0.353118
11
1.25234
21
0.307842
0
LINE
8
BLACK
6
CONTINUOUS
10
1.25234
20
0.307842
11
1.2708
21
0.307842
0
LINE
8
BLACK
6
CONTINUOUS
10
1.2708
20
0.307842
11
1.27376
21
0.307051
0
LINE
8
BLACK
6
CONTINUOUS
10
1.27376
20
0.307051
11
1.27592
21
0.30489
0
LINE
8
BLACK
6
CONTINUOUS
10
1.27592
20
0.30489
11
1.27671
21
0.301937
0
LINE
8
BLACK
6
CONTINUOUS
10
1.27671
20
0.301937
11
1.27592
21
0.298984
0
LINE
8
BLACK
6
CONTINUOUS
10
1.27592
20
0.298984
11
1.27376
21
0.296822
0
LINE
8
BLACK
6
CONTINUOUS
10
1.27376
20
0.296822
11
1.2708
21
0.296031
0
LINE
8
BLACK
6
CONTINUOUS
10
1.2708
20
0.296031
11
1.24643
21
0.296031
0
LINE
8
BLACK
6
CONTINUOUS
10
1.24643
20
0.296031
11
1.24348
21
0.296822
0
LINE
8
BLACK
6
CONTINUOUS
10
1.24348
20
0.296822
11
1.24132
21
0.298984
0
LINE
8
BLACK
6
CONTINUOUS
10
1.24132
20
0.298984
11
1.24053
21
0.301937
0
LINE
8
BLACK
6
CONTINUOUS
10
1.24053
20
0.301937
11
1.24053
21
0.353118
0
LINE
8
BLACK
6
CONTINUOUS
10
1.24053
20
0.353118
11
1.24132
21
0.356071
0
LINE
8
BLACK
6
CONTINUOUS
10
1.24132
20
0.356071
11
1.24348
21
0.358232
0
LINE
8
BLACK
6
CONTINUOUS
10
1.24348
20
0.358232
11
1.24643
21
0.359023
0
LINE
8
BLACK
6
CONTINUOUS
10
1.24643
20
0.359023
11
1.24939
21
0.358232
0
LINE
8
BLACK
6
CONTINUOUS
10
0.728063
20
0.360762
11
0.729607
21
0.358424
0
LINE
8
BLACK
6
CONTINUOUS
10
0.729607
20
0.358424
11
0.729775
21
0.355626
0
LINE
8
BLACK
6
CONTINUOUS
10
0.729775
20
0.355626
11
0.728522
21
0.35312
0
LINE
8
BLACK
6
CONTINUOUS
10
0.728522
20
0.35312
11
0.726184
21
0.351576
0
LINE
8
BLACK
6
CONTINUOUS
10
0.726184
20
0.351576
11
0.717512
21
0.348685
0
LINE
8
BLACK
6
CONTINUOUS
10
0.717512
20
0.348685
11
0.717512
21
0.335866
0
LINE
8
BLACK
6
CONTINUOUS
10
0.717512
20
0.335866
11
0.726184
21
0.332976
0
LINE
8
BLACK
6
CONTINUOUS
10
0.726184
20
0.332976
11
0.728522
21
0.331432
0
LINE
8
BLACK
6
CONTINUOUS
10
0.728522
20
0.331432
11
0.729775
21
0.328926
0
LINE
8
BLACK
6
CONTINUOUS
10
0.729775
20
0.328926
11
0.729607
21
0.326128
0
LINE
8
BLACK
6
CONTINUOUS
10
0.729607
20
0.326128
11
0.728063
21
0.32379
0
LINE
8
BLACK
6
CONTINUOUS
10
0.728063
20
0.32379
11
0.725557
21
0.322537
0
LINE
8
BLACK
6
CONTINUOUS
10
0.725557
20
0.322537
11
0.72276
21
0.322705
0
LINE
8
BLACK
6
CONTINUOUS
10
0.72276
20
0.322705
11
0.679453
21
0.33714
0
LINE
8
BLACK
6
CONTINUOUS
10
0.679453
20
0.33714
11
0.678545
21
0.337739
0
LINE
8
BLACK
6
CONTINUOUS
10
0.678545
20
0.337739
11
0.677573
21
0.338226
0
LINE
8
BLACK
6
CONTINUOUS
10
0.677573
20
0.338226
11
0.677391
21
0.338502
0
LINE
8
BLACK
6
CONTINUOUS
10
0.677391
20
0.338502
11
0.677114
21
0.338684
0
LINE
8
BLACK
6
CONTINUOUS
10
0.677114
20
0.338684
11
0.676628
21
0.339657
0
LINE
8
BLACK
6
CONTINUOUS
10
0.676628
20
0.339657
11
0.676029
21
0.340564
0
LINE
8
BLACK
6
CONTINUOUS
10
0.676029
20
0.340564
11
0.676009
21
0.340895
0
LINE
8
BLACK
6
CONTINUOUS
10
0.676009
20
0.340895
11
0.675861
21
0.341191
0
LINE
8
BLACK
6
CONTINUOUS
10
0.675861
20
0.341191
11
0.675926
21
0.342276
0
LINE
8
BLACK
6
CONTINUOUS
10
0.675926
20
0.342276
11
0.675861
21
0.343361
0
LINE
8
BLACK
6
CONTINUOUS
10
0.675861
20
0.343361
11
0.676009
21
0.343657
0
LINE
8
BLACK
6
CONTINUOUS
10
0.676009
20
0.343657
11
0.676029
21
0.343988
0
LINE
8
BLACK
6
CONTINUOUS
10
0.676029
20
0.343988
11
0.676628
21
0.344895
0
LINE
8
BLACK
6
CONTINUOUS
10
0.676628
20
0.344895
11
0.677114
21
0.345868
0
LINE
8
BLACK
6
CONTINUOUS
10
0.677114
20
0.345868
11
0.677391
21
0.34605
0
LINE
8
BLACK
6
CONTINUOUS
10
0.677391
20
0.34605
11
0.677573
21
0.346326
0
LINE
8
BLACK
6
CONTINUOUS
10
0.677573
20
0.346326
11
0.678545
21
0.346812
0
LINE
8
BLACK
6
CONTINUOUS
10
0.678545
20
0.346812
11
0.679453
21
0.347412
0
LINE
8
BLACK
6
CONTINUOUS
10
0.679453
20
0.347412
11
0.72276
21
0.361847
0
LINE
8
BLACK
6
CONTINUOUS
10
0.72276
20
0.361847
11
0.725557
21
0.362015
0
LINE
8
BLACK
6
CONTINUOUS
10
0.725557
20
0.362015
11
0.728063
21
0.360762
0
LINE
8
BLACK
6
CONTINUOUS
10
0.698283
20
0.342276
11
0.706685
21
0.339475
0
LINE
8
BLACK
6
CONTINUOUS
10
0.706685
20
0.339475
11
0.706685
21
0.345076
0
LINE
8
BLACK
6
CONTINUOUS
10
0.706685
20
0.345076
11
0.698283
21
0.342276
0
LINE
8
BLACK
6
CONTINUOUS
10
0.606557
20
0.358859
11
0.607224
21
0.35887
0
LINE
8
BLACK
6
CONTINUOUS
10
0.607224
20
0.35887
11
0.615473
21
0.356808
0
LINE
8
BLACK
6
CONTINUOUS
10
0.615473
20
0.356808
11
0.615996
21
0.356518
0
LINE
8
BLACK
6
CONTINUOUS
10
0.615996
20
0.356518
11
0.616581
21
0.356398
0
LINE
8
BLACK
6
CONTINUOUS
10
0.616581
20
0.356398
11
0.620706
21
0.354336
0
LINE
8
BLACK
6
CONTINUOUS
10
0.620706
20
0.354336
11
0.621358
21
0.353757
0
LINE
8
BLACK
6
CONTINUOUS
10
0.621358
20
0.353757
11
0.622113
21
0.353322
0
LINE
8
BLACK
6
CONTINUOUS
10
0.622113
20
0.353322
11
0.626237
21
0.349197
0
LINE
8
BLACK
6
CONTINUOUS
10
0.626237
20
0.349197
11
0.626859
21
0.348119
0
LINE
8
BLACK
6
CONTINUOUS
10
0.626859
20
0.348119
11
0.627545
21
0.347081
0
LINE
8
BLACK
6
CONTINUOUS
10
0.627545
20
0.347081
11
0.629607
21
0.340894
0
LINE
8
BLACK
6
CONTINUOUS
10
0.629607
20
0.340894
11
0.629659
21
0.340024
0
LINE
8
BLACK
6
CONTINUOUS
10
0.629659
20
0.340024
11
0.629885
21
0.339183
0
LINE
8
BLACK
6
CONTINUOUS
10
0.629885
20
0.339183
11
0.629885
21
0.328871
0
LINE
8
BLACK
6
CONTINUOUS
10
0.629885
20
0.328871
11
0.62916
21
0.326165
0
LINE
8
BLACK
6
CONTINUOUS
10
0.62916
20
0.326165
11
0.627178
21
0.324183
0
LINE
8
BLACK
6
CONTINUOUS
10
0.627178
20
0.324183
11
0.624472
21
0.323458
0
LINE
8
BLACK
6
CONTINUOUS
10
0.624472
20
0.323458
11
0.581165
21
0.323458
0
LINE
8
BLACK
6
CONTINUOUS
10
0.581165
20
0.323458
11
0.578458
21
0.324183
0
LINE
8
BLACK
6
CONTINUOUS
10
0.578458
20
0.324183
11
0.576476
21
0.326165
0
LINE
8
BLACK
6
CONTINUOUS
10
0.576476
20
0.326165
11
0.575751
21
0.328871
0
LINE
8
BLACK
6
CONTINUOUS
10
0.575751
20
0.328871
11
0.575751
21
0.339183
0
LINE
8
BLACK
6
CONTINUOUS
10
0.575751
20
0.339183
11
0.575977
21
0.340024
0
LINE
8
BLACK
6
CONTINUOUS
10
0.575977
20
0.340024
11
0.576029
21
0.340894
0
LINE
8
BLACK
6
CONTINUOUS
10
0.576029
20
0.340894
11
0.578091
21
0.347081
0
LINE
8
BLACK
6
CONTINUOUS
10
0.578091
20
0.347081
11
0.578777
21
0.34812
0
LINE
8
BLACK
6
CONTINUOUS
10
0.578777
20
0.34812
11
0.579399
21
0.349197
0
LINE
8
BLACK
6
CONTINUOUS
10
0.579399
20
0.349197
11
0.583523
21
0.353322
0
LINE
8
BLACK
6
CONTINUOUS
10
0.583523
20
0.353322
11
0.584278
21
0.353757
0
LINE
8
BLACK
6
CONTINUOUS
10
0.584278
20
0.353757
11
0.58493
21
0.354336
0
LINE
8
BLACK
6
CONTINUOUS
10
0.58493
20
0.354336
11
0.589055
21
0.356398
0
LINE
8
BLACK
6
CONTINUOUS
10
0.589055
20
0.356398
11
0.58964
21
0.356518
0
LINE
8
BLACK
6
CONTINUOUS
10
0.58964
20
0.356518
11
0.590163
21
0.356808
0
LINE
8
BLACK
6
CONTINUOUS
10
0.590163
20
0.356808
11
0.598412
21
0.35887
0
LINE
8
BLACK
6
CONTINUOUS
10
0.598412
20
0.35887
11
0.59908
21
0.358859
0
LINE
8
BLACK
6
CONTINUOUS
10
0.59908
20
0.358859
11
0.599725
21
0.359032
0
LINE
8
BLACK
6
CONTINUOUS
10
0.599725
20
0.359032
11
0.605911
21
0.359032
0
LINE
8
BLACK
6
CONTINUOUS
10
0.605911
20
0.359032
11
0.606557
21
0.358859
0
LINE
8
BLACK
6
CONTINUOUS
10
0.593365
20
0.346448
11
0.590558
21
0.345045
0
LINE
8
BLACK
6
CONTINUOUS
10
0.590558
20
0.345045
11
0.587958
21
0.342445
0
LINE
8
BLACK
6
CONTINUOUS
10
0.587958
20
0.342445
11
0.586578
21
0.338304
0
LINE
8
BLACK
6
CONTINUOUS
10
0.586578
20
0.338304
11
0.586578
21
0.334285
0
LINE
8
BLACK
6
CONTINUOUS
10
0.586578
20
0.334285
11
0.619058
21
0.334285
0
LINE
8
BLACK
6
CONTINUOUS
10
0.619058
20
0.334285
11
0.619058
21
0.338304
0
LINE
8
BLACK
6
CONTINUOUS
10
0.619058
20
0.338304
11
0.617678
21
0.342445
0
LINE
8
BLACK
6
CONTINUOUS
10
0.617678
20
0.342445
11
0.615078
21
0.345045
0
LINE
8
BLACK
6
CONTINUOUS
10
0.615078
20
0.345045
11
0.612271
21
0.346448
0
LINE
8
BLACK
6
CONTINUOUS
10
0.612271
20
0.346448
11
0.605245
21
0.348205
0
LINE
8
BLACK
6
CONTINUOUS
10
0.605245
20
0.348205
11
0.600391
21
0.348205
0
LINE
8
BLACK
6
CONTINUOUS
10
0.600391
20
0.348205
11
0.593365
21
0.346448
0
LINE
8
BLACK
6
CONTINUOUS
10
0.406557
20
0.362983
11
0.407224
21
0.362995
0
LINE
8
BLACK
6
CONTINUOUS
10
0.407224
20
0.362995
11
0.415473
21
0.360932
0
LINE
8
BLACK
6
CONTINUOUS
10
0.415473
20
0.360932
11
0.415996
21
0.360642
0
LINE
8
BLACK
6
CONTINUOUS
10
0.415996
20
0.360642
11
0.416581
21
0.360522
0
LINE
8
BLACK
6
CONTINUOUS
10
0.416581
20
0.360522
11
0.420706
21
0.35846
0
LINE
8
BLACK
6
CONTINUOUS
10
0.420706
20
0.35846
11
0.421358
21
0.357882
0
LINE
8
BLACK
6
CONTINUOUS
10
0.421358
20
0.357882
11
0.422113
21
0.357446
0
LINE
8
BLACK
6
CONTINUOUS
10
0.422113
20
0.357446
11
0.426237
21
0.353322
0
LINE
8
BLACK
6
CONTINUOUS
10
0.426237
20
0.353322
11
0.426859
21
0.352244
0
LINE
8
BLACK
6
CONTINUOUS
10
0.426859
20
0.352244
11
0.427545
21
0.351206
0
LINE
8
BLACK
6
CONTINUOUS
10
0.427545
20
0.351206
11
0.429607
21
0.345019
0
LINE
8
BLACK
6
CONTINUOUS
10
0.429607
20
0.345019
11
0.429659
21
0.344149
0
LINE
8
BLACK
6
CONTINUOUS
10
0.429659
20
0.344149
11
0.429885
21
0.343307
0
LINE
8
BLACK
6
CONTINUOUS
10
0.429885
20
0.343307
11
0.429885
21
0.332996
0
LINE
8
BLACK
6
CONTINUOUS
10
0.429885
20
0.332996
11
0.42916
21
0.330289
0
LINE
8
BLACK
6
CONTINUOUS
10
0.42916
20
0.330289
11
0.427178
21
0.328308
0
LINE
8
BLACK
6
CONTINUOUS
10
0.427178
20
0.328308
11
0.424472
21
0.327582
0
LINE
8
BLACK
6
CONTINUOUS
10
0.424472
20
0.327582
11
0.381165
21
0.327582
0
LINE
8
BLACK
6
CONTINUOUS
10
0.381165
20
0.327582
11
0.378458
21
0.328308
0
LINE
8
BLACK
6
CONTINUOUS
10
0.378458
20
0.328308
11
0.376476
21
0.330289
0
LINE
8
BLACK
6
CONTINUOUS
10
0.376476
20
0.330289
11
0.375751
21
0.332996
0
LINE
8
BLACK
6
CONTINUOUS
10
0.375751
20
0.332996
11
0.375751
21
0.343307
0
LINE
8
BLACK
6
CONTINUOUS
10
0.375751
20
0.343307
11
0.375977
21
0.344149
0
LINE
8
BLACK
6
CONTINUOUS
10
0.375977
20
0.344149
11
0.376029
21
0.345019
0
LINE
8
BLACK
6
CONTINUOUS
10
0.376029
20
0.345019
11
0.378091
21
0.351206
0
LINE
8
BLACK
6
CONTINUOUS
10
0.378091
20
0.351206
11
0.378777
21
0.352244
0
LINE
8
BLACK
6
CONTINUOUS
10
0.378777
20
0.352244
11
0.379399
21
0.353322
0
LINE
8
BLACK
6
CONTINUOUS
10
0.379399
20
0.353322
11
0.383523
21
0.357446
0
LINE
8
BLACK
6
CONTINUOUS
10
0.383523
20
0.357446
11
0.384278
21
0.357882
0
LINE
8
BLACK
6
CONTINUOUS
10
0.384278
20
0.357882
11
0.38493
21
0.35846
0
LINE
8
BLACK
6
CONTINUOUS
10
0.38493
20
0.35846
11
0.389055
21
0.360522
0
LINE
8
BLACK
6
CONTINUOUS
10
0.389055
20
0.360522
11
0.38964
21
0.360642
0
LINE
8
BLACK
6
CONTINUOUS
10
0.38964
20
0.360642
11
0.390163
21
0.360932
0
LINE
8
BLACK
6
CONTINUOUS
10
0.390163
20
0.360932
11
0.398412
21
0.362995
0
LINE
8
BLACK
6
CONTINUOUS
10
0.398412
20
0.362995
11
0.39908
21
0.362983
0
LINE
8
BLACK
6
CONTINUOUS
10
0.39908
20
0.362983
11
0.399725
21
0.363156
0
LINE
8
BLACK
6
CONTINUOUS
10
0.399725
20
0.363156
11
0.405911
21
0.363156
0
LINE
8
BLACK
6
CONTINUOUS
10
0.405911
20
0.363156
11
0.406557
21
0.362983
0
LINE
8
BLACK
6
CONTINUOUS
10
0.393365
20
0.350573
11
0.390558
21
0.349169
0
LINE
8
BLACK
6
CONTINUOUS
10
0.390558
20
0.349169
11
0.387958
21
0.34657
0
LINE
8
BLACK
6
CONTINUOUS
10
0.387958
20
0.34657
11
0.386578
21
0.342429
0
LINE
8
BLACK
6
CONTINUOUS
10
0.386578
20
0.342429
11
0.386578
21
0.338409
0
LINE
8
BLACK
6
CONTINUOUS
10
0.386578
20
0.338409
11
0.419058
21
0.338409
0
LINE
8
BLACK
6
CONTINUOUS
10
0.419058
20
0.338409
11
0.419058
21
0.342429
0
LINE
8
BLACK
6
CONTINUOUS
10
0.419058
20
0.342429
11
0.417678
21
0.34657
0
LINE
8
BLACK
6
CONTINUOUS
10
0.417678
20
0.34657
11
0.415078
21
0.349169
0
LINE
8
BLACK
6
CONTINUOUS
10
0.415078
20
0.349169
11
0.412271
21
0.350573
0
LINE
8
BLACK
6
CONTINUOUS
10
0.412271
20
0.350573
11
0.405245
21
0.352329
0
LINE
8
BLACK
6
CONTINUOUS
10
0.405245
20
0.352329
11
0.400391
21
0.352329
0
LINE
8
BLACK
6
CONTINUOUS
10
0.400391
20
0.352329
11
0.393365
21
0.350573
0
LINE
8
BLACK
6
CONTINUOUS
10
0.527178
20
0.360369
11
0.52916
21
0.358387
0
LINE
8
BLACK
6
CONTINUOUS
10
0.52916
20
0.358387
11
0.529885
21
0.355681
0
LINE
8
BLACK
6
CONTINUOUS
10
0.529885
20
0.355681
11
0.529885
21
0.335058
0
LINE
8
BLACK
6
CONTINUOUS
10
0.529885
20
0.335058
11
0.52916
21
0.332351
0
LINE
8
BLACK
6
CONTINUOUS
10
0.52916
20
0.332351
11
0.527178
21
0.33037
0
LINE
8
BLACK
6
CONTINUOUS
10
0.527178
20
0.33037
11
0.524472
21
0.329645
0
LINE
8
BLACK
6
CONTINUOUS
10
0.524472
20
0.329645
11
0.481165
21
0.329645
0
LINE
8
BLACK
6
CONTINUOUS
10
0.481165
20
0.329645
11
0.478458
21
0.33037
0
LINE
8
BLACK
6
CONTINUOUS
10
0.478458
20
0.33037
11
0.476476
21
0.332351
0
LINE
8
BLACK
6
CONTINUOUS
10
0.476476
20
0.332351
11
0.475751
21
0.335058
0
LINE
8
BLACK
6
CONTINUOUS
10
0.475751
20
0.335058
11
0.476476
21
0.337765
0
LINE
8
BLACK
6
CONTINUOUS
10
0.476476
20
0.337765
11
0.478458
21
0.339746
0
LINE
8
BLACK
6
CONTINUOUS
10
0.478458
20
0.339746
11
0.481165
21
0.340471
0
LINE
8
BLACK
6
CONTINUOUS
10
0.481165
20
0.340471
11
0.519058
21
0.340471
0
LINE
8
BLACK
6
CONTINUOUS
10
0.519058
20
0.340471
11
0.519058
21
0.355681
0
LINE
8
BLACK
6
CONTINUOUS
10
0.519058
20
0.355681
11
0.519784
21
0.358387
0
LINE
8
BLACK
6
CONTINUOUS
10
0.519784
20
0.358387
11
0.521765
21
0.360369
0
LINE
8
BLACK
6
CONTINUOUS
10
0.521765
20
0.360369
11
0.524472
21
0.361094
0
LINE
8
BLACK
6
CONTINUOUS
10
0.524472
20
0.361094
11
0.527178
21
0.360369
0
CIRCLE
8
BLACK
10
1.525
20
0.21937
40
0.00688976
0
CIRCLE
8
BLACK
10
1.525
20
0.14063
40
0.00688976
0
CIRCLE
8
BLACK
10
1.225
20
0.185
40
0.00688976
0
CIRCLE
8
BLACK
10
0.405
20
0.08
40
0.00688976
0
CIRCLE
8
BLACK
10
0.405
20
0.18
40
0.00688976
0
CIRCLE
8
BLACK
10
0.505
20
0.08
40
0.00688976
0
CIRCLE
8
BLACK
10
0.505
20
0.18
40
0.00688976
0
CIRCLE
8
BLACK
10
0.605
20
0.08
40
0.00688976
0
CIRCLE
8
BLACK
10
0.605
20
0.18
40
0.00688976
0
CIRCLE
8
BLACK
10
0.705
20
0.08
40
0.00688976
0
CIRCLE
8
BLACK
10
0.705
20
0.18
40
0.00688976
0
CIRCLE
8
BLACK
10
0.805
20
0.08
40
0.00688976
0
CIRCLE
8
BLACK
10
0.805
20
0.18
40
0.00688976
0
CIRCLE
8
BLACK
10
0.2
20
0.18
40
0.00688976
0
CIRCLE
8
BLACK
10
1
20
0.18
40
0.00688976
  0
ENDSEC
  0
EOF
