  0
SECTION
  2
HEADER
  9
$ANGBASE
  50
0.0
  9
$ANGDIR
  70
1
  9
$MEASUREMENT
  70
0
  0
ENDSEC
  0
SECTION
  2
TABLES
  0
TABLE
  2
LTYPE
  70
4
  0
LTYPE
  5
40F
  2
CONTINUOUS
  70
0
  3
Solid line
  72
65
  73
0
  40
0.0
  0
LTYPE
  5
410
  2
DASHDOT
 70
0
  3
Dash Dot ____ _ ____ _
 72
65
 73
4
 40
2.0
 49
1.25
 49
-0.25
 49
0.25
 49
-0.25
  0
LTYPE
  5
411
  2
DASHED
 70
0
  3
Dashed __ __ __ __ __
 72
65
 73
2
 40
0.75
 49
0.5
 49
-0.25
  0
LTYPE
  5
43B
  2
DOTTED
 70
0
  3
Dotted .  .  .  .
 72
65
 73
2
 40
0.2
 49
0.0
 49
-0.2
  0
ENDTAB
  0
TABLE
  2
STYLE
  70
4
  0
STYLE
  2
KICAD
  70
0
  40
0
  41
1
  42
1
  50
0
  71
0
  3
isocp.shx
  0
STYLE
  2
KICADB
  70
0
  40
0
  41
1
  42
1
  50
0
  71
0
  3
isocp.shx
  0
STYLE
  2
KICADI
  70
0
  40
0
  41
1
  42
1
  50
15
  71
0
  3
isocp.shx
  0
STYLE
  2
KICADBI
  70
0
  40
0
  41
1
  42
1
  50
15
  71
0
  3
isocp.shx
  0
ENDTAB
  0
TABLE
  2
LAYER
  70
1
  0
LAYER
  2
BLACK
  70
0
  62
7
  6
CONTINUOUS
  0
ENDTAB
  0
ENDSEC
  0
SECTION
  2
ENTITIES
0
LINE
8
BLACK
6
CONTINUOUS
10
1.2325
20
0.005
11
1.1775
21
0.005
0
LINE
8
BLACK
6
CONTINUOUS
10
1.1775
20
0.005
11
1.1775
21
0.04
0
LINE
8
BLACK
6
CONTINUOUS
10
1.1775
20
0.04
11
1.2325
21
0.04
0
LINE
8
BLACK
6
CONTINUOUS
10
1.2325
20
0.04
11
1.2325
21
0.005
0
LINE
8
BLACK
6
CONTINUOUS
10
1.3525
20
0.005
11
1.2975
21
0.005
0
LINE
8
BLACK
6
CONTINUOUS
10
1.2975
20
0.005
11
1.2975
21
0.04
0
LINE
8
BLACK
6
CONTINUOUS
10
1.2975
20
0.04
11
1.3525
21
0.04
0
LINE
8
BLACK
6
CONTINUOUS
10
1.3525
20
0.04
11
1.3525
21
0.005
0
LINE
8
BLACK
6
CONTINUOUS
10
1.4325
20
0.005
11
1.3775
21
0.005
0
LINE
8
BLACK
6
CONTINUOUS
10
1.3775
20
0.005
11
1.3775
21
0.04
0
LINE
8
BLACK
6
CONTINUOUS
10
1.3775
20
0.04
11
1.4325
21
0.04
0
LINE
8
BLACK
6
CONTINUOUS
10
1.4325
20
0.04
11
1.4325
21
0.005
0
LINE
8
BLACK
6
CONTINUOUS
10
0.435
20
0.05
11
0.375
21
0.05
0
LINE
8
BLACK
6
CONTINUOUS
10
0.375
20
0.05
11
0.375
21
0.11
0
LINE
8
BLACK
6
CONTINUOUS
10
0.375
20
0.11
11
0.435
21
0.11
0
LINE
8
BLACK
6
CONTINUOUS
10
0.435
20
0.11
11
0.435
21
0.05
0
LINE
8
BLACK
6
CONTINUOUS
10
0.535
20
0.05
11
0.475
21
0.05
0
LINE
8
BLACK
6
CONTINUOUS
10
0.475
20
0.05
11
0.475
21
0.11
0
LINE
8
BLACK
6
CONTINUOUS
10
0.475
20
0.11
11
0.535
21
0.11
0
LINE
8
BLACK
6
CONTINUOUS
10
0.535
20
0.11
11
0.535
21
0.05
0
LINE
8
BLACK
6
CONTINUOUS
10
0.635
20
0.05
11
0.575
21
0.05
0
LINE
8
BLACK
6
CONTINUOUS
10
0.575
20
0.05
11
0.575
21
0.11
0
LINE
8
BLACK
6
CONTINUOUS
10
0.575
20
0.11
11
0.635
21
0.11
0
LINE
8
BLACK
6
CONTINUOUS
10
0.635
20
0.11
11
0.635
21
0.05
0
LINE
8
BLACK
6
CONTINUOUS
10
0.735
20
0.05
11
0.675
21
0.05
0
LINE
8
BLACK
6
CONTINUOUS
10
0.675
20
0.05
11
0.675
21
0.11
0
LINE
8
BLACK
6
CONTINUOUS
10
0.675
20
0.11
11
0.735
21
0.11
0
LINE
8
BLACK
6
CONTINUOUS
10
0.735
20
0.11
11
0.735
21
0.05
0
LINE
8
BLACK
6
CONTINUOUS
10
0.835
20
0.05
11
0.775
21
0.05
0
LINE
8
BLACK
6
CONTINUOUS
10
0.775
20
0.05
11
0.775
21
0.11
0
LINE
8
BLACK
6
CONTINUOUS
10
0.775
20
0.11
11
0.835
21
0.11
0
LINE
8
BLACK
6
CONTINUOUS
10
0.835
20
0.11
11
0.835
21
0.05
0
LINE
8
BLACK
6
CONTINUOUS
10
0.22051
20
0.296316
11
0.233874
21
0.293148
0
LINE
8
BLACK
6
CONTINUOUS
10
0.233874
20
0.293148
11
0.246781
21
0.288451
0
LINE
8
BLACK
6
CONTINUOUS
10
0.246781
20
0.288451
11
0.259055
21
0.282286
0
LINE
8
BLACK
6
CONTINUOUS
10
0.259055
20
0.282286
11
0.270531
21
0.274739
0
LINE
8
BLACK
6
CONTINUOUS
10
0.270531
20
0.274739
11
0.281052
21
0.26591
0
LINE
8
BLACK
6
CONTINUOUS
10
0.281052
20
0.26591
11
0.290478
21
0.25592
0
LINE
8
BLACK
6
CONTINUOUS
10
0.290478
20
0.25592
11
0.29868
21
0.244903
0
LINE
8
BLACK
6
CONTINUOUS
10
0.29868
20
0.244903
11
0.305547
21
0.233008
0
LINE
8
BLACK
6
CONTINUOUS
10
0.305547
20
0.233008
11
0.310987
21
0.220396
0
LINE
8
BLACK
6
CONTINUOUS
10
0.310987
20
0.220396
11
0.314927
21
0.207238
0
LINE
8
BLACK
6
CONTINUOUS
10
0.314927
20
0.207238
11
0.317312
21
0.193712
0
LINE
8
BLACK
6
CONTINUOUS
10
0.317312
20
0.193712
11
0.31811
21
0.18
0
LINE
8
BLACK
6
CONTINUOUS
10
0.31811
20
0.18
11
0.317312
21
0.166288
0
LINE
8
BLACK
6
CONTINUOUS
10
0.317312
20
0.166288
11
0.314927
21
0.152762
0
LINE
8
BLACK
6
CONTINUOUS
10
0.314927
20
0.152762
11
0.310987
21
0.139604
0
LINE
8
BLACK
6
CONTINUOUS
10
0.310987
20
0.139604
11
0.305547
21
0.126992
0
LINE
8
BLACK
6
CONTINUOUS
10
0.305547
20
0.126992
11
0.29868
21
0.115097
0
LINE
8
BLACK
6
CONTINUOUS
10
0.29868
20
0.115097
11
0.290478
21
0.10408
0
LINE
8
BLACK
6
CONTINUOUS
10
0.290478
20
0.10408
11
0.281052
21
0.0940897
0
LINE
8
BLACK
6
CONTINUOUS
10
0.281052
20
0.0940897
11
0.270531
21
0.085261
0
LINE
8
BLACK
6
CONTINUOUS
10
0.270531
20
0.085261
11
0.259055
21
0.0777135
0
LINE
8
BLACK
6
CONTINUOUS
10
0.259055
20
0.0777135
11
0.246781
21
0.0715493
0
LINE
8
BLACK
6
CONTINUOUS
10
0.246781
20
0.0715493
11
0.233874
21
0.0668516
0
LINE
8
BLACK
6
CONTINUOUS
10
0.233874
20
0.0668516
11
0.22051
21
0.0636841
0
LINE
8
BLACK
6
CONTINUOUS
10
0.22051
20
0.0636841
11
0.206867
21
0.0620896
0
LINE
8
BLACK
6
CONTINUOUS
10
0.206867
20
0.0620896
11
0.193133
21
0.0620896
0
LINE
8
BLACK
6
CONTINUOUS
10
0.193133
20
0.0620896
11
0.17949
21
0.0636841
0
LINE
8
BLACK
6
CONTINUOUS
10
0.17949
20
0.0636841
11
0.166126
21
0.0668516
0
LINE
8
BLACK
6
CONTINUOUS
10
0.166126
20
0.0668516
11
0.153219
21
0.0715493
0
LINE
8
BLACK
6
CONTINUOUS
10
0.153219
20
0.0715493
11
0.140945
21
0.0777135
0
LINE
8
BLACK
6
CONTINUOUS
10
0.140945
20
0.0777135
11
0.129469
21
0.085261
0
LINE
8
BLACK
6
CONTINUOUS
10
0.129469
20
0.085261
11
0.118948
21
0.0940897
0
LINE
8
BLACK
6
CONTINUOUS
10
0.118948
20
0.0940897
11
0.109522
21
0.10408
0
LINE
8
BLACK
6
CONTINUOUS
10
0.109522
20
0.10408
11
0.10132
21
0.115097
0
LINE
8
BLACK
6
CONTINUOUS
10
0.10132
20
0.115097
11
0.0944528
21
0.126992
0
LINE
8
BLACK
6
CONTINUOUS
10
0.0944528
20
0.126992
11
0.0890127
21
0.139604
0
LINE
8
BLACK
6
CONTINUOUS
10
0.0890127
20
0.139604
11
0.0850734
21
0.152762
0
LINE
8
BLACK
6
CONTINUOUS
10
0.0850734
20
0.152762
11
0.0826884
21
0.166288
0
LINE
8
BLACK
6
CONTINUOUS
10
0.0826884
20
0.166288
11
0.0818898
21
0.18
0
LINE
8
BLACK
6
CONTINUOUS
10
0.0818898
20
0.18
11
0.0826884
21
0.193712
0
LINE
8
BLACK
6
CONTINUOUS
10
0.0826884
20
0.193712
11
0.0850734
21
0.207238
0
LINE
8
BLACK
6
CONTINUOUS
10
0.0850734
20
0.207238
11
0.0890127
21
0.220396
0
LINE
8
BLACK
6
CONTINUOUS
10
0.0890127
20
0.220396
11
0.0944528
21
0.233008
0
LINE
8
BLACK
6
CONTINUOUS
10
0.0944528
20
0.233008
11
0.10132
21
0.244903
0
LINE
8
BLACK
6
CONTINUOUS
10
0.10132
20
0.244903
11
0.109522
21
0.25592
0
LINE
8
BLACK
6
CONTINUOUS
10
0.109522
20
0.25592
11
0.118948
21
0.26591
0
LINE
8
BLACK
6
CONTINUOUS
10
0.118948
20
0.26591
11
0.129469
21
0.274739
0
LINE
8
BLACK
6
CONTINUOUS
10
0.129469
20
0.274739
11
0.140945
21
0.282286
0
LINE
8
BLACK
6
CONTINUOUS
10
0.140945
20
0.282286
11
0.153219
21
0.288451
0
LINE
8
BLACK
6
CONTINUOUS
10
0.153219
20
0.288451
11
0.166126
21
0.293148
0
LINE
8
BLACK
6
CONTINUOUS
10
0.166126
20
0.293148
11
0.17949
21
0.296316
0
LINE
8
BLACK
6
CONTINUOUS
10
0.17949
20
0.296316
11
0.193133
21
0.29791
0
LINE
8
BLACK
6
CONTINUOUS
10
0.193133
20
0.29791
11
0.206867
21
0.29791
0
LINE
8
BLACK
6
CONTINUOUS
10
0.206867
20
0.29791
11
0.22051
21
0.296316
0
LINE
8
BLACK
6
CONTINUOUS
10
1.02051
20
0.296316
11
1.03387
21
0.293148
0
LINE
8
BLACK
6
CONTINUOUS
10
1.03387
20
0.293148
11
1.04678
21
0.288451
0
LINE
8
BLACK
6
CONTINUOUS
10
1.04678
20
0.288451
11
1.05906
21
0.282286
0
LINE
8
BLACK
6
CONTINUOUS
10
1.05906
20
0.282286
11
1.07053
21
0.274739
0
LINE
8
BLACK
6
CONTINUOUS
10
1.07053
20
0.274739
11
1.08105
21
0.26591
0
LINE
8
BLACK
6
CONTINUOUS
10
1.08105
20
0.26591
11
1.09048
21
0.25592
0
LINE
8
BLACK
6
CONTINUOUS
10
1.09048
20
0.25592
11
1.09868
21
0.244903
0
LINE
8
BLACK
6
CONTINUOUS
10
1.09868
20
0.244903
11
1.10555
21
0.233008
0
LINE
8
BLACK
6
CONTINUOUS
10
1.10555
20
0.233008
11
1.11099
21
0.220396
0
LINE
8
BLACK
6
CONTINUOUS
10
1.11099
20
0.220396
11
1.11493
21
0.207238
0
LINE
8
BLACK
6
CONTINUOUS
10
1.11493
20
0.207238
11
1.11731
21
0.193712
0
LINE
8
BLACK
6
CONTINUOUS
10
1.11731
20
0.193712
11
1.11811
21
0.18
0
LINE
8
BLACK
6
CONTINUOUS
10
1.11811
20
0.18
11
1.11731
21
0.166288
0
LINE
8
BLACK
6
CONTINUOUS
10
1.11731
20
0.166288
11
1.11493
21
0.152762
0
LINE
8
BLACK
6
CONTINUOUS
10
1.11493
20
0.152762
11
1.11099
21
0.139604
0
LINE
8
BLACK
6
CONTINUOUS
10
1.11099
20
0.139604
11
1.10555
21
0.126992
0
LINE
8
BLACK
6
CONTINUOUS
10
1.10555
20
0.126992
11
1.09868
21
0.115097
0
LINE
8
BLACK
6
CONTINUOUS
10
1.09868
20
0.115097
11
1.09048
21
0.10408
0
LINE
8
BLACK
6
CONTINUOUS
10
1.09048
20
0.10408
11
1.08105
21
0.0940897
0
LINE
8
BLACK
6
CONTINUOUS
10
1.08105
20
0.0940897
11
1.07053
21
0.085261
0
LINE
8
BLACK
6
CONTINUOUS
10
1.07053
20
0.085261
11
1.05906
21
0.0777135
0
LINE
8
BLACK
6
CONTINUOUS
10
1.05906
20
0.0777135
11
1.04678
21
0.0715493
0
LINE
8
BLACK
6
CONTINUOUS
10
1.04678
20
0.0715493
11
1.03387
21
0.0668516
0
LINE
8
BLACK
6
CONTINUOUS
10
1.03387
20
0.0668516
11
1.02051
21
0.0636841
0
LINE
8
BLACK
6
CONTINUOUS
10
1.02051
20
0.0636841
11
1.00687
21
0.0620896
0
LINE
8
BLACK
6
CONTINUOUS
10
1.00687
20
0.0620896
11
0.993133
21
0.0620896
0
LINE
8
BLACK
6
CONTINUOUS
10
0.993133
20
0.0620896
11
0.97949
21
0.0636841
0
LINE
8
BLACK
6
CONTINUOUS
10
0.97949
20
0.0636841
11
0.966126
21
0.0668516
0
LINE
8
BLACK
6
CONTINUOUS
10
0.966126
20
0.0668516
11
0.953219
21
0.0715493
0
LINE
8
BLACK
6
CONTINUOUS
10
0.953219
20
0.0715493
11
0.940945
21
0.0777135
0
LINE
8
BLACK
6
CONTINUOUS
10
0.940945
20
0.0777135
11
0.929469
21
0.085261
0
LINE
8
BLACK
6
CONTINUOUS
10
0.929469
20
0.085261
11
0.918948
21
0.0940897
0
LINE
8
BLACK
6
CONTINUOUS
10
0.918948
20
0.0940897
11
0.909522
21
0.10408
0
LINE
8
BLACK
6
CONTINUOUS
10
0.909522
20
0.10408
11
0.90132
21
0.115097
0
LINE
8
BLACK
6
CONTINUOUS
10
0.90132
20
0.115097
11
0.894453
21
0.126992
0
LINE
8
BLACK
6
CONTINUOUS
10
0.894453
20
0.126992
11
0.889013
21
0.139604
0
LINE
8
BLACK
6
CONTINUOUS
10
0.889013
20
0.139604
11
0.885073
21
0.152762
0
LINE
8
BLACK
6
CONTINUOUS
10
0.885073
20
0.152762
11
0.882688
21
0.166288
0
LINE
8
BLACK
6
CONTINUOUS
10
0.882688
20
0.166288
11
0.88189
21
0.18
0
LINE
8
BLACK
6
CONTINUOUS
10
0.88189
20
0.18
11
0.882688
21
0.193712
0
LINE
8
BLACK
6
CONTINUOUS
10
0.882688
20
0.193712
11
0.885073
21
0.207238
0
LINE
8
BLACK
6
CONTINUOUS
10
0.885073
20
0.207238
11
0.889013
21
0.220396
0
LINE
8
BLACK
6
CONTINUOUS
10
0.889013
20
0.220396
11
0.894453
21
0.233008
0
LINE
8
BLACK
6
CONTINUOUS
10
0.894453
20
0.233008
11
0.90132
21
0.244903
0
LINE
8
BLACK
6
CONTINUOUS
10
0.90132
20
0.244903
11
0.909522
21
0.25592
0
LINE
8
BLACK
6
CONTINUOUS
10
0.909522
20
0.25592
11
0.918948
21
0.26591
0
LINE
8
BLACK
6
CONTINUOUS
10
0.918948
20
0.26591
11
0.929469
21
0.274739
0
LINE
8
BLACK
6
CONTINUOUS
10
0.929469
20
0.274739
11
0.940945
21
0.282286
0
LINE
8
BLACK
6
CONTINUOUS
10
0.940945
20
0.282286
11
0.953219
21
0.288451
0
LINE
8
BLACK
6
CONTINUOUS
10
0.953219
20
0.288451
11
0.966126
21
0.293148
0
LINE
8
BLACK
6
CONTINUOUS
10
0.966126
20
0.293148
11
0.97949
21
0.296316
0
LINE
8
BLACK
6
CONTINUOUS
10
0.97949
20
0.296316
11
0.993133
21
0.29791
0
LINE
8
BLACK
6
CONTINUOUS
10
0.993133
20
0.29791
11
1.00687
21
0.29791
0
LINE
8
BLACK
6
CONTINUOUS
10
1.00687
20
0.29791
11
1.02051
21
0.296316
0
LINE
8
BLACK
6
CONTINUOUS
10
1.2325
20
0.08
11
1.1775
21
0.08
0
LINE
8
BLACK
6
CONTINUOUS
10
1.1775
20
0.08
11
1.1775
21
0.115
0
LINE
8
BLACK
6
CONTINUOUS
10
1.1775
20
0.115
11
1.2325
21
0.115
0
LINE
8
BLACK
6
CONTINUOUS
10
1.2325
20
0.115
11
1.2325
21
0.08
0
LINE
8
BLACK
6
CONTINUOUS
10
1.3525
20
0.08
11
1.2975
21
0.08
0
LINE
8
BLACK
6
CONTINUOUS
10
1.2975
20
0.08
11
1.2975
21
0.115
0
LINE
8
BLACK
6
CONTINUOUS
10
1.2975
20
0.115
11
1.3525
21
0.115
0
LINE
8
BLACK
6
CONTINUOUS
10
1.3525
20
0.115
11
1.3525
21
0.08
0
LINE
8
BLACK
6
CONTINUOUS
10
1.4325
20
0.08
11
1.3775
21
0.08
0
LINE
8
BLACK
6
CONTINUOUS
10
1.3775
20
0.08
11
1.3775
21
0.115
0
LINE
8
BLACK
6
CONTINUOUS
10
1.3775
20
0.115
11
1.4325
21
0.115
0
LINE
8
BLACK
6
CONTINUOUS
10
1.4325
20
0.115
11
1.4325
21
0.08
0
LINE
8
BLACK
6
CONTINUOUS
10
1.54469
20
0.120945
11
1.50531
21
0.120945
0
LINE
8
BLACK
6
CONTINUOUS
10
1.50531
20
0.120945
11
1.50531
21
0.160315
0
LINE
8
BLACK
6
CONTINUOUS
10
1.50531
20
0.160315
11
1.54469
21
0.160315
0
LINE
8
BLACK
6
CONTINUOUS
10
1.54469
20
0.160315
11
1.54469
21
0.120945
0
LINE
8
BLACK
6
CONTINUOUS
10
1.5025
20
0.125
11
1.4475
21
0.125
0
LINE
8
BLACK
6
CONTINUOUS
10
1.4475
20
0.125
11
1.4475
21
0.16
0
LINE
8
BLACK
6
CONTINUOUS
10
1.4475
20
0.16
11
1.5025
21
0.16
0
LINE
8
BLACK
6
CONTINUOUS
10
1.5025
20
0.16
11
1.5025
21
0.125
0
LINE
8
BLACK
6
CONTINUOUS
10
0.435
20
0.15
11
0.375
21
0.15
0
LINE
8
BLACK
6
CONTINUOUS
10
0.375
20
0.15
11
0.375
21
0.21
0
LINE
8
BLACK
6
CONTINUOUS
10
0.375
20
0.21
11
0.435
21
0.21
0
LINE
8
BLACK
6
CONTINUOUS
10
0.435
20
0.21
11
0.435
21
0.15
0
LINE
8
BLACK
6
CONTINUOUS
10
0.535
20
0.15
11
0.475
21
0.15
0
LINE
8
BLACK
6
CONTINUOUS
10
0.475
20
0.15
11
0.475
21
0.21
0
LINE
8
BLACK
6
CONTINUOUS
10
0.475
20
0.21
11
0.535
21
0.21
0
LINE
8
BLACK
6
CONTINUOUS
10
0.535
20
0.21
11
0.535
21
0.15
0
LINE
8
BLACK
6
CONTINUOUS
10
0.635
20
0.15
11
0.575
21
0.15
0
LINE
8
BLACK
6
CONTINUOUS
10
0.575
20
0.15
11
0.575
21
0.21
0
LINE
8
BLACK
6
CONTINUOUS
10
0.575
20
0.21
11
0.635
21
0.21
0
LINE
8
BLACK
6
CONTINUOUS
10
0.635
20
0.21
11
0.635
21
0.15
0
LINE
8
BLACK
6
CONTINUOUS
10
0.735
20
0.15
11
0.675
21
0.15
0
LINE
8
BLACK
6
CONTINUOUS
10
0.675
20
0.15
11
0.675
21
0.21
0
LINE
8
BLACK
6
CONTINUOUS
10
0.675
20
0.21
11
0.735
21
0.21
0
LINE
8
BLACK
6
CONTINUOUS
10
0.735
20
0.21
11
0.735
21
0.15
0
LINE
8
BLACK
6
CONTINUOUS
10
0.835
20
0.15
11
0.775
21
0.15
0
LINE
8
BLACK
6
CONTINUOUS
10
0.775
20
0.15
11
0.775
21
0.21
0
LINE
8
BLACK
6
CONTINUOUS
10
0.775
20
0.21
11
0.835
21
0.21
0
LINE
8
BLACK
6
CONTINUOUS
10
0.835
20
0.21
11
0.835
21
0.15
0
LINE
8
BLACK
6
CONTINUOUS
10
1.31516
20
0.151535
11
1.27579
21
0.151535
0
LINE
8
BLACK
6
CONTINUOUS
10
1.27579
20
0.151535
11
1.27579
21
0.167283
0
LINE
8
BLACK
6
CONTINUOUS
10
1.27579
20
0.167283
11
1.31516
21
0.167283
0
LINE
8
BLACK
6
CONTINUOUS
10
1.31516
20
0.167283
11
1.31516
21
0.151535
0
LINE
8
BLACK
6
CONTINUOUS
10
1.37421
20
0.151535
11
1.33484
21
0.151535
0
LINE
8
BLACK
6
CONTINUOUS
10
1.33484
20
0.151535
11
1.33484
21
0.167283
0
LINE
8
BLACK
6
CONTINUOUS
10
1.33484
20
0.167283
11
1.37421
21
0.167283
0
LINE
8
BLACK
6
CONTINUOUS
10
1.37421
20
0.167283
11
1.37421
21
0.151535
0
LINE
8
BLACK
6
CONTINUOUS
10
1.24469
20
0.165315
11
1.20531
21
0.165315
0
LINE
8
BLACK
6
CONTINUOUS
10
1.20531
20
0.165315
11
1.20531
21
0.204685
0
LINE
8
BLACK
6
CONTINUOUS
10
1.20531
20
0.204685
11
1.24469
21
0.204685
0
LINE
8
BLACK
6
CONTINUOUS
10
1.24469
20
0.204685
11
1.24469
21
0.165315
0
LINE
8
BLACK
6
CONTINUOUS
10
1.31516
20
0.177126
11
1.27579
21
0.177126
0
LINE
8
BLACK
6
CONTINUOUS
10
1.27579
20
0.177126
11
1.27579
21
0.192874
0
LINE
8
BLACK
6
CONTINUOUS
10
1.27579
20
0.192874
11
1.31516
21
0.192874
0
LINE
8
BLACK
6
CONTINUOUS
10
1.31516
20
0.192874
11
1.31516
21
0.177126
0
LINE
8
BLACK
6
CONTINUOUS
10
1.37421
20
0.177126
11
1.33484
21
0.177126
0
LINE
8
BLACK
6
CONTINUOUS
10
1.33484
20
0.177126
11
1.33484
21
0.192874
0
LINE
8
BLACK
6
CONTINUOUS
10
1.33484
20
0.192874
11
1.37421
21
0.192874
0
LINE
8
BLACK
6
CONTINUOUS
10
1.37421
20
0.192874
11
1.37421
21
0.177126
0
LINE
8
BLACK
6
CONTINUOUS
10
1.54469
20
0.199685
11
1.50531
21
0.199685
0
LINE
8
BLACK
6
CONTINUOUS
10
1.50531
20
0.199685
11
1.50531
21
0.239055
0
LINE
8
BLACK
6
CONTINUOUS
10
1.50531
20
0.239055
11
1.54469
21
0.239055
0
LINE
8
BLACK
6
CONTINUOUS
10
1.54469
20
0.239055
11
1.54469
21
0.199685
0
LINE
8
BLACK
6
CONTINUOUS
10
1.5025
20
0.2
11
1.4475
21
0.2
0
LINE
8
BLACK
6
CONTINUOUS
10
1.4475
20
0.2
11
1.4475
21
0.235
0
LINE
8
BLACK
6
CONTINUOUS
10
1.4475
20
0.235
11
1.5025
21
0.235
0
LINE
8
BLACK
6
CONTINUOUS
10
1.5025
20
0.235
11
1.5025
21
0.2
0
LINE
8
BLACK
6
CONTINUOUS
10
1.31516
20
0.202717
11
1.27579
21
0.202717
0
LINE
8
BLACK
6
CONTINUOUS
10
1.27579
20
0.202717
11
1.27579
21
0.218465
0
LINE
8
BLACK
6
CONTINUOUS
10
1.27579
20
0.218465
11
1.31516
21
0.218465
0
LINE
8
BLACK
6
CONTINUOUS
10
1.31516
20
0.218465
11
1.31516
21
0.202717
0
LINE
8
BLACK
6
CONTINUOUS
10
1.37421
20
0.202717
11
1.33484
21
0.202717
0
LINE
8
BLACK
6
CONTINUOUS
10
1.33484
20
0.202717
11
1.33484
21
0.218465
0
LINE
8
BLACK
6
CONTINUOUS
10
1.33484
20
0.218465
11
1.37421
21
0.218465
0
LINE
8
BLACK
6
CONTINUOUS
10
1.37421
20
0.218465
11
1.37421
21
0.202717
0
LINE
8
BLACK
6
CONTINUOUS
10
1.2525
20
0.25
11
1.1975
21
0.25
0
LINE
8
BLACK
6
CONTINUOUS
10
1.1975
20
0.25
11
1.1975
21
0.285
0
LINE
8
BLACK
6
CONTINUOUS
10
1.1975
20
0.285
11
1.2525
21
0.285
0
LINE
8
BLACK
6
CONTINUOUS
10
1.2525
20
0.285
11
1.2525
21
0.25
0
LINE
8
BLACK
6
CONTINUOUS
10
1.3425
20
0.25
11
1.2875
21
0.25
0
LINE
8
BLACK
6
CONTINUOUS
10
1.2875
20
0.25
11
1.2875
21
0.285
0
LINE
8
BLACK
6
CONTINUOUS
10
1.2875
20
0.285
11
1.3425
21
0.285
0
LINE
8
BLACK
6
CONTINUOUS
10
1.3425
20
0.285
11
1.3425
21
0.25
0
LINE
8
BLACK
6
CONTINUOUS
10
1.4375
20
0.25
11
1.3825
21
0.25
0
LINE
8
BLACK
6
CONTINUOUS
10
1.3825
20
0.25
11
1.3825
21
0.285
0
LINE
8
BLACK
6
CONTINUOUS
10
1.3825
20
0.285
11
1.4375
21
0.285
0
LINE
8
BLACK
6
CONTINUOUS
10
1.4375
20
0.285
11
1.4375
21
0.25
0
LINE
8
BLACK
6
CONTINUOUS
10
0.4817
20
0.25655
11
0.4305
21
0.25655
0
LINE
8
BLACK
6
CONTINUOUS
10
0.4305
20
0.25655
11
0.4305
21
0.32345
0
LINE
8
BLACK
6
CONTINUOUS
10
0.4305
20
0.32345
11
0.4817
21
0.32345
0
LINE
8
BLACK
6
CONTINUOUS
10
0.4817
20
0.32345
11
0.4817
21
0.25655
0
LINE
8
BLACK
6
CONTINUOUS
10
0.6195
20
0.25655
11
0.5683
21
0.25655
0
LINE
8
BLACK
6
CONTINUOUS
10
0.5683
20
0.25655
11
0.5683
21
0.32345
0
LINE
8
BLACK
6
CONTINUOUS
10
0.5683
20
0.32345
11
0.6195
21
0.32345
0
LINE
8
BLACK
6
CONTINUOUS
10
0.6195
20
0.32345
11
0.6195
21
0.25655
0
LINE
8
BLACK
6
CONTINUOUS
10
1.495
20
0.2675
11
1.46
21
0.2675
0
LINE
8
BLACK
6
CONTINUOUS
10
1.46
20
0.2675
11
1.46
21
0.3225
0
LINE
8
BLACK
6
CONTINUOUS
10
1.46
20
0.3225
11
1.495
21
0.3225
0
LINE
8
BLACK
6
CONTINUOUS
10
1.495
20
0.3225
11
1.495
21
0.2675
0
LINE
8
BLACK
6
CONTINUOUS
10
1.57
20
0.2675
11
1.535
21
0.2675
0
LINE
8
BLACK
6
CONTINUOUS
10
1.535
20
0.2675
11
1.535
21
0.3225
0
LINE
8
BLACK
6
CONTINUOUS
10
1.535
20
0.3225
11
1.57
21
0.3225
0
LINE
8
BLACK
6
CONTINUOUS
10
1.57
20
0.3225
11
1.57
21
0.2675
0
LINE
8
BLACK
6
CONTINUOUS
10
1.2525
20
0.325
11
1.1975
21
0.325
0
LINE
8
BLACK
6
CONTINUOUS
10
1.1975
20
0.325
11
1.1975
21
0.36
0
LINE
8
BLACK
6
CONTINUOUS
10
1.1975
20
0.36
11
1.2525
21
0.36
0
LINE
8
BLACK
6
CONTINUOUS
10
1.2525
20
0.36
11
1.2525
21
0.325
0
LINE
8
BLACK
6
CONTINUOUS
10
1.3425
20
0.325
11
1.2875
21
0.325
0
LINE
8
BLACK
6
CONTINUOUS
10
1.2875
20
0.325
11
1.2875
21
0.36
0
LINE
8
BLACK
6
CONTINUOUS
10
1.2875
20
0.36
11
1.3425
21
0.36
0
LINE
8
BLACK
6
CONTINUOUS
10
1.3425
20
0.36
11
1.3425
21
0.325
0
LINE
8
BLACK
6
CONTINUOUS
10
1.4375
20
0.325
11
1.3825
21
0.325
0
LINE
8
BLACK
6
CONTINUOUS
10
1.3825
20
0.325
11
1.3825
21
0.36
0
LINE
8
BLACK
6
CONTINUOUS
10
1.3825
20
0.36
11
1.4375
21
0.36
0
LINE
8
BLACK
6
CONTINUOUS
10
1.4375
20
0.36
11
1.4375
21
0.325
  0
ENDSEC
  0
EOF
