  0
SECTION
  2
HEADER
  9
$ANGBASE
  50
0.0
  9
$ANGDIR
  70
1
  9
$MEASUREMENT
  70
0
  0
ENDSEC
  0
SECTION
  2
TABLES
  0
TABLE
  2
LTYPE
  70
4
  0
LTYPE
  5
40F
  2
CONTINUOUS
  70
0
  3
Solid line
  72
65
  73
0
  40
0.0
  0
LTYPE
  5
410
  2
DASHDOT
 70
0
  3
Dash Dot ____ _ ____ _
 72
65
 73
4
 40
2.0
 49
1.25
 49
-0.25
 49
0.25
 49
-0.25
  0
LTYPE
  5
411
  2
DASHED
 70
0
  3
Dashed __ __ __ __ __
 72
65
 73
2
 40
0.75
 49
0.5
 49
-0.25
  0
LTYPE
  5
43B
  2
DOTTED
 70
0
  3
Dotted .  .  .  .
 72
65
 73
2
 40
0.2
 49
0.0
 49
-0.2
  0
ENDTAB
  0
TABLE
  2
STYLE
  70
4
  0
STYLE
  2
KICAD
  70
0
  40
0
  41
1
  42
1
  50
0
  71
0
  3
isocp.shx
  0
STYLE
  2
KICADB
  70
0
  40
0
  41
1
  42
1
  50
0
  71
0
  3
isocp.shx
  0
STYLE
  2
KICADI
  70
0
  40
0
  41
1
  42
1
  50
15
  71
0
  3
isocp.shx
  0
STYLE
  2
KICADBI
  70
0
  40
0
  41
1
  42
1
  50
15
  71
0
  3
isocp.shx
  0
ENDTAB
  0
TABLE
  2
LAYER
  70
1
  0
LAYER
  2
BLACK
  70
0
  62
7
  6
CONTINUOUS
  0
ENDTAB
  0
ENDSEC
  0
SECTION
  2
ENTITIES
0
LINE
8
BLACK
6
CONTINUOUS
10
1.54469
20
0.120945
11
1.50531
21
0.120945
0
LINE
8
BLACK
6
CONTINUOUS
10
1.50531
20
0.120945
11
1.50531
21
0.160315
0
LINE
8
BLACK
6
CONTINUOUS
10
1.50531
20
0.160315
11
1.54469
21
0.160315
0
LINE
8
BLACK
6
CONTINUOUS
10
1.54469
20
0.160315
11
1.54469
21
0.120945
0
LINE
8
BLACK
6
CONTINUOUS
10
1.54469
20
0.199685
11
1.50531
21
0.199685
0
LINE
8
BLACK
6
CONTINUOUS
10
1.50531
20
0.199685
11
1.50531
21
0.239055
0
LINE
8
BLACK
6
CONTINUOUS
10
1.50531
20
0.239055
11
1.54469
21
0.239055
0
LINE
8
BLACK
6
CONTINUOUS
10
1.54469
20
0.239055
11
1.54469
21
0.199685
0
LINE
8
BLACK
6
CONTINUOUS
10
0.51113
20
0.367224
11
0.51296
21
0.365112
0
LINE
8
BLACK
6
CONTINUOUS
10
0.51296
20
0.365112
11
0.513358
21
0.362345
0
LINE
8
BLACK
6
CONTINUOUS
10
0.513358
20
0.362345
11
0.512197
21
0.359803
0
LINE
8
BLACK
6
CONTINUOUS
10
0.512197
20
0.359803
11
0.511087
21
0.358851
0
LINE
8
BLACK
6
CONTINUOUS
10
0.511087
20
0.358851
11
0.505028
21
0.355044
0
LINE
8
BLACK
6
CONTINUOUS
10
0.505028
20
0.355044
11
0.505028
21
0.355044
0
LINE
8
BLACK
6
CONTINUOUS
10
0.505028
20
0.355044
11
0.499956
21
0.349972
0
LINE
8
BLACK
6
CONTINUOUS
10
0.499956
20
0.349972
11
0.499956
21
0.349972
0
LINE
8
BLACK
6
CONTINUOUS
10
0.499956
20
0.349972
11
0.49614
21
0.343898
0
LINE
8
BLACK
6
CONTINUOUS
10
0.49614
20
0.343898
11
0.49614
21
0.343898
0
LINE
8
BLACK
6
CONTINUOUS
10
0.49614
20
0.343898
11
0.493771
21
0.337128
0
LINE
8
BLACK
6
CONTINUOUS
10
0.493771
20
0.337128
11
0.492968
21
0.33
0
LINE
8
BLACK
6
CONTINUOUS
10
0.492968
20
0.33
11
0.493771
21
0.322872
0
LINE
8
BLACK
6
CONTINUOUS
10
0.493771
20
0.322872
11
0.493771
21
0.322872
0
LINE
8
BLACK
6
CONTINUOUS
10
0.493771
20
0.322872
11
0.493771
21
0.322872
0
LINE
8
BLACK
6
CONTINUOUS
10
0.493771
20
0.322872
11
0.49614
21
0.316102
0
LINE
8
BLACK
6
CONTINUOUS
10
0.49614
20
0.316102
11
0.49614
21
0.316102
0
LINE
8
BLACK
6
CONTINUOUS
10
0.49614
20
0.316102
11
0.499956
21
0.310028
0
LINE
8
BLACK
6
CONTINUOUS
10
0.499956
20
0.310028
11
0.499956
21
0.310028
0
LINE
8
BLACK
6
CONTINUOUS
10
0.499956
20
0.310028
11
0.505028
21
0.304956
0
LINE
8
BLACK
6
CONTINUOUS
10
0.505028
20
0.304956
11
0.505028
21
0.304956
0
LINE
8
BLACK
6
CONTINUOUS
10
0.505028
20
0.304956
11
0.511102
21
0.30114
0
LINE
8
BLACK
6
CONTINUOUS
10
0.511102
20
0.30114
11
0.511102
21
0.30114
0
LINE
8
BLACK
6
CONTINUOUS
10
0.511102
20
0.30114
11
0.517872
21
0.298771
0
LINE
8
BLACK
6
CONTINUOUS
10
0.517872
20
0.298771
11
0.517872
21
0.298771
0
LINE
8
BLACK
6
CONTINUOUS
10
0.517872
20
0.298771
11
0.517872
21
0.298771
0
LINE
8
BLACK
6
CONTINUOUS
10
0.517872
20
0.298771
11
0.523787
21
0.298105
0
LINE
8
BLACK
6
CONTINUOUS
10
0.523787
20
0.298105
11
0.525
21
0.297968
0
LINE
8
BLACK
6
CONTINUOUS
10
0.525
20
0.297968
11
0.525
21
0.297968
0
LINE
8
BLACK
6
CONTINUOUS
10
0.525
20
0.297968
11
0.532128
21
0.298771
0
LINE
8
BLACK
6
CONTINUOUS
10
0.532128
20
0.298771
11
0.538898
21
0.30114
0
LINE
8
BLACK
6
CONTINUOUS
10
0.538898
20
0.30114
11
0.538898
21
0.30114
0
LINE
8
BLACK
6
CONTINUOUS
10
0.538898
20
0.30114
11
0.544972
21
0.304956
0
LINE
8
BLACK
6
CONTINUOUS
10
0.544972
20
0.304956
11
0.544972
21
0.304956
0
LINE
8
BLACK
6
CONTINUOUS
10
0.544972
20
0.304956
11
0.550044
21
0.310028
0
LINE
8
BLACK
6
CONTINUOUS
10
0.550044
20
0.310028
11
0.550044
21
0.310028
0
LINE
8
BLACK
6
CONTINUOUS
10
0.550044
20
0.310028
11
0.553255
21
0.315139
0
LINE
8
BLACK
6
CONTINUOUS
10
0.553255
20
0.315139
11
0.555349
21
0.316991
0
LINE
8
BLACK
6
CONTINUOUS
10
0.555349
20
0.316991
11
0.557455
21
0.317461
0
LINE
8
BLACK
6
CONTINUOUS
10
0.557455
20
0.317461
11
0.639421
21
0.317461
0
LINE
8
BLACK
6
CONTINUOUS
10
0.639421
20
0.317461
11
1.06576
21
0.317461
0
LINE
8
BLACK
6
CONTINUOUS
10
1.06576
20
0.317461
11
1.06844
21
0.316673
0
LINE
8
BLACK
6
CONTINUOUS
10
1.06844
20
0.316673
11
1.06927
21
0.316008
0
LINE
8
BLACK
6
CONTINUOUS
10
1.06927
20
0.316008
11
1.08935
21
0.295925
0
LINE
8
BLACK
6
CONTINUOUS
10
1.08935
20
0.295925
11
1.08945
21
0.295816
0
LINE
8
BLACK
6
CONTINUOUS
10
1.08945
20
0.295816
11
1.09109
21
0.293968
0
LINE
8
BLACK
6
CONTINUOUS
10
1.09109
20
0.293968
11
1.09312
21
0.292565
0
LINE
8
BLACK
6
CONTINUOUS
10
1.09312
20
0.292565
11
1.09324
21
0.292477
0
LINE
8
BLACK
6
CONTINUOUS
10
1.09324
20
0.292477
11
1.09519
21
0.290954
0
LINE
8
BLACK
6
CONTINUOUS
10
1.09519
20
0.290954
11
1.09519
21
0.290954
0
LINE
8
BLACK
6
CONTINUOUS
10
1.09519
20
0.290954
11
1.09555
21
0.290789
0
LINE
8
BLACK
6
CONTINUOUS
10
1.09555
20
0.290789
11
1.09634
21
0.290348
0
LINE
8
BLACK
6
CONTINUOUS
10
1.09634
20
0.290348
11
1.09667
21
0.29012
0
LINE
8
BLACK
6
CONTINUOUS
10
1.09667
20
0.29012
11
1.09897
21
0.289244
0
LINE
8
BLACK
6
CONTINUOUS
10
1.09897
20
0.289244
11
1.09911
21
0.289187
0
LINE
8
BLACK
6
CONTINUOUS
10
1.09911
20
0.289187
11
1.10136
21
0.288174
0
LINE
8
BLACK
6
CONTINUOUS
10
1.10136
20
0.288174
11
1.10136
21
0.288174
0
LINE
8
BLACK
6
CONTINUOUS
10
1.10136
20
0.288174
11
1.10137
21
0.288174
0
LINE
8
BLACK
6
CONTINUOUS
10
1.10137
20
0.288174
11
1.10137
21
0.288174
0
LINE
8
BLACK
6
CONTINUOUS
10
1.10137
20
0.288174
11
1.10137
21
0.288174
0
LINE
8
BLACK
6
CONTINUOUS
10
1.10137
20
0.288174
11
1.10176
21
0.288101
0
LINE
8
BLACK
6
CONTINUOUS
10
1.10176
20
0.288101
11
1.10262
21
0.28786
0
LINE
8
BLACK
6
CONTINUOUS
10
1.10262
20
0.28786
11
1.103
21
0.287718
0
LINE
8
BLACK
6
CONTINUOUS
10
1.103
20
0.287718
11
1.10545
21
0.28742
0
LINE
8
BLACK
6
CONTINUOUS
10
1.10545
20
0.28742
11
1.1056
21
0.287398
0
LINE
8
BLACK
6
CONTINUOUS
10
1.1056
20
0.287398
11
1.10803
21
0.286953
0
LINE
8
BLACK
6
CONTINUOUS
10
1.10803
20
0.286953
11
1.10803
21
0.286953
0
LINE
8
BLACK
6
CONTINUOUS
10
1.10803
20
0.286953
11
1.11049
21
0.287102
0
LINE
8
BLACK
6
CONTINUOUS
10
1.11049
20
0.287102
11
1.11064
21
0.287106
0
LINE
8
BLACK
6
CONTINUOUS
10
1.11064
20
0.287106
11
1.27304
21
0.287106
0
LINE
8
BLACK
6
CONTINUOUS
10
1.27304
20
0.287106
11
1.27572
21
0.286319
0
LINE
8
BLACK
6
CONTINUOUS
10
1.27572
20
0.286319
11
1.27755
21
0.284206
0
LINE
8
BLACK
6
CONTINUOUS
10
1.27755
20
0.284206
11
1.27769
21
0.28388
0
LINE
8
BLACK
6
CONTINUOUS
10
1.27769
20
0.28388
11
1.27851
21
0.281685
0
LINE
8
BLACK
6
CONTINUOUS
10
1.27851
20
0.281685
11
1.27851
21
0.281685
0
LINE
8
BLACK
6
CONTINUOUS
10
1.27851
20
0.281685
11
1.28196
21
0.277076
0
LINE
8
BLACK
6
CONTINUOUS
10
1.28196
20
0.277076
11
1.28277
21
0.276471
0
LINE
8
BLACK
6
CONTINUOUS
10
1.28277
20
0.276471
11
1.28444
21
0.274234
0
LINE
8
BLACK
6
CONTINUOUS
10
1.28444
20
0.274234
11
1.28464
21
0.271445
0
LINE
8
BLACK
6
CONTINUOUS
10
1.28464
20
0.271445
11
1.2833
21
0.268992
0
LINE
8
BLACK
6
CONTINUOUS
10
1.2833
20
0.268992
11
1.28277
21
0.268529
0
LINE
8
BLACK
6
CONTINUOUS
10
1.28277
20
0.268529
11
1.28196
21
0.267924
0
LINE
8
BLACK
6
CONTINUOUS
10
1.28196
20
0.267924
11
1.27851
21
0.263315
0
LINE
8
BLACK
6
CONTINUOUS
10
1.27851
20
0.263315
11
1.27851
21
0.263315
0
LINE
8
BLACK
6
CONTINUOUS
10
1.27851
20
0.263315
11
1.27851
21
0.263315
0
LINE
8
BLACK
6
CONTINUOUS
10
1.27851
20
0.263315
11
1.27769
21
0.261121
0
LINE
8
BLACK
6
CONTINUOUS
10
1.27769
20
0.261121
11
1.27601
21
0.258883
0
LINE
8
BLACK
6
CONTINUOUS
10
1.27601
20
0.258883
11
1.2734
21
0.257906
0
LINE
8
BLACK
6
CONTINUOUS
10
1.2734
20
0.257906
11
1.27304
21
0.257894
0
LINE
8
BLACK
6
CONTINUOUS
10
1.27304
20
0.257894
11
1.2032
21
0.257894
0
LINE
8
BLACK
6
CONTINUOUS
10
1.2032
20
0.257894
11
1.20305
21
0.257898
0
LINE
8
BLACK
6
CONTINUOUS
10
1.20305
20
0.257898
11
1.20059
21
0.258047
0
LINE
8
BLACK
6
CONTINUOUS
10
1.20059
20
0.258047
11
1.19816
21
0.257602
0
LINE
8
BLACK
6
CONTINUOUS
10
1.19816
20
0.257602
11
1.19801
21
0.25758
0
LINE
8
BLACK
6
CONTINUOUS
10
1.19801
20
0.25758
11
1.19556
21
0.257282
0
LINE
8
BLACK
6
CONTINUOUS
10
1.19556
20
0.257282
11
1.19556
21
0.257282
0
LINE
8
BLACK
6
CONTINUOUS
10
1.19556
20
0.257282
11
1.19518
21
0.25714
0
LINE
8
BLACK
6
CONTINUOUS
10
1.19518
20
0.25714
11
1.19432
21
0.256899
0
LINE
8
BLACK
6
CONTINUOUS
10
1.19432
20
0.256899
11
1.19392
21
0.256826
0
LINE
8
BLACK
6
CONTINUOUS
10
1.19392
20
0.256826
11
1.19173
21
0.255841
0
LINE
8
BLACK
6
CONTINUOUS
10
1.19173
20
0.255841
11
1.19167
21
0.255813
0
LINE
8
BLACK
6
CONTINUOUS
10
1.19167
20
0.255813
11
1.19153
21
0.255756
0
LINE
8
BLACK
6
CONTINUOUS
10
1.19153
20
0.255756
11
1.19025
21
0.25527
0
LINE
8
BLACK
6
CONTINUOUS
10
1.19025
20
0.25527
11
1.18923
21
0.25488
0
LINE
8
BLACK
6
CONTINUOUS
10
1.18923
20
0.25488
11
1.18923
21
0.25488
0
LINE
8
BLACK
6
CONTINUOUS
10
1.18923
20
0.25488
11
1.18923
21
0.25488
0
LINE
8
BLACK
6
CONTINUOUS
10
1.18923
20
0.25488
11
1.18923
21
0.25488
0
LINE
8
BLACK
6
CONTINUOUS
10
1.18923
20
0.25488
11
1.18923
21
0.25488
0
LINE
8
BLACK
6
CONTINUOUS
10
1.18923
20
0.25488
11
1.1889
21
0.254652
0
LINE
8
BLACK
6
CONTINUOUS
10
1.1889
20
0.254652
11
1.18811
21
0.254211
0
LINE
8
BLACK
6
CONTINUOUS
10
1.18811
20
0.254211
11
1.18775
21
0.254046
0
LINE
8
BLACK
6
CONTINUOUS
10
1.18775
20
0.254046
11
1.18687
21
0.253357
0
LINE
8
BLACK
6
CONTINUOUS
10
1.18687
20
0.253357
11
1.1858
21
0.252523
0
LINE
8
BLACK
6
CONTINUOUS
10
1.1858
20
0.252523
11
1.18568
21
0.252435
0
LINE
8
BLACK
6
CONTINUOUS
10
1.18568
20
0.252435
11
1.18365
21
0.251032
0
LINE
8
BLACK
6
CONTINUOUS
10
1.18365
20
0.251032
11
1.18365
21
0.251032
0
LINE
8
BLACK
6
CONTINUOUS
10
1.18365
20
0.251032
11
1.18201
21
0.249183
0
LINE
8
BLACK
6
CONTINUOUS
10
1.18201
20
0.249183
11
1.18191
21
0.249075
0
LINE
8
BLACK
6
CONTINUOUS
10
1.18191
20
0.249075
11
1.17619
21
0.243354
0
LINE
8
BLACK
6
CONTINUOUS
10
1.17619
20
0.243354
11
1.17199
21
0.239159
0
LINE
8
BLACK
6
CONTINUOUS
10
1.17199
20
0.239159
11
1.17013
21
0.237985
0
LINE
8
BLACK
6
CONTINUOUS
10
1.17013
20
0.237985
11
1.1661
21
0.236577
0
LINE
8
BLACK
6
CONTINUOUS
10
1.1661
20
0.236577
11
1.1661
21
0.236576
0
LINE
8
BLACK
6
CONTINUOUS
10
1.1661
20
0.236576
11
1.16003
21
0.23276
0
LINE
8
BLACK
6
CONTINUOUS
10
1.16003
20
0.23276
11
1.16003
21
0.23276
0
LINE
8
BLACK
6
CONTINUOUS
10
1.16003
20
0.23276
11
1.15496
21
0.227688
0
LINE
8
BLACK
6
CONTINUOUS
10
1.15496
20
0.227688
11
1.15496
21
0.227688
0
LINE
8
BLACK
6
CONTINUOUS
10
1.15496
20
0.227688
11
1.15114
21
0.221615
0
LINE
8
BLACK
6
CONTINUOUS
10
1.15114
20
0.221615
11
1.15114
21
0.221615
0
LINE
8
BLACK
6
CONTINUOUS
10
1.15114
20
0.221615
11
1.14877
21
0.214844
0
LINE
8
BLACK
6
CONTINUOUS
10
1.14877
20
0.214844
11
1.14797
21
0.207717
0
LINE
8
BLACK
6
CONTINUOUS
10
1.14797
20
0.207717
11
1.14877
21
0.200589
0
LINE
8
BLACK
6
CONTINUOUS
10
1.14877
20
0.200589
11
1.14877
21
0.200589
0
LINE
8
BLACK
6
CONTINUOUS
10
1.14877
20
0.200589
11
1.14877
21
0.200589
0
LINE
8
BLACK
6
CONTINUOUS
10
1.14877
20
0.200589
11
1.15114
21
0.193818
0
LINE
8
BLACK
6
CONTINUOUS
10
1.15114
20
0.193818
11
1.15114
21
0.193818
0
LINE
8
BLACK
6
CONTINUOUS
10
1.15114
20
0.193818
11
1.15496
21
0.187745
0
LINE
8
BLACK
6
CONTINUOUS
10
1.15496
20
0.187745
11
1.15496
21
0.187745
0
LINE
8
BLACK
6
CONTINUOUS
10
1.15496
20
0.187745
11
1.16003
21
0.182673
0
LINE
8
BLACK
6
CONTINUOUS
10
1.16003
20
0.182673
11
1.16003
21
0.182673
0
LINE
8
BLACK
6
CONTINUOUS
10
1.16003
20
0.182673
11
1.1661
21
0.178857
0
LINE
8
BLACK
6
CONTINUOUS
10
1.1661
20
0.178857
11
1.1661
21
0.178857
0
LINE
8
BLACK
6
CONTINUOUS
10
1.1661
20
0.178857
11
1.17287
21
0.176488
0
LINE
8
BLACK
6
CONTINUOUS
10
1.17287
20
0.176488
11
1.17287
21
0.176488
0
LINE
8
BLACK
6
CONTINUOUS
10
1.17287
20
0.176488
11
1.17287
21
0.176488
0
LINE
8
BLACK
6
CONTINUOUS
10
1.17287
20
0.176488
11
1.18
21
0.175684
0
LINE
8
BLACK
6
CONTINUOUS
10
1.18
20
0.175684
11
1.18
21
0.175684
0
LINE
8
BLACK
6
CONTINUOUS
10
1.18
20
0.175684
11
1.18
21
0.175684
0
LINE
8
BLACK
6
CONTINUOUS
10
1.18
20
0.175684
11
1.18028
21
0.175684
0
LINE
8
BLACK
6
CONTINUOUS
10
1.18028
20
0.175684
11
1.18028
21
0.175572
0
LINE
8
BLACK
6
CONTINUOUS
10
1.18028
20
0.175572
11
1.18253
21
0.175177
0
LINE
8
BLACK
6
CONTINUOUS
10
1.18253
20
0.175177
11
1.18459
21
0.173282
0
LINE
8
BLACK
6
CONTINUOUS
10
1.18459
20
0.173282
11
1.1853
21
0.17073
0
LINE
8
BLACK
6
CONTINUOUS
10
1.1853
20
0.17073
11
1.1853
21
0.1634
0
LINE
8
BLACK
6
CONTINUOUS
10
1.1853
20
0.1634
11
1.1853
21
0.1634
0
LINE
8
BLACK
6
CONTINUOUS
10
1.1853
20
0.1634
11
1.18555
21
0.161016
0
LINE
8
BLACK
6
CONTINUOUS
10
1.18555
20
0.161016
11
1.18555
21
0.161016
0
LINE
8
BLACK
6
CONTINUOUS
10
1.18555
20
0.161016
11
1.18756
21
0.155622
0
LINE
8
BLACK
6
CONTINUOUS
10
1.18756
20
0.155622
11
1.18756
21
0.155622
0
LINE
8
BLACK
6
CONTINUOUS
10
1.18756
20
0.155622
11
1.19101
21
0.151013
0
LINE
8
BLACK
6
CONTINUOUS
10
1.19101
20
0.151013
11
1.19562
21
0.147563
0
LINE
8
BLACK
6
CONTINUOUS
10
1.19562
20
0.147563
11
1.19562
21
0.147563
0
LINE
8
BLACK
6
CONTINUOUS
10
1.19562
20
0.147563
11
1.20102
21
0.145552
0
LINE
8
BLACK
6
CONTINUOUS
10
1.20102
20
0.145552
11
1.20102
21
0.145552
0
LINE
8
BLACK
6
CONTINUOUS
10
1.20102
20
0.145552
11
1.2034
21
0.145295
0
LINE
8
BLACK
6
CONTINUOUS
10
1.2034
20
0.145295
11
1.2034
21
0.145295
0
LINE
8
BLACK
6
CONTINUOUS
10
1.2034
20
0.145295
11
1.2466
21
0.145295
0
LINE
8
BLACK
6
CONTINUOUS
10
1.2466
20
0.145295
11
1.24898
21
0.145552
0
LINE
8
BLACK
6
CONTINUOUS
10
1.24898
20
0.145552
11
1.24898
21
0.145552
0
LINE
8
BLACK
6
CONTINUOUS
10
1.24898
20
0.145552
11
1.25438
21
0.147563
0
LINE
8
BLACK
6
CONTINUOUS
10
1.25438
20
0.147563
11
1.25438
21
0.147563
0
LINE
8
BLACK
6
CONTINUOUS
10
1.25438
20
0.147563
11
1.25899
21
0.151013
0
LINE
8
BLACK
6
CONTINUOUS
10
1.25899
20
0.151013
11
1.26244
21
0.155622
0
LINE
8
BLACK
6
CONTINUOUS
10
1.26244
20
0.155622
11
1.26244
21
0.155622
0
LINE
8
BLACK
6
CONTINUOUS
10
1.26244
20
0.155622
11
1.26445
21
0.161016
0
LINE
8
BLACK
6
CONTINUOUS
10
1.26445
20
0.161016
11
1.26445
21
0.161016
0
LINE
8
BLACK
6
CONTINUOUS
10
1.26445
20
0.161016
11
1.2647
21
0.1634
0
LINE
8
BLACK
6
CONTINUOUS
10
1.2647
20
0.1634
11
1.2647
21
0.1634
0
LINE
8
BLACK
6
CONTINUOUS
10
1.2647
20
0.1634
11
1.2647
21
0.197146
0
LINE
8
BLACK
6
CONTINUOUS
10
1.2647
20
0.197146
11
1.26549
21
0.199828
0
LINE
8
BLACK
6
CONTINUOUS
10
1.26549
20
0.199828
11
1.2676
21
0.201658
0
LINE
8
BLACK
6
CONTINUOUS
10
1.2676
20
0.201658
11
1.26967
21
0.202106
0
LINE
8
BLACK
6
CONTINUOUS
10
1.26967
20
0.202106
11
1.27304
21
0.202106
0
LINE
8
BLACK
6
CONTINUOUS
10
1.27304
20
0.202106
11
1.27572
21
0.201319
0
LINE
8
BLACK
6
CONTINUOUS
10
1.27572
20
0.201319
11
1.27755
21
0.199206
0
LINE
8
BLACK
6
CONTINUOUS
10
1.27755
20
0.199206
11
1.27769
21
0.19888
0
LINE
8
BLACK
6
CONTINUOUS
10
1.27769
20
0.19888
11
1.2781
21
0.19777
0
LINE
8
BLACK
6
CONTINUOUS
10
1.2781
20
0.19777
11
1.27851
21
0.196685
0
LINE
8
BLACK
6
CONTINUOUS
10
1.27851
20
0.196685
11
1.28196
21
0.192076
0
LINE
8
BLACK
6
CONTINUOUS
10
1.28196
20
0.192076
11
1.28657
21
0.188626
0
LINE
8
BLACK
6
CONTINUOUS
10
1.28657
20
0.188626
11
1.28657
21
0.188626
0
LINE
8
BLACK
6
CONTINUOUS
10
1.28657
20
0.188626
11
1.29196
21
0.186615
0
LINE
8
BLACK
6
CONTINUOUS
10
1.29196
20
0.186615
11
1.29196
21
0.186615
0
LINE
8
BLACK
6
CONTINUOUS
10
1.29196
20
0.186615
11
1.29434
21
0.186358
0
LINE
8
BLACK
6
CONTINUOUS
10
1.29434
20
0.186358
11
1.29434
21
0.186358
0
LINE
8
BLACK
6
CONTINUOUS
10
1.29434
20
0.186358
11
1.4172
21
0.186358
0
LINE
8
BLACK
6
CONTINUOUS
10
1.4172
20
0.186358
11
1.41795
21
0.186632
0
LINE
8
BLACK
6
CONTINUOUS
10
1.41795
20
0.186632
11
1.42205
21
0.186632
0
LINE
8
BLACK
6
CONTINUOUS
10
1.42205
20
0.186632
11
1.4228
21
0.186358
0
LINE
8
BLACK
6
CONTINUOUS
10
1.4228
20
0.186358
11
1.45566
21
0.186358
0
LINE
8
BLACK
6
CONTINUOUS
10
1.45566
20
0.186358
11
1.45804
21
0.186615
0
LINE
8
BLACK
6
CONTINUOUS
10
1.45804
20
0.186615
11
1.45804
21
0.186615
0
LINE
8
BLACK
6
CONTINUOUS
10
1.45804
20
0.186615
11
1.46343
21
0.188626
0
LINE
8
BLACK
6
CONTINUOUS
10
1.46343
20
0.188626
11
1.46343
21
0.188626
0
LINE
8
BLACK
6
CONTINUOUS
10
1.46343
20
0.188626
11
1.46804
21
0.192076
0
LINE
8
BLACK
6
CONTINUOUS
10
1.46804
20
0.192076
11
1.47149
21
0.196685
0
LINE
8
BLACK
6
CONTINUOUS
10
1.47149
20
0.196685
11
1.47149
21
0.196685
0
LINE
8
BLACK
6
CONTINUOUS
10
1.47149
20
0.196685
11
1.4719
21
0.19777
0
LINE
8
BLACK
6
CONTINUOUS
10
1.4719
20
0.19777
11
1.47243
21
0.199206
0
LINE
8
BLACK
6
CONTINUOUS
10
1.47243
20
0.199206
11
1.4735
21
0.202079
0
LINE
8
BLACK
6
CONTINUOUS
10
1.4735
20
0.202079
11
1.4735
21
0.202079
0
LINE
8
BLACK
6
CONTINUOUS
10
1.4735
20
0.202079
11
1.47376
21
0.204463
0
LINE
8
BLACK
6
CONTINUOUS
10
1.47376
20
0.204463
11
1.47376
21
0.204463
0
LINE
8
BLACK
6
CONTINUOUS
10
1.47376
20
0.204463
11
1.47376
21
0.248368
0
LINE
8
BLACK
6
CONTINUOUS
10
1.47376
20
0.248368
11
1.47295
21
0.248368
0
LINE
8
BLACK
6
CONTINUOUS
10
1.47295
20
0.248368
11
1.46909
21
0.249771
0
LINE
8
BLACK
6
CONTINUOUS
10
1.46909
20
0.249771
11
1.46595
21
0.252408
0
LINE
8
BLACK
6
CONTINUOUS
10
1.46595
20
0.252408
11
1.4639
21
0.25596
0
LINE
8
BLACK
6
CONTINUOUS
10
1.4639
20
0.25596
11
1.46319
21
0.26
0
LINE
8
BLACK
6
CONTINUOUS
10
1.46319
20
0.26
11
1.4639
21
0.26404
0
LINE
8
BLACK
6
CONTINUOUS
10
1.4639
20
0.26404
11
1.46595
21
0.267592
0
LINE
8
BLACK
6
CONTINUOUS
10
1.46595
20
0.267592
11
1.46717
21
0.268614
0
LINE
8
BLACK
6
CONTINUOUS
10
1.46717
20
0.268614
11
1.46556
21
0.270766
0
LINE
8
BLACK
6
CONTINUOUS
10
1.46556
20
0.270766
11
1.46536
21
0.273554
0
LINE
8
BLACK
6
CONTINUOUS
10
1.46536
20
0.273554
11
1.4667
21
0.276008
0
LINE
8
BLACK
6
CONTINUOUS
10
1.4667
20
0.276008
11
1.46723
21
0.276471
0
LINE
8
BLACK
6
CONTINUOUS
10
1.46723
20
0.276471
11
1.46804
21
0.277076
0
LINE
8
BLACK
6
CONTINUOUS
10
1.46804
20
0.277076
11
1.47149
21
0.281685
0
LINE
8
BLACK
6
CONTINUOUS
10
1.47149
20
0.281685
11
1.47149
21
0.281685
0
LINE
8
BLACK
6
CONTINUOUS
10
1.47149
20
0.281685
11
1.4735
21
0.287079
0
LINE
8
BLACK
6
CONTINUOUS
10
1.4735
20
0.287079
11
1.4735
21
0.287079
0
LINE
8
BLACK
6
CONTINUOUS
10
1.4735
20
0.287079
11
1.47376
21
0.289463
0
LINE
8
BLACK
6
CONTINUOUS
10
1.47376
20
0.289463
11
1.47376
21
0.289463
0
LINE
8
BLACK
6
CONTINUOUS
10
1.47376
20
0.289463
11
1.47376
21
0.340537
0
LINE
8
BLACK
6
CONTINUOUS
10
1.47376
20
0.340537
11
1.47376
21
0.340537
0
LINE
8
BLACK
6
CONTINUOUS
10
1.47376
20
0.340537
11
1.4735
21
0.342921
0
LINE
8
BLACK
6
CONTINUOUS
10
1.4735
20
0.342921
11
1.4735
21
0.342921
0
LINE
8
BLACK
6
CONTINUOUS
10
1.4735
20
0.342921
11
1.47231
21
0.346121
0
LINE
8
BLACK
6
CONTINUOUS
10
1.47231
20
0.346121
11
1.47149
21
0.348315
0
LINE
8
BLACK
6
CONTINUOUS
10
1.47149
20
0.348315
11
1.47025
21
0.349972
0
LINE
8
BLACK
6
CONTINUOUS
10
1.47025
20
0.349972
11
1.46804
21
0.352924
0
LINE
8
BLACK
6
CONTINUOUS
10
1.46804
20
0.352924
11
1.46343
21
0.356374
0
LINE
8
BLACK
6
CONTINUOUS
10
1.46343
20
0.356374
11
1.46343
21
0.356374
0
LINE
8
BLACK
6
CONTINUOUS
10
1.46343
20
0.356374
11
1.46343
21
0.356374
0
LINE
8
BLACK
6
CONTINUOUS
10
1.46343
20
0.356374
11
1.46039
21
0.35751
0
LINE
8
BLACK
6
CONTINUOUS
10
1.46039
20
0.35751
11
1.45799
21
0.358403
0
LINE
8
BLACK
6
CONTINUOUS
10
1.45799
20
0.358403
11
1.45575
21
0.360078
0
LINE
8
BLACK
6
CONTINUOUS
10
1.45575
20
0.360078
11
1.45478
21
0.362697
0
LINE
8
BLACK
6
CONTINUOUS
10
1.45478
20
0.362697
11
1.45537
21
0.365429
0
LINE
8
BLACK
6
CONTINUOUS
10
1.45537
20
0.365429
11
1.45735
21
0.367405
0
LINE
8
BLACK
6
CONTINUOUS
10
1.45735
20
0.367405
11
1.45972
21
0.368012
0
LINE
8
BLACK
6
CONTINUOUS
10
1.45972
20
0.368012
11
1.58305
21
0.368012
0
LINE
8
BLACK
6
CONTINUOUS
10
1.58305
20
0.368012
11
1.58573
21
0.367224
0
LINE
8
BLACK
6
CONTINUOUS
10
1.58573
20
0.367224
11
1.58756
21
0.365112
0
LINE
8
BLACK
6
CONTINUOUS
10
1.58756
20
0.365112
11
1.58801
21
0.363051
0
LINE
8
BLACK
6
CONTINUOUS
10
1.58801
20
0.363051
11
1.58801
21
-0.00305118
0
LINE
8
BLACK
6
CONTINUOUS
10
1.58801
20
-0.00305118
11
1.58722
21
-0.00573311
0
LINE
8
BLACK
6
CONTINUOUS
10
1.58722
20
-0.00573311
11
1.58511
21
-0.00756354
0
LINE
8
BLACK
6
CONTINUOUS
10
1.58511
20
-0.00756354
11
1.58305
21
-0.00801181
0
LINE
8
BLACK
6
CONTINUOUS
10
1.58305
20
-0.00801181
11
1.23835
21
-0.00801181
0
LINE
8
BLACK
6
CONTINUOUS
10
1.23835
20
-0.00801181
11
1.23567
21
-0.00722433
0
LINE
8
BLACK
6
CONTINUOUS
10
1.23567
20
-0.00722433
11
1.23384
21
-0.00511189
0
LINE
8
BLACK
6
CONTINUOUS
10
1.23384
20
-0.00511189
11
1.23344
21
-0.0023452
0
LINE
8
BLACK
6
CONTINUOUS
10
1.23344
20
-0.0023452
11
1.2346
21
0.000197323
0
LINE
8
BLACK
6
CONTINUOUS
10
1.2346
20
0.000197323
11
1.23464
21
0.00023815
0
LINE
8
BLACK
6
CONTINUOUS
10
1.23464
20
0.00023815
11
1.23482
21
0.000446772
0
LINE
8
BLACK
6
CONTINUOUS
10
1.23482
20
0.000446772
11
1.23515
21
0.000817047
0
LINE
8
BLACK
6
CONTINUOUS
10
1.23515
20
0.000817047
11
1.23525
21
0.000924291
0
LINE
8
BLACK
6
CONTINUOUS
10
1.23525
20
0.000924291
11
1.29626
21
0.0619303
0
LINE
8
BLACK
6
CONTINUOUS
10
1.29626
20
0.0619303
11
1.29626
21
0.063622
0
LINE
8
BLACK
6
CONTINUOUS
10
1.29626
20
0.063622
11
1.29795
21
0.063622
0
LINE
8
BLACK
6
CONTINUOUS
10
1.29795
20
0.063622
11
1.31423
21
0.0799053
0
LINE
8
BLACK
6
CONTINUOUS
10
1.31423
20
0.0799053
11
1.31669
21
0.0812449
0
LINE
8
BLACK
6
CONTINUOUS
10
1.31669
20
0.0812449
11
1.31774
21
0.0813583
0
LINE
8
BLACK
6
CONTINUOUS
10
1.31774
20
0.0813583
11
1.45566
21
0.0813583
0
LINE
8
BLACK
6
CONTINUOUS
10
1.45566
20
0.0813583
11
1.45804
21
0.0816145
0
LINE
8
BLACK
6
CONTINUOUS
10
1.45804
20
0.0816145
11
1.45804
21
0.0816146
0
LINE
8
BLACK
6
CONTINUOUS
10
1.45804
20
0.0816146
11
1.46343
21
0.0836264
0
LINE
8
BLACK
6
CONTINUOUS
10
1.46343
20
0.0836264
11
1.46343
21
0.0836265
0
LINE
8
BLACK
6
CONTINUOUS
10
1.46343
20
0.0836265
11
1.46804
21
0.0870763
0
LINE
8
BLACK
6
CONTINUOUS
10
1.46804
20
0.0870763
11
1.47149
21
0.0916847
0
LINE
8
BLACK
6
CONTINUOUS
10
1.47149
20
0.0916847
11
1.47149
21
0.0916849
0
LINE
8
BLACK
6
CONTINUOUS
10
1.47149
20
0.0916849
11
1.4735
21
0.0970785
0
LINE
8
BLACK
6
CONTINUOUS
10
1.4735
20
0.0970785
11
1.4735
21
0.0970789
0
LINE
8
BLACK
6
CONTINUOUS
10
1.4735
20
0.0970789
11
1.47376
21
0.0994626
0
LINE
8
BLACK
6
CONTINUOUS
10
1.47376
20
0.0994626
11
1.47376
21
0.0994633
0
LINE
8
BLACK
6
CONTINUOUS
10
1.47376
20
0.0994633
11
1.47376
21
0.11903
0
LINE
8
BLACK
6
CONTINUOUS
10
1.47376
20
0.11903
11
1.47376
21
0.150537
0
LINE
8
BLACK
6
CONTINUOUS
10
1.47376
20
0.150537
11
1.47376
21
0.150537
0
LINE
8
BLACK
6
CONTINUOUS
10
1.47376
20
0.150537
11
1.4735
21
0.152921
0
LINE
8
BLACK
6
CONTINUOUS
10
1.4735
20
0.152921
11
1.4735
21
0.152921
0
LINE
8
BLACK
6
CONTINUOUS
10
1.4735
20
0.152921
11
1.47323
21
0.153663
0
LINE
8
BLACK
6
CONTINUOUS
10
1.47323
20
0.153663
11
1.47149
21
0.158315
0
LINE
8
BLACK
6
CONTINUOUS
10
1.47149
20
0.158315
11
1.46804
21
0.162924
0
LINE
8
BLACK
6
CONTINUOUS
10
1.46804
20
0.162924
11
1.46343
21
0.166374
0
LINE
8
BLACK
6
CONTINUOUS
10
1.46343
20
0.166374
11
1.45804
21
0.168385
0
LINE
8
BLACK
6
CONTINUOUS
10
1.45804
20
0.168385
11
1.45804
21
0.168385
0
LINE
8
BLACK
6
CONTINUOUS
10
1.45804
20
0.168385
11
1.45804
21
0.168385
0
LINE
8
BLACK
6
CONTINUOUS
10
1.45804
20
0.168385
11
1.45566
21
0.168642
0
LINE
8
BLACK
6
CONTINUOUS
10
1.45566
20
0.168642
11
1.45566
21
0.168642
0
LINE
8
BLACK
6
CONTINUOUS
10
1.45566
20
0.168642
11
1.45566
21
0.168642
0
LINE
8
BLACK
6
CONTINUOUS
10
1.45566
20
0.168642
11
1.42976
21
0.168642
0
LINE
8
BLACK
6
CONTINUOUS
10
1.42976
20
0.168642
11
1.42905
21
0.167408
0
LINE
8
BLACK
6
CONTINUOUS
10
1.42905
20
0.167408
11
1.42591
21
0.164771
0
LINE
8
BLACK
6
CONTINUOUS
10
1.42591
20
0.164771
11
1.42205
21
0.163368
0
LINE
8
BLACK
6
CONTINUOUS
10
1.42205
20
0.163368
11
1.41795
21
0.163368
0
LINE
8
BLACK
6
CONTINUOUS
10
1.41795
20
0.163368
11
1.41409
21
0.164771
0
LINE
8
BLACK
6
CONTINUOUS
10
1.41409
20
0.164771
11
1.41095
21
0.167408
0
LINE
8
BLACK
6
CONTINUOUS
10
1.41095
20
0.167408
11
1.41024
21
0.168642
0
LINE
8
BLACK
6
CONTINUOUS
10
1.41024
20
0.168642
11
1.29434
21
0.168642
0
LINE
8
BLACK
6
CONTINUOUS
10
1.29434
20
0.168642
11
1.29434
21
0.168642
0
LINE
8
BLACK
6
CONTINUOUS
10
1.29434
20
0.168642
11
1.29434
21
0.168642
0
LINE
8
BLACK
6
CONTINUOUS
10
1.29434
20
0.168642
11
1.29196
21
0.168385
0
LINE
8
BLACK
6
CONTINUOUS
10
1.29196
20
0.168385
11
1.29196
21
0.168385
0
LINE
8
BLACK
6
CONTINUOUS
10
1.29196
20
0.168385
11
1.28889
21
0.167241
0
LINE
8
BLACK
6
CONTINUOUS
10
1.28889
20
0.167241
11
1.28657
21
0.166374
0
LINE
8
BLACK
6
CONTINUOUS
10
1.28657
20
0.166374
11
1.28657
21
0.166374
0
LINE
8
BLACK
6
CONTINUOUS
10
1.28657
20
0.166374
11
1.28657
21
0.166374
0
LINE
8
BLACK
6
CONTINUOUS
10
1.28657
20
0.166374
11
1.28196
21
0.162924
0
LINE
8
BLACK
6
CONTINUOUS
10
1.28196
20
0.162924
11
1.27851
21
0.158315
0
LINE
8
BLACK
6
CONTINUOUS
10
1.27851
20
0.158315
11
1.27851
21
0.158315
0
LINE
8
BLACK
6
CONTINUOUS
10
1.27851
20
0.158315
11
1.2765
21
0.152921
0
LINE
8
BLACK
6
CONTINUOUS
10
1.2765
20
0.152921
11
1.2765
21
0.152921
0
LINE
8
BLACK
6
CONTINUOUS
10
1.2765
20
0.152921
11
1.27624
21
0.150537
0
LINE
8
BLACK
6
CONTINUOUS
10
1.27624
20
0.150537
11
1.27624
21
0.150537
0
LINE
8
BLACK
6
CONTINUOUS
10
1.27624
20
0.150537
11
1.27624
21
0.122861
0
LINE
8
BLACK
6
CONTINUOUS
10
1.27624
20
0.122861
11
1.27545
21
0.120179
0
LINE
8
BLACK
6
CONTINUOUS
10
1.27545
20
0.120179
11
1.27479
21
0.119353
0
LINE
8
BLACK
6
CONTINUOUS
10
1.27479
20
0.119353
11
1.20478
21
0.0493467
0
LINE
8
BLACK
6
CONTINUOUS
10
1.20478
20
0.0493467
11
1.20233
21
0.0480071
0
LINE
8
BLACK
6
CONTINUOUS
10
1.20233
20
0.0480071
11
1.20127
21
0.0478937
0
LINE
8
BLACK
6
CONTINUOUS
10
1.20127
20
0.0478937
11
1.14239
21
0.0478937
0
LINE
8
BLACK
6
CONTINUOUS
10
1.14239
20
0.0478937
11
1.13975
21
0.048654
0
LINE
8
BLACK
6
CONTINUOUS
10
1.13975
20
0.048654
11
1.13801
21
0.0497465
0
LINE
8
BLACK
6
CONTINUOUS
10
1.13801
20
0.0497465
11
1.13124
21
0.0521156
0
LINE
8
BLACK
6
CONTINUOUS
10
1.13124
20
0.0521156
11
1.12411
21
0.0529187
0
LINE
8
BLACK
6
CONTINUOUS
10
1.12411
20
0.0529187
11
1.11699
21
0.0521156
0
LINE
8
BLACK
6
CONTINUOUS
10
1.11699
20
0.0521156
11
1.11022
21
0.0497465
0
LINE
8
BLACK
6
CONTINUOUS
10
1.11022
20
0.0497465
11
1.10848
21
0.048654
0
LINE
8
BLACK
6
CONTINUOUS
10
1.10848
20
0.048654
11
1.10584
21
0.0478937
0
LINE
8
BLACK
6
CONTINUOUS
10
1.10584
20
0.0478937
11
0.75998
21
0.0478937
0
LINE
8
BLACK
6
CONTINUOUS
10
0.75998
20
0.0478937
11
0.757298
21
0.0486812
0
LINE
8
BLACK
6
CONTINUOUS
10
0.757298
20
0.0486812
11
0.755468
21
0.0507936
0
LINE
8
BLACK
6
CONTINUOUS
10
0.755468
20
0.0507936
11
0.75502
21
0.0528543
0
LINE
8
BLACK
6
CONTINUOUS
10
0.75502
20
0.0528543
11
0.75502
21
0.111915
0
LINE
8
BLACK
6
CONTINUOUS
10
0.75502
20
0.111915
11
0.75502
21
0.111915
0
LINE
8
BLACK
6
CONTINUOUS
10
0.75502
20
0.111915
11
0.754763
21
0.114299
0
LINE
8
BLACK
6
CONTINUOUS
10
0.754763
20
0.114299
11
0.754763
21
0.114299
0
LINE
8
BLACK
6
CONTINUOUS
10
0.754763
20
0.114299
11
0.752999
21
0.11903
0
LINE
8
BLACK
6
CONTINUOUS
10
0.752999
20
0.11903
11
0.752752
21
0.119693
0
LINE
8
BLACK
6
CONTINUOUS
10
0.752752
20
0.119693
11
0.749302
21
0.124302
0
LINE
8
BLACK
6
CONTINUOUS
10
0.749302
20
0.124302
11
0.746994
21
0.126029
0
LINE
8
BLACK
6
CONTINUOUS
10
0.746994
20
0.126029
11
0.745319
21
0.128266
0
LINE
8
BLACK
6
CONTINUOUS
10
0.745319
20
0.128266
11
0.74512
21
0.131054
0
LINE
8
BLACK
6
CONTINUOUS
10
0.74512
20
0.131054
11
0.746459
21
0.133508
0
LINE
8
BLACK
6
CONTINUOUS
10
0.746459
20
0.133508
11
0.746994
21
0.133971
0
LINE
8
BLACK
6
CONTINUOUS
10
0.746994
20
0.133971
11
0.749302
21
0.135698
0
LINE
8
BLACK
6
CONTINUOUS
10
0.749302
20
0.135698
11
0.752751
21
0.140307
0
LINE
8
BLACK
6
CONTINUOUS
10
0.752751
20
0.140307
11
0.752752
21
0.140307
0
LINE
8
BLACK
6
CONTINUOUS
10
0.752752
20
0.140307
11
0.754763
21
0.145701
0
LINE
8
BLACK
6
CONTINUOUS
10
0.754763
20
0.145701
11
0.754763
21
0.145701
0
LINE
8
BLACK
6
CONTINUOUS
10
0.754763
20
0.145701
11
0.75502
21
0.148085
0
LINE
8
BLACK
6
CONTINUOUS
10
0.75502
20
0.148085
11
0.75502
21
0.148085
0
LINE
8
BLACK
6
CONTINUOUS
10
0.75502
20
0.148085
11
0.75502
21
0.211915
0
LINE
8
BLACK
6
CONTINUOUS
10
0.75502
20
0.211915
11
0.75502
21
0.211915
0
LINE
8
BLACK
6
CONTINUOUS
10
0.75502
20
0.211915
11
0.754763
21
0.214299
0
LINE
8
BLACK
6
CONTINUOUS
10
0.754763
20
0.214299
11
0.754763
21
0.214299
0
LINE
8
BLACK
6
CONTINUOUS
10
0.754763
20
0.214299
11
0.754487
21
0.215041
0
LINE
8
BLACK
6
CONTINUOUS
10
0.754487
20
0.215041
11
0.752752
21
0.219693
0
LINE
8
BLACK
6
CONTINUOUS
10
0.752752
20
0.219693
11
0.749302
21
0.224302
0
LINE
8
BLACK
6
CONTINUOUS
10
0.749302
20
0.224302
11
0.744778
21
0.227688
0
LINE
8
BLACK
6
CONTINUOUS
10
0.744778
20
0.227688
11
0.744693
21
0.227751
0
LINE
8
BLACK
6
CONTINUOUS
10
0.744693
20
0.227751
11
0.744693
21
0.227751
0
LINE
8
BLACK
6
CONTINUOUS
10
0.744693
20
0.227751
11
0.744693
21
0.227752
0
LINE
8
BLACK
6
CONTINUOUS
10
0.744693
20
0.227752
11
0.739299
21
0.229763
0
LINE
8
BLACK
6
CONTINUOUS
10
0.739299
20
0.229763
11
0.739299
21
0.229763
0
LINE
8
BLACK
6
CONTINUOUS
10
0.739299
20
0.229763
11
0.739299
21
0.229763
0
LINE
8
BLACK
6
CONTINUOUS
10
0.739299
20
0.229763
11
0.736915
21
0.23002
0
LINE
8
BLACK
6
CONTINUOUS
10
0.736915
20
0.23002
11
0.736915
21
0.23002
0
LINE
8
BLACK
6
CONTINUOUS
10
0.736915
20
0.23002
11
0.736915
21
0.23002
0
LINE
8
BLACK
6
CONTINUOUS
10
0.736915
20
0.23002
11
0.673085
21
0.23002
0
LINE
8
BLACK
6
CONTINUOUS
10
0.673085
20
0.23002
11
0.673085
21
0.23002
0
LINE
8
BLACK
6
CONTINUOUS
10
0.673085
20
0.23002
11
0.673085
21
0.23002
0
LINE
8
BLACK
6
CONTINUOUS
10
0.673085
20
0.23002
11
0.670701
21
0.229763
0
LINE
8
BLACK
6
CONTINUOUS
10
0.670701
20
0.229763
11
0.670701
21
0.229763
0
LINE
8
BLACK
6
CONTINUOUS
10
0.670701
20
0.229763
11
0.667633
21
0.228619
0
LINE
8
BLACK
6
CONTINUOUS
10
0.667633
20
0.228619
11
0.665307
21
0.227752
0
LINE
8
BLACK
6
CONTINUOUS
10
0.665307
20
0.227752
11
0.665307
21
0.227751
0
LINE
8
BLACK
6
CONTINUOUS
10
0.665307
20
0.227751
11
0.665307
21
0.227751
0
LINE
8
BLACK
6
CONTINUOUS
10
0.665307
20
0.227751
11
0.660698
21
0.224302
0
LINE
8
BLACK
6
CONTINUOUS
10
0.660698
20
0.224302
11
0.658971
21
0.221994
0
LINE
8
BLACK
6
CONTINUOUS
10
0.658971
20
0.221994
11
0.656734
21
0.220319
0
LINE
8
BLACK
6
CONTINUOUS
10
0.656734
20
0.220319
11
0.653946
21
0.22012
0
LINE
8
BLACK
6
CONTINUOUS
10
0.653946
20
0.22012
11
0.651492
21
0.221459
0
LINE
8
BLACK
6
CONTINUOUS
10
0.651492
20
0.221459
11
0.651029
21
0.221994
0
LINE
8
BLACK
6
CONTINUOUS
10
0.651029
20
0.221994
11
0.649302
21
0.224302
0
LINE
8
BLACK
6
CONTINUOUS
10
0.649302
20
0.224302
11
0.644693
21
0.227751
0
LINE
8
BLACK
6
CONTINUOUS
10
0.644693
20
0.227751
11
0.644693
21
0.227751
0
LINE
8
BLACK
6
CONTINUOUS
10
0.644693
20
0.227751
11
0.644693
21
0.227752
0
LINE
8
BLACK
6
CONTINUOUS
10
0.644693
20
0.227752
11
0.639299
21
0.229763
0
LINE
8
BLACK
6
CONTINUOUS
10
0.639299
20
0.229763
11
0.639299
21
0.229763
0
LINE
8
BLACK
6
CONTINUOUS
10
0.639299
20
0.229763
11
0.639299
21
0.229763
0
LINE
8
BLACK
6
CONTINUOUS
10
0.639299
20
0.229763
11
0.636915
21
0.23002
0
LINE
8
BLACK
6
CONTINUOUS
10
0.636915
20
0.23002
11
0.636915
21
0.23002
0
LINE
8
BLACK
6
CONTINUOUS
10
0.636915
20
0.23002
11
0.636915
21
0.23002
0
LINE
8
BLACK
6
CONTINUOUS
10
0.636915
20
0.23002
11
0.573085
21
0.23002
0
LINE
8
BLACK
6
CONTINUOUS
10
0.573085
20
0.23002
11
0.573085
21
0.23002
0
LINE
8
BLACK
6
CONTINUOUS
10
0.573085
20
0.23002
11
0.573085
21
0.23002
0
LINE
8
BLACK
6
CONTINUOUS
10
0.573085
20
0.23002
11
0.570701
21
0.229763
0
LINE
8
BLACK
6
CONTINUOUS
10
0.570701
20
0.229763
11
0.570701
21
0.229763
0
LINE
8
BLACK
6
CONTINUOUS
10
0.570701
20
0.229763
11
0.567633
21
0.228619
0
LINE
8
BLACK
6
CONTINUOUS
10
0.567633
20
0.228619
11
0.565307
21
0.227752
0
LINE
8
BLACK
6
CONTINUOUS
10
0.565307
20
0.227752
11
0.565307
21
0.227751
0
LINE
8
BLACK
6
CONTINUOUS
10
0.565307
20
0.227751
11
0.565307
21
0.227751
0
LINE
8
BLACK
6
CONTINUOUS
10
0.565307
20
0.227751
11
0.560698
21
0.224302
0
LINE
8
BLACK
6
CONTINUOUS
10
0.560698
20
0.224302
11
0.558971
21
0.221994
0
LINE
8
BLACK
6
CONTINUOUS
10
0.558971
20
0.221994
11
0.556734
21
0.220319
0
LINE
8
BLACK
6
CONTINUOUS
10
0.556734
20
0.220319
11
0.553946
21
0.22012
0
LINE
8
BLACK
6
CONTINUOUS
10
0.553946
20
0.22012
11
0.551492
21
0.221459
0
LINE
8
BLACK
6
CONTINUOUS
10
0.551492
20
0.221459
11
0.551029
21
0.221994
0
LINE
8
BLACK
6
CONTINUOUS
10
0.551029
20
0.221994
11
0.549302
21
0.224302
0
LINE
8
BLACK
6
CONTINUOUS
10
0.549302
20
0.224302
11
0.544693
21
0.227751
0
LINE
8
BLACK
6
CONTINUOUS
10
0.544693
20
0.227751
11
0.544693
21
0.227751
0
LINE
8
BLACK
6
CONTINUOUS
10
0.544693
20
0.227751
11
0.544693
21
0.227752
0
LINE
8
BLACK
6
CONTINUOUS
10
0.544693
20
0.227752
11
0.539299
21
0.229763
0
LINE
8
BLACK
6
CONTINUOUS
10
0.539299
20
0.229763
11
0.539299
21
0.229763
0
LINE
8
BLACK
6
CONTINUOUS
10
0.539299
20
0.229763
11
0.539299
21
0.229763
0
LINE
8
BLACK
6
CONTINUOUS
10
0.539299
20
0.229763
11
0.536915
21
0.23002
0
LINE
8
BLACK
6
CONTINUOUS
10
0.536915
20
0.23002
11
0.536915
21
0.23002
0
LINE
8
BLACK
6
CONTINUOUS
10
0.536915
20
0.23002
11
0.536915
21
0.23002
0
LINE
8
BLACK
6
CONTINUOUS
10
0.536915
20
0.23002
11
0.473085
21
0.23002
0
LINE
8
BLACK
6
CONTINUOUS
10
0.473085
20
0.23002
11
0.473085
21
0.23002
0
LINE
8
BLACK
6
CONTINUOUS
10
0.473085
20
0.23002
11
0.473085
21
0.23002
0
LINE
8
BLACK
6
CONTINUOUS
10
0.473085
20
0.23002
11
0.470701
21
0.229763
0
LINE
8
BLACK
6
CONTINUOUS
10
0.470701
20
0.229763
11
0.470701
21
0.229763
0
LINE
8
BLACK
6
CONTINUOUS
10
0.470701
20
0.229763
11
0.467633
21
0.228619
0
LINE
8
BLACK
6
CONTINUOUS
10
0.467633
20
0.228619
11
0.465307
21
0.227752
0
LINE
8
BLACK
6
CONTINUOUS
10
0.465307
20
0.227752
11
0.465307
21
0.227751
0
LINE
8
BLACK
6
CONTINUOUS
10
0.465307
20
0.227751
11
0.465307
21
0.227751
0
LINE
8
BLACK
6
CONTINUOUS
10
0.465307
20
0.227751
11
0.460698
21
0.224302
0
LINE
8
BLACK
6
CONTINUOUS
10
0.460698
20
0.224302
11
0.457249
21
0.219693
0
LINE
8
BLACK
6
CONTINUOUS
10
0.457249
20
0.219693
11
0.457248
21
0.219693
0
LINE
8
BLACK
6
CONTINUOUS
10
0.457248
20
0.219693
11
0.455237
21
0.214299
0
LINE
8
BLACK
6
CONTINUOUS
10
0.455237
20
0.214299
11
0.455237
21
0.214299
0
LINE
8
BLACK
6
CONTINUOUS
10
0.455237
20
0.214299
11
0.45498
21
0.211915
0
LINE
8
BLACK
6
CONTINUOUS
10
0.45498
20
0.211915
11
0.45498
21
0.148085
0
LINE
8
BLACK
6
CONTINUOUS
10
0.45498
20
0.148085
11
0.455237
21
0.145701
0
LINE
8
BLACK
6
CONTINUOUS
10
0.455237
20
0.145701
11
0.455237
21
0.145701
0
LINE
8
BLACK
6
CONTINUOUS
10
0.455237
20
0.145701
11
0.457248
21
0.140307
0
LINE
8
BLACK
6
CONTINUOUS
10
0.457248
20
0.140307
11
0.457249
21
0.140307
0
LINE
8
BLACK
6
CONTINUOUS
10
0.457249
20
0.140307
11
0.460698
21
0.135698
0
LINE
8
BLACK
6
CONTINUOUS
10
0.460698
20
0.135698
11
0.463006
21
0.133971
0
LINE
8
BLACK
6
CONTINUOUS
10
0.463006
20
0.133971
11
0.464681
21
0.131734
0
LINE
8
BLACK
6
CONTINUOUS
10
0.464681
20
0.131734
11
0.46488
21
0.128946
0
LINE
8
BLACK
6
CONTINUOUS
10
0.46488
20
0.128946
11
0.46354
21
0.126492
0
LINE
8
BLACK
6
CONTINUOUS
10
0.46354
20
0.126492
11
0.463006
21
0.126029
0
LINE
8
BLACK
6
CONTINUOUS
10
0.463006
20
0.126029
11
0.460698
21
0.124302
0
LINE
8
BLACK
6
CONTINUOUS
10
0.460698
20
0.124302
11
0.457249
21
0.119693
0
LINE
8
BLACK
6
CONTINUOUS
10
0.457249
20
0.119693
11
0.457248
21
0.119693
0
LINE
8
BLACK
6
CONTINUOUS
10
0.457248
20
0.119693
11
0.455237
21
0.114299
0
LINE
8
BLACK
6
CONTINUOUS
10
0.455237
20
0.114299
11
0.455237
21
0.114299
0
LINE
8
BLACK
6
CONTINUOUS
10
0.455237
20
0.114299
11
0.45498
21
0.111915
0
LINE
8
BLACK
6
CONTINUOUS
10
0.45498
20
0.111915
11
0.45498
21
0.0480846
0
LINE
8
BLACK
6
CONTINUOUS
10
0.45498
20
0.0480846
11
0.455237
21
0.0457009
0
LINE
8
BLACK
6
CONTINUOUS
10
0.455237
20
0.0457009
11
0.455237
21
0.0457006
0
LINE
8
BLACK
6
CONTINUOUS
10
0.455237
20
0.0457006
11
0.457248
21
0.040307
0
LINE
8
BLACK
6
CONTINUOUS
10
0.457248
20
0.040307
11
0.457249
21
0.0403068
0
LINE
8
BLACK
6
CONTINUOUS
10
0.457249
20
0.0403068
11
0.460698
21
0.0356983
0
LINE
8
BLACK
6
CONTINUOUS
10
0.460698
20
0.0356983
11
0.465307
21
0.0322485
0
LINE
8
BLACK
6
CONTINUOUS
10
0.465307
20
0.0322485
11
0.465307
21
0.0322484
0
LINE
8
BLACK
6
CONTINUOUS
10
0.465307
20
0.0322484
11
0.470701
21
0.0302367
0
LINE
8
BLACK
6
CONTINUOUS
10
0.470701
20
0.0302367
11
0.470701
21
0.0302366
0
LINE
8
BLACK
6
CONTINUOUS
10
0.470701
20
0.0302366
11
0.473085
21
0.0299803
0
LINE
8
BLACK
6
CONTINUOUS
10
0.473085
20
0.0299803
11
0.473085
21
0.0299803
0
LINE
8
BLACK
6
CONTINUOUS
10
0.473085
20
0.0299803
11
0.536915
21
0.0299803
0
LINE
8
BLACK
6
CONTINUOUS
10
0.536915
20
0.0299803
11
0.539299
21
0.0302366
0
LINE
8
BLACK
6
CONTINUOUS
10
0.539299
20
0.0302366
11
0.539299
21
0.0302367
0
LINE
8
BLACK
6
CONTINUOUS
10
0.539299
20
0.0302367
11
0.544693
21
0.0322484
0
LINE
8
BLACK
6
CONTINUOUS
10
0.544693
20
0.0322484
11
0.544693
21
0.0322485
0
LINE
8
BLACK
6
CONTINUOUS
10
0.544693
20
0.0322485
11
0.549302
21
0.0356984
0
LINE
8
BLACK
6
CONTINUOUS
10
0.549302
20
0.0356984
11
0.551029
21
0.0380056
0
LINE
8
BLACK
6
CONTINUOUS
10
0.551029
20
0.0380056
11
0.553266
21
0.0396807
0
LINE
8
BLACK
6
CONTINUOUS
10
0.553266
20
0.0396807
11
0.556054
21
0.03988
0
LINE
8
BLACK
6
CONTINUOUS
10
0.556054
20
0.03988
11
0.558508
21
0.0385405
0
LINE
8
BLACK
6
CONTINUOUS
10
0.558508
20
0.0385405
11
0.558971
21
0.0380056
0
LINE
8
BLACK
6
CONTINUOUS
10
0.558971
20
0.0380056
11
0.560698
21
0.0356984
0
LINE
8
BLACK
6
CONTINUOUS
10
0.560698
20
0.0356984
11
0.565307
21
0.0322485
0
LINE
8
BLACK
6
CONTINUOUS
10
0.565307
20
0.0322485
11
0.565307
21
0.0322484
0
LINE
8
BLACK
6
CONTINUOUS
10
0.565307
20
0.0322484
11
0.570701
21
0.0302367
0
LINE
8
BLACK
6
CONTINUOUS
10
0.570701
20
0.0302367
11
0.570701
21
0.0302366
0
LINE
8
BLACK
6
CONTINUOUS
10
0.570701
20
0.0302366
11
0.573085
21
0.0299803
0
LINE
8
BLACK
6
CONTINUOUS
10
0.573085
20
0.0299803
11
0.573085
21
0.0299803
0
LINE
8
BLACK
6
CONTINUOUS
10
0.573085
20
0.0299803
11
0.57329
21
0.0299803
0
LINE
8
BLACK
6
CONTINUOUS
10
0.57329
20
0.0299803
11
0.575972
21
0.0291928
0
LINE
8
BLACK
6
CONTINUOUS
10
0.575972
20
0.0291928
11
0.577803
21
0.0270804
0
LINE
8
BLACK
6
CONTINUOUS
10
0.577803
20
0.0270804
11
0.57817
21
0.0259141
0
LINE
8
BLACK
6
CONTINUOUS
10
0.57817
20
0.0259141
11
0.578174
21
0.0258926
0
LINE
8
BLACK
6
CONTINUOUS
10
0.578174
20
0.0258926
11
0.578174
21
0.0258923
0
LINE
8
BLACK
6
CONTINUOUS
10
0.578174
20
0.0258923
11
0.579187
21
0.0236408
0
LINE
8
BLACK
6
CONTINUOUS
10
0.579187
20
0.0236408
11
0.579244
21
0.0235024
0
LINE
8
BLACK
6
CONTINUOUS
10
0.579244
20
0.0235024
11
0.58012
21
0.0211939
0
LINE
8
BLACK
6
CONTINUOUS
10
0.58012
20
0.0211939
11
0.580348
21
0.020863
0
LINE
8
BLACK
6
CONTINUOUS
10
0.580348
20
0.020863
11
0.580789
21
0.0200819
0
LINE
8
BLACK
6
CONTINUOUS
10
0.580789
20
0.0200819
11
0.580954
21
0.0197157
0
LINE
8
BLACK
6
CONTINUOUS
10
0.580954
20
0.0197157
11
0.580954
21
0.0197153
0
LINE
8
BLACK
6
CONTINUOUS
10
0.580954
20
0.0197153
11
0.582477
21
0.0177717
0
LINE
8
BLACK
6
CONTINUOUS
10
0.582477
20
0.0177717
11
0.582565
21
0.0176511
0
LINE
8
BLACK
6
CONTINUOUS
10
0.582565
20
0.0176511
11
0.583968
21
0.0156191
0
LINE
8
BLACK
6
CONTINUOUS
10
0.583968
20
0.0156191
11
0.585817
21
0.0139813
0
LINE
8
BLACK
6
CONTINUOUS
10
0.585817
20
0.0139813
11
0.585926
21
0.0138787
0
LINE
8
BLACK
6
CONTINUOUS
10
0.585926
20
0.0138787
11
0.598879
21
0.000924961
0
LINE
8
BLACK
6
CONTINUOUS
10
0.598879
20
0.000924961
11
0.598981
21
0.000816575
0
LINE
8
BLACK
6
CONTINUOUS
10
0.598981
20
0.000816575
11
0.598981
21
0.000816457
0
LINE
8
BLACK
6
CONTINUOUS
10
0.598981
20
0.000816457
11
0.599494
21
0.000238307
0
LINE
8
BLACK
6
CONTINUOUS
10
0.599494
20
0.000238307
11
0.600683
21
-0.00229114
0
LINE
8
BLACK
6
CONTINUOUS
10
0.600683
20
-0.00229114
11
0.600315
21
-0.00506205
0
LINE
8
BLACK
6
CONTINUOUS
10
0.600315
20
-0.00506205
11
0.598508
21
-0.00719453
0
LINE
8
BLACK
6
CONTINUOUS
10
0.598508
20
-0.00719453
11
0.595835
21
-0.0080115
0
LINE
8
BLACK
6
CONTINUOUS
10
0.595835
20
-0.0080115
11
0.595781
21
-0.00801181
0
LINE
8
BLACK
6
CONTINUOUS
10
0.595781
20
-0.00801181
11
0.0169488
21
-0.00801181
0
LINE
8
BLACK
6
CONTINUOUS
10
0.0169488
20
-0.00801181
11
0.0142669
21
-0.00722433
0
LINE
8
BLACK
6
CONTINUOUS
10
0.0142669
20
-0.00722433
11
0.0124365
21
-0.00511189
0
LINE
8
BLACK
6
CONTINUOUS
10
0.0124365
20
-0.00511189
11
0.0119882
21
-0.00305118
0
LINE
8
BLACK
6
CONTINUOUS
10
0.0119882
20
-0.00305118
11
0.0119882
21
0.363051
0
LINE
8
BLACK
6
CONTINUOUS
10
0.0119882
20
0.363051
11
0.0127757
21
0.365733
0
LINE
8
BLACK
6
CONTINUOUS
10
0.0127757
20
0.365733
11
0.0148881
21
0.367564
0
LINE
8
BLACK
6
CONTINUOUS
10
0.0148881
20
0.367564
11
0.0169488
21
0.368012
0
LINE
8
BLACK
6
CONTINUOUS
10
0.0169488
20
0.368012
11
0.508448
21
0.368012
0
LINE
8
BLACK
6
CONTINUOUS
10
0.508448
20
0.368012
11
0.51113
21
0.367224
0
LINE
8
BLACK
6
CONTINUOUS
10
1.48555
20
0.116646
11
1.48555
21
0.116645
0
LINE
8
BLACK
6
CONTINUOUS
10
1.48555
20
0.116645
11
1.48756
21
0.111252
0
LINE
8
BLACK
6
CONTINUOUS
10
1.48756
20
0.111252
11
1.48756
21
0.111252
0
LINE
8
BLACK
6
CONTINUOUS
10
1.48756
20
0.111252
11
1.49101
21
0.106643
0
LINE
8
BLACK
6
CONTINUOUS
10
1.49101
20
0.106643
11
1.49562
21
0.103193
0
LINE
8
BLACK
6
CONTINUOUS
10
1.49562
20
0.103193
11
1.49562
21
0.103193
0
LINE
8
BLACK
6
CONTINUOUS
10
1.49562
20
0.103193
11
1.50102
21
0.101182
0
LINE
8
BLACK
6
CONTINUOUS
10
1.50102
20
0.101182
11
1.50102
21
0.101181
0
LINE
8
BLACK
6
CONTINUOUS
10
1.50102
20
0.101181
11
1.5034
21
0.100925
0
LINE
8
BLACK
6
CONTINUOUS
10
1.5034
20
0.100925
11
1.5034
21
0.100925
0
LINE
8
BLACK
6
CONTINUOUS
10
1.5034
20
0.100925
11
1.5466
21
0.100925
0
LINE
8
BLACK
6
CONTINUOUS
10
1.5466
20
0.100925
11
1.54898
21
0.101181
0
LINE
8
BLACK
6
CONTINUOUS
10
1.54898
20
0.101181
11
1.54898
21
0.101182
0
LINE
8
BLACK
6
CONTINUOUS
10
1.54898
20
0.101182
11
1.55438
21
0.103193
0
LINE
8
BLACK
6
CONTINUOUS
10
1.55438
20
0.103193
11
1.55438
21
0.103193
0
LINE
8
BLACK
6
CONTINUOUS
10
1.55438
20
0.103193
11
1.55899
21
0.106643
0
LINE
8
BLACK
6
CONTINUOUS
10
1.55899
20
0.106643
11
1.56244
21
0.111252
0
LINE
8
BLACK
6
CONTINUOUS
10
1.56244
20
0.111252
11
1.56244
21
0.111252
0
LINE
8
BLACK
6
CONTINUOUS
10
1.56244
20
0.111252
11
1.56268
21
0.111915
0
LINE
8
BLACK
6
CONTINUOUS
10
1.56268
20
0.111915
11
1.56445
21
0.116646
0
LINE
8
BLACK
6
CONTINUOUS
10
1.56445
20
0.116646
11
1.56445
21
0.116646
0
LINE
8
BLACK
6
CONTINUOUS
10
1.56445
20
0.116646
11
1.5647
21
0.11903
0
LINE
8
BLACK
6
CONTINUOUS
10
1.5647
20
0.11903
11
1.5647
21
0.11903
0
LINE
8
BLACK
6
CONTINUOUS
10
1.5647
20
0.11903
11
1.5647
21
0.16223
0
LINE
8
BLACK
6
CONTINUOUS
10
1.5647
20
0.16223
11
1.5647
21
0.16223
0
LINE
8
BLACK
6
CONTINUOUS
10
1.5647
20
0.16223
11
1.56445
21
0.164614
0
LINE
8
BLACK
6
CONTINUOUS
10
1.56445
20
0.164614
11
1.56445
21
0.164614
0
LINE
8
BLACK
6
CONTINUOUS
10
1.56445
20
0.164614
11
1.56379
21
0.166374
0
LINE
8
BLACK
6
CONTINUOUS
10
1.56379
20
0.166374
11
1.56244
21
0.170008
0
LINE
8
BLACK
6
CONTINUOUS
10
1.56244
20
0.170008
11
1.55899
21
0.174617
0
LINE
8
BLACK
6
CONTINUOUS
10
1.55899
20
0.174617
11
1.5571
21
0.176029
0
LINE
8
BLACK
6
CONTINUOUS
10
1.5571
20
0.176029
11
1.55543
21
0.178266
0
LINE
8
BLACK
6
CONTINUOUS
10
1.55543
20
0.178266
11
1.55523
21
0.181054
0
LINE
8
BLACK
6
CONTINUOUS
10
1.55523
20
0.181054
11
1.55657
21
0.183508
0
LINE
8
BLACK
6
CONTINUOUS
10
1.55657
20
0.183508
11
1.5571
21
0.183971
0
LINE
8
BLACK
6
CONTINUOUS
10
1.5571
20
0.183971
11
1.55899
21
0.185383
0
LINE
8
BLACK
6
CONTINUOUS
10
1.55899
20
0.185383
11
1.56244
21
0.189992
0
LINE
8
BLACK
6
CONTINUOUS
10
1.56244
20
0.189992
11
1.56244
21
0.189992
0
LINE
8
BLACK
6
CONTINUOUS
10
1.56244
20
0.189992
11
1.56445
21
0.195386
0
LINE
8
BLACK
6
CONTINUOUS
10
1.56445
20
0.195386
11
1.56445
21
0.195386
0
LINE
8
BLACK
6
CONTINUOUS
10
1.56445
20
0.195386
11
1.5647
21
0.19777
0
LINE
8
BLACK
6
CONTINUOUS
10
1.5647
20
0.19777
11
1.5647
21
0.19777
0
LINE
8
BLACK
6
CONTINUOUS
10
1.5647
20
0.19777
11
1.5647
21
0.24097
0
LINE
8
BLACK
6
CONTINUOUS
10
1.5647
20
0.24097
11
1.5647
21
0.24097
0
LINE
8
BLACK
6
CONTINUOUS
10
1.5647
20
0.24097
11
1.56445
21
0.243354
0
LINE
8
BLACK
6
CONTINUOUS
10
1.56445
20
0.243354
11
1.56445
21
0.243354
0
LINE
8
BLACK
6
CONTINUOUS
10
1.56445
20
0.243354
11
1.56417
21
0.244096
0
LINE
8
BLACK
6
CONTINUOUS
10
1.56417
20
0.244096
11
1.56244
21
0.248748
0
LINE
8
BLACK
6
CONTINUOUS
10
1.56244
20
0.248748
11
1.56073
21
0.251032
0
LINE
8
BLACK
6
CONTINUOUS
10
1.56073
20
0.251032
11
1.55899
21
0.253357
0
LINE
8
BLACK
6
CONTINUOUS
10
1.55899
20
0.253357
11
1.55438
21
0.256807
0
LINE
8
BLACK
6
CONTINUOUS
10
1.55438
20
0.256807
11
1.55438
21
0.256807
0
LINE
8
BLACK
6
CONTINUOUS
10
1.55438
20
0.256807
11
1.55438
21
0.256807
0
LINE
8
BLACK
6
CONTINUOUS
10
1.55438
20
0.256807
11
1.54898
21
0.258818
0
LINE
8
BLACK
6
CONTINUOUS
10
1.54898
20
0.258818
11
1.54898
21
0.258818
0
LINE
8
BLACK
6
CONTINUOUS
10
1.54898
20
0.258818
11
1.54898
21
0.258819
0
LINE
8
BLACK
6
CONTINUOUS
10
1.54898
20
0.258819
11
1.5466
21
0.259075
0
LINE
8
BLACK
6
CONTINUOUS
10
1.5466
20
0.259075
11
1.5466
21
0.259075
0
LINE
8
BLACK
6
CONTINUOUS
10
1.5466
20
0.259075
11
1.5466
21
0.259075
0
LINE
8
BLACK
6
CONTINUOUS
10
1.5466
20
0.259075
11
1.5034
21
0.259075
0
LINE
8
BLACK
6
CONTINUOUS
10
1.5034
20
0.259075
11
1.5034
21
0.259075
0
LINE
8
BLACK
6
CONTINUOUS
10
1.5034
20
0.259075
11
1.5034
21
0.259075
0
LINE
8
BLACK
6
CONTINUOUS
10
1.5034
20
0.259075
11
1.50102
21
0.258819
0
LINE
8
BLACK
6
CONTINUOUS
10
1.50102
20
0.258819
11
1.50102
21
0.258818
0
LINE
8
BLACK
6
CONTINUOUS
10
1.50102
20
0.258818
11
1.49854
21
0.257894
0
LINE
8
BLACK
6
CONTINUOUS
10
1.49854
20
0.257894
11
1.49562
21
0.256807
0
LINE
8
BLACK
6
CONTINUOUS
10
1.49562
20
0.256807
11
1.49562
21
0.256807
0
LINE
8
BLACK
6
CONTINUOUS
10
1.49562
20
0.256807
11
1.49562
21
0.256807
0
LINE
8
BLACK
6
CONTINUOUS
10
1.49562
20
0.256807
11
1.49101
21
0.253357
0
LINE
8
BLACK
6
CONTINUOUS
10
1.49101
20
0.253357
11
1.48756
21
0.248748
0
LINE
8
BLACK
6
CONTINUOUS
10
1.48756
20
0.248748
11
1.48756
21
0.248748
0
LINE
8
BLACK
6
CONTINUOUS
10
1.48756
20
0.248748
11
1.48555
21
0.243354
0
LINE
8
BLACK
6
CONTINUOUS
10
1.48555
20
0.243354
11
1.48555
21
0.243354
0
LINE
8
BLACK
6
CONTINUOUS
10
1.48555
20
0.243354
11
1.4853
21
0.24097
0
LINE
8
BLACK
6
CONTINUOUS
10
1.4853
20
0.24097
11
1.4853
21
0.19777
0
LINE
8
BLACK
6
CONTINUOUS
10
1.4853
20
0.19777
11
1.48555
21
0.195386
0
LINE
8
BLACK
6
CONTINUOUS
10
1.48555
20
0.195386
11
1.48555
21
0.195386
0
LINE
8
BLACK
6
CONTINUOUS
10
1.48555
20
0.195386
11
1.48756
21
0.189992
0
LINE
8
BLACK
6
CONTINUOUS
10
1.48756
20
0.189992
11
1.48756
21
0.189992
0
LINE
8
BLACK
6
CONTINUOUS
10
1.48756
20
0.189992
11
1.49101
21
0.185383
0
LINE
8
BLACK
6
CONTINUOUS
10
1.49101
20
0.185383
11
1.4929
21
0.183971
0
LINE
8
BLACK
6
CONTINUOUS
10
1.4929
20
0.183971
11
1.49457
21
0.181734
0
LINE
8
BLACK
6
CONTINUOUS
10
1.49457
20
0.181734
11
1.49477
21
0.178946
0
LINE
8
BLACK
6
CONTINUOUS
10
1.49477
20
0.178946
11
1.49343
21
0.176492
0
LINE
8
BLACK
6
CONTINUOUS
10
1.49343
20
0.176492
11
1.4929
21
0.176029
0
LINE
8
BLACK
6
CONTINUOUS
10
1.4929
20
0.176029
11
1.49101
21
0.174617
0
LINE
8
BLACK
6
CONTINUOUS
10
1.49101
20
0.174617
11
1.49101
21
0.174616
0
LINE
8
BLACK
6
CONTINUOUS
10
1.49101
20
0.174616
11
1.49101
21
0.174616
0
LINE
8
BLACK
6
CONTINUOUS
10
1.49101
20
0.174616
11
1.48756
21
0.170008
0
LINE
8
BLACK
6
CONTINUOUS
10
1.48756
20
0.170008
11
1.48756
21
0.170008
0
LINE
8
BLACK
6
CONTINUOUS
10
1.48756
20
0.170008
11
1.48555
21
0.164614
0
LINE
8
BLACK
6
CONTINUOUS
10
1.48555
20
0.164614
11
1.48555
21
0.164614
0
LINE
8
BLACK
6
CONTINUOUS
10
1.48555
20
0.164614
11
1.4853
21
0.16223
0
LINE
8
BLACK
6
CONTINUOUS
10
1.4853
20
0.16223
11
1.4853
21
0.11903
0
LINE
8
BLACK
6
CONTINUOUS
10
1.4853
20
0.11903
11
1.48555
21
0.116646
0
LINE
8
BLACK
6
CONTINUOUS
10
1.45374
20
0.101378
11
1.3074
21
0.101378
0
LINE
8
BLACK
6
CONTINUOUS
10
1.3074
20
0.101378
11
1.22045
21
0.0144322
0
LINE
8
BLACK
6
CONTINUOUS
10
1.22045
20
0.0144322
11
1.21933
21
0.0137294
0
LINE
8
BLACK
6
CONTINUOUS
10
1.21933
20
0.0137294
11
1.2183
21
0.0129057
0
LINE
8
BLACK
6
CONTINUOUS
10
1.2183
20
0.0129057
11
1.21786
21
0.0128061
0
LINE
8
BLACK
6
CONTINUOUS
10
1.21786
20
0.0128061
11
1.21748
21
0.0125678
0
LINE
8
BLACK
6
CONTINUOUS
10
1.21748
20
0.0125678
11
1.21617
21
0.0124199
0
LINE
8
BLACK
6
CONTINUOUS
10
1.21617
20
0.0124199
11
1.21488
21
0.012126
0
LINE
8
BLACK
6
CONTINUOUS
10
1.21488
20
0.012126
11
1.14399
21
0.012126
0
LINE
8
BLACK
6
CONTINUOUS
10
1.14399
20
0.012126
11
1.13177
21
0.012126
0
LINE
8
BLACK
6
CONTINUOUS
10
1.13177
20
0.012126
11
1.13002
21
0.0106579
0
LINE
8
BLACK
6
CONTINUOUS
10
1.13002
20
0.0106579
11
1.12616
21
0.00925496
0
LINE
8
BLACK
6
CONTINUOUS
10
1.12616
20
0.00925496
11
1.12206
21
0.00925496
0
LINE
8
BLACK
6
CONTINUOUS
10
1.12206
20
0.00925496
11
1.11821
21
0.0106579
0
LINE
8
BLACK
6
CONTINUOUS
10
1.11821
20
0.0106579
11
1.11646
21
0.012126
0
LINE
8
BLACK
6
CONTINUOUS
10
1.11646
20
0.012126
11
0.619252
21
0.012126
0
LINE
8
BLACK
6
CONTINUOUS
10
0.619252
20
0.012126
11
0.617964
21
0.0124199
0
LINE
8
BLACK
6
CONTINUOUS
10
0.617964
20
0.0124199
11
0.616651
21
0.0125678
0
LINE
8
BLACK
6
CONTINUOUS
10
0.616651
20
0.0125678
11
0.616272
21
0.0128061
0
LINE
8
BLACK
6
CONTINUOUS
10
0.616272
20
0.0128061
11
0.615836
21
0.0129057
0
LINE
8
BLACK
6
CONTINUOUS
10
0.615836
20
0.0129057
11
0.614803
21
0.0137294
0
LINE
8
BLACK
6
CONTINUOUS
10
0.614803
20
0.0137294
11
0.613684
21
0.0144322
0
LINE
8
BLACK
6
CONTINUOUS
10
0.613684
20
0.0144322
11
0.599432
21
0.0286842
0
LINE
8
BLACK
6
CONTINUOUS
10
0.599432
20
0.0286842
11
0.598729
21
0.0298026
0
LINE
8
BLACK
6
CONTINUOUS
10
0.598729
20
0.0298026
11
0.597906
21
0.0308356
0
LINE
8
BLACK
6
CONTINUOUS
10
0.597906
20
0.0308356
11
0.597806
21
0.0312721
0
LINE
8
BLACK
6
CONTINUOUS
10
0.597806
20
0.0312721
11
0.597568
21
0.0316513
0
LINE
8
BLACK
6
CONTINUOUS
10
0.597568
20
0.0316513
11
0.59742
21
0.032964
0
LINE
8
BLACK
6
CONTINUOUS
10
0.59742
20
0.032964
11
0.597126
21
0.034252
0
LINE
8
BLACK
6
CONTINUOUS
10
0.597126
20
0.034252
11
0.597126
21
0.05
0
LINE
8
BLACK
6
CONTINUOUS
10
0.597126
20
0.05
11
0.575
21
0.05
0
LINE
8
BLACK
6
CONTINUOUS
10
0.575
20
0.05
11
0.575
21
0.11
0
LINE
8
BLACK
6
CONTINUOUS
10
0.575
20
0.11
11
0.635
21
0.11
0
LINE
8
BLACK
6
CONTINUOUS
10
0.635
20
0.11
11
0.635
21
0.05
0
LINE
8
BLACK
6
CONTINUOUS
10
0.635
20
0.05
11
0.612874
21
0.05
0
LINE
8
BLACK
6
CONTINUOUS
10
0.612874
20
0.05
11
0.612874
21
0.0375135
0
LINE
8
BLACK
6
CONTINUOUS
10
0.612874
20
0.0375135
11
0.622514
21
0.027874
0
LINE
8
BLACK
6
CONTINUOUS
10
0.622514
20
0.027874
11
1.11472
21
0.027874
0
LINE
8
BLACK
6
CONTINUOUS
10
1.11472
20
0.027874
11
1.11507
21
0.0284785
0
LINE
8
BLACK
6
CONTINUOUS
10
1.11507
20
0.0284785
11
1.11821
21
0.0311152
0
LINE
8
BLACK
6
CONTINUOUS
10
1.11821
20
0.0311152
11
1.12206
21
0.0325181
0
LINE
8
BLACK
6
CONTINUOUS
10
1.12206
20
0.0325181
11
1.12616
21
0.0325181
0
LINE
8
BLACK
6
CONTINUOUS
10
1.12616
20
0.0325181
11
1.13002
21
0.0311152
0
LINE
8
BLACK
6
CONTINUOUS
10
1.13002
20
0.0311152
11
1.13316
21
0.0284785
0
LINE
8
BLACK
6
CONTINUOUS
10
1.13316
20
0.0284785
11
1.13351
21
0.027874
0
LINE
8
BLACK
6
CONTINUOUS
10
1.13351
20
0.027874
11
1.14399
21
0.027874
0
LINE
8
BLACK
6
CONTINUOUS
10
1.14399
20
0.027874
11
1.21162
21
0.027874
0
LINE
8
BLACK
6
CONTINUOUS
10
1.21162
20
0.027874
11
1.29626
21
0.112513
0
LINE
8
BLACK
6
CONTINUOUS
10
1.29626
20
0.112513
11
1.29626
21
0.148622
0
LINE
8
BLACK
6
CONTINUOUS
10
1.29626
20
0.148622
11
1.45374
21
0.148622
0
LINE
8
BLACK
6
CONTINUOUS
10
1.45374
20
0.148622
11
1.45374
21
0.101378
0
LINE
8
BLACK
6
CONTINUOUS
10
0.535
20
0.05
11
0.475
21
0.05
0
LINE
8
BLACK
6
CONTINUOUS
10
0.475
20
0.05
11
0.475
21
0.11
0
LINE
8
BLACK
6
CONTINUOUS
10
0.475
20
0.11
11
0.535
21
0.11
0
LINE
8
BLACK
6
CONTINUOUS
10
0.535
20
0.11
11
0.535
21
0.05
0
LINE
8
BLACK
6
CONTINUOUS
10
0.735
20
0.05
11
0.675
21
0.05
0
LINE
8
BLACK
6
CONTINUOUS
10
0.675
20
0.05
11
0.675
21
0.11
0
LINE
8
BLACK
6
CONTINUOUS
10
0.675
20
0.11
11
0.735
21
0.11
0
LINE
8
BLACK
6
CONTINUOUS
10
0.735
20
0.11
11
0.735
21
0.05
0
LINE
8
BLACK
6
CONTINUOUS
10
0.535
20
0.15
11
0.475
21
0.15
0
LINE
8
BLACK
6
CONTINUOUS
10
0.475
20
0.15
11
0.475
21
0.21
0
LINE
8
BLACK
6
CONTINUOUS
10
0.475
20
0.21
11
0.535
21
0.21
0
LINE
8
BLACK
6
CONTINUOUS
10
0.535
20
0.21
11
0.535
21
0.15
0
LINE
8
BLACK
6
CONTINUOUS
10
0.635
20
0.15
11
0.575
21
0.15
0
LINE
8
BLACK
6
CONTINUOUS
10
0.575
20
0.15
11
0.575
21
0.21
0
LINE
8
BLACK
6
CONTINUOUS
10
0.575
20
0.21
11
0.635
21
0.21
0
LINE
8
BLACK
6
CONTINUOUS
10
0.635
20
0.21
11
0.635
21
0.15
0
LINE
8
BLACK
6
CONTINUOUS
10
0.735
20
0.15
11
0.675
21
0.15
0
LINE
8
BLACK
6
CONTINUOUS
10
0.675
20
0.15
11
0.675
21
0.21
0
LINE
8
BLACK
6
CONTINUOUS
10
0.675
20
0.21
11
0.735
21
0.21
0
LINE
8
BLACK
6
CONTINUOUS
10
0.735
20
0.21
11
0.735
21
0.15
0
LINE
8
BLACK
6
CONTINUOUS
10
1.24469
20
0.165315
11
1.20531
21
0.165315
0
LINE
8
BLACK
6
CONTINUOUS
10
1.20531
20
0.165315
11
1.20531
21
0.204685
0
LINE
8
BLACK
6
CONTINUOUS
10
1.20531
20
0.204685
11
1.24469
21
0.204685
0
LINE
8
BLACK
6
CONTINUOUS
10
1.24469
20
0.204685
11
1.24469
21
0.165315
0
LINE
8
BLACK
6
CONTINUOUS
10
1.45374
20
0.206378
11
1.29626
21
0.206378
0
LINE
8
BLACK
6
CONTINUOUS
10
1.29626
20
0.206378
11
1.29626
21
0.222126
0
LINE
8
BLACK
6
CONTINUOUS
10
1.29626
20
0.222126
11
1.20554
21
0.222126
0
LINE
8
BLACK
6
CONTINUOUS
10
1.20554
20
0.222126
11
1.19171
21
0.208291
0
LINE
8
BLACK
6
CONTINUOUS
10
1.19171
20
0.208291
11
1.19181
21
0.207717
0
LINE
8
BLACK
6
CONTINUOUS
10
1.19181
20
0.207717
11
1.1911
21
0.203677
0
LINE
8
BLACK
6
CONTINUOUS
10
1.1911
20
0.203677
11
1.18905
21
0.200125
0
LINE
8
BLACK
6
CONTINUOUS
10
1.18905
20
0.200125
11
1.18591
21
0.197488
0
LINE
8
BLACK
6
CONTINUOUS
10
1.18591
20
0.197488
11
1.18205
21
0.196085
0
LINE
8
BLACK
6
CONTINUOUS
10
1.18205
20
0.196085
11
1.17795
21
0.196085
0
LINE
8
BLACK
6
CONTINUOUS
10
1.17795
20
0.196085
11
1.17409
21
0.197488
0
LINE
8
BLACK
6
CONTINUOUS
10
1.17409
20
0.197488
11
1.17095
21
0.200125
0
LINE
8
BLACK
6
CONTINUOUS
10
1.17095
20
0.200125
11
1.1689
21
0.203677
0
LINE
8
BLACK
6
CONTINUOUS
10
1.1689
20
0.203677
11
1.16819
21
0.207717
0
LINE
8
BLACK
6
CONTINUOUS
10
1.16819
20
0.207717
11
1.1689
21
0.211756
0
LINE
8
BLACK
6
CONTINUOUS
10
1.1689
20
0.211756
11
1.17095
21
0.215309
0
LINE
8
BLACK
6
CONTINUOUS
10
1.17095
20
0.215309
11
1.17409
21
0.217945
0
LINE
8
BLACK
6
CONTINUOUS
10
1.17409
20
0.217945
11
1.17795
21
0.219348
0
LINE
8
BLACK
6
CONTINUOUS
10
1.17795
20
0.219348
11
1.1805
21
0.219348
0
LINE
8
BLACK
6
CONTINUOUS
10
1.1805
20
0.219348
11
1.19672
21
0.235568
0
LINE
8
BLACK
6
CONTINUOUS
10
1.19672
20
0.235568
11
1.19783
21
0.236271
0
LINE
8
BLACK
6
CONTINUOUS
10
1.19783
20
0.236271
11
1.19887
21
0.237094
0
LINE
8
BLACK
6
CONTINUOUS
10
1.19887
20
0.237094
11
1.1993
21
0.237194
0
LINE
8
BLACK
6
CONTINUOUS
10
1.1993
20
0.237194
11
1.19968
21
0.237432
0
LINE
8
BLACK
6
CONTINUOUS
10
1.19968
20
0.237432
11
1.201
21
0.23758
0
LINE
8
BLACK
6
CONTINUOUS
10
1.201
20
0.23758
11
1.20228
21
0.237874
0
LINE
8
BLACK
6
CONTINUOUS
10
1.20228
20
0.237874
11
1.29626
21
0.237874
0
LINE
8
BLACK
6
CONTINUOUS
10
1.29626
20
0.237874
11
1.29626
21
0.253622
0
LINE
8
BLACK
6
CONTINUOUS
10
1.29626
20
0.253622
11
1.45374
21
0.253622
0
LINE
8
BLACK
6
CONTINUOUS
10
1.45374
20
0.253622
11
1.45374
21
0.206378
0
LINE
8
BLACK
6
CONTINUOUS
10
0.641109
20
0.353228
11
1.07937
21
0.353228
0
LINE
8
BLACK
6
CONTINUOUS
10
1.07937
20
0.353228
11
1.08066
21
0.352934
0
LINE
8
BLACK
6
CONTINUOUS
10
1.08066
20
0.352934
11
1.08197
21
0.352787
0
LINE
8
BLACK
6
CONTINUOUS
10
1.08197
20
0.352787
11
1.08235
21
0.352548
0
LINE
8
BLACK
6
CONTINUOUS
10
1.08235
20
0.352548
11
1.08279
21
0.352449
0
LINE
8
BLACK
6
CONTINUOUS
10
1.08279
20
0.352449
11
1.08382
21
0.351625
0
LINE
8
BLACK
6
CONTINUOUS
10
1.08382
20
0.351625
11
1.08494
21
0.350922
0
LINE
8
BLACK
6
CONTINUOUS
10
1.08494
20
0.350922
11
1.11299
21
0.322874
0
LINE
8
BLACK
6
CONTINUOUS
10
1.11299
20
0.322874
11
1.29626
21
0.322874
0
LINE
8
BLACK
6
CONTINUOUS
10
1.29626
20
0.322874
11
1.29626
21
0.338622
0
LINE
8
BLACK
6
CONTINUOUS
10
1.29626
20
0.338622
11
1.45374
21
0.338622
0
LINE
8
BLACK
6
CONTINUOUS
10
1.45374
20
0.338622
11
1.45374
21
0.291378
0
LINE
8
BLACK
6
CONTINUOUS
10
1.45374
20
0.291378
11
1.37287
21
0.291378
0
LINE
8
BLACK
6
CONTINUOUS
10
1.37287
20
0.291378
11
1.37287
21
0.283577
0
LINE
8
BLACK
6
CONTINUOUS
10
1.37287
20
0.283577
11
1.37405
21
0.282592
0
LINE
8
BLACK
6
CONTINUOUS
10
1.37405
20
0.282592
11
1.3761
21
0.27904
0
LINE
8
BLACK
6
CONTINUOUS
10
1.3761
20
0.27904
11
1.37681
21
0.275
0
LINE
8
BLACK
6
CONTINUOUS
10
1.37681
20
0.275
11
1.3761
21
0.27096
0
LINE
8
BLACK
6
CONTINUOUS
10
1.3761
20
0.27096
11
1.37405
21
0.267408
0
LINE
8
BLACK
6
CONTINUOUS
10
1.37405
20
0.267408
11
1.37091
21
0.264771
0
LINE
8
BLACK
6
CONTINUOUS
10
1.37091
20
0.264771
11
1.36705
21
0.263368
0
LINE
8
BLACK
6
CONTINUOUS
10
1.36705
20
0.263368
11
1.36295
21
0.263368
0
LINE
8
BLACK
6
CONTINUOUS
10
1.36295
20
0.263368
11
1.35909
21
0.264771
0
LINE
8
BLACK
6
CONTINUOUS
10
1.35909
20
0.264771
11
1.35595
21
0.267408
0
LINE
8
BLACK
6
CONTINUOUS
10
1.35595
20
0.267408
11
1.3539
21
0.27096
0
LINE
8
BLACK
6
CONTINUOUS
10
1.3539
20
0.27096
11
1.35319
21
0.275
0
LINE
8
BLACK
6
CONTINUOUS
10
1.35319
20
0.275
11
1.3539
21
0.27904
0
LINE
8
BLACK
6
CONTINUOUS
10
1.3539
20
0.27904
11
1.35595
21
0.282592
0
LINE
8
BLACK
6
CONTINUOUS
10
1.35595
20
0.282592
11
1.35713
21
0.283577
0
LINE
8
BLACK
6
CONTINUOUS
10
1.35713
20
0.283577
11
1.35713
21
0.291378
0
LINE
8
BLACK
6
CONTINUOUS
10
1.35713
20
0.291378
11
1.29626
21
0.291378
0
LINE
8
BLACK
6
CONTINUOUS
10
1.29626
20
0.291378
11
1.29626
21
0.307126
0
LINE
8
BLACK
6
CONTINUOUS
10
1.29626
20
0.307126
11
1.10972
21
0.307126
0
LINE
8
BLACK
6
CONTINUOUS
10
1.10972
20
0.307126
11
1.10844
21
0.30742
0
LINE
8
BLACK
6
CONTINUOUS
10
1.10844
20
0.30742
11
1.10712
21
0.307568
0
LINE
8
BLACK
6
CONTINUOUS
10
1.10712
20
0.307568
11
1.10674
21
0.307806
0
LINE
8
BLACK
6
CONTINUOUS
10
1.10674
20
0.307806
11
1.10631
21
0.307906
0
LINE
8
BLACK
6
CONTINUOUS
10
1.10631
20
0.307906
11
1.10528
21
0.308729
0
LINE
8
BLACK
6
CONTINUOUS
10
1.10528
20
0.308729
11
1.10416
21
0.309432
0
LINE
8
BLACK
6
CONTINUOUS
10
1.10416
20
0.309432
11
1.07611
21
0.33748
0
LINE
8
BLACK
6
CONTINUOUS
10
1.07611
20
0.33748
11
0.641109
21
0.33748
0
LINE
8
BLACK
6
CONTINUOUS
10
0.641109
20
0.33748
11
0.543616
21
0.33748
0
LINE
8
BLACK
6
CONTINUOUS
10
0.543616
20
0.33748
11
0.53671
21
0.330574
0
LINE
8
BLACK
6
CONTINUOUS
10
0.53671
20
0.330574
11
0.536811
21
0.33
0
LINE
8
BLACK
6
CONTINUOUS
10
0.536811
20
0.33
11
0.536099
21
0.32596
0
LINE
8
BLACK
6
CONTINUOUS
10
0.536099
20
0.32596
11
0.534048
21
0.322408
0
LINE
8
BLACK
6
CONTINUOUS
10
0.534048
20
0.322408
11
0.530906
21
0.319771
0
LINE
8
BLACK
6
CONTINUOUS
10
0.530906
20
0.319771
11
0.527051
21
0.318368
0
LINE
8
BLACK
6
CONTINUOUS
10
0.527051
20
0.318368
11
0.522949
21
0.318368
0
LINE
8
BLACK
6
CONTINUOUS
10
0.522949
20
0.318368
11
0.519094
21
0.319771
0
LINE
8
BLACK
6
CONTINUOUS
10
0.519094
20
0.319771
11
0.515952
21
0.322408
0
LINE
8
BLACK
6
CONTINUOUS
10
0.515952
20
0.322408
11
0.513901
21
0.32596
0
LINE
8
BLACK
6
CONTINUOUS
10
0.513901
20
0.32596
11
0.513189
21
0.33
0
LINE
8
BLACK
6
CONTINUOUS
10
0.513189
20
0.33
11
0.513901
21
0.33404
0
LINE
8
BLACK
6
CONTINUOUS
10
0.513901
20
0.33404
11
0.515952
21
0.337592
0
LINE
8
BLACK
6
CONTINUOUS
10
0.515952
20
0.337592
11
0.519094
21
0.340229
0
LINE
8
BLACK
6
CONTINUOUS
10
0.519094
20
0.340229
11
0.522949
21
0.341632
0
LINE
8
BLACK
6
CONTINUOUS
10
0.522949
20
0.341632
11
0.525496
21
0.341632
0
LINE
8
BLACK
6
CONTINUOUS
10
0.525496
20
0.341632
11
0.534787
21
0.350922
0
LINE
8
BLACK
6
CONTINUOUS
10
0.534787
20
0.350922
11
0.535905
21
0.351625
0
LINE
8
BLACK
6
CONTINUOUS
10
0.535905
20
0.351625
11
0.536938
21
0.352449
0
LINE
8
BLACK
6
CONTINUOUS
10
0.536938
20
0.352449
11
0.537375
21
0.352548
0
LINE
8
BLACK
6
CONTINUOUS
10
0.537375
20
0.352548
11
0.537754
21
0.352787
0
LINE
8
BLACK
6
CONTINUOUS
10
0.537754
20
0.352787
11
0.539066
21
0.352934
0
LINE
8
BLACK
6
CONTINUOUS
10
0.539066
20
0.352934
11
0.540354
21
0.353228
0
LINE
8
BLACK
6
CONTINUOUS
10
0.540354
20
0.353228
11
0.641109
21
0.353228
0
CIRCLE
8
BLACK
10
1.525
20
0.21937
40
0.00688976
0
CIRCLE
8
BLACK
10
1.525
20
0.14063
40
0.00688976
0
CIRCLE
8
BLACK
10
1.225
20
0.185
40
0.00688976
0
CIRCLE
8
BLACK
10
0.405
20
0.08
40
0.00688976
0
CIRCLE
8
BLACK
10
0.405
20
0.18
40
0.00688976
0
CIRCLE
8
BLACK
10
0.505
20
0.08
40
0.00688976
0
CIRCLE
8
BLACK
10
0.505
20
0.18
40
0.00688976
0
CIRCLE
8
BLACK
10
0.605
20
0.08
40
0.00688976
0
CIRCLE
8
BLACK
10
0.605
20
0.18
40
0.00688976
0
CIRCLE
8
BLACK
10
0.705
20
0.08
40
0.00688976
0
CIRCLE
8
BLACK
10
0.705
20
0.18
40
0.00688976
0
CIRCLE
8
BLACK
10
0.805
20
0.08
40
0.00688976
0
CIRCLE
8
BLACK
10
0.805
20
0.18
40
0.00688976
0
CIRCLE
8
BLACK
10
0.2
20
0.18
40
0.00688976
0
CIRCLE
8
BLACK
10
1
20
0.18
40
0.00688976
0
CIRCLE
8
BLACK
10
1.12411
20
0.0208865
40
0.00787402
0
CIRCLE
8
BLACK
10
1.42
20
0.175
40
0.00787402
0
CIRCLE
8
BLACK
10
1.475
20
0.26
40
0.00787402
0
CIRCLE
8
BLACK
10
1.49
20
0.065
40
0.00787402
0
CIRCLE
8
BLACK
10
1.46
20
0.065
40
0.00787402
0
CIRCLE
8
BLACK
10
0.805
20
0.27
40
0.00787402
0
CIRCLE
8
BLACK
10
1.365
20
0.275
40
0.00787402
0
CIRCLE
8
BLACK
10
0.525
20
0.33
40
0.00787402
0
CIRCLE
8
BLACK
10
1.18
20
0.207717
40
0.00787402
  0
ENDSEC
  0
EOF
