  0
SECTION
  2
HEADER
  9
$ANGBASE
  50
0.0
  9
$ANGDIR
  70
1
  9
$MEASUREMENT
  70
0
  0
ENDSEC
  0
SECTION
  2
TABLES
  0
TABLE
  2
LTYPE
  70
4
  0
LTYPE
  5
40F
  2
CONTINUOUS
  70
0
  3
Solid line
  72
65
  73
0
  40
0.0
  0
LTYPE
  5
410
  2
DASHDOT
 70
0
  3
Dash Dot ____ _ ____ _
 72
65
 73
4
 40
2.0
 49
1.25
 49
-0.25
 49
0.25
 49
-0.25
  0
LTYPE
  5
411
  2
DASHED
 70
0
  3
Dashed __ __ __ __ __
 72
65
 73
2
 40
0.75
 49
0.5
 49
-0.25
  0
LTYPE
  5
43B
  2
DOTTED
 70
0
  3
Dotted .  .  .  .
 72
65
 73
2
 40
0.2
 49
0.0
 49
-0.2
  0
ENDTAB
  0
TABLE
  2
STYLE
  70
4
  0
STYLE
  2
KICAD
  70
0
  40
0
  41
1
  42
1
  50
0
  71
0
  3
isocp.shx
  0
STYLE
  2
KICADB
  70
0
  40
0
  41
1
  42
1
  50
0
  71
0
  3
isocp.shx
  0
STYLE
  2
KICADI
  70
0
  40
0
  41
1
  42
1
  50
15
  71
0
  3
isocp.shx
  0
STYLE
  2
KICADBI
  70
0
  40
0
  41
1
  42
1
  50
15
  71
0
  3
isocp.shx
  0
ENDTAB
  0
TABLE
  2
LAYER
  70
1
  0
LAYER
  2
BLACK
  70
0
  62
7
  6
CONTINUOUS
  0
ENDTAB
  0
ENDSEC
  0
SECTION
  2
ENTITIES
0
LINE
8
BLACK
6
CONTINUOUS
10
1.2325
20
0.005
11
1.1775
21
0.005
0
LINE
8
BLACK
6
CONTINUOUS
10
1.1775
20
0.005
11
1.1775
21
0.04
0
LINE
8
BLACK
6
CONTINUOUS
10
1.1775
20
0.04
11
1.2325
21
0.04
0
LINE
8
BLACK
6
CONTINUOUS
10
1.2325
20
0.04
11
1.2325
21
0.005
0
LINE
8
BLACK
6
CONTINUOUS
10
1.3525
20
0.005
11
1.2975
21
0.005
0
LINE
8
BLACK
6
CONTINUOUS
10
1.2975
20
0.005
11
1.2975
21
0.04
0
LINE
8
BLACK
6
CONTINUOUS
10
1.2975
20
0.04
11
1.3525
21
0.04
0
LINE
8
BLACK
6
CONTINUOUS
10
1.3525
20
0.04
11
1.3525
21
0.005
0
LINE
8
BLACK
6
CONTINUOUS
10
1.4325
20
0.005
11
1.3775
21
0.005
0
LINE
8
BLACK
6
CONTINUOUS
10
1.3775
20
0.005
11
1.3775
21
0.04
0
LINE
8
BLACK
6
CONTINUOUS
10
1.3775
20
0.04
11
1.4325
21
0.04
0
LINE
8
BLACK
6
CONTINUOUS
10
1.4325
20
0.04
11
1.4325
21
0.005
0
LINE
8
BLACK
6
CONTINUOUS
10
1.2325
20
0.08
11
1.1775
21
0.08
0
LINE
8
BLACK
6
CONTINUOUS
10
1.1775
20
0.08
11
1.1775
21
0.115
0
LINE
8
BLACK
6
CONTINUOUS
10
1.1775
20
0.115
11
1.2325
21
0.115
0
LINE
8
BLACK
6
CONTINUOUS
10
1.2325
20
0.115
11
1.2325
21
0.08
0
LINE
8
BLACK
6
CONTINUOUS
10
1.3525
20
0.08
11
1.2975
21
0.08
0
LINE
8
BLACK
6
CONTINUOUS
10
1.2975
20
0.08
11
1.2975
21
0.115
0
LINE
8
BLACK
6
CONTINUOUS
10
1.2975
20
0.115
11
1.3525
21
0.115
0
LINE
8
BLACK
6
CONTINUOUS
10
1.3525
20
0.115
11
1.3525
21
0.08
0
LINE
8
BLACK
6
CONTINUOUS
10
1.4325
20
0.08
11
1.3775
21
0.08
0
LINE
8
BLACK
6
CONTINUOUS
10
1.3775
20
0.08
11
1.3775
21
0.115
0
LINE
8
BLACK
6
CONTINUOUS
10
1.3775
20
0.115
11
1.4325
21
0.115
0
LINE
8
BLACK
6
CONTINUOUS
10
1.4325
20
0.115
11
1.4325
21
0.08
0
LINE
8
BLACK
6
CONTINUOUS
10
1.5025
20
0.125
11
1.4475
21
0.125
0
LINE
8
BLACK
6
CONTINUOUS
10
1.4475
20
0.125
11
1.4475
21
0.16
0
LINE
8
BLACK
6
CONTINUOUS
10
1.4475
20
0.16
11
1.5025
21
0.16
0
LINE
8
BLACK
6
CONTINUOUS
10
1.5025
20
0.16
11
1.5025
21
0.125
0
LINE
8
BLACK
6
CONTINUOUS
10
1.31516
20
0.151535
11
1.27579
21
0.151535
0
LINE
8
BLACK
6
CONTINUOUS
10
1.27579
20
0.151535
11
1.27579
21
0.167283
0
LINE
8
BLACK
6
CONTINUOUS
10
1.27579
20
0.167283
11
1.31516
21
0.167283
0
LINE
8
BLACK
6
CONTINUOUS
10
1.31516
20
0.167283
11
1.31516
21
0.151535
0
LINE
8
BLACK
6
CONTINUOUS
10
1.37421
20
0.151535
11
1.33484
21
0.151535
0
LINE
8
BLACK
6
CONTINUOUS
10
1.33484
20
0.151535
11
1.33484
21
0.167283
0
LINE
8
BLACK
6
CONTINUOUS
10
1.33484
20
0.167283
11
1.37421
21
0.167283
0
LINE
8
BLACK
6
CONTINUOUS
10
1.37421
20
0.167283
11
1.37421
21
0.151535
0
LINE
8
BLACK
6
CONTINUOUS
10
1.31516
20
0.177126
11
1.27579
21
0.177126
0
LINE
8
BLACK
6
CONTINUOUS
10
1.27579
20
0.177126
11
1.27579
21
0.192874
0
LINE
8
BLACK
6
CONTINUOUS
10
1.27579
20
0.192874
11
1.31516
21
0.192874
0
LINE
8
BLACK
6
CONTINUOUS
10
1.31516
20
0.192874
11
1.31516
21
0.177126
0
LINE
8
BLACK
6
CONTINUOUS
10
1.37421
20
0.177126
11
1.33484
21
0.177126
0
LINE
8
BLACK
6
CONTINUOUS
10
1.33484
20
0.177126
11
1.33484
21
0.192874
0
LINE
8
BLACK
6
CONTINUOUS
10
1.33484
20
0.192874
11
1.37421
21
0.192874
0
LINE
8
BLACK
6
CONTINUOUS
10
1.37421
20
0.192874
11
1.37421
21
0.177126
0
LINE
8
BLACK
6
CONTINUOUS
10
1.5025
20
0.2
11
1.4475
21
0.2
0
LINE
8
BLACK
6
CONTINUOUS
10
1.4475
20
0.2
11
1.4475
21
0.235
0
LINE
8
BLACK
6
CONTINUOUS
10
1.4475
20
0.235
11
1.5025
21
0.235
0
LINE
8
BLACK
6
CONTINUOUS
10
1.5025
20
0.235
11
1.5025
21
0.2
0
LINE
8
BLACK
6
CONTINUOUS
10
1.31516
20
0.202717
11
1.27579
21
0.202717
0
LINE
8
BLACK
6
CONTINUOUS
10
1.27579
20
0.202717
11
1.27579
21
0.218465
0
LINE
8
BLACK
6
CONTINUOUS
10
1.27579
20
0.218465
11
1.31516
21
0.218465
0
LINE
8
BLACK
6
CONTINUOUS
10
1.31516
20
0.218465
11
1.31516
21
0.202717
0
LINE
8
BLACK
6
CONTINUOUS
10
1.37421
20
0.202717
11
1.33484
21
0.202717
0
LINE
8
BLACK
6
CONTINUOUS
10
1.33484
20
0.202717
11
1.33484
21
0.218465
0
LINE
8
BLACK
6
CONTINUOUS
10
1.33484
20
0.218465
11
1.37421
21
0.218465
0
LINE
8
BLACK
6
CONTINUOUS
10
1.37421
20
0.218465
11
1.37421
21
0.202717
0
LINE
8
BLACK
6
CONTINUOUS
10
1.2525
20
0.25
11
1.1975
21
0.25
0
LINE
8
BLACK
6
CONTINUOUS
10
1.1975
20
0.25
11
1.1975
21
0.285
0
LINE
8
BLACK
6
CONTINUOUS
10
1.1975
20
0.285
11
1.2525
21
0.285
0
LINE
8
BLACK
6
CONTINUOUS
10
1.2525
20
0.285
11
1.2525
21
0.25
0
LINE
8
BLACK
6
CONTINUOUS
10
1.3425
20
0.25
11
1.2875
21
0.25
0
LINE
8
BLACK
6
CONTINUOUS
10
1.2875
20
0.25
11
1.2875
21
0.285
0
LINE
8
BLACK
6
CONTINUOUS
10
1.2875
20
0.285
11
1.3425
21
0.285
0
LINE
8
BLACK
6
CONTINUOUS
10
1.3425
20
0.285
11
1.3425
21
0.25
0
LINE
8
BLACK
6
CONTINUOUS
10
1.4375
20
0.25
11
1.3825
21
0.25
0
LINE
8
BLACK
6
CONTINUOUS
10
1.3825
20
0.25
11
1.3825
21
0.285
0
LINE
8
BLACK
6
CONTINUOUS
10
1.3825
20
0.285
11
1.4375
21
0.285
0
LINE
8
BLACK
6
CONTINUOUS
10
1.4375
20
0.285
11
1.4375
21
0.25
0
LINE
8
BLACK
6
CONTINUOUS
10
0.4817
20
0.25655
11
0.4305
21
0.25655
0
LINE
8
BLACK
6
CONTINUOUS
10
0.4305
20
0.25655
11
0.4305
21
0.32345
0
LINE
8
BLACK
6
CONTINUOUS
10
0.4305
20
0.32345
11
0.4817
21
0.32345
0
LINE
8
BLACK
6
CONTINUOUS
10
0.4817
20
0.32345
11
0.4817
21
0.25655
0
LINE
8
BLACK
6
CONTINUOUS
10
0.6195
20
0.25655
11
0.5683
21
0.25655
0
LINE
8
BLACK
6
CONTINUOUS
10
0.5683
20
0.25655
11
0.5683
21
0.32345
0
LINE
8
BLACK
6
CONTINUOUS
10
0.5683
20
0.32345
11
0.6195
21
0.32345
0
LINE
8
BLACK
6
CONTINUOUS
10
0.6195
20
0.32345
11
0.6195
21
0.25655
0
LINE
8
BLACK
6
CONTINUOUS
10
1.495
20
0.2675
11
1.46
21
0.2675
0
LINE
8
BLACK
6
CONTINUOUS
10
1.46
20
0.2675
11
1.46
21
0.3225
0
LINE
8
BLACK
6
CONTINUOUS
10
1.46
20
0.3225
11
1.495
21
0.3225
0
LINE
8
BLACK
6
CONTINUOUS
10
1.495
20
0.3225
11
1.495
21
0.2675
0
LINE
8
BLACK
6
CONTINUOUS
10
1.57
20
0.2675
11
1.535
21
0.2675
0
LINE
8
BLACK
6
CONTINUOUS
10
1.535
20
0.2675
11
1.535
21
0.3225
0
LINE
8
BLACK
6
CONTINUOUS
10
1.535
20
0.3225
11
1.57
21
0.3225
0
LINE
8
BLACK
6
CONTINUOUS
10
1.57
20
0.3225
11
1.57
21
0.2675
0
LINE
8
BLACK
6
CONTINUOUS
10
1.2525
20
0.325
11
1.1975
21
0.325
0
LINE
8
BLACK
6
CONTINUOUS
10
1.1975
20
0.325
11
1.1975
21
0.36
0
LINE
8
BLACK
6
CONTINUOUS
10
1.1975
20
0.36
11
1.2525
21
0.36
0
LINE
8
BLACK
6
CONTINUOUS
10
1.2525
20
0.36
11
1.2525
21
0.325
0
LINE
8
BLACK
6
CONTINUOUS
10
1.3425
20
0.325
11
1.2875
21
0.325
0
LINE
8
BLACK
6
CONTINUOUS
10
1.2875
20
0.325
11
1.2875
21
0.36
0
LINE
8
BLACK
6
CONTINUOUS
10
1.2875
20
0.36
11
1.3425
21
0.36
0
LINE
8
BLACK
6
CONTINUOUS
10
1.3425
20
0.36
11
1.3425
21
0.325
0
LINE
8
BLACK
6
CONTINUOUS
10
1.4375
20
0.325
11
1.3825
21
0.325
0
LINE
8
BLACK
6
CONTINUOUS
10
1.3825
20
0.325
11
1.3825
21
0.36
0
LINE
8
BLACK
6
CONTINUOUS
10
1.3825
20
0.36
11
1.4375
21
0.36
0
LINE
8
BLACK
6
CONTINUOUS
10
1.4375
20
0.36
11
1.4375
21
0.325
  0
ENDSEC
  0
EOF
