  0
SECTION
  2
HEADER
  9
$ANGBASE
  50
0.0
  9
$ANGDIR
  70
1
  9
$MEASUREMENT
  70
0
  0
ENDSEC
  0
SECTION
  2
TABLES
  0
TABLE
  2
LTYPE
  70
4
  0
LTYPE
  5
40F
  2
CONTINUOUS
  70
0
  3
Solid line
  72
65
  73
0
  40
0.0
  0
LTYPE
  5
410
  2
DASHDOT
 70
0
  3
Dash Dot ____ _ ____ _
 72
65
 73
4
 40
2.0
 49
1.25
 49
-0.25
 49
0.25
 49
-0.25
  0
LTYPE
  5
411
  2
DASHED
 70
0
  3
Dashed __ __ __ __ __
 72
65
 73
2
 40
0.75
 49
0.5
 49
-0.25
  0
LTYPE
  5
43B
  2
DOTTED
 70
0
  3
Dotted .  .  .  .
 72
65
 73
2
 40
0.2
 49
0.0
 49
-0.2
  0
ENDTAB
  0
TABLE
  2
STYLE
  70
4
  0
STYLE
  2
KICAD
  70
0
  40
0
  41
1
  42
1
  50
0
  71
0
  3
isocp.shx
  0
STYLE
  2
KICADB
  70
0
  40
0
  41
1
  42
1
  50
0
  71
0
  3
isocp.shx
  0
STYLE
  2
KICADI
  70
0
  40
0
  41
1
  42
1
  50
15
  71
0
  3
isocp.shx
  0
STYLE
  2
KICADBI
  70
0
  40
0
  41
1
  42
1
  50
15
  71
0
  3
isocp.shx
  0
ENDTAB
  0
TABLE
  2
LAYER
  70
1
  0
LAYER
  2
BLACK
  70
0
  62
7
  6
CONTINUOUS
  0
ENDTAB
  0
ENDSEC
  0
SECTION
  2
ENTITIES
0
LINE
8
BLACK
6
CONTINUOUS
10
0.211206
20
0.257939
11
0.222184
21
0.255551
0
LINE
8
BLACK
6
CONTINUOUS
10
0.222184
20
0.255551
11
0.23271
21
0.251625
0
LINE
8
BLACK
6
CONTINUOUS
10
0.23271
20
0.251625
11
0.24257
21
0.24624
0
LINE
8
BLACK
6
CONTINUOUS
10
0.24257
20
0.24624
11
0.251564
21
0.239508
0
LINE
8
BLACK
6
CONTINUOUS
10
0.251564
20
0.239508
11
0.259508
21
0.231564
0
LINE
8
BLACK
6
CONTINUOUS
10
0.259508
20
0.231564
11
0.26624
21
0.22257
0
LINE
8
BLACK
6
CONTINUOUS
10
0.26624
20
0.22257
11
0.271625
21
0.21271
0
LINE
8
BLACK
6
CONTINUOUS
10
0.271625
20
0.21271
11
0.275551
21
0.202184
0
LINE
8
BLACK
6
CONTINUOUS
10
0.275551
20
0.202184
11
0.277939
21
0.191206
0
LINE
8
BLACK
6
CONTINUOUS
10
0.277939
20
0.191206
11
0.27874
21
0.18
0
LINE
8
BLACK
6
CONTINUOUS
10
0.27874
20
0.18
11
0.277939
21
0.168794
0
LINE
8
BLACK
6
CONTINUOUS
10
0.277939
20
0.168794
11
0.275551
21
0.157816
0
LINE
8
BLACK
6
CONTINUOUS
10
0.275551
20
0.157816
11
0.271625
21
0.14729
0
LINE
8
BLACK
6
CONTINUOUS
10
0.271625
20
0.14729
11
0.26624
21
0.13743
0
LINE
8
BLACK
6
CONTINUOUS
10
0.26624
20
0.13743
11
0.259508
21
0.128436
0
LINE
8
BLACK
6
CONTINUOUS
10
0.259508
20
0.128436
11
0.251564
21
0.120492
0
LINE
8
BLACK
6
CONTINUOUS
10
0.251564
20
0.120492
11
0.24257
21
0.11376
0
LINE
8
BLACK
6
CONTINUOUS
10
0.24257
20
0.11376
11
0.23271
21
0.108375
0
LINE
8
BLACK
6
CONTINUOUS
10
0.23271
20
0.108375
11
0.222184
21
0.104449
0
LINE
8
BLACK
6
CONTINUOUS
10
0.222184
20
0.104449
11
0.211206
21
0.102061
0
LINE
8
BLACK
6
CONTINUOUS
10
0.211206
20
0.102061
11
0.2
21
0.10126
0
LINE
8
BLACK
6
CONTINUOUS
10
0.2
20
0.10126
11
0.188794
21
0.102061
0
LINE
8
BLACK
6
CONTINUOUS
10
0.188794
20
0.102061
11
0.177816
21
0.104449
0
LINE
8
BLACK
6
CONTINUOUS
10
0.177816
20
0.104449
11
0.16729
21
0.108375
0
LINE
8
BLACK
6
CONTINUOUS
10
0.16729
20
0.108375
11
0.15743
21
0.11376
0
LINE
8
BLACK
6
CONTINUOUS
10
0.15743
20
0.11376
11
0.148436
21
0.120492
0
LINE
8
BLACK
6
CONTINUOUS
10
0.148436
20
0.120492
11
0.140492
21
0.128436
0
LINE
8
BLACK
6
CONTINUOUS
10
0.140492
20
0.128436
11
0.13376
21
0.13743
0
LINE
8
BLACK
6
CONTINUOUS
10
0.13376
20
0.13743
11
0.128375
21
0.14729
0
LINE
8
BLACK
6
CONTINUOUS
10
0.128375
20
0.14729
11
0.124449
21
0.157816
0
LINE
8
BLACK
6
CONTINUOUS
10
0.124449
20
0.157816
11
0.122061
21
0.168794
0
LINE
8
BLACK
6
CONTINUOUS
10
0.122061
20
0.168794
11
0.12126
21
0.18
0
LINE
8
BLACK
6
CONTINUOUS
10
0.12126
20
0.18
11
0.122061
21
0.191206
0
LINE
8
BLACK
6
CONTINUOUS
10
0.122061
20
0.191206
11
0.124449
21
0.202184
0
LINE
8
BLACK
6
CONTINUOUS
10
0.124449
20
0.202184
11
0.128375
21
0.21271
0
LINE
8
BLACK
6
CONTINUOUS
10
0.128375
20
0.21271
11
0.13376
21
0.22257
0
LINE
8
BLACK
6
CONTINUOUS
10
0.13376
20
0.22257
11
0.140492
21
0.231564
0
LINE
8
BLACK
6
CONTINUOUS
10
0.140492
20
0.231564
11
0.148436
21
0.239508
0
LINE
8
BLACK
6
CONTINUOUS
10
0.148436
20
0.239508
11
0.15743
21
0.24624
0
LINE
8
BLACK
6
CONTINUOUS
10
0.15743
20
0.24624
11
0.16729
21
0.251625
0
LINE
8
BLACK
6
CONTINUOUS
10
0.16729
20
0.251625
11
0.177816
21
0.255551
0
LINE
8
BLACK
6
CONTINUOUS
10
0.177816
20
0.255551
11
0.188794
21
0.257939
0
LINE
8
BLACK
6
CONTINUOUS
10
0.188794
20
0.257939
11
0.2
21
0.25874
0
LINE
8
BLACK
6
CONTINUOUS
10
0.2
20
0.25874
11
0.211206
21
0.257939
0
LINE
8
BLACK
6
CONTINUOUS
10
1.01121
20
0.257939
11
1.02218
21
0.255551
0
LINE
8
BLACK
6
CONTINUOUS
10
1.02218
20
0.255551
11
1.03271
21
0.251625
0
LINE
8
BLACK
6
CONTINUOUS
10
1.03271
20
0.251625
11
1.04257
21
0.24624
0
LINE
8
BLACK
6
CONTINUOUS
10
1.04257
20
0.24624
11
1.05156
21
0.239508
0
LINE
8
BLACK
6
CONTINUOUS
10
1.05156
20
0.239508
11
1.05951
21
0.231564
0
LINE
8
BLACK
6
CONTINUOUS
10
1.05951
20
0.231564
11
1.06624
21
0.22257
0
LINE
8
BLACK
6
CONTINUOUS
10
1.06624
20
0.22257
11
1.07162
21
0.21271
0
LINE
8
BLACK
6
CONTINUOUS
10
1.07162
20
0.21271
11
1.07555
21
0.202184
0
LINE
8
BLACK
6
CONTINUOUS
10
1.07555
20
0.202184
11
1.07794
21
0.191206
0
LINE
8
BLACK
6
CONTINUOUS
10
1.07794
20
0.191206
11
1.07874
21
0.18
0
LINE
8
BLACK
6
CONTINUOUS
10
1.07874
20
0.18
11
1.07794
21
0.168794
0
LINE
8
BLACK
6
CONTINUOUS
10
1.07794
20
0.168794
11
1.07555
21
0.157816
0
LINE
8
BLACK
6
CONTINUOUS
10
1.07555
20
0.157816
11
1.07162
21
0.14729
0
LINE
8
BLACK
6
CONTINUOUS
10
1.07162
20
0.14729
11
1.06624
21
0.13743
0
LINE
8
BLACK
6
CONTINUOUS
10
1.06624
20
0.13743
11
1.05951
21
0.128436
0
LINE
8
BLACK
6
CONTINUOUS
10
1.05951
20
0.128436
11
1.05156
21
0.120492
0
LINE
8
BLACK
6
CONTINUOUS
10
1.05156
20
0.120492
11
1.04257
21
0.11376
0
LINE
8
BLACK
6
CONTINUOUS
10
1.04257
20
0.11376
11
1.03271
21
0.108375
0
LINE
8
BLACK
6
CONTINUOUS
10
1.03271
20
0.108375
11
1.02218
21
0.104449
0
LINE
8
BLACK
6
CONTINUOUS
10
1.02218
20
0.104449
11
1.01121
21
0.102061
0
LINE
8
BLACK
6
CONTINUOUS
10
1.01121
20
0.102061
11
1
21
0.10126
0
LINE
8
BLACK
6
CONTINUOUS
10
1
20
0.10126
11
0.988794
21
0.102061
0
LINE
8
BLACK
6
CONTINUOUS
10
0.988794
20
0.102061
11
0.977816
21
0.104449
0
LINE
8
BLACK
6
CONTINUOUS
10
0.977816
20
0.104449
11
0.96729
21
0.108375
0
LINE
8
BLACK
6
CONTINUOUS
10
0.96729
20
0.108375
11
0.95743
21
0.11376
0
LINE
8
BLACK
6
CONTINUOUS
10
0.95743
20
0.11376
11
0.948436
21
0.120492
0
LINE
8
BLACK
6
CONTINUOUS
10
0.948436
20
0.120492
11
0.940492
21
0.128436
0
LINE
8
BLACK
6
CONTINUOUS
10
0.940492
20
0.128436
11
0.93376
21
0.13743
0
LINE
8
BLACK
6
CONTINUOUS
10
0.93376
20
0.13743
11
0.928375
21
0.14729
0
LINE
8
BLACK
6
CONTINUOUS
10
0.928375
20
0.14729
11
0.924449
21
0.157816
0
LINE
8
BLACK
6
CONTINUOUS
10
0.924449
20
0.157816
11
0.922061
21
0.168794
0
LINE
8
BLACK
6
CONTINUOUS
10
0.922061
20
0.168794
11
0.92126
21
0.18
0
LINE
8
BLACK
6
CONTINUOUS
10
0.92126
20
0.18
11
0.922061
21
0.191206
0
LINE
8
BLACK
6
CONTINUOUS
10
0.922061
20
0.191206
11
0.924449
21
0.202184
0
LINE
8
BLACK
6
CONTINUOUS
10
0.924449
20
0.202184
11
0.928375
21
0.21271
0
LINE
8
BLACK
6
CONTINUOUS
10
0.928375
20
0.21271
11
0.93376
21
0.22257
0
LINE
8
BLACK
6
CONTINUOUS
10
0.93376
20
0.22257
11
0.940492
21
0.231564
0
LINE
8
BLACK
6
CONTINUOUS
10
0.940492
20
0.231564
11
0.948436
21
0.239508
0
LINE
8
BLACK
6
CONTINUOUS
10
0.948436
20
0.239508
11
0.95743
21
0.24624
0
LINE
8
BLACK
6
CONTINUOUS
10
0.95743
20
0.24624
11
0.96729
21
0.251625
0
LINE
8
BLACK
6
CONTINUOUS
10
0.96729
20
0.251625
11
0.977816
21
0.255551
0
LINE
8
BLACK
6
CONTINUOUS
10
0.977816
20
0.255551
11
0.988794
21
0.257939
0
LINE
8
BLACK
6
CONTINUOUS
10
0.988794
20
0.257939
11
1
21
0.25874
0
LINE
8
BLACK
6
CONTINUOUS
10
1
20
0.25874
11
1.01121
21
0.257939
  0
ENDSEC
  0
EOF
