<!DOCTYPE svg PUBLIC "-//W3C//DTD SVG 1.1//EN" "http://www.w3.org/Graphics/SVG/1.1/DTD/svg11.dtd">
<svg xmlns="http://www.w3.org/2000/svg" version="1.1" width="50.232mm" height="19.752mm" viewBox="-4.796 -14.448 50.232 19.752000000000002">
            <title>Picture generated by PcbDraw </title>
            <desc>Picture generated by PcbDraw</desc>
        <defs><clipPath id="cut-off"><path d=" M 0.254 0.254 L 40.386 0.254 L 40.386 -9.398 L 0.254 -9.398 L 0.254 0.254 " style="fill-rule: evenodd;"/></clipPath><mask id="pads-mask"><g style="fill:#ffffff; fill-opacity:0.0;  stroke:#ffffff; stroke-width:0.0000; stroke-opacity:1;  stroke-linecap:round; stroke-linejoin:round;">
<g style="fill:#ffffff; fill-opacity:1.0000;  stroke:#ffffff; stroke-width:0.0000; stroke-opacity:1;  stroke-linecap:round; stroke-linejoin:round;">
<path style="fill:#ffffff; fill-opacity:1.0000;  stroke:#ffffff; stroke-width:0.0000; stroke-opacity:1;  stroke-linecap:round; stroke-linejoin:round;fill-rule:evenodd;" d="M 38.2350,-6.0720 39.2350,-6.0720 39.2350,-5.0720 38.2350,-5.0720 Z"/> 
<path style="fill:#ffffff; fill-opacity:1.0000;  stroke:#ffffff; stroke-width:0.0000; stroke-opacity:1;  stroke-linecap:round; stroke-linejoin:round;fill-rule:evenodd;" d="M 38.2350,-4.0720 39.2350,-4.0720 39.2350,-3.0720 38.2350,-3.0720 Z"/> 
</g>
<g style="fill:#ffffff; fill-opacity:1.0000;  stroke:#ffffff; stroke-width:0.0000; stroke-opacity:1;  stroke-linecap:round; stroke-linejoin:round;">
<path style="fill:#ffffff; fill-opacity:1.0000;  stroke:#ffffff; stroke-width:0.0000; stroke-opacity:1;  stroke-linecap:round; stroke-linejoin:round;fill-rule:evenodd;" d="M 30.6150,-4.1990 30.6150,-5.1990 31.6150,-5.1990 31.6150,-4.1990 Z"/> 
</g>
<g style="fill:#ffffff; fill-opacity:1.0000;  stroke:#ffffff; stroke-width:0.0000; stroke-opacity:1;  stroke-linecap:round; stroke-linejoin:round;">
<path style="fill:#ffffff; fill-opacity:1.0000;  stroke:#ffffff; stroke-width:0.0000; stroke-opacity:1;  stroke-linecap:round; stroke-linejoin:round;fill-rule:evenodd;" d="M 11.0490,-1.2700 9.5250,-1.2700 9.5250,-2.7940 11.0490,-2.7940 Z"/> 
<path style="fill:#ffffff; fill-opacity:1.0000;  stroke:#ffffff; stroke-width:0.0000; stroke-opacity:1;  stroke-linecap:round; stroke-linejoin:round;fill-rule:evenodd;" d="M 11.0490,-3.8100 9.5250,-3.8100 9.5250,-5.3340 11.0490,-5.3340 Z"/> 
<path style="fill:#ffffff; fill-opacity:1.0000;  stroke:#ffffff; stroke-width:0.0000; stroke-opacity:1;  stroke-linecap:round; stroke-linejoin:round;fill-rule:evenodd;" d="M 13.5890,-1.2700 12.0650,-1.2700 12.0650,-2.7940 13.5890,-2.7940 Z"/> 
<path style="fill:#ffffff; fill-opacity:1.0000;  stroke:#ffffff; stroke-width:0.0000; stroke-opacity:1;  stroke-linecap:round; stroke-linejoin:round;fill-rule:evenodd;" d="M 13.5890,-3.8100 12.0650,-3.8100 12.0650,-5.3340 13.5890,-5.3340 Z"/> 
<path style="fill:#ffffff; fill-opacity:1.0000;  stroke:#ffffff; stroke-width:0.0000; stroke-opacity:1;  stroke-linecap:round; stroke-linejoin:round;fill-rule:evenodd;" d="M 16.1290,-1.2700 14.6050,-1.2700 14.6050,-2.7940 16.1290,-2.7940 Z"/> 
<path style="fill:#ffffff; fill-opacity:1.0000;  stroke:#ffffff; stroke-width:0.0000; stroke-opacity:1;  stroke-linecap:round; stroke-linejoin:round;fill-rule:evenodd;" d="M 16.1290,-3.8100 14.6050,-3.8100 14.6050,-5.3340 16.1290,-5.3340 Z"/> 
<path style="fill:#ffffff; fill-opacity:1.0000;  stroke:#ffffff; stroke-width:0.0000; stroke-opacity:1;  stroke-linecap:round; stroke-linejoin:round;fill-rule:evenodd;" d="M 18.6690,-1.2700 17.1450,-1.2700 17.1450,-2.7940 18.6690,-2.7940 Z"/> 
<path style="fill:#ffffff; fill-opacity:1.0000;  stroke:#ffffff; stroke-width:0.0000; stroke-opacity:1;  stroke-linecap:round; stroke-linejoin:round;fill-rule:evenodd;" d="M 18.6690,-3.8100 17.1450,-3.8100 17.1450,-5.3340 18.6690,-5.3340 Z"/> 
<path style="fill:#ffffff; fill-opacity:1.0000;  stroke:#ffffff; stroke-width:0.0000; stroke-opacity:1;  stroke-linecap:round; stroke-linejoin:round;fill-rule:evenodd;" d="M 21.2090,-1.2700 19.6850,-1.2700 19.6850,-2.7940 21.2090,-2.7940 Z"/> 
<path style="fill:#ffffff; fill-opacity:1.0000;  stroke:#ffffff; stroke-width:0.0000; stroke-opacity:1;  stroke-linecap:round; stroke-linejoin:round;fill-rule:evenodd;" d="M 21.2090,-3.8100 19.6850,-3.8100 19.6850,-5.3340 21.2090,-5.3340 Z"/> 
</g>
<g style="fill:#ffffff; fill-opacity:1.0000;  stroke:#ffffff; stroke-width:0.0000; stroke-opacity:1;  stroke-linecap:round; stroke-linejoin:round;">
<path style="fill:#ffffff; fill-opacity:1.0000;  stroke:#ffffff; stroke-width:0.0000; stroke-opacity:1;  stroke-linecap:round; stroke-linejoin:round;fill-rule:evenodd;" d="M 32.9250,-2.5750 32.9250,-3.7750 36.9250,-3.7750 36.9250,-2.5750 Z"/> 
</g>
<g style="fill:#ffffff; fill-opacity:1.0000;  stroke:#ffffff; stroke-width:0.0000; stroke-opacity:1;  stroke-linecap:round; stroke-linejoin:round;">
<path style="fill:#ffffff; fill-opacity:1.0000;  stroke:#ffffff; stroke-width:0.0000; stroke-opacity:1;  stroke-linecap:round; stroke-linejoin:round;fill-rule:evenodd;" d="M 32.9250,-7.4010 32.9250,-8.6010 36.9250,-8.6010 36.9250,-7.4010 Z"/> 
</g>
<g style="fill:#ffffff; fill-opacity:1.0000;  stroke:#ffffff; stroke-width:0.0000; stroke-opacity:1;  stroke-linecap:round; stroke-linejoin:round;">
<path style="fill:#ffffff; fill-opacity:1.0000;  stroke:#ffffff; stroke-width:0.0000; stroke-opacity:1;  stroke-linecap:round; stroke-linejoin:round;fill-rule:evenodd;" d="M 32.9250,-5.2420 32.9250,-6.4420 36.9250,-6.4420 36.9250,-5.2420 Z"/> 
</g>
<g style="fill:#ffffff; fill-opacity:1.0000;  stroke:#ffffff; stroke-width:0.0000; stroke-opacity:1;  stroke-linecap:round; stroke-linejoin:round;">
<path style="fill:#ffffff; fill-opacity:1.0000;  stroke:#ffffff; stroke-width:0.0000; stroke-opacity:1;  stroke-linecap:round; stroke-linejoin:round;fill-rule:evenodd;" d="M 32.9250,-0.4160 32.9250,-1.6160 36.9250,-1.6160 36.9250,-0.4160 Z"/> 
</g>
<g style="fill:#ffffff; fill-opacity:1.0000;  stroke:#ffffff; stroke-width:0.0000; stroke-opacity:1;  stroke-linecap:round; stroke-linejoin:round;">
<circle cx="5.0800" cy="-4.5720" r="3.0000"/> 
</g>
<g style="fill:#ffffff; fill-opacity:1.0000;  stroke:#ffffff; stroke-width:0.0000; stroke-opacity:1;  stroke-linecap:round; stroke-linejoin:round;">
<circle cx="25.4000" cy="-4.5720" r="3.0000"/> 
</g>
</g> 
</mask><mask id="pads-mask-silkscreen"><rect x="0.204" y="-9.448" width="40.232" height="9.752" fill="white"/><g style="fill:#000000; fill-opacity:0.0;  stroke:#000000; stroke-width:0.0000; stroke-opacity:1;  stroke-linecap:round; stroke-linejoin:round;">
<g style="fill:#000000; fill-opacity:1.0000;  stroke:#000000; stroke-width:0.0000; stroke-opacity:1;  stroke-linecap:round; stroke-linejoin:round;">
<path style="fill:#000000; fill-opacity:1.0000;  stroke:#000000; stroke-width:0.0000; stroke-opacity:1;  stroke-linecap:round; stroke-linejoin:round;fill-rule:evenodd;" d="M 38.2350,-6.0720 39.2350,-6.0720 39.2350,-5.0720 38.2350,-5.0720 Z"/> 
<path style="fill:#000000; fill-opacity:1.0000;  stroke:#000000; stroke-width:0.0000; stroke-opacity:1;  stroke-linecap:round; stroke-linejoin:round;fill-rule:evenodd;" d="M 38.2350,-4.0720 39.2350,-4.0720 39.2350,-3.0720 38.2350,-3.0720 Z"/> 
</g>
<g style="fill:#000000; fill-opacity:1.0000;  stroke:#000000; stroke-width:0.0000; stroke-opacity:1;  stroke-linecap:round; stroke-linejoin:round;">
<path style="fill:#000000; fill-opacity:1.0000;  stroke:#000000; stroke-width:0.0000; stroke-opacity:1;  stroke-linecap:round; stroke-linejoin:round;fill-rule:evenodd;" d="M 30.6150,-4.1990 30.6150,-5.1990 31.6150,-5.1990 31.6150,-4.1990 Z"/> 
</g>
<g style="fill:#000000; fill-opacity:1.0000;  stroke:#000000; stroke-width:0.0000; stroke-opacity:1;  stroke-linecap:round; stroke-linejoin:round;">
<path style="fill:#000000; fill-opacity:1.0000;  stroke:#000000; stroke-width:0.0000; stroke-opacity:1;  stroke-linecap:round; stroke-linejoin:round;fill-rule:evenodd;" d="M 11.0490,-1.2700 9.5250,-1.2700 9.5250,-2.7940 11.0490,-2.7940 Z"/> 
<path style="fill:#000000; fill-opacity:1.0000;  stroke:#000000; stroke-width:0.0000; stroke-opacity:1;  stroke-linecap:round; stroke-linejoin:round;fill-rule:evenodd;" d="M 11.0490,-3.8100 9.5250,-3.8100 9.5250,-5.3340 11.0490,-5.3340 Z"/> 
<path style="fill:#000000; fill-opacity:1.0000;  stroke:#000000; stroke-width:0.0000; stroke-opacity:1;  stroke-linecap:round; stroke-linejoin:round;fill-rule:evenodd;" d="M 13.5890,-1.2700 12.0650,-1.2700 12.0650,-2.7940 13.5890,-2.7940 Z"/> 
<path style="fill:#000000; fill-opacity:1.0000;  stroke:#000000; stroke-width:0.0000; stroke-opacity:1;  stroke-linecap:round; stroke-linejoin:round;fill-rule:evenodd;" d="M 13.5890,-3.8100 12.0650,-3.8100 12.0650,-5.3340 13.5890,-5.3340 Z"/> 
<path style="fill:#000000; fill-opacity:1.0000;  stroke:#000000; stroke-width:0.0000; stroke-opacity:1;  stroke-linecap:round; stroke-linejoin:round;fill-rule:evenodd;" d="M 16.1290,-1.2700 14.6050,-1.2700 14.6050,-2.7940 16.1290,-2.7940 Z"/> 
<path style="fill:#000000; fill-opacity:1.0000;  stroke:#000000; stroke-width:0.0000; stroke-opacity:1;  stroke-linecap:round; stroke-linejoin:round;fill-rule:evenodd;" d="M 16.1290,-3.8100 14.6050,-3.8100 14.6050,-5.3340 16.1290,-5.3340 Z"/> 
<path style="fill:#000000; fill-opacity:1.0000;  stroke:#000000; stroke-width:0.0000; stroke-opacity:1;  stroke-linecap:round; stroke-linejoin:round;fill-rule:evenodd;" d="M 18.6690,-1.2700 17.1450,-1.2700 17.1450,-2.7940 18.6690,-2.7940 Z"/> 
<path style="fill:#000000; fill-opacity:1.0000;  stroke:#000000; stroke-width:0.0000; stroke-opacity:1;  stroke-linecap:round; stroke-linejoin:round;fill-rule:evenodd;" d="M 18.6690,-3.8100 17.1450,-3.8100 17.1450,-5.3340 18.6690,-5.3340 Z"/> 
<path style="fill:#000000; fill-opacity:1.0000;  stroke:#000000; stroke-width:0.0000; stroke-opacity:1;  stroke-linecap:round; stroke-linejoin:round;fill-rule:evenodd;" d="M 21.2090,-1.2700 19.6850,-1.2700 19.6850,-2.7940 21.2090,-2.7940 Z"/> 
<path style="fill:#000000; fill-opacity:1.0000;  stroke:#000000; stroke-width:0.0000; stroke-opacity:1;  stroke-linecap:round; stroke-linejoin:round;fill-rule:evenodd;" d="M 21.2090,-3.8100 19.6850,-3.8100 19.6850,-5.3340 21.2090,-5.3340 Z"/> 
</g>
<g style="fill:#000000; fill-opacity:1.0000;  stroke:#000000; stroke-width:0.0000; stroke-opacity:1;  stroke-linecap:round; stroke-linejoin:round;">
<path style="fill:#000000; fill-opacity:1.0000;  stroke:#000000; stroke-width:0.0000; stroke-opacity:1;  stroke-linecap:round; stroke-linejoin:round;fill-rule:evenodd;" d="M 32.9250,-2.5750 32.9250,-3.7750 36.9250,-3.7750 36.9250,-2.5750 Z"/> 
</g>
<g style="fill:#000000; fill-opacity:1.0000;  stroke:#000000; stroke-width:0.0000; stroke-opacity:1;  stroke-linecap:round; stroke-linejoin:round;">
<path style="fill:#000000; fill-opacity:1.0000;  stroke:#000000; stroke-width:0.0000; stroke-opacity:1;  stroke-linecap:round; stroke-linejoin:round;fill-rule:evenodd;" d="M 32.9250,-7.4010 32.9250,-8.6010 36.9250,-8.6010 36.9250,-7.4010 Z"/> 
</g>
<g style="fill:#000000; fill-opacity:1.0000;  stroke:#000000; stroke-width:0.0000; stroke-opacity:1;  stroke-linecap:round; stroke-linejoin:round;">
<path style="fill:#000000; fill-opacity:1.0000;  stroke:#000000; stroke-width:0.0000; stroke-opacity:1;  stroke-linecap:round; stroke-linejoin:round;fill-rule:evenodd;" d="M 32.9250,-5.2420 32.9250,-6.4420 36.9250,-6.4420 36.9250,-5.2420 Z"/> 
</g>
<g style="fill:#000000; fill-opacity:1.0000;  stroke:#000000; stroke-width:0.0000; stroke-opacity:1;  stroke-linecap:round; stroke-linejoin:round;">
<path style="fill:#000000; fill-opacity:1.0000;  stroke:#000000; stroke-width:0.0000; stroke-opacity:1;  stroke-linecap:round; stroke-linejoin:round;fill-rule:evenodd;" d="M 32.9250,-0.4160 32.9250,-1.6160 36.9250,-1.6160 36.9250,-0.4160 Z"/> 
</g>
<g style="fill:#000000; fill-opacity:1.0000;  stroke:#000000; stroke-width:0.0000; stroke-opacity:1;  stroke-linecap:round; stroke-linejoin:round;">
<circle cx="5.0800" cy="-4.5720" r="3.0000"/> 
</g>
<g style="fill:#000000; fill-opacity:1.0000;  stroke:#000000; stroke-width:0.0000; stroke-opacity:1;  stroke-linecap:round; stroke-linejoin:round;">
<circle cx="25.4000" cy="-4.5720" r="3.0000"/> 
</g>
</g> 
</mask><mask id="hole-mask"><g><rect x="0.204" y="-9.448" fill="white" width="40.232" height="9.752"/><polyline stroke-linecap="round" stroke="black" stroke-width="0.762" points="-0.0 0 0.0 0" transform="translate(38.735 -5.572) rotate(-270.0)"/><polyline stroke-linecap="round" stroke="black" stroke-width="0.762" points="-0.0 0 0.0 0" transform="translate(38.735 -3.572) rotate(-270.0)"/><polyline stroke-linecap="round" stroke="black" stroke-width="0.762" points="-0.0 0 0.0 0" transform="translate(31.115 -4.699) rotate(-0.0)"/><polyline stroke-linecap="round" stroke="black" stroke-width="0.889" points="-0.0 0 0.0 0" transform="translate(10.287 -2.032) rotate(-90.0)"/><polyline stroke-linecap="round" stroke="black" stroke-width="0.889" points="-0.0 0 0.0 0" transform="translate(10.287 -4.572) rotate(-90.0)"/><polyline stroke-linecap="round" stroke="black" stroke-width="0.889" points="-0.0 0 0.0 0" transform="translate(12.827 -2.032) rotate(-90.0)"/><polyline stroke-linecap="round" stroke="black" stroke-width="0.889" points="-0.0 0 0.0 0" transform="translate(12.827 -4.572) rotate(-90.0)"/><polyline stroke-linecap="round" stroke="black" stroke-width="0.889" points="-0.0 0 0.0 0" transform="translate(15.367 -2.032) rotate(-90.0)"/><polyline stroke-linecap="round" stroke="black" stroke-width="0.889" points="-0.0 0 0.0 0" transform="translate(15.367 -4.572) rotate(-90.0)"/><polyline stroke-linecap="round" stroke="black" stroke-width="0.889" points="-0.0 0 0.0 0" transform="translate(17.907 -2.032) rotate(-90.0)"/><polyline stroke-linecap="round" stroke="black" stroke-width="0.889" points="-0.0 0 0.0 0" transform="translate(17.907 -4.572) rotate(-90.0)"/><polyline stroke-linecap="round" stroke="black" stroke-width="0.889" points="-0.0 0 0.0 0" transform="translate(20.447 -2.032) rotate(-90.0)"/><polyline stroke-linecap="round" stroke="black" stroke-width="0.889" points="-0.0 0 0.0 0" transform="translate(20.447 -4.572) rotate(-90.0)"/><polyline stroke-linecap="round" stroke="black" stroke-width="3.0" points="-0.0 0 0.0 0" transform="translate(5.08 -4.572) rotate(-0.0)"/><polyline stroke-linecap="round" stroke="black" stroke-width="3.0" points="-0.0 0 0.0 0" transform="translate(25.4 -4.572) rotate(-0.0)"/><polyline stroke-linecap="round" stroke="black" stroke-width="0.4" points="-0.0 0 0.0 0" transform="translate(28.552482 -0.530518) rotate(-0.0)"/><polyline stroke-linecap="round" stroke="black" stroke-width="0.4" points="-0.0 0 0.0 0" transform="translate(36.068 -4.445) rotate(-0.0)"/><polyline stroke-linecap="round" stroke="black" stroke-width="0.4" points="-0.0 0 0.0 0" transform="translate(37.465 -6.604) rotate(-0.0)"/><polyline stroke-linecap="round" stroke="black" stroke-width="0.4" points="-0.0 0 0.0 0" transform="translate(37.846 -1.651) rotate(-0.0)"/><polyline stroke-linecap="round" stroke="black" stroke-width="0.4" points="-0.0 0 0.0 0" transform="translate(37.084 -1.651) rotate(-0.0)"/><polyline stroke-linecap="round" stroke="black" stroke-width="0.4" points="-0.0 0 0.0 0" transform="translate(20.447 -6.858) rotate(-0.0)"/><polyline stroke-linecap="round" stroke="black" stroke-width="0.4" points="-0.0 0 0.0 0" transform="translate(34.671 -6.985) rotate(-0.0)"/><polyline stroke-linecap="round" stroke="black" stroke-width="0.4" points="-0.0 0 0.0 0" transform="translate(13.335 -8.382) rotate(-0.0)"/><polyline stroke-linecap="round" stroke="black" stroke-width="0.4" points="-0.0 0 0.0 0" transform="translate(29.972 -5.276002) rotate(-0.0)"/></g></mask></defs><g transform="" id="boardContainer"><g id="substrate" clip-path="url(#cut-off)" mask="url(#hole-mask)"><g id="substrate-board" style="fill:#f1f4f3; stroke:#f1f4f3;"><path d=" M 0.254 0.254 L 40.386 0.254 L 40.386 -9.398 L 0.254 -9.398 L 0.254 0.254 " style="fill-rule: evenodd;"/><g style="fill-opacity: 0.0;stroke-width: 0.1000;stroke-opacity: 1;stroke-linecap: round;stroke-linejoin: round">
<path d="M0.2540 -9.3980 L0.2540 0.2540 "/>
<path d="M40.3860 0.2540 L40.3860 -9.3980 "/>
<path d="M0.2540 0.2540 L40.3860 0.2540 "/>
<path d="M0.2540 -9.3980 L40.3860 -9.3980 "/>
</g> 
</g><g id="substrate-clad" style="fill:#72786c; stroke:#72786c;"><g style="fill-opacity: 0.0;stroke-width: 0.0000;stroke-opacity: 1;stroke-linecap: round;stroke-linejoin: round">
<g style="fill-opacity: 1.0000;stroke-width: 0.0000;stroke-opacity: 1;stroke-linecap: round;stroke-linejoin: round">
<path style="fill-opacity: 1.0000;stroke-width: 0.0000;stroke-opacity: 1;stroke-linecap: round;stroke-linejoin: round;fill-rule: evenodd" d="M 38.2350,-6.0720 39.2350,-6.0720 39.2350,-5.0720 38.2350,-5.0720 Z"/> 
<path style="fill-opacity: 1.0000;stroke-width: 0.0000;stroke-opacity: 1;stroke-linecap: round;stroke-linejoin: round;fill-rule: evenodd" d="M 38.2350,-4.0720 39.2350,-4.0720 39.2350,-3.0720 38.2350,-3.0720 Z"/> 
</g>
<g style="fill-opacity: 1.0000;stroke-width: 0.0000;stroke-opacity: 1;stroke-linecap: round;stroke-linejoin: round">
<path style="fill-opacity: 1.0000;stroke-width: 0.0000;stroke-opacity: 1;stroke-linecap: round;stroke-linejoin: round;fill-rule: evenodd" d="M 30.6150,-4.1990 30.6150,-5.1990 31.6150,-5.1990 31.6150,-4.1990 Z"/> 
</g>
<g style="fill-opacity: 1.0000;stroke-width: 0.0000;stroke-opacity: 1;stroke-linecap: round;stroke-linejoin: round">
<path style="fill-opacity: 1.0000;stroke-width: 0.0000;stroke-opacity: 1;stroke-linecap: round;stroke-linejoin: round;fill-rule: evenodd" d="M 11.0490,-1.2700 9.5250,-1.2700 9.5250,-2.7940 11.0490,-2.7940 Z"/> 
<path style="fill-opacity: 1.0000;stroke-width: 0.0000;stroke-opacity: 1;stroke-linecap: round;stroke-linejoin: round;fill-rule: evenodd" d="M 11.0490,-3.8100 9.5250,-3.8100 9.5250,-5.3340 11.0490,-5.3340 Z"/> 
<path style="fill-opacity: 1.0000;stroke-width: 0.0000;stroke-opacity: 1;stroke-linecap: round;stroke-linejoin: round;fill-rule: evenodd" d="M 13.5890,-1.2700 12.0650,-1.2700 12.0650,-2.7940 13.5890,-2.7940 Z"/> 
<path style="fill-opacity: 1.0000;stroke-width: 0.0000;stroke-opacity: 1;stroke-linecap: round;stroke-linejoin: round;fill-rule: evenodd" d="M 13.5890,-3.8100 12.0650,-3.8100 12.0650,-5.3340 13.5890,-5.3340 Z"/> 
<path style="fill-opacity: 1.0000;stroke-width: 0.0000;stroke-opacity: 1;stroke-linecap: round;stroke-linejoin: round;fill-rule: evenodd" d="M 16.1290,-1.2700 14.6050,-1.2700 14.6050,-2.7940 16.1290,-2.7940 Z"/> 
<path style="fill-opacity: 1.0000;stroke-width: 0.0000;stroke-opacity: 1;stroke-linecap: round;stroke-linejoin: round;fill-rule: evenodd" d="M 16.1290,-3.8100 14.6050,-3.8100 14.6050,-5.3340 16.1290,-5.3340 Z"/> 
<path style="fill-opacity: 1.0000;stroke-width: 0.0000;stroke-opacity: 1;stroke-linecap: round;stroke-linejoin: round;fill-rule: evenodd" d="M 18.6690,-1.2700 17.1450,-1.2700 17.1450,-2.7940 18.6690,-2.7940 Z"/> 
<path style="fill-opacity: 1.0000;stroke-width: 0.0000;stroke-opacity: 1;stroke-linecap: round;stroke-linejoin: round;fill-rule: evenodd" d="M 18.6690,-3.8100 17.1450,-3.8100 17.1450,-5.3340 18.6690,-5.3340 Z"/> 
<path style="fill-opacity: 1.0000;stroke-width: 0.0000;stroke-opacity: 1;stroke-linecap: round;stroke-linejoin: round;fill-rule: evenodd" d="M 21.2090,-1.2700 19.6850,-1.2700 19.6850,-2.7940 21.2090,-2.7940 Z"/> 
<path style="fill-opacity: 1.0000;stroke-width: 0.0000;stroke-opacity: 1;stroke-linecap: round;stroke-linejoin: round;fill-rule: evenodd" d="M 21.2090,-3.8100 19.6850,-3.8100 19.6850,-5.3340 21.2090,-5.3340 Z"/> 
</g>
<g style="fill-opacity: 1.0000;stroke-width: 0.0000;stroke-opacity: 1;stroke-linecap: round;stroke-linejoin: round">
<path style="fill-opacity: 1.0000;stroke-width: 0.0000;stroke-opacity: 1;stroke-linecap: round;stroke-linejoin: round;fill-rule: evenodd" d="M 32.9250,-2.5750 32.9250,-3.7750 36.9250,-3.7750 36.9250,-2.5750 Z"/> 
</g>
<g style="fill-opacity: 1.0000;stroke-width: 0.0000;stroke-opacity: 1;stroke-linecap: round;stroke-linejoin: round">
<path style="fill-opacity: 1.0000;stroke-width: 0.0000;stroke-opacity: 1;stroke-linecap: round;stroke-linejoin: round;fill-rule: evenodd" d="M 32.9250,-7.4010 32.9250,-8.6010 36.9250,-8.6010 36.9250,-7.4010 Z"/> 
</g>
<g style="fill-opacity: 1.0000;stroke-width: 0.0000;stroke-opacity: 1;stroke-linecap: round;stroke-linejoin: round">
<path style="fill-opacity: 1.0000;stroke-width: 0.0000;stroke-opacity: 1;stroke-linecap: round;stroke-linejoin: round;fill-rule: evenodd" d="M 32.9250,-5.2420 32.9250,-6.4420 36.9250,-6.4420 36.9250,-5.2420 Z"/> 
</g>
<g style="fill-opacity: 1.0000;stroke-width: 0.0000;stroke-opacity: 1;stroke-linecap: round;stroke-linejoin: round">
<path style="fill-opacity: 1.0000;stroke-width: 0.0000;stroke-opacity: 1;stroke-linecap: round;stroke-linejoin: round;fill-rule: evenodd" d="M 32.9250,-0.4160 32.9250,-1.6160 36.9250,-1.6160 36.9250,-0.4160 Z"/> 
</g>
<g style="fill-opacity: 1.0000;stroke-width: 0.0000;stroke-opacity: 1;stroke-linecap: round;stroke-linejoin: round">
<circle cx="5.0800" cy="-4.5720" r="3.0000"/> 
</g>
<g style="fill-opacity: 1.0000;stroke-width: 0.0000;stroke-opacity: 1;stroke-linecap: round;stroke-linejoin: round">
<circle cx="25.4000" cy="-4.5720" r="3.0000"/> 
</g>
</g> 
</g><g id="substrate-copper" style="fill:#f8f8f7; stroke:#f8f8f7;"><g style="fill-opacity: 0.0;stroke-width: 0.0000;stroke-opacity: 1;stroke-linecap: round;stroke-linejoin: round">
<g style="fill-opacity: 1.0000;stroke-width: 0.0000;stroke-opacity: 1;stroke-linecap: round;stroke-linejoin: round">
<path style="fill-opacity: 1.0000;stroke-width: 0.0000;stroke-opacity: 1;stroke-linecap: round;stroke-linejoin: round;fill-rule: evenodd" d="M 38.2350,-6.0720 39.2350,-6.0720 39.2350,-5.0720 38.2350,-5.0720 Z"/> 
<path style="fill-opacity: 1.0000;stroke-width: 0.0000;stroke-opacity: 1;stroke-linecap: round;stroke-linejoin: round;fill-rule: evenodd" d="M 38.2350,-4.0720 39.2350,-4.0720 39.2350,-3.0720 38.2350,-3.0720 Z"/> 
</g>
<g style="fill-opacity: 1.0000;stroke-width: 0.0000;stroke-opacity: 1;stroke-linecap: round;stroke-linejoin: round">
<path style="fill-opacity: 1.0000;stroke-width: 0.0000;stroke-opacity: 1;stroke-linecap: round;stroke-linejoin: round;fill-rule: evenodd" d="M 30.6150,-4.1990 30.6150,-5.1990 31.6150,-5.1990 31.6150,-4.1990 Z"/> 
</g>
<g style="fill-opacity: 1.0000;stroke-width: 0.0000;stroke-opacity: 1;stroke-linecap: round;stroke-linejoin: round">
<path style="fill-opacity: 1.0000;stroke-width: 0.0000;stroke-opacity: 1;stroke-linecap: round;stroke-linejoin: round;fill-rule: evenodd" d="M 11.0490,-1.2700 9.5250,-1.2700 9.5250,-2.7940 11.0490,-2.7940 Z"/> 
<path style="fill-opacity: 1.0000;stroke-width: 0.0000;stroke-opacity: 1;stroke-linecap: round;stroke-linejoin: round;fill-rule: evenodd" d="M 11.0490,-3.8100 9.5250,-3.8100 9.5250,-5.3340 11.0490,-5.3340 Z"/> 
<path style="fill-opacity: 1.0000;stroke-width: 0.0000;stroke-opacity: 1;stroke-linecap: round;stroke-linejoin: round;fill-rule: evenodd" d="M 13.5890,-1.2700 12.0650,-1.2700 12.0650,-2.7940 13.5890,-2.7940 Z"/> 
<path style="fill-opacity: 1.0000;stroke-width: 0.0000;stroke-opacity: 1;stroke-linecap: round;stroke-linejoin: round;fill-rule: evenodd" d="M 13.5890,-3.8100 12.0650,-3.8100 12.0650,-5.3340 13.5890,-5.3340 Z"/> 
<path style="fill-opacity: 1.0000;stroke-width: 0.0000;stroke-opacity: 1;stroke-linecap: round;stroke-linejoin: round;fill-rule: evenodd" d="M 16.1290,-1.2700 14.6050,-1.2700 14.6050,-2.7940 16.1290,-2.7940 Z"/> 
<path style="fill-opacity: 1.0000;stroke-width: 0.0000;stroke-opacity: 1;stroke-linecap: round;stroke-linejoin: round;fill-rule: evenodd" d="M 16.1290,-3.8100 14.6050,-3.8100 14.6050,-5.3340 16.1290,-5.3340 Z"/> 
<path style="fill-opacity: 1.0000;stroke-width: 0.0000;stroke-opacity: 1;stroke-linecap: round;stroke-linejoin: round;fill-rule: evenodd" d="M 18.6690,-1.2700 17.1450,-1.2700 17.1450,-2.7940 18.6690,-2.7940 Z"/> 
<path style="fill-opacity: 1.0000;stroke-width: 0.0000;stroke-opacity: 1;stroke-linecap: round;stroke-linejoin: round;fill-rule: evenodd" d="M 18.6690,-3.8100 17.1450,-3.8100 17.1450,-5.3340 18.6690,-5.3340 Z"/> 
<path style="fill-opacity: 1.0000;stroke-width: 0.0000;stroke-opacity: 1;stroke-linecap: round;stroke-linejoin: round;fill-rule: evenodd" d="M 21.2090,-1.2700 19.6850,-1.2700 19.6850,-2.7940 21.2090,-2.7940 Z"/> 
<path style="fill-opacity: 1.0000;stroke-width: 0.0000;stroke-opacity: 1;stroke-linecap: round;stroke-linejoin: round;fill-rule: evenodd" d="M 21.2090,-3.8100 19.6850,-3.8100 19.6850,-5.3340 21.2090,-5.3340 Z"/> 
</g>
<g style="fill-opacity: 1.0000;stroke-width: 0.0000;stroke-opacity: 1;stroke-linecap: round;stroke-linejoin: round">
<path style="fill-opacity: 1.0000;stroke-width: 0.0000;stroke-opacity: 1;stroke-linecap: round;stroke-linejoin: round;fill-rule: evenodd" d="M 32.9250,-2.5750 32.9250,-3.7750 36.9250,-3.7750 36.9250,-2.5750 Z"/> 
</g>
<g style="fill-opacity: 1.0000;stroke-width: 0.0000;stroke-opacity: 1;stroke-linecap: round;stroke-linejoin: round">
<path style="fill-opacity: 1.0000;stroke-width: 0.0000;stroke-opacity: 1;stroke-linecap: round;stroke-linejoin: round;fill-rule: evenodd" d="M 32.9250,-7.4010 32.9250,-8.6010 36.9250,-8.6010 36.9250,-7.4010 Z"/> 
</g>
<g style="fill-opacity: 1.0000;stroke-width: 0.0000;stroke-opacity: 1;stroke-linecap: round;stroke-linejoin: round">
<path style="fill-opacity: 1.0000;stroke-width: 0.0000;stroke-opacity: 1;stroke-linecap: round;stroke-linejoin: round;fill-rule: evenodd" d="M 32.9250,-5.2420 32.9250,-6.4420 36.9250,-6.4420 36.9250,-5.2420 Z"/> 
</g>
<g style="fill-opacity: 1.0000;stroke-width: 0.0000;stroke-opacity: 1;stroke-linecap: round;stroke-linejoin: round">
<path style="fill-opacity: 1.0000;stroke-width: 0.0000;stroke-opacity: 1;stroke-linecap: round;stroke-linejoin: round;fill-rule: evenodd" d="M 32.9250,-0.4160 32.9250,-1.6160 36.9250,-1.6160 36.9250,-0.4160 Z"/> 
</g>
<g style="fill-opacity: 1.0000;stroke-width: 0.0000;stroke-opacity: 1;stroke-linecap: round;stroke-linejoin: round">
<circle cx="5.0800" cy="-4.5720" r="3.0000"/> 
</g>
<g style="fill-opacity: 1.0000;stroke-width: 0.0000;stroke-opacity: 1;stroke-linecap: round;stroke-linejoin: round">
<circle cx="25.4000" cy="-4.5720" r="3.0000"/> 
</g>
<g style="fill-opacity: 1.0000;stroke-width: 0.0000;stroke-opacity: 1;stroke-linecap: round;stroke-linejoin: round">
<circle cx="28.5525" cy="-0.5305" r="0.3000"/> 
</g>
<g style="fill-opacity: 1.0000;stroke-width: 0.0000;stroke-opacity: 1;stroke-linecap: round;stroke-linejoin: round">
<circle cx="36.0680" cy="-4.4450" r="0.3000"/> 
</g>
<g style="fill-opacity: 1.0000;stroke-width: 0.0000;stroke-opacity: 1;stroke-linecap: round;stroke-linejoin: round">
<circle cx="37.4650" cy="-6.6040" r="0.3000"/> 
</g>
<g style="fill-opacity: 1.0000;stroke-width: 0.0000;stroke-opacity: 1;stroke-linecap: round;stroke-linejoin: round">
<circle cx="37.8460" cy="-1.6510" r="0.3000"/> 
</g>
<g style="fill-opacity: 1.0000;stroke-width: 0.0000;stroke-opacity: 1;stroke-linecap: round;stroke-linejoin: round">
<circle cx="37.0840" cy="-1.6510" r="0.3000"/> 
</g>
<g style="fill-opacity: 1.0000;stroke-width: 0.0000;stroke-opacity: 1;stroke-linecap: round;stroke-linejoin: round">
<circle cx="20.4470" cy="-6.8580" r="0.3000"/> 
</g>
<g style="fill-opacity: 1.0000;stroke-width: 0.0000;stroke-opacity: 1;stroke-linecap: round;stroke-linejoin: round">
<circle cx="34.6710" cy="-6.9850" r="0.3000"/> 
</g>
<g style="fill-opacity: 1.0000;stroke-width: 0.0000;stroke-opacity: 1;stroke-linecap: round;stroke-linejoin: round">
<circle cx="13.3350" cy="-8.3820" r="0.3000"/> 
</g>
<g style="fill-opacity: 1.0000;stroke-width: 0.0000;stroke-opacity: 1;stroke-linecap: round;stroke-linejoin: round">
<circle cx="29.9720" cy="-5.2760" r="0.3000"/> 
</g>
<g style="fill-opacity: 0.0;stroke-width: 0.4000;stroke-opacity: 1;stroke-linecap: round;stroke-linejoin: round">
<path d="M34.9250 -3.1750 L33.7820 -3.1750 "/>
<path d="M33.5250 -3.1750 L34.9250 -3.1750 "/>
<path d="M15.3670 -2.0320 L15.3670 -0.8700 "/>
<path d="M28.5750 -0.5080 L28.5525 -0.5305 "/>
<path d="M29.0573 -0.5080 L28.5750 -0.5080 "/>
<path d="M34.9250 -3.1750 L36.3250 -3.1750 "/>
<path d="M15.3670 -0.8700 L15.7290 -0.5080 "/>
<path d="M15.7290 -0.5080 L29.0573 -0.5080 "/>
<path d="M29.0573 -0.5080 L30.8580 -0.5080 "/>
<path d="M30.8580 -0.5080 L33.5250 -3.1750 "/>
<path d="M34.9250 -1.0160 L37.0840 -1.6510 "/>
<path d="M20.4470 -4.5720 L20.4470 -6.8580 "/>
<path d="M13.7250 -8.7720 L13.3350 -8.3820 "/>
<path d="M34.9250 -8.0010 L28.1870 -8.0010 "/>
<path d="M28.1870 -8.0010 L27.4160 -8.7720 "/>
<path d="M27.4160 -8.7720 L16.2842 -8.7720 "/>
<path d="M36.1395 -8.0010 L34.9250 -8.0010 "/>
<path d="M34.6710 -6.9850 L34.6710 -7.7470 "/>
<path d="M16.2842 -8.7720 L13.7250 -8.7720 "/>
<path d="M34.6710 -7.7470 L34.9250 -8.0010 "/>
<path d="M34.9250 -5.8420 L30.5380 -5.8420 "/>
<path d="M34.7980 -5.7150 L34.9250 -5.8420 "/>
<path d="M30.5380 -5.8420 L29.9720 -5.2760 "/>
</g>
<g style="fill-opacity: 0.0;stroke-width: 0.4000;stroke-opacity: 1;stroke-linecap: round;stroke-linejoin: round">
<g style="fill-opacity: 1.0000;stroke-width: 0.0000;stroke-opacity: 1;stroke-linecap: round;stroke-linejoin: round">
<path style="fill-opacity: 1.0000;stroke-width: 0.0000;stroke-opacity: 1;stroke-linecap: round;stroke-linejoin: round;fill-rule: evenodd" d="M 12.9827,-9.3275 13.0292,-9.2738 13.0393,-9.2036 13.0098,-9.1390 12.9816,-9.1148 12.8277,-9.0181 12.8277,-9.0181 12.6989,-8.8893 12.6989,-8.8893 12.6020,-8.7350 12.6020,-8.7350 12.5418,-8.5630 12.5214,-8.3820 12.5418,-8.2010 12.5418,-8.2009 12.5418,-8.2009 12.6020,-8.0290 12.6020,-8.0290 12.6989,-7.8747 12.6989,-7.8747 12.8277,-7.7459 12.8277,-7.7459 12.9820,-7.6490 12.9820,-7.6490 13.1539,-7.5888 13.1540,-7.5888 13.1540,-7.5888 13.3042,-7.5719 13.3350,-7.5684 13.3350,-7.5684 13.5160,-7.5888 13.6880,-7.6490 13.6880,-7.6490 13.8423,-7.7459 13.8423,-7.7459 13.9711,-7.8747 13.9711,-7.8747 14.0527,-8.0045 14.1059,-8.0516 14.1594,-8.0635 16.2413,-8.0635 27.0703,-8.0635 27.1385,-8.0435 27.1594,-8.0266 27.6695,-7.5165 27.6721,-7.5137 27.7137,-7.4668 27.7653,-7.4312 27.7684,-7.4289 27.8178,-7.3902 27.8178,-7.3902 27.8271,-7.3860 27.8469,-7.3748 27.8553,-7.3690 27.9140,-7.3468 27.9175,-7.3454 27.9747,-7.3196 27.9747,-7.3196 27.9747,-7.3196 27.9747,-7.3196 27.9747,-7.3196 27.9847,-7.3178 28.0067,-7.3117 28.0162,-7.3080 28.0784,-7.3005 28.0822,-7.2999 28.1439,-7.2886 28.1439,-7.2886 28.2065,-7.2924 28.2103,-7.2925 32.3353,-7.2925 32.4034,-7.2725 32.4499,-7.2188 32.4533,-7.2106 32.4741,-7.1548 32.4741,-7.1548 32.5617,-7.0377 32.5823,-7.0224 32.6248,-6.9655 32.6299,-6.8947 32.5959,-6.8324 32.5823,-6.8206 32.5617,-6.8053 32.4741,-6.6882 32.4741,-6.6882 32.4741,-6.6882 32.4533,-6.6325 32.4108,-6.5756 32.3443,-6.5508 32.3353,-6.5505 30.5613,-6.5505 30.5575,-6.5506 30.4949,-6.5544 30.4332,-6.5431 30.4295,-6.5425 30.3672,-6.5350 30.3672,-6.5350 30.3577,-6.5314 30.3357,-6.5252 30.3257,-6.5234 30.2700,-6.4983 30.2685,-6.4976 30.2650,-6.4962 30.2325,-6.4839 30.2063,-6.4740 30.2063,-6.4740 30.2063,-6.4740 30.2063,-6.4740 30.2063,-6.4740 30.1979,-6.4682 30.1781,-6.4570 30.1688,-6.4528 30.1464,-6.4353 30.1194,-6.4141 30.1163,-6.4118 30.0647,-6.3762 30.0647,-6.3762 30.0231,-6.3293 30.0205,-6.3265 29.8752,-6.1812 29.7687,-6.0746 29.7212,-6.0448 29.6190,-6.0090 29.6190,-6.0090 29.4647,-5.9121 29.4647,-5.9121 29.3359,-5.7833 29.3359,-5.7833 29.2390,-5.6290 29.2390,-5.6290 29.1788,-5.4570 29.1584,-5.2760 29.1788,-5.0950 29.1788,-5.0950 29.1788,-5.0950 29.2390,-4.9230 29.2390,-4.9230 29.3359,-4.7687 29.3359,-4.7687 29.4647,-4.6399 29.4647,-4.6399 29.6190,-4.5430 29.6190,-4.5430 29.7909,-4.4828 29.7909,-4.4828 29.7910,-4.4828 29.9720,-4.4624 29.9720,-4.4624 29.9720,-4.4624 29.9791,-4.4624 29.9791,-4.4595 30.0363,-4.4495 30.0885,-4.4014 30.1065,-4.3365 30.1065,-4.1504 30.1065,-4.1503 30.1130,-4.0898 30.1130,-4.0898 30.1641,-3.9528 30.1641,-3.9528 30.2517,-3.8357 30.3688,-3.7481 30.3688,-3.7481 30.5058,-3.6970 30.5058,-3.6970 30.5663,-3.6905 30.5664,-3.6905 31.6636,-3.6905 31.7242,-3.6970 31.7242,-3.6970 31.8612,-3.7481 31.8612,-3.7481 31.9783,-3.8357 32.0659,-3.9528 32.0659,-3.9528 32.1170,-4.0898 32.1170,-4.0898 32.1235,-4.1503 32.1235,-4.1504 32.1235,-5.0075 32.1435,-5.0756 32.1972,-5.1221 32.2495,-5.1335 32.3353,-5.1335 32.4034,-5.1135 32.4499,-5.0598 32.4533,-5.0516 32.4638,-5.0233 32.4741,-4.9958 32.5617,-4.8787 32.6788,-4.7911 32.6788,-4.7911 32.8158,-4.7400 32.8158,-4.7400 32.8763,-4.7335 32.8764,-4.7335 36.9736,-4.7335 37.0342,-4.7400 37.0342,-4.7400 37.1712,-4.7911 37.1712,-4.7911 37.2883,-4.8787 37.3759,-4.9958 37.3759,-4.9958 37.3862,-5.0234 37.3998,-5.0598 37.4270,-5.1328 37.4270,-5.1328 37.4335,-5.1933 37.4335,-5.1934 37.4335,-6.4906 37.4335,-6.4906 37.4270,-6.5512 37.4270,-6.5512 37.3967,-6.6325 37.3759,-6.6882 37.2883,-6.8053 37.2677,-6.8206 37.2252,-6.8775 37.2201,-6.9483 37.2541,-7.0106 37.2677,-7.0224 37.2883,-7.0377 37.3759,-7.1548 37.3759,-7.1548 37.4270,-7.2918 37.4270,-7.2918 37.4335,-7.3523 37.4335,-7.3524 37.4335,-8.6496 37.4335,-8.6496 37.4270,-8.7102 37.4270,-8.7102 37.3967,-8.7915 37.3759,-8.8472 37.3444,-8.8893 37.2883,-8.9643 37.1712,-9.0519 37.1712,-9.0519 37.1712,-9.0519 37.0938,-9.0808 37.0330,-9.1034 36.9761,-9.1460 36.9513,-9.2125 36.9664,-9.2819 37.0166,-9.3321 37.0770,-9.3475 40.2095,-9.3475 40.2776,-9.3275 40.3241,-9.2738 40.3355,-9.2215 40.3355,0.0775 40.3155,0.1456 40.2618,0.1921 40.2095,0.2035 31.4542,0.2035 31.3861,0.1835 31.3396,0.1298 31.3295,0.0596 31.3589,-0.0050 31.3599,-0.0060 31.3646,-0.0113 31.3729,-0.0208 31.3754,-0.0235 33.3816,-2.0296 33.4439,-2.0636 33.4707,-2.0665 36.9736,-2.0665 37.0342,-2.0730 37.0342,-2.0730 37.1712,-2.1241 37.1712,-2.1241 37.2883,-2.2117 37.3759,-2.3288 37.3759,-2.3288 37.4270,-2.4658 37.4270,-2.4658 37.4335,-2.5263 37.4335,-2.5264 37.4335,-3.0233 37.7265,-3.0233 37.7330,-2.9628 37.7330,-2.9628 37.7841,-2.8258 37.7841,-2.8258 37.8717,-2.7087 37.9888,-2.6211 37.9888,-2.6211 38.1258,-2.5700 38.1258,-2.5700 38.1863,-2.5635 38.1864,-2.5635 39.2836,-2.5635 39.3442,-2.5700 39.3442,-2.5700 39.4812,-2.6211 39.4812,-2.6211 39.5983,-2.7087 39.6859,-2.8258 39.6859,-2.8258 39.6922,-2.8426 39.7370,-2.9628 39.7370,-2.9628 39.7435,-3.0233 39.7435,-3.0234 39.7435,-4.1206 39.7435,-4.1206 39.7370,-4.1812 39.7370,-4.1812 39.7203,-4.2259 39.6859,-4.3182 39.5983,-4.4353 39.5503,-4.4711 39.5078,-4.5280 39.5027,-4.5988 39.5368,-4.6611 39.5503,-4.6729 39.5983,-4.7087 39.6859,-4.8258 39.6859,-4.8258 39.7370,-4.9628 39.7370,-4.9628 39.7435,-5.0233 39.7435,-5.0234 39.7435,-6.1206 39.7435,-6.1206 39.7370,-6.1812 39.7370,-6.1812 39.7300,-6.2000 39.6859,-6.3182 39.6425,-6.3762 39.5983,-6.4353 39.4812,-6.5229 39.4812,-6.5229 39.4812,-6.5229 39.3442,-6.5740 39.3442,-6.5740 39.3442,-6.5740 39.2836,-6.5805 39.2836,-6.5805 39.2836,-6.5805 38.1864,-6.5805 38.1864,-6.5805 38.1863,-6.5805 38.1258,-6.5740 38.1258,-6.5740 38.0628,-6.5505 37.9888,-6.5229 37.9888,-6.5229 37.9888,-6.5229 37.8717,-6.4353 37.7841,-6.3182 37.7841,-6.3182 37.7330,-6.1812 37.7330,-6.1812 37.7265,-6.1206 37.7265,-5.0233 37.7330,-4.9628 37.7330,-4.9628 37.7841,-4.8258 37.7841,-4.8258 37.8717,-4.7087 37.9197,-4.6729 37.9622,-4.6160 37.9673,-4.5452 37.9332,-4.4829 37.9197,-4.4711 37.8717,-4.4353 37.8717,-4.4353 37.8717,-4.4353 37.7841,-4.3182 37.7841,-4.3182 37.7330,-4.1812 37.7330,-4.1812 37.7265,-4.1206 37.7265,-3.0233 37.4335,-3.0233 37.4335,-3.8236 37.4335,-3.8236 37.4270,-3.8842 37.4270,-3.8842 37.4200,-3.9030 37.3759,-4.0212 37.2883,-4.1383 37.1712,-4.2259 37.0342,-4.2770 37.0342,-4.2770 37.0342,-4.2770 36.9736,-4.2835 36.9736,-4.2835 36.9736,-4.2835 32.8764,-4.2835 32.8764,-4.2835 32.8763,-4.2835 32.8158,-4.2770 32.8158,-4.2770 32.7379,-4.2479 32.6788,-4.2259 32.6788,-4.2259 32.6788,-4.2259 32.5617,-4.1383 32.4741,-4.0212 32.4741,-4.0212 32.4230,-3.8842 32.4230,-3.8842 32.4165,-3.8236 32.4165,-3.8236 32.4165,-3.1207 32.3965,-3.0525 32.3796,-3.0316 30.6014,-1.2534 30.5391,-1.2194 30.5123,-1.2165 29.0167,-1.2165 28.9497,-1.2358 28.9055,-1.2636 28.7335,-1.3237 28.5525,-1.3441 28.3714,-1.3237 28.1995,-1.2636 28.1553,-1.2358 28.0883,-1.2165 19.3035,-1.2165 19.2354,-1.2365 19.1889,-1.2902 19.1775,-1.3425 19.1775,-2.8426 19.1775,-2.8426 19.1710,-2.9032 19.1710,-2.9032 19.1262,-3.0233 19.1199,-3.0402 19.0323,-3.1573 18.9737,-3.2011 18.9311,-3.2580 18.9260,-3.3288 18.9601,-3.3911 18.9737,-3.4029 19.0323,-3.4467 19.1199,-3.5638 19.1199,-3.5638 19.1710,-3.7008 19.1710,-3.7008 19.1775,-3.7613 19.1775,-3.7614 19.1775,-5.3826 19.1775,-5.3826 19.1710,-5.4432 19.1710,-5.4432 19.1640,-5.4620 19.1199,-5.5802 19.0323,-5.6973 18.9174,-5.7833 18.9152,-5.7849 18.9152,-5.7849 18.9152,-5.7849 18.7782,-5.8360 18.7782,-5.8360 18.7782,-5.8360 18.7176,-5.8425 18.7176,-5.8425 18.7176,-5.8425 17.0964,-5.8425 17.0964,-5.8425 17.0963,-5.8425 17.0358,-5.8360 17.0358,-5.8360 16.9579,-5.8069 16.8988,-5.7849 16.8988,-5.7849 16.8988,-5.7849 16.7817,-5.6973 16.7379,-5.6387 16.6810,-5.5961 16.6102,-5.5910 16.5479,-5.6251 16.5361,-5.6387 16.4923,-5.6973 16.3752,-5.7849 16.3752,-5.7849 16.3752,-5.7849 16.2382,-5.8360 16.2382,-5.8360 16.2382,-5.8360 16.1776,-5.8425 16.1776,-5.8425 16.1776,-5.8425 14.5564,-5.8425 14.5564,-5.8425 14.5564,-5.8425 14.4958,-5.8360 14.4958,-5.8360 14.4179,-5.8069 14.3588,-5.7849 14.3588,-5.7849 14.3588,-5.7849 14.2417,-5.6973 14.1979,-5.6387 14.1410,-5.5961 14.0702,-5.5910 14.0079,-5.6251 13.9961,-5.6387 13.9523,-5.6973 13.8352,-5.7849 13.8352,-5.7849 13.8352,-5.7849 13.6982,-5.8360 13.6982,-5.8360 13.6982,-5.8360 13.6376,-5.8425 13.6376,-5.8425 13.6376,-5.8425 12.0164,-5.8425 12.0164,-5.8425 12.0163,-5.8425 11.9558,-5.8360 11.9558,-5.8360 11.8779,-5.8069 11.8188,-5.7849 11.8188,-5.7849 11.8188,-5.7849 11.7017,-5.6973 11.6141,-5.5802 11.6141,-5.5802 11.5630,-5.4432 11.5630,-5.4432 11.5565,-5.3826 11.5565,-3.7613 11.5630,-3.7008 11.5630,-3.7008 11.6141,-3.5638 11.6141,-3.5638 11.7017,-3.4467 11.7603,-3.4029 11.8029,-3.3460 11.8080,-3.2752 11.7739,-3.2129 11.7603,-3.2011 11.7017,-3.1573 11.6141,-3.0402 11.6141,-3.0402 11.5630,-2.9032 11.5630,-2.9032 11.5565,-2.8426 11.5565,-1.2213 11.5630,-1.1608 11.5630,-1.1608 11.6141,-1.0238 11.6141,-1.0238 11.7017,-0.9067 11.8188,-0.8191 11.8188,-0.8191 11.9558,-0.7680 11.9558,-0.7680 12.0163,-0.7615 12.0164,-0.7615 13.6376,-0.7615 13.6982,-0.7680 13.6982,-0.7680 13.8352,-0.8191 13.8352,-0.8191 13.9523,-0.9067 13.9961,-0.9653 14.0530,-1.0079 14.1238,-1.0130 14.1861,-0.9789 14.1979,-0.9653 14.2417,-0.9067 14.3588,-0.8191 14.3588,-0.8191 14.4958,-0.7680 14.4958,-0.7680 14.5564,-0.7615 14.5564,-0.7615 14.5616,-0.7615 14.6297,-0.7415 14.6762,-0.6878 14.6855,-0.6582 14.6856,-0.6577 14.6856,-0.6577 14.7114,-0.6005 14.7128,-0.5970 14.7350,-0.5383 14.7408,-0.5299 14.7520,-0.5101 14.7562,-0.5008 14.7562,-0.5008 14.7949,-0.4514 14.7972,-0.4483 14.8328,-0.3967 14.8797,-0.3551 14.8825,-0.3525 15.2115,-0.0235 15.2141,-0.0207 15.2141,-0.0207 15.2271,-0.0061 15.2573,0.0582 15.2480,0.1286 15.2021,0.1827 15.1342,0.2035 15.1328,0.2035 0.4305,0.2035 0.3624,0.1835 0.3159,0.1298 0.3045,0.0775 0.3045,-9.2215 0.3245,-9.2896 0.3782,-9.3361 0.4305,-9.3475 12.9146,-9.3475 Z"/> 
</g>
</g>
</g> 
</g><g id="substrate-pads" style="fill:#c4c1ba; stroke:#c4c1ba;" mask="url(#pads-mask)"><g style="fill-opacity: 0.0;stroke-width: 0.0000;stroke-opacity: 1;stroke-linecap: round;stroke-linejoin: round">
<g style="fill-opacity: 1.0000;stroke-width: 0.0000;stroke-opacity: 1;stroke-linecap: round;stroke-linejoin: round">
<path style="fill-opacity: 1.0000;stroke-width: 0.0000;stroke-opacity: 1;stroke-linecap: round;stroke-linejoin: round;fill-rule: evenodd" d="M 38.2350,-6.0720 39.2350,-6.0720 39.2350,-5.0720 38.2350,-5.0720 Z"/> 
<path style="fill-opacity: 1.0000;stroke-width: 0.0000;stroke-opacity: 1;stroke-linecap: round;stroke-linejoin: round;fill-rule: evenodd" d="M 38.2350,-4.0720 39.2350,-4.0720 39.2350,-3.0720 38.2350,-3.0720 Z"/> 
</g>
<g style="fill-opacity: 1.0000;stroke-width: 0.0000;stroke-opacity: 1;stroke-linecap: round;stroke-linejoin: round">
<path style="fill-opacity: 1.0000;stroke-width: 0.0000;stroke-opacity: 1;stroke-linecap: round;stroke-linejoin: round;fill-rule: evenodd" d="M 30.6150,-4.1990 30.6150,-5.1990 31.6150,-5.1990 31.6150,-4.1990 Z"/> 
</g>
<g style="fill-opacity: 1.0000;stroke-width: 0.0000;stroke-opacity: 1;stroke-linecap: round;stroke-linejoin: round">
<path style="fill-opacity: 1.0000;stroke-width: 0.0000;stroke-opacity: 1;stroke-linecap: round;stroke-linejoin: round;fill-rule: evenodd" d="M 11.0490,-1.2700 9.5250,-1.2700 9.5250,-2.7940 11.0490,-2.7940 Z"/> 
<path style="fill-opacity: 1.0000;stroke-width: 0.0000;stroke-opacity: 1;stroke-linecap: round;stroke-linejoin: round;fill-rule: evenodd" d="M 11.0490,-3.8100 9.5250,-3.8100 9.5250,-5.3340 11.0490,-5.3340 Z"/> 
<path style="fill-opacity: 1.0000;stroke-width: 0.0000;stroke-opacity: 1;stroke-linecap: round;stroke-linejoin: round;fill-rule: evenodd" d="M 13.5890,-1.2700 12.0650,-1.2700 12.0650,-2.7940 13.5890,-2.7940 Z"/> 
<path style="fill-opacity: 1.0000;stroke-width: 0.0000;stroke-opacity: 1;stroke-linecap: round;stroke-linejoin: round;fill-rule: evenodd" d="M 13.5890,-3.8100 12.0650,-3.8100 12.0650,-5.3340 13.5890,-5.3340 Z"/> 
<path style="fill-opacity: 1.0000;stroke-width: 0.0000;stroke-opacity: 1;stroke-linecap: round;stroke-linejoin: round;fill-rule: evenodd" d="M 16.1290,-1.2700 14.6050,-1.2700 14.6050,-2.7940 16.1290,-2.7940 Z"/> 
<path style="fill-opacity: 1.0000;stroke-width: 0.0000;stroke-opacity: 1;stroke-linecap: round;stroke-linejoin: round;fill-rule: evenodd" d="M 16.1290,-3.8100 14.6050,-3.8100 14.6050,-5.3340 16.1290,-5.3340 Z"/> 
<path style="fill-opacity: 1.0000;stroke-width: 0.0000;stroke-opacity: 1;stroke-linecap: round;stroke-linejoin: round;fill-rule: evenodd" d="M 18.6690,-1.2700 17.1450,-1.2700 17.1450,-2.7940 18.6690,-2.7940 Z"/> 
<path style="fill-opacity: 1.0000;stroke-width: 0.0000;stroke-opacity: 1;stroke-linecap: round;stroke-linejoin: round;fill-rule: evenodd" d="M 18.6690,-3.8100 17.1450,-3.8100 17.1450,-5.3340 18.6690,-5.3340 Z"/> 
<path style="fill-opacity: 1.0000;stroke-width: 0.0000;stroke-opacity: 1;stroke-linecap: round;stroke-linejoin: round;fill-rule: evenodd" d="M 21.2090,-1.2700 19.6850,-1.2700 19.6850,-2.7940 21.2090,-2.7940 Z"/> 
<path style="fill-opacity: 1.0000;stroke-width: 0.0000;stroke-opacity: 1;stroke-linecap: round;stroke-linejoin: round;fill-rule: evenodd" d="M 21.2090,-3.8100 19.6850,-3.8100 19.6850,-5.3340 21.2090,-5.3340 Z"/> 
</g>
<g style="fill-opacity: 1.0000;stroke-width: 0.0000;stroke-opacity: 1;stroke-linecap: round;stroke-linejoin: round">
<path style="fill-opacity: 1.0000;stroke-width: 0.0000;stroke-opacity: 1;stroke-linecap: round;stroke-linejoin: round;fill-rule: evenodd" d="M 32.9250,-2.5750 32.9250,-3.7750 36.9250,-3.7750 36.9250,-2.5750 Z"/> 
</g>
<g style="fill-opacity: 1.0000;stroke-width: 0.0000;stroke-opacity: 1;stroke-linecap: round;stroke-linejoin: round">
<path style="fill-opacity: 1.0000;stroke-width: 0.0000;stroke-opacity: 1;stroke-linecap: round;stroke-linejoin: round;fill-rule: evenodd" d="M 32.9250,-7.4010 32.9250,-8.6010 36.9250,-8.6010 36.9250,-7.4010 Z"/> 
</g>
<g style="fill-opacity: 1.0000;stroke-width: 0.0000;stroke-opacity: 1;stroke-linecap: round;stroke-linejoin: round">
<path style="fill-opacity: 1.0000;stroke-width: 0.0000;stroke-opacity: 1;stroke-linecap: round;stroke-linejoin: round;fill-rule: evenodd" d="M 32.9250,-5.2420 32.9250,-6.4420 36.9250,-6.4420 36.9250,-5.2420 Z"/> 
</g>
<g style="fill-opacity: 1.0000;stroke-width: 0.0000;stroke-opacity: 1;stroke-linecap: round;stroke-linejoin: round">
<path style="fill-opacity: 1.0000;stroke-width: 0.0000;stroke-opacity: 1;stroke-linecap: round;stroke-linejoin: round;fill-rule: evenodd" d="M 32.9250,-0.4160 32.9250,-1.6160 36.9250,-1.6160 36.9250,-0.4160 Z"/> 
</g>
<g style="fill-opacity: 1.0000;stroke-width: 0.0000;stroke-opacity: 1;stroke-linecap: round;stroke-linejoin: round">
<circle cx="5.0800" cy="-4.5720" r="3.0000"/> 
</g>
<g style="fill-opacity: 1.0000;stroke-width: 0.0000;stroke-opacity: 1;stroke-linecap: round;stroke-linejoin: round">
<circle cx="25.4000" cy="-4.5720" r="3.0000"/> 
</g>
<g style="fill-opacity: 1.0000;stroke-width: 0.0000;stroke-opacity: 1;stroke-linecap: round;stroke-linejoin: round">
<circle cx="28.5525" cy="-0.5305" r="0.3000"/> 
</g>
<g style="fill-opacity: 1.0000;stroke-width: 0.0000;stroke-opacity: 1;stroke-linecap: round;stroke-linejoin: round">
<circle cx="36.0680" cy="-4.4450" r="0.3000"/> 
</g>
<g style="fill-opacity: 1.0000;stroke-width: 0.0000;stroke-opacity: 1;stroke-linecap: round;stroke-linejoin: round">
<circle cx="37.4650" cy="-6.6040" r="0.3000"/> 
</g>
<g style="fill-opacity: 1.0000;stroke-width: 0.0000;stroke-opacity: 1;stroke-linecap: round;stroke-linejoin: round">
<circle cx="37.8460" cy="-1.6510" r="0.3000"/> 
</g>
<g style="fill-opacity: 1.0000;stroke-width: 0.0000;stroke-opacity: 1;stroke-linecap: round;stroke-linejoin: round">
<circle cx="37.0840" cy="-1.6510" r="0.3000"/> 
</g>
<g style="fill-opacity: 1.0000;stroke-width: 0.0000;stroke-opacity: 1;stroke-linecap: round;stroke-linejoin: round">
<circle cx="20.4470" cy="-6.8580" r="0.3000"/> 
</g>
<g style="fill-opacity: 1.0000;stroke-width: 0.0000;stroke-opacity: 1;stroke-linecap: round;stroke-linejoin: round">
<circle cx="34.6710" cy="-6.9850" r="0.3000"/> 
</g>
<g style="fill-opacity: 1.0000;stroke-width: 0.0000;stroke-opacity: 1;stroke-linecap: round;stroke-linejoin: round">
<circle cx="13.3350" cy="-8.3820" r="0.3000"/> 
</g>
<g style="fill-opacity: 1.0000;stroke-width: 0.0000;stroke-opacity: 1;stroke-linecap: round;stroke-linejoin: round">
<circle cx="29.9720" cy="-5.2760" r="0.3000"/> 
</g>
<g style="fill-opacity: 0.0;stroke-width: 0.4000;stroke-opacity: 1;stroke-linecap: round;stroke-linejoin: round">
<path d="M34.9250 -3.1750 L33.7820 -3.1750 "/>
<path d="M33.5250 -3.1750 L34.9250 -3.1750 "/>
<path d="M15.3670 -2.0320 L15.3670 -0.8700 "/>
<path d="M28.5750 -0.5080 L28.5525 -0.5305 "/>
<path d="M29.0573 -0.5080 L28.5750 -0.5080 "/>
<path d="M34.9250 -3.1750 L36.3250 -3.1750 "/>
<path d="M15.3670 -0.8700 L15.7290 -0.5080 "/>
<path d="M15.7290 -0.5080 L29.0573 -0.5080 "/>
<path d="M29.0573 -0.5080 L30.8580 -0.5080 "/>
<path d="M30.8580 -0.5080 L33.5250 -3.1750 "/>
<path d="M34.9250 -1.0160 L37.0840 -1.6510 "/>
<path d="M20.4470 -4.5720 L20.4470 -6.8580 "/>
<path d="M13.7250 -8.7720 L13.3350 -8.3820 "/>
<path d="M34.9250 -8.0010 L28.1870 -8.0010 "/>
<path d="M28.1870 -8.0010 L27.4160 -8.7720 "/>
<path d="M27.4160 -8.7720 L16.2842 -8.7720 "/>
<path d="M36.1395 -8.0010 L34.9250 -8.0010 "/>
<path d="M34.6710 -6.9850 L34.6710 -7.7470 "/>
<path d="M16.2842 -8.7720 L13.7250 -8.7720 "/>
<path d="M34.6710 -7.7470 L34.9250 -8.0010 "/>
<path d="M34.9250 -5.8420 L30.5380 -5.8420 "/>
<path d="M34.7980 -5.7150 L34.9250 -5.8420 "/>
<path d="M30.5380 -5.8420 L29.9720 -5.2760 "/>
</g>
<g style="fill-opacity: 0.0;stroke-width: 0.4000;stroke-opacity: 1;stroke-linecap: round;stroke-linejoin: round">
<g style="fill-opacity: 1.0000;stroke-width: 0.0000;stroke-opacity: 1;stroke-linecap: round;stroke-linejoin: round">
<path style="fill-opacity: 1.0000;stroke-width: 0.0000;stroke-opacity: 1;stroke-linecap: round;stroke-linejoin: round;fill-rule: evenodd" d="M 12.9827,-9.3275 13.0292,-9.2738 13.0393,-9.2036 13.0098,-9.1390 12.9816,-9.1148 12.8277,-9.0181 12.8277,-9.0181 12.6989,-8.8893 12.6989,-8.8893 12.6020,-8.7350 12.6020,-8.7350 12.5418,-8.5630 12.5214,-8.3820 12.5418,-8.2010 12.5418,-8.2009 12.5418,-8.2009 12.6020,-8.0290 12.6020,-8.0290 12.6989,-7.8747 12.6989,-7.8747 12.8277,-7.7459 12.8277,-7.7459 12.9820,-7.6490 12.9820,-7.6490 13.1539,-7.5888 13.1540,-7.5888 13.1540,-7.5888 13.3042,-7.5719 13.3350,-7.5684 13.3350,-7.5684 13.5160,-7.5888 13.6880,-7.6490 13.6880,-7.6490 13.8423,-7.7459 13.8423,-7.7459 13.9711,-7.8747 13.9711,-7.8747 14.0527,-8.0045 14.1059,-8.0516 14.1594,-8.0635 16.2413,-8.0635 27.0703,-8.0635 27.1385,-8.0435 27.1594,-8.0266 27.6695,-7.5165 27.6721,-7.5137 27.7137,-7.4668 27.7653,-7.4312 27.7684,-7.4289 27.8178,-7.3902 27.8178,-7.3902 27.8271,-7.3860 27.8469,-7.3748 27.8553,-7.3690 27.9140,-7.3468 27.9175,-7.3454 27.9747,-7.3196 27.9747,-7.3196 27.9747,-7.3196 27.9747,-7.3196 27.9747,-7.3196 27.9847,-7.3178 28.0067,-7.3117 28.0162,-7.3080 28.0784,-7.3005 28.0822,-7.2999 28.1439,-7.2886 28.1439,-7.2886 28.2065,-7.2924 28.2103,-7.2925 32.3353,-7.2925 32.4034,-7.2725 32.4499,-7.2188 32.4533,-7.2106 32.4741,-7.1548 32.4741,-7.1548 32.5617,-7.0377 32.5823,-7.0224 32.6248,-6.9655 32.6299,-6.8947 32.5959,-6.8324 32.5823,-6.8206 32.5617,-6.8053 32.4741,-6.6882 32.4741,-6.6882 32.4741,-6.6882 32.4533,-6.6325 32.4108,-6.5756 32.3443,-6.5508 32.3353,-6.5505 30.5613,-6.5505 30.5575,-6.5506 30.4949,-6.5544 30.4332,-6.5431 30.4295,-6.5425 30.3672,-6.5350 30.3672,-6.5350 30.3577,-6.5314 30.3357,-6.5252 30.3257,-6.5234 30.2700,-6.4983 30.2685,-6.4976 30.2650,-6.4962 30.2325,-6.4839 30.2063,-6.4740 30.2063,-6.4740 30.2063,-6.4740 30.2063,-6.4740 30.2063,-6.4740 30.1979,-6.4682 30.1781,-6.4570 30.1688,-6.4528 30.1464,-6.4353 30.1194,-6.4141 30.1163,-6.4118 30.0647,-6.3762 30.0647,-6.3762 30.0231,-6.3293 30.0205,-6.3265 29.8752,-6.1812 29.7687,-6.0746 29.7212,-6.0448 29.6190,-6.0090 29.6190,-6.0090 29.4647,-5.9121 29.4647,-5.9121 29.3359,-5.7833 29.3359,-5.7833 29.2390,-5.6290 29.2390,-5.6290 29.1788,-5.4570 29.1584,-5.2760 29.1788,-5.0950 29.1788,-5.0950 29.1788,-5.0950 29.2390,-4.9230 29.2390,-4.9230 29.3359,-4.7687 29.3359,-4.7687 29.4647,-4.6399 29.4647,-4.6399 29.6190,-4.5430 29.6190,-4.5430 29.7909,-4.4828 29.7909,-4.4828 29.7910,-4.4828 29.9720,-4.4624 29.9720,-4.4624 29.9720,-4.4624 29.9791,-4.4624 29.9791,-4.4595 30.0363,-4.4495 30.0885,-4.4014 30.1065,-4.3365 30.1065,-4.1504 30.1065,-4.1503 30.1130,-4.0898 30.1130,-4.0898 30.1641,-3.9528 30.1641,-3.9528 30.2517,-3.8357 30.3688,-3.7481 30.3688,-3.7481 30.5058,-3.6970 30.5058,-3.6970 30.5663,-3.6905 30.5664,-3.6905 31.6636,-3.6905 31.7242,-3.6970 31.7242,-3.6970 31.8612,-3.7481 31.8612,-3.7481 31.9783,-3.8357 32.0659,-3.9528 32.0659,-3.9528 32.1170,-4.0898 32.1170,-4.0898 32.1235,-4.1503 32.1235,-4.1504 32.1235,-5.0075 32.1435,-5.0756 32.1972,-5.1221 32.2495,-5.1335 32.3353,-5.1335 32.4034,-5.1135 32.4499,-5.0598 32.4533,-5.0516 32.4638,-5.0233 32.4741,-4.9958 32.5617,-4.8787 32.6788,-4.7911 32.6788,-4.7911 32.8158,-4.7400 32.8158,-4.7400 32.8763,-4.7335 32.8764,-4.7335 36.9736,-4.7335 37.0342,-4.7400 37.0342,-4.7400 37.1712,-4.7911 37.1712,-4.7911 37.2883,-4.8787 37.3759,-4.9958 37.3759,-4.9958 37.3862,-5.0234 37.3998,-5.0598 37.4270,-5.1328 37.4270,-5.1328 37.4335,-5.1933 37.4335,-5.1934 37.4335,-6.4906 37.4335,-6.4906 37.4270,-6.5512 37.4270,-6.5512 37.3967,-6.6325 37.3759,-6.6882 37.2883,-6.8053 37.2677,-6.8206 37.2252,-6.8775 37.2201,-6.9483 37.2541,-7.0106 37.2677,-7.0224 37.2883,-7.0377 37.3759,-7.1548 37.3759,-7.1548 37.4270,-7.2918 37.4270,-7.2918 37.4335,-7.3523 37.4335,-7.3524 37.4335,-8.6496 37.4335,-8.6496 37.4270,-8.7102 37.4270,-8.7102 37.3967,-8.7915 37.3759,-8.8472 37.3444,-8.8893 37.2883,-8.9643 37.1712,-9.0519 37.1712,-9.0519 37.1712,-9.0519 37.0938,-9.0808 37.0330,-9.1034 36.9761,-9.1460 36.9513,-9.2125 36.9664,-9.2819 37.0166,-9.3321 37.0770,-9.3475 40.2095,-9.3475 40.2776,-9.3275 40.3241,-9.2738 40.3355,-9.2215 40.3355,0.0775 40.3155,0.1456 40.2618,0.1921 40.2095,0.2035 31.4542,0.2035 31.3861,0.1835 31.3396,0.1298 31.3295,0.0596 31.3589,-0.0050 31.3599,-0.0060 31.3646,-0.0113 31.3729,-0.0208 31.3754,-0.0235 33.3816,-2.0296 33.4439,-2.0636 33.4707,-2.0665 36.9736,-2.0665 37.0342,-2.0730 37.0342,-2.0730 37.1712,-2.1241 37.1712,-2.1241 37.2883,-2.2117 37.3759,-2.3288 37.3759,-2.3288 37.4270,-2.4658 37.4270,-2.4658 37.4335,-2.5263 37.4335,-2.5264 37.4335,-3.0233 37.7265,-3.0233 37.7330,-2.9628 37.7330,-2.9628 37.7841,-2.8258 37.7841,-2.8258 37.8717,-2.7087 37.9888,-2.6211 37.9888,-2.6211 38.1258,-2.5700 38.1258,-2.5700 38.1863,-2.5635 38.1864,-2.5635 39.2836,-2.5635 39.3442,-2.5700 39.3442,-2.5700 39.4812,-2.6211 39.4812,-2.6211 39.5983,-2.7087 39.6859,-2.8258 39.6859,-2.8258 39.6922,-2.8426 39.7370,-2.9628 39.7370,-2.9628 39.7435,-3.0233 39.7435,-3.0234 39.7435,-4.1206 39.7435,-4.1206 39.7370,-4.1812 39.7370,-4.1812 39.7203,-4.2259 39.6859,-4.3182 39.5983,-4.4353 39.5503,-4.4711 39.5078,-4.5280 39.5027,-4.5988 39.5368,-4.6611 39.5503,-4.6729 39.5983,-4.7087 39.6859,-4.8258 39.6859,-4.8258 39.7370,-4.9628 39.7370,-4.9628 39.7435,-5.0233 39.7435,-5.0234 39.7435,-6.1206 39.7435,-6.1206 39.7370,-6.1812 39.7370,-6.1812 39.7300,-6.2000 39.6859,-6.3182 39.6425,-6.3762 39.5983,-6.4353 39.4812,-6.5229 39.4812,-6.5229 39.4812,-6.5229 39.3442,-6.5740 39.3442,-6.5740 39.3442,-6.5740 39.2836,-6.5805 39.2836,-6.5805 39.2836,-6.5805 38.1864,-6.5805 38.1864,-6.5805 38.1863,-6.5805 38.1258,-6.5740 38.1258,-6.5740 38.0628,-6.5505 37.9888,-6.5229 37.9888,-6.5229 37.9888,-6.5229 37.8717,-6.4353 37.7841,-6.3182 37.7841,-6.3182 37.7330,-6.1812 37.7330,-6.1812 37.7265,-6.1206 37.7265,-5.0233 37.7330,-4.9628 37.7330,-4.9628 37.7841,-4.8258 37.7841,-4.8258 37.8717,-4.7087 37.9197,-4.6729 37.9622,-4.6160 37.9673,-4.5452 37.9332,-4.4829 37.9197,-4.4711 37.8717,-4.4353 37.8717,-4.4353 37.8717,-4.4353 37.7841,-4.3182 37.7841,-4.3182 37.7330,-4.1812 37.7330,-4.1812 37.7265,-4.1206 37.7265,-3.0233 37.4335,-3.0233 37.4335,-3.8236 37.4335,-3.8236 37.4270,-3.8842 37.4270,-3.8842 37.4200,-3.9030 37.3759,-4.0212 37.2883,-4.1383 37.1712,-4.2259 37.0342,-4.2770 37.0342,-4.2770 37.0342,-4.2770 36.9736,-4.2835 36.9736,-4.2835 36.9736,-4.2835 32.8764,-4.2835 32.8764,-4.2835 32.8763,-4.2835 32.8158,-4.2770 32.8158,-4.2770 32.7379,-4.2479 32.6788,-4.2259 32.6788,-4.2259 32.6788,-4.2259 32.5617,-4.1383 32.4741,-4.0212 32.4741,-4.0212 32.4230,-3.8842 32.4230,-3.8842 32.4165,-3.8236 32.4165,-3.8236 32.4165,-3.1207 32.3965,-3.0525 32.3796,-3.0316 30.6014,-1.2534 30.5391,-1.2194 30.5123,-1.2165 29.0167,-1.2165 28.9497,-1.2358 28.9055,-1.2636 28.7335,-1.3237 28.5525,-1.3441 28.3714,-1.3237 28.1995,-1.2636 28.1553,-1.2358 28.0883,-1.2165 19.3035,-1.2165 19.2354,-1.2365 19.1889,-1.2902 19.1775,-1.3425 19.1775,-2.8426 19.1775,-2.8426 19.1710,-2.9032 19.1710,-2.9032 19.1262,-3.0233 19.1199,-3.0402 19.0323,-3.1573 18.9737,-3.2011 18.9311,-3.2580 18.9260,-3.3288 18.9601,-3.3911 18.9737,-3.4029 19.0323,-3.4467 19.1199,-3.5638 19.1199,-3.5638 19.1710,-3.7008 19.1710,-3.7008 19.1775,-3.7613 19.1775,-3.7614 19.1775,-5.3826 19.1775,-5.3826 19.1710,-5.4432 19.1710,-5.4432 19.1640,-5.4620 19.1199,-5.5802 19.0323,-5.6973 18.9174,-5.7833 18.9152,-5.7849 18.9152,-5.7849 18.9152,-5.7849 18.7782,-5.8360 18.7782,-5.8360 18.7782,-5.8360 18.7176,-5.8425 18.7176,-5.8425 18.7176,-5.8425 17.0964,-5.8425 17.0964,-5.8425 17.0963,-5.8425 17.0358,-5.8360 17.0358,-5.8360 16.9579,-5.8069 16.8988,-5.7849 16.8988,-5.7849 16.8988,-5.7849 16.7817,-5.6973 16.7379,-5.6387 16.6810,-5.5961 16.6102,-5.5910 16.5479,-5.6251 16.5361,-5.6387 16.4923,-5.6973 16.3752,-5.7849 16.3752,-5.7849 16.3752,-5.7849 16.2382,-5.8360 16.2382,-5.8360 16.2382,-5.8360 16.1776,-5.8425 16.1776,-5.8425 16.1776,-5.8425 14.5564,-5.8425 14.5564,-5.8425 14.5564,-5.8425 14.4958,-5.8360 14.4958,-5.8360 14.4179,-5.8069 14.3588,-5.7849 14.3588,-5.7849 14.3588,-5.7849 14.2417,-5.6973 14.1979,-5.6387 14.1410,-5.5961 14.0702,-5.5910 14.0079,-5.6251 13.9961,-5.6387 13.9523,-5.6973 13.8352,-5.7849 13.8352,-5.7849 13.8352,-5.7849 13.6982,-5.8360 13.6982,-5.8360 13.6982,-5.8360 13.6376,-5.8425 13.6376,-5.8425 13.6376,-5.8425 12.0164,-5.8425 12.0164,-5.8425 12.0163,-5.8425 11.9558,-5.8360 11.9558,-5.8360 11.8779,-5.8069 11.8188,-5.7849 11.8188,-5.7849 11.8188,-5.7849 11.7017,-5.6973 11.6141,-5.5802 11.6141,-5.5802 11.5630,-5.4432 11.5630,-5.4432 11.5565,-5.3826 11.5565,-3.7613 11.5630,-3.7008 11.5630,-3.7008 11.6141,-3.5638 11.6141,-3.5638 11.7017,-3.4467 11.7603,-3.4029 11.8029,-3.3460 11.8080,-3.2752 11.7739,-3.2129 11.7603,-3.2011 11.7017,-3.1573 11.6141,-3.0402 11.6141,-3.0402 11.5630,-2.9032 11.5630,-2.9032 11.5565,-2.8426 11.5565,-1.2213 11.5630,-1.1608 11.5630,-1.1608 11.6141,-1.0238 11.6141,-1.0238 11.7017,-0.9067 11.8188,-0.8191 11.8188,-0.8191 11.9558,-0.7680 11.9558,-0.7680 12.0163,-0.7615 12.0164,-0.7615 13.6376,-0.7615 13.6982,-0.7680 13.6982,-0.7680 13.8352,-0.8191 13.8352,-0.8191 13.9523,-0.9067 13.9961,-0.9653 14.0530,-1.0079 14.1238,-1.0130 14.1861,-0.9789 14.1979,-0.9653 14.2417,-0.9067 14.3588,-0.8191 14.3588,-0.8191 14.4958,-0.7680 14.4958,-0.7680 14.5564,-0.7615 14.5564,-0.7615 14.5616,-0.7615 14.6297,-0.7415 14.6762,-0.6878 14.6855,-0.6582 14.6856,-0.6577 14.6856,-0.6577 14.7114,-0.6005 14.7128,-0.5970 14.7350,-0.5383 14.7408,-0.5299 14.7520,-0.5101 14.7562,-0.5008 14.7562,-0.5008 14.7949,-0.4514 14.7972,-0.4483 14.8328,-0.3967 14.8797,-0.3551 14.8825,-0.3525 15.2115,-0.0235 15.2141,-0.0207 15.2141,-0.0207 15.2271,-0.0061 15.2573,0.0582 15.2480,0.1286 15.2021,0.1827 15.1342,0.2035 15.1328,0.2035 0.4305,0.2035 0.3624,0.1835 0.3159,0.1298 0.3045,0.0775 0.3045,-9.2215 0.3245,-9.2896 0.3782,-9.3361 0.4305,-9.3475 12.9146,-9.3475 Z"/> 
</g>
</g>
</g> 
</g><g id="substrate-silk" style="fill:#0b1013; stroke:#0b1013;" mask="url(#pads-mask-silkscreen)"><g style="fill-opacity: 0.0;stroke-width: 0.2750;stroke-opacity: 1;stroke-linecap: round;stroke-linejoin: round">
<g transform="rotate(-90.000000 17.9070 -7.6200)">
<text x="17.9070" y="-7.0700" textLength="3.6955" font-size="1.4667" lengthAdjust="spacingAndGlyphs" text-anchor="middle" opacity="0">SDA</text>
</g>
<g class="stroked-text"><desc>SDA</desc>
<path d="M18.3492 -6.2843 L18.4016 -6.4414 "/>
<path d="M18.4016 -6.4414 L18.4016 -6.7033 "/>
<path d="M18.4016 -6.7033 L18.3492 -6.8081 "/>
<path d="M18.3492 -6.8081 L18.2968 -6.8605 "/>
<path d="M18.2968 -6.8605 L18.1921 -6.9129 "/>
<path d="M18.1921 -6.9129 L18.0873 -6.9129 "/>
<path d="M18.0873 -6.9129 L17.9825 -6.8605 "/>
<path d="M17.9825 -6.8605 L17.9302 -6.8081 "/>
<path d="M17.9302 -6.8081 L17.8778 -6.7033 "/>
<path d="M17.8778 -6.7033 L17.8254 -6.4938 "/>
<path d="M17.8254 -6.4938 L17.7730 -6.3890 "/>
<path d="M17.7730 -6.3890 L17.7206 -6.3367 "/>
<path d="M17.7206 -6.3367 L17.6159 -6.2843 "/>
<path d="M17.6159 -6.2843 L17.5111 -6.2843 "/>
<path d="M17.5111 -6.2843 L17.4063 -6.3367 "/>
<path d="M17.4063 -6.3367 L17.3540 -6.3890 "/>
<path d="M17.3540 -6.3890 L17.3016 -6.4938 "/>
<path d="M17.3016 -6.4938 L17.3016 -6.7557 "/>
<path d="M17.3016 -6.7557 L17.3540 -6.9129 "/>
<path d="M18.4016 -7.3843 L17.3016 -7.3843 "/>
<path d="M17.3016 -7.3843 L17.3016 -7.6462 "/>
<path d="M17.3016 -7.6462 L17.3540 -7.8033 "/>
<path d="M17.3540 -7.8033 L17.4587 -7.9081 "/>
<path d="M17.4587 -7.9081 L17.5635 -7.9605 "/>
<path d="M17.5635 -7.9605 L17.7730 -8.0129 "/>
<path d="M17.7730 -8.0129 L17.9302 -8.0129 "/>
<path d="M17.9302 -8.0129 L18.1397 -7.9605 "/>
<path d="M18.1397 -7.9605 L18.2444 -7.9081 "/>
<path d="M18.2444 -7.9081 L18.3492 -7.8033 "/>
<path d="M18.3492 -7.8033 L18.4016 -7.6462 "/>
<path d="M18.4016 -7.6462 L18.4016 -7.3843 "/>
<path d="M18.0873 -8.4319 L18.0873 -8.9557 "/>
<path d="M18.4016 -8.3271 L17.3016 -8.6938 "/>
<path d="M17.3016 -8.6938 L18.4016 -9.0605 "/>
</g></g>
<g style="fill-opacity: 0.0;stroke-width: 0.3000;stroke-opacity: 1;stroke-linecap: round;stroke-linejoin: round">
<text x="30.6070" y="-7.6050" textLength="4.2305" font-size="1.7333" lengthAdjust="spacingAndGlyphs" text-anchor="middle" opacity="0">SCL</text>
<g class="stroked-text"><desc>SCL</desc>
<path d="M29.0594 -7.7311 L29.2451 -7.6692 "/>
<path d="M29.2451 -7.6692 L29.5546 -7.6692 "/>
<path d="M29.5546 -7.6692 L29.6784 -7.7311 "/>
<path d="M29.6784 -7.7311 L29.7403 -7.7930 "/>
<path d="M29.7403 -7.7930 L29.8022 -7.9168 "/>
<path d="M29.8022 -7.9168 L29.8022 -8.0406 "/>
<path d="M29.8022 -8.0406 L29.7403 -8.1644 "/>
<path d="M29.7403 -8.1644 L29.6784 -8.2263 "/>
<path d="M29.6784 -8.2263 L29.5546 -8.2882 "/>
<path d="M29.5546 -8.2882 L29.3070 -8.3501 "/>
<path d="M29.3070 -8.3501 L29.1832 -8.4121 "/>
<path d="M29.1832 -8.4121 L29.1213 -8.4740 "/>
<path d="M29.1213 -8.4740 L29.0594 -8.5978 "/>
<path d="M29.0594 -8.5978 L29.0594 -8.7216 "/>
<path d="M29.0594 -8.7216 L29.1213 -8.8454 "/>
<path d="M29.1213 -8.8454 L29.1832 -8.9073 "/>
<path d="M29.1832 -8.9073 L29.3070 -8.9692 "/>
<path d="M29.3070 -8.9692 L29.6165 -8.9692 "/>
<path d="M29.6165 -8.9692 L29.8022 -8.9073 "/>
<path d="M31.1022 -7.7930 L31.0403 -7.7311 "/>
<path d="M31.0403 -7.7311 L30.8546 -7.6692 "/>
<path d="M30.8546 -7.6692 L30.7308 -7.6692 "/>
<path d="M30.7308 -7.6692 L30.5451 -7.7311 "/>
<path d="M30.5451 -7.7311 L30.4213 -7.8549 "/>
<path d="M30.4213 -7.8549 L30.3594 -7.9787 "/>
<path d="M30.3594 -7.9787 L30.2975 -8.2263 "/>
<path d="M30.2975 -8.2263 L30.2975 -8.4121 "/>
<path d="M30.2975 -8.4121 L30.3594 -8.6597 "/>
<path d="M30.3594 -8.6597 L30.4213 -8.7835 "/>
<path d="M30.4213 -8.7835 L30.5451 -8.9073 "/>
<path d="M30.5451 -8.9073 L30.7308 -8.9692 "/>
<path d="M30.7308 -8.9692 L30.8546 -8.9692 "/>
<path d="M30.8546 -8.9692 L31.0403 -8.9073 "/>
<path d="M31.0403 -8.9073 L31.1022 -8.8454 "/>
<path d="M32.2784 -7.6692 L31.6594 -7.6692 "/>
<path d="M31.6594 -7.6692 L31.6594 -8.9692 "/>
</g><text x="30.6070" y="-0.3660" textLength="4.6019" font-size="1.7333" lengthAdjust="spacingAndGlyphs" text-anchor="middle" opacity="0">GND</text>
<g class="stroked-text"><desc>GND</desc>
<path d="M29.6165 -1.6683 L29.4927 -1.7302 "/>
<path d="M29.4927 -1.7302 L29.3070 -1.7302 "/>
<path d="M29.3070 -1.7302 L29.1213 -1.6683 "/>
<path d="M29.1213 -1.6683 L28.9975 -1.5445 "/>
<path d="M28.9975 -1.5445 L28.9356 -1.4207 "/>
<path d="M28.9356 -1.4207 L28.8737 -1.1731 "/>
<path d="M28.8737 -1.1731 L28.8737 -0.9873 "/>
<path d="M28.8737 -0.9873 L28.9356 -0.7397 "/>
<path d="M28.9356 -0.7397 L28.9975 -0.6159 "/>
<path d="M28.9975 -0.6159 L29.1213 -0.4921 "/>
<path d="M29.1213 -0.4921 L29.3070 -0.4302 "/>
<path d="M29.3070 -0.4302 L29.4308 -0.4302 "/>
<path d="M29.4308 -0.4302 L29.6165 -0.4921 "/>
<path d="M29.6165 -0.4921 L29.6784 -0.5540 "/>
<path d="M29.6784 -0.5540 L29.6784 -0.9873 "/>
<path d="M29.6784 -0.9873 L29.4308 -0.9873 "/>
<path d="M30.2356 -0.4302 L30.2356 -1.7302 "/>
<path d="M30.2356 -1.7302 L30.9784 -0.4302 "/>
<path d="M30.9784 -0.4302 L30.9784 -1.7302 "/>
<path d="M31.5975 -0.4302 L31.5975 -1.7302 "/>
<path d="M31.5975 -1.7302 L31.9070 -1.7302 "/>
<path d="M31.9070 -1.7302 L32.0927 -1.6683 "/>
<path d="M32.0927 -1.6683 L32.2165 -1.5445 "/>
<path d="M32.2165 -1.5445 L32.2784 -1.4207 "/>
<path d="M32.2784 -1.4207 L32.3403 -1.1731 "/>
<path d="M32.3403 -1.1731 L32.3403 -0.9873 "/>
<path d="M32.3403 -0.9873 L32.2784 -0.7397 "/>
<path d="M32.2784 -0.7397 L32.2165 -0.6159 "/>
<path d="M32.2165 -0.6159 L32.0927 -0.4921 "/>
<path d="M32.0927 -0.4921 L31.9070 -0.4302 "/>
<path d="M31.9070 -0.4302 L31.5975 -0.4302 "/>
</g></g>
<g style="fill-opacity: 0.0;stroke-width: 0.2750;stroke-opacity: 1;stroke-linecap: round;stroke-linejoin: round">
<g transform="rotate(-90.000000 12.8270 -7.6200)">
<text x="12.8270" y="-7.0700" textLength="3.6431" font-size="1.4667" lengthAdjust="spacingAndGlyphs" text-anchor="middle" opacity="0">SCL</text>
</g>
<g class="stroked-text"><desc>SCL</desc>
<path d="M13.2692 -6.3105 L13.3216 -6.4676 "/>
<path d="M13.3216 -6.4676 L13.3216 -6.7295 "/>
<path d="M13.3216 -6.7295 L13.2692 -6.8343 "/>
<path d="M13.2692 -6.8343 L13.2168 -6.8867 "/>
<path d="M13.2168 -6.8867 L13.1121 -6.9390 "/>
<path d="M13.1121 -6.9390 L13.0073 -6.9390 "/>
<path d="M13.0073 -6.9390 L12.9025 -6.8867 "/>
<path d="M12.9025 -6.8867 L12.8502 -6.8343 "/>
<path d="M12.8502 -6.8343 L12.7978 -6.7295 "/>
<path d="M12.7978 -6.7295 L12.7454 -6.5200 "/>
<path d="M12.7454 -6.5200 L12.6930 -6.4152 "/>
<path d="M12.6930 -6.4152 L12.6406 -6.3629 "/>
<path d="M12.6406 -6.3629 L12.5359 -6.3105 "/>
<path d="M12.5359 -6.3105 L12.4311 -6.3105 "/>
<path d="M12.4311 -6.3105 L12.3263 -6.3629 "/>
<path d="M12.3263 -6.3629 L12.2740 -6.4152 "/>
<path d="M12.2740 -6.4152 L12.2216 -6.5200 "/>
<path d="M12.2216 -6.5200 L12.2216 -6.7819 "/>
<path d="M12.2216 -6.7819 L12.2740 -6.9390 "/>
<path d="M13.2168 -8.0390 L13.2692 -7.9867 "/>
<path d="M13.2692 -7.9867 L13.3216 -7.8295 "/>
<path d="M13.3216 -7.8295 L13.3216 -7.7248 "/>
<path d="M13.3216 -7.7248 L13.2692 -7.5676 "/>
<path d="M13.2692 -7.5676 L13.1644 -7.4629 "/>
<path d="M13.1644 -7.4629 L13.0597 -7.4105 "/>
<path d="M13.0597 -7.4105 L12.8502 -7.3581 "/>
<path d="M12.8502 -7.3581 L12.6930 -7.3581 "/>
<path d="M12.6930 -7.3581 L12.4835 -7.4105 "/>
<path d="M12.4835 -7.4105 L12.3787 -7.4629 "/>
<path d="M12.3787 -7.4629 L12.2740 -7.5676 "/>
<path d="M12.2740 -7.5676 L12.2216 -7.7248 "/>
<path d="M12.2216 -7.7248 L12.2216 -7.8295 "/>
<path d="M12.2216 -7.8295 L12.2740 -7.9867 "/>
<path d="M12.2740 -7.9867 L12.3263 -8.0390 "/>
<path d="M13.3216 -9.0343 L13.3216 -8.5105 "/>
<path d="M13.3216 -8.5105 L12.2216 -8.5105 "/>
</g></g>
<g style="fill-opacity: 0.0;stroke-width: 0.3000;stroke-opacity: 1;stroke-linecap: round;stroke-linejoin: round">
<text x="30.6070" y="-5.7000" textLength="4.2924" font-size="1.7333" lengthAdjust="spacingAndGlyphs" text-anchor="middle" opacity="0">SDA</text>
<g class="stroked-text"><desc>SDA</desc>
<path d="M29.0284 -5.8261 L29.2141 -5.7642 "/>
<path d="M29.2141 -5.7642 L29.5237 -5.7642 "/>
<path d="M29.5237 -5.7642 L29.6475 -5.8261 "/>
<path d="M29.6475 -5.8261 L29.7094 -5.8880 "/>
<path d="M29.7094 -5.8880 L29.7713 -6.0118 "/>
<path d="M29.7713 -6.0118 L29.7713 -6.1356 "/>
<path d="M29.7713 -6.1356 L29.7094 -6.2594 "/>
<path d="M29.7094 -6.2594 L29.6475 -6.3213 "/>
<path d="M29.6475 -6.3213 L29.5237 -6.3832 "/>
<path d="M29.5237 -6.3832 L29.2760 -6.4451 "/>
<path d="M29.2760 -6.4451 L29.1522 -6.5071 "/>
<path d="M29.1522 -6.5071 L29.0903 -6.5690 "/>
<path d="M29.0903 -6.5690 L29.0284 -6.6928 "/>
<path d="M29.0284 -6.6928 L29.0284 -6.8166 "/>
<path d="M29.0284 -6.8166 L29.0903 -6.9404 "/>
<path d="M29.0903 -6.9404 L29.1522 -7.0023 "/>
<path d="M29.1522 -7.0023 L29.2760 -7.0642 "/>
<path d="M29.2760 -7.0642 L29.5856 -7.0642 "/>
<path d="M29.5856 -7.0642 L29.7713 -7.0023 "/>
<path d="M30.3284 -5.7642 L30.3284 -7.0642 "/>
<path d="M30.3284 -7.0642 L30.6380 -7.0642 "/>
<path d="M30.6380 -7.0642 L30.8237 -7.0023 "/>
<path d="M30.8237 -7.0023 L30.9475 -6.8785 "/>
<path d="M30.9475 -6.8785 L31.0094 -6.7547 "/>
<path d="M31.0094 -6.7547 L31.0713 -6.5071 "/>
<path d="M31.0713 -6.5071 L31.0713 -6.3213 "/>
<path d="M31.0713 -6.3213 L31.0094 -6.0737 "/>
<path d="M31.0094 -6.0737 L30.9475 -5.9499 "/>
<path d="M30.9475 -5.9499 L30.8237 -5.8261 "/>
<path d="M30.8237 -5.8261 L30.6380 -5.7642 "/>
<path d="M30.6380 -5.7642 L30.3284 -5.7642 "/>
<path d="M31.5665 -6.1356 L32.1856 -6.1356 "/>
<path d="M31.4427 -5.7642 L31.8760 -7.0642 "/>
<path d="M31.8760 -7.0642 L32.3094 -5.7642 "/>
</g><text x="30.6070" y="-2.2710" textLength="4.3543" font-size="1.7333" lengthAdjust="spacingAndGlyphs" text-anchor="middle" opacity="0">VDD</text>
<g class="stroked-text"><desc>VDD</desc>
<path d="M28.8737 -3.6352 L29.3070 -2.3352 "/>
<path d="M29.3070 -2.3352 L29.7403 -3.6352 "/>
<path d="M30.1737 -2.3352 L30.1737 -3.6352 "/>
<path d="M30.1737 -3.6352 L30.4832 -3.6352 "/>
<path d="M30.4832 -3.6352 L30.6689 -3.5733 "/>
<path d="M30.6689 -3.5733 L30.7927 -3.4495 "/>
<path d="M30.7927 -3.4495 L30.8546 -3.3257 "/>
<path d="M30.8546 -3.3257 L30.9165 -3.0781 "/>
<path d="M30.9165 -3.0781 L30.9165 -2.8923 "/>
<path d="M30.9165 -2.8923 L30.8546 -2.6447 "/>
<path d="M30.8546 -2.6447 L30.7927 -2.5209 "/>
<path d="M30.7927 -2.5209 L30.6689 -2.3971 "/>
<path d="M30.6689 -2.3971 L30.4832 -2.3352 "/>
<path d="M30.4832 -2.3352 L30.1737 -2.3352 "/>
<path d="M31.4737 -2.3352 L31.4737 -3.6352 "/>
<path d="M31.4737 -3.6352 L31.7832 -3.6352 "/>
<path d="M31.7832 -3.6352 L31.9689 -3.5733 "/>
<path d="M31.9689 -3.5733 L32.0927 -3.4495 "/>
<path d="M32.0927 -3.4495 L32.1546 -3.3257 "/>
<path d="M32.1546 -3.3257 L32.2165 -3.0781 "/>
<path d="M32.2165 -3.0781 L32.2165 -2.8923 "/>
<path d="M32.2165 -2.8923 L32.1546 -2.6447 "/>
<path d="M32.1546 -2.6447 L32.0927 -2.5209 "/>
<path d="M32.0927 -2.5209 L31.9689 -2.3971 "/>
<path d="M31.9689 -2.3971 L31.7832 -2.3352 "/>
<path d="M31.7832 -2.3352 L31.4737 -2.3352 "/>
</g></g>
<g style="fill-opacity: 0.0;stroke-width: 0.2750;stroke-opacity: 1;stroke-linecap: round;stroke-linejoin: round">
<g transform="rotate(-90.000000 15.3670 -7.6200)">
<text x="15.3670" y="-7.0700" textLength="3.7479" font-size="1.4667" lengthAdjust="spacingAndGlyphs" text-anchor="middle" opacity="0">VDD</text>
</g>
<g class="stroked-text"><desc>VDD</desc>
<path d="M14.7616 -6.1533 L15.8616 -6.5200 "/>
<path d="M15.8616 -6.5200 L14.7616 -6.8867 "/>
<path d="M15.8616 -7.2533 L14.7616 -7.2533 "/>
<path d="M14.7616 -7.2533 L14.7616 -7.5152 "/>
<path d="M14.7616 -7.5152 L14.8140 -7.6724 "/>
<path d="M14.8140 -7.6724 L14.9187 -7.7771 "/>
<path d="M14.9187 -7.7771 L15.0235 -7.8295 "/>
<path d="M15.0235 -7.8295 L15.2330 -7.8819 "/>
<path d="M15.2330 -7.8819 L15.3902 -7.8819 "/>
<path d="M15.3902 -7.8819 L15.5997 -7.8295 "/>
<path d="M15.5997 -7.8295 L15.7044 -7.7771 "/>
<path d="M15.7044 -7.7771 L15.8092 -7.6724 "/>
<path d="M15.8092 -7.6724 L15.8616 -7.5152 "/>
<path d="M15.8616 -7.5152 L15.8616 -7.2533 "/>
<path d="M15.8616 -8.3533 L14.7616 -8.3533 "/>
<path d="M14.7616 -8.3533 L14.7616 -8.6152 "/>
<path d="M14.7616 -8.6152 L14.8140 -8.7724 "/>
<path d="M14.8140 -8.7724 L14.9187 -8.8771 "/>
<path d="M14.9187 -8.8771 L15.0235 -8.9295 "/>
<path d="M15.0235 -8.9295 L15.2330 -8.9819 "/>
<path d="M15.2330 -8.9819 L15.3902 -8.9819 "/>
<path d="M15.3902 -8.9819 L15.5997 -8.9295 "/>
<path d="M15.5997 -8.9295 L15.7044 -8.8771 "/>
<path d="M15.7044 -8.8771 L15.8092 -8.7724 "/>
<path d="M15.8092 -8.7724 L15.8616 -8.6152 "/>
<path d="M15.8616 -8.6152 L15.8616 -8.3533 "/>
</g></g>
<g style="fill-opacity: 0.0;stroke-width: 0.3000;stroke-opacity: 1;stroke-linecap: round;stroke-linejoin: round">
<text x="38.9890" y="-0.6470" textLength="2.1000" font-size="2.0000" lengthAdjust="spacingAndGlyphs" text-anchor="middle" opacity="0">K</text>
<g class="stroked-text"><desc>K</desc>
<path d="M38.5961 -0.7187 L38.5961 -2.2187 "/>
<path d="M39.4533 -0.7187 L38.8104 -1.5758 "/>
<path d="M39.4533 -2.2187 L38.5961 -1.3615 "/>
</g></g>
<g style="fill-opacity: 0.0;stroke-width: 0.2750;stroke-opacity: 1;stroke-linecap: round;stroke-linejoin: round">
<g transform="rotate(-90.000000 10.2870 -7.6200)">
<text x="10.2870" y="-7.0700" textLength="3.9574" font-size="1.4667" lengthAdjust="spacingAndGlyphs" text-anchor="middle" opacity="0">GND</text>
</g>
<g class="stroked-text"><desc>GND</desc>
<path d="M9.7340 -6.7819 L9.6816 -6.6771 "/>
<path d="M9.6816 -6.6771 L9.6816 -6.5200 "/>
<path d="M9.6816 -6.5200 L9.7340 -6.3629 "/>
<path d="M9.7340 -6.3629 L9.8387 -6.2581 "/>
<path d="M9.8387 -6.2581 L9.9435 -6.2057 "/>
<path d="M9.9435 -6.2057 L10.1530 -6.1533 "/>
<path d="M10.1530 -6.1533 L10.3102 -6.1533 "/>
<path d="M10.3102 -6.1533 L10.5197 -6.2057 "/>
<path d="M10.5197 -6.2057 L10.6244 -6.2581 "/>
<path d="M10.6244 -6.2581 L10.7292 -6.3629 "/>
<path d="M10.7292 -6.3629 L10.7816 -6.5200 "/>
<path d="M10.7816 -6.5200 L10.7816 -6.6248 "/>
<path d="M10.7816 -6.6248 L10.7292 -6.7819 "/>
<path d="M10.7292 -6.7819 L10.6768 -6.8343 "/>
<path d="M10.6768 -6.8343 L10.3102 -6.8343 "/>
<path d="M10.3102 -6.8343 L10.3102 -6.6248 "/>
<path d="M10.7816 -7.3057 L9.6816 -7.3057 "/>
<path d="M9.6816 -7.3057 L10.7816 -7.9343 "/>
<path d="M10.7816 -7.9343 L9.6816 -7.9343 "/>
<path d="M10.7816 -8.4581 L9.6816 -8.4581 "/>
<path d="M9.6816 -8.4581 L9.6816 -8.7200 "/>
<path d="M9.6816 -8.7200 L9.7340 -8.8771 "/>
<path d="M9.7340 -8.8771 L9.8387 -8.9819 "/>
<path d="M9.8387 -8.9819 L9.9435 -9.0343 "/>
<path d="M9.9435 -9.0343 L10.1530 -9.0867 "/>
<path d="M10.1530 -9.0867 L10.3102 -9.0867 "/>
<path d="M10.3102 -9.0867 L10.5197 -9.0343 "/>
<path d="M10.5197 -9.0343 L10.6244 -8.9819 "/>
<path d="M10.6244 -8.9819 L10.7292 -8.8771 "/>
<path d="M10.7292 -8.8771 L10.7816 -8.7200 "/>
<path d="M10.7816 -8.7200 L10.7816 -8.4581 "/>
</g></g>
<g style="fill-opacity: 0.0;stroke-width: 0.0000;stroke-opacity: 1;stroke-linecap: round;stroke-linejoin: round">
<text x="30.1150" y="-4.6990" textLength="0.0000" font-size="0.0000" lengthAdjust="spacingAndGlyphs" text-anchor="middle" opacity="0">1</text>
<g class="stroked-text"><desc>1</desc>
<path d="M30.1150 -4.6990 L30.1150 -4.6990 "/>
<path d="M30.1150 -4.6990 L30.1150 -4.6990 "/>
<path d="M30.1150 -4.6990 L30.1150 -4.6990 "/>
<path d="M30.1150 -4.6990 L30.1150 -4.6990 "/>
<path d="M30.1150 -4.6990 L30.1150 -4.6990 "/>
</g></g>
<g style="fill-opacity: 0.0;stroke-width: 0.0500;stroke-opacity: 1;stroke-linecap: round;stroke-linejoin: round">
<g transform="rotate(-90.000000 10.2870 -0.3810)">
<text x="10.2870" y="-0.1310" textLength="0.5262" font-size="0.6667" lengthAdjust="spacingAndGlyphs" text-anchor="middle" opacity="0">1</text>
</g>
<g class="stroked-text"><desc>1</desc>
<path d="M10.5157 -0.5239 L10.5157 -0.2381 "/>
<path d="M10.5157 -0.3810 L10.0157 -0.3810 "/>
<path d="M10.0157 -0.3810 L10.0871 -0.3334 "/>
<path d="M10.0871 -0.3334 L10.1348 -0.2858 "/>
<path d="M10.1348 -0.2858 L10.1586 -0.2381 "/>
</g></g>
<g style="fill-opacity: 0.0;stroke-width: 0.1000;stroke-opacity: 1;stroke-linecap: round;stroke-linejoin: round">
<path d="M39.7350 -6.5720 L39.7350 -2.5720 "/>
<path d="M37.7350 -6.5720 L39.7350 -6.5720 "/>
<path d="M39.7350 -2.5720 L37.7350 -2.5720 "/>
<path d="M37.7350 -2.5720 L37.7350 -6.5720 "/>
<path d="M30.1150 -5.6990 L32.1150 -5.6990 "/>
<path d="M30.1150 -3.6990 L30.1150 -5.6990 "/>
<path d="M32.1150 -5.6990 L32.1150 -3.6990 "/>
<path d="M32.1150 -3.6990 L30.1150 -3.6990 "/>
</g>
<g style="fill-opacity: 0.0;stroke-width: 0.1500;stroke-opacity: 1;stroke-linecap: round;stroke-linejoin: round">
<path d="M9.0170 -0.7620 L9.0170 -5.8420 "/>
<path d="M21.7170 -0.7620 L9.0170 -0.7620 "/>
<path d="M9.0170 -5.8420 L21.7170 -5.8420 "/>
<path d="M21.7170 -5.8420 L21.7170 -0.7620 "/>
<g style="fill-opacity: 1.0000;stroke-width: 0.0000;stroke-opacity: 1;stroke-linecap: round;stroke-linejoin: round">
<path style="fill-opacity: 1.0000;stroke-width: 0.0000;stroke-opacity: 1;stroke-linecap: round;stroke-linejoin: round;fill-rule: evenodd" d="M 38.2350,-6.0720 39.2350,-6.0720 39.2350,-5.0720 38.2350,-5.0720 Z"/> 
<path style="fill-opacity: 1.0000;stroke-width: 0.0000;stroke-opacity: 1;stroke-linecap: round;stroke-linejoin: round;fill-rule: evenodd" d="M 38.2350,-4.0720 39.2350,-4.0720 39.2350,-3.0720 38.2350,-3.0720 Z"/> 
</g>
<g style="fill-opacity: 1.0000;stroke-width: 0.0000;stroke-opacity: 1;stroke-linecap: round;stroke-linejoin: round">
<path style="fill-opacity: 1.0000;stroke-width: 0.0000;stroke-opacity: 1;stroke-linecap: round;stroke-linejoin: round;fill-rule: evenodd" d="M 30.6150,-4.1990 30.6150,-5.1990 31.6150,-5.1990 31.6150,-4.1990 Z"/> 
</g>
<g style="fill-opacity: 1.0000;stroke-width: 0.0000;stroke-opacity: 1;stroke-linecap: round;stroke-linejoin: round">
<path style="fill-opacity: 1.0000;stroke-width: 0.0000;stroke-opacity: 1;stroke-linecap: round;stroke-linejoin: round;fill-rule: evenodd" d="M 11.0490,-1.2700 9.5250,-1.2700 9.5250,-2.7940 11.0490,-2.7940 Z"/> 
<path style="fill-opacity: 1.0000;stroke-width: 0.0000;stroke-opacity: 1;stroke-linecap: round;stroke-linejoin: round;fill-rule: evenodd" d="M 11.0490,-3.8100 9.5250,-3.8100 9.5250,-5.3340 11.0490,-5.3340 Z"/> 
<path style="fill-opacity: 1.0000;stroke-width: 0.0000;stroke-opacity: 1;stroke-linecap: round;stroke-linejoin: round;fill-rule: evenodd" d="M 13.5890,-1.2700 12.0650,-1.2700 12.0650,-2.7940 13.5890,-2.7940 Z"/> 
<path style="fill-opacity: 1.0000;stroke-width: 0.0000;stroke-opacity: 1;stroke-linecap: round;stroke-linejoin: round;fill-rule: evenodd" d="M 13.5890,-3.8100 12.0650,-3.8100 12.0650,-5.3340 13.5890,-5.3340 Z"/> 
<path style="fill-opacity: 1.0000;stroke-width: 0.0000;stroke-opacity: 1;stroke-linecap: round;stroke-linejoin: round;fill-rule: evenodd" d="M 16.1290,-1.2700 14.6050,-1.2700 14.6050,-2.7940 16.1290,-2.7940 Z"/> 
<path style="fill-opacity: 1.0000;stroke-width: 0.0000;stroke-opacity: 1;stroke-linecap: round;stroke-linejoin: round;fill-rule: evenodd" d="M 16.1290,-3.8100 14.6050,-3.8100 14.6050,-5.3340 16.1290,-5.3340 Z"/> 
<path style="fill-opacity: 1.0000;stroke-width: 0.0000;stroke-opacity: 1;stroke-linecap: round;stroke-linejoin: round;fill-rule: evenodd" d="M 18.6690,-1.2700 17.1450,-1.2700 17.1450,-2.7940 18.6690,-2.7940 Z"/> 
<path style="fill-opacity: 1.0000;stroke-width: 0.0000;stroke-opacity: 1;stroke-linecap: round;stroke-linejoin: round;fill-rule: evenodd" d="M 18.6690,-3.8100 17.1450,-3.8100 17.1450,-5.3340 18.6690,-5.3340 Z"/> 
<path style="fill-opacity: 1.0000;stroke-width: 0.0000;stroke-opacity: 1;stroke-linecap: round;stroke-linejoin: round;fill-rule: evenodd" d="M 21.2090,-1.2700 19.6850,-1.2700 19.6850,-2.7940 21.2090,-2.7940 Z"/> 
<path style="fill-opacity: 1.0000;stroke-width: 0.0000;stroke-opacity: 1;stroke-linecap: round;stroke-linejoin: round;fill-rule: evenodd" d="M 21.2090,-3.8100 19.6850,-3.8100 19.6850,-5.3340 21.2090,-5.3340 Z"/> 
</g>
</g> 
</g><g id="substrate-outline" style="fill:#000000; stroke:#000000; stroke-width: 0.15"><g style="fill-opacity: 0.0;stroke-opacity: 1;stroke-linecap: round;stroke-linejoin: round">
<path d="M0.2540 -9.3980 L0.2540 0.2540 "/>
<path d="M40.3860 0.2540 L40.3860 -9.3980 "/>
<path d="M0.2540 0.2540 L40.3860 0.2540 "/>
<path d="M0.2540 -9.3980 L40.3860 -9.3980 "/>
</g> 
<path d="M -0.381 0.0 A 0.381 0.381 0 1 1 0.381 0.0 L 0.381 -0.0 A 0.381 0.381 0 1 1 -0.381 -0.0 Z" transform="translate(38.735 -5.572) rotate(-270.0)"/><path d="M -0.381 0.0 A 0.381 0.381 0 1 1 0.381 0.0 L 0.381 -0.0 A 0.381 0.381 0 1 1 -0.381 -0.0 Z" transform="translate(38.735 -3.572) rotate(-270.0)"/><path d="M -0.381 0.0 A 0.381 0.381 0 1 1 0.381 0.0 L 0.381 -0.0 A 0.381 0.381 0 1 1 -0.381 -0.0 Z" transform="translate(31.115 -4.699) rotate(-0.0)"/><path d="M -0.4445 0.0 A 0.4445 0.4445 0 1 1 0.4445 0.0 L 0.4445 -0.0 A 0.4445 0.4445 0 1 1 -0.4445 -0.0 Z" transform="translate(10.287 -2.032) rotate(-90.0)"/><path d="M -0.4445 0.0 A 0.4445 0.4445 0 1 1 0.4445 0.0 L 0.4445 -0.0 A 0.4445 0.4445 0 1 1 -0.4445 -0.0 Z" transform="translate(10.287 -4.572) rotate(-90.0)"/><path d="M -0.4445 0.0 A 0.4445 0.4445 0 1 1 0.4445 0.0 L 0.4445 -0.0 A 0.4445 0.4445 0 1 1 -0.4445 -0.0 Z" transform="translate(12.827 -2.032) rotate(-90.0)"/><path d="M -0.4445 0.0 A 0.4445 0.4445 0 1 1 0.4445 0.0 L 0.4445 -0.0 A 0.4445 0.4445 0 1 1 -0.4445 -0.0 Z" transform="translate(12.827 -4.572) rotate(-90.0)"/><path d="M -0.4445 0.0 A 0.4445 0.4445 0 1 1 0.4445 0.0 L 0.4445 -0.0 A 0.4445 0.4445 0 1 1 -0.4445 -0.0 Z" transform="translate(15.367 -2.032) rotate(-90.0)"/><path d="M -0.4445 0.0 A 0.4445 0.4445 0 1 1 0.4445 0.0 L 0.4445 -0.0 A 0.4445 0.4445 0 1 1 -0.4445 -0.0 Z" transform="translate(15.367 -4.572) rotate(-90.0)"/><path d="M -0.4445 0.0 A 0.4445 0.4445 0 1 1 0.4445 0.0 L 0.4445 -0.0 A 0.4445 0.4445 0 1 1 -0.4445 -0.0 Z" transform="translate(17.907 -2.032) rotate(-90.0)"/><path d="M -0.4445 0.0 A 0.4445 0.4445 0 1 1 0.4445 0.0 L 0.4445 -0.0 A 0.4445 0.4445 0 1 1 -0.4445 -0.0 Z" transform="translate(17.907 -4.572) rotate(-90.0)"/><path d="M -0.4445 0.0 A 0.4445 0.4445 0 1 1 0.4445 0.0 L 0.4445 -0.0 A 0.4445 0.4445 0 1 1 -0.4445 -0.0 Z" transform="translate(20.447 -2.032) rotate(-90.0)"/><path d="M -0.4445 0.0 A 0.4445 0.4445 0 1 1 0.4445 0.0 L 0.4445 -0.0 A 0.4445 0.4445 0 1 1 -0.4445 -0.0 Z" transform="translate(20.447 -4.572) rotate(-90.0)"/><path d="M -1.5 0.0 A 1.5 1.5 0 1 1 1.5 0.0 L 1.5 -0.0 A 1.5 1.5 0 1 1 -1.5 -0.0 Z" transform="translate(5.08 -4.572) rotate(-0.0)"/><path d="M -1.5 0.0 A 1.5 1.5 0 1 1 1.5 0.0 L 1.5 -0.0 A 1.5 1.5 0 1 1 -1.5 -0.0 Z" transform="translate(25.4 -4.572) rotate(-0.0)"/><path d="M -0.2 0.0 A 0.2 0.2 0 1 1 0.2 0.0 L 0.2 -0.0 A 0.2 0.2 0 1 1 -0.2 -0.0 Z" transform="translate(28.552482 -0.530518) rotate(-0.0)"/><path d="M -0.2 0.0 A 0.2 0.2 0 1 1 0.2 0.0 L 0.2 -0.0 A 0.2 0.2 0 1 1 -0.2 -0.0 Z" transform="translate(36.068 -4.445) rotate(-0.0)"/><path d="M -0.2 0.0 A 0.2 0.2 0 1 1 0.2 0.0 L 0.2 -0.0 A 0.2 0.2 0 1 1 -0.2 -0.0 Z" transform="translate(37.465 -6.604) rotate(-0.0)"/><path d="M -0.2 0.0 A 0.2 0.2 0 1 1 0.2 0.0 L 0.2 -0.0 A 0.2 0.2 0 1 1 -0.2 -0.0 Z" transform="translate(37.846 -1.651) rotate(-0.0)"/><path d="M -0.2 0.0 A 0.2 0.2 0 1 1 0.2 0.0 L 0.2 -0.0 A 0.2 0.2 0 1 1 -0.2 -0.0 Z" transform="translate(37.084 -1.651) rotate(-0.0)"/><path d="M -0.2 0.0 A 0.2 0.2 0 1 1 0.2 0.0 L 0.2 -0.0 A 0.2 0.2 0 1 1 -0.2 -0.0 Z" transform="translate(20.447 -6.858) rotate(-0.0)"/><path d="M -0.2 0.0 A 0.2 0.2 0 1 1 0.2 0.0 L 0.2 -0.0 A 0.2 0.2 0 1 1 -0.2 -0.0 Z" transform="translate(34.671 -6.985) rotate(-0.0)"/><path d="M -0.2 0.0 A 0.2 0.2 0 1 1 0.2 0.0 L 0.2 -0.0 A 0.2 0.2 0 1 1 -0.2 -0.0 Z" transform="translate(13.335 -8.382) rotate(-0.0)"/><path d="M -0.2 0.0 A 0.2 0.2 0 1 1 0.2 0.0 L 0.2 -0.0 A 0.2 0.2 0 1 1 -0.2 -0.0 Z" transform="translate(29.972 -5.276002) rotate(-0.0)"/></g></g><g id="substrate-paste" style="fill:#8a8a8a; stroke:#8a8a8a;"><g style="fill-opacity: 0.0;stroke-width: 0.0000;stroke-opacity: 1;stroke-linecap: round;stroke-linejoin: round">
<g style="fill-opacity: 1.0000;stroke-width: 0.0000;stroke-opacity: 1;stroke-linecap: round;stroke-linejoin: round">
<path style="fill-opacity: 1.0000;stroke-width: 0.0000;stroke-opacity: 1;stroke-linecap: round;stroke-linejoin: round;fill-rule: evenodd" d="M 32.9250,-2.5750 32.9250,-3.7750 36.9250,-3.7750 36.9250,-2.5750 Z"/> 
</g>
<g style="fill-opacity: 1.0000;stroke-width: 0.0000;stroke-opacity: 1;stroke-linecap: round;stroke-linejoin: round">
<path style="fill-opacity: 1.0000;stroke-width: 0.0000;stroke-opacity: 1;stroke-linecap: round;stroke-linejoin: round;fill-rule: evenodd" d="M 32.9250,-7.4010 32.9250,-8.6010 36.9250,-8.6010 36.9250,-7.4010 Z"/> 
</g>
<g style="fill-opacity: 1.0000;stroke-width: 0.0000;stroke-opacity: 1;stroke-linecap: round;stroke-linejoin: round">
<path style="fill-opacity: 1.0000;stroke-width: 0.0000;stroke-opacity: 1;stroke-linecap: round;stroke-linejoin: round;fill-rule: evenodd" d="M 32.9250,-5.2420 32.9250,-6.4420 36.9250,-6.4420 36.9250,-5.2420 Z"/> 
</g>
<g style="fill-opacity: 1.0000;stroke-width: 0.0000;stroke-opacity: 1;stroke-linecap: round;stroke-linejoin: round">
<path style="fill-opacity: 1.0000;stroke-width: 0.0000;stroke-opacity: 1;stroke-linecap: round;stroke-linejoin: round;fill-rule: evenodd" d="M 32.9250,-0.4160 32.9250,-1.6160 36.9250,-1.6160 36.9250,-0.4160 Z"/> 
</g>
</g> 
</g></g><g transform="" id="componentContainer"><!--Mlab_Pin_Headers:Straight_2x01:J3--><g transform="translate(38.735 -4.572) scale(0.9999998832685189, 0.999999961538611) rotate(90.0) translate(-2.5699999 -1.3)"><g id="pref_12_Mlab_Pin_Headers__Straight_2x01_CONN1_2"><g id="pref_13pin" style="display:inline">
    <rect style="opacity:1;fill:#000000;fill-opacity:1;fill-rule:nonzero;stroke:#141414;stroke-width:1.15387;stroke-linecap:round;stroke-linejoin:bevel;stroke-miterlimit:4;stroke-dasharray:none;stroke-opacity:1" id="pref_13rect4686" width="1.4461316" height="1.4461316" x="0.57693499" y="0.57693422"/>
    <rect y="1.0419546" x="1.0419546" height="0.51612419" width="0.51612419" id="pref_13rect156830" style="opacity:1;fill:#fcf23a;fill-opacity:1;fill-rule:nonzero;stroke:#eb9d02;stroke-width:0.123876;stroke-linecap:round;stroke-linejoin:bevel;stroke-miterlimit:4;stroke-dasharray:none;stroke-opacity:1"/>
  </g>
  <g transform="translate(0,99.060006)" id="pref_13g241" style="display:inline">
    <rect style="display:inline;fill:#000000;fill-opacity:1;fill-rule:nonzero;stroke:#141414;stroke-width:1.15387;stroke-linecap:round;stroke-linejoin:bevel;stroke-miterlimit:4;stroke-dasharray:none;stroke-opacity:1" id="pref_13rect4686-3" width="1.4461316" height="1.4461316" x="3.116935" y="-98.483063"/>
    <rect y="-98.018044" x="3.5819547" height="0.51612419" width="0.51612419" id="pref_13rect156830-6" style="display:inline;fill:#fcf23a;fill-opacity:1;fill-rule:nonzero;stroke:#eb9d02;stroke-width:0.123876;stroke-linecap:round;stroke-linejoin:bevel;stroke-miterlimit:4;stroke-dasharray:none;stroke-opacity:1"/>
  </g>
  </g></g><!--Mlab_Pin_Headers:Straight_1x01:J2--><g transform="translate(31.115 -4.699) scale(0.9999997307694067, 0.9999998461539289) rotate(-0.0) translate(-1.2999998 -1.2999998)"><g id="pref_12_Mlab_Pin_Headers__Straight_1x01_CONN1_1"><g id="pref_14pin" style="display:inline">
    <rect style="opacity:1;fill:#000000;fill-opacity:1;fill-rule:nonzero;stroke:#141414;stroke-width:1.15387;stroke-linecap:round;stroke-linejoin:bevel;stroke-miterlimit:4;stroke-dasharray:none;stroke-opacity:1" id="pref_14rect4686" width="1.4461316" height="1.4461316" x="0.57693499" y="0.57693422"/>
    <rect y="1.0419546" x="1.0419546" height="0.51612419" width="0.51612419" id="pref_14rect156830" style="opacity:1;fill:#fcf23a;fill-opacity:1;fill-rule:nonzero;stroke:#eb9d02;stroke-width:0.123876;stroke-linecap:round;stroke-linejoin:bevel;stroke-miterlimit:4;stroke-dasharray:none;stroke-opacity:1"/>
  </g>
  </g></g><!--Mlab_Pin_Headers:Straight_2x05:J1--><g transform="translate(15.367 -3.302) scale(0.9999998832685189, 1.0000000783697953) rotate(-90.0) translate(-2.5699999 -6.3799996)"><g id="pref_12_Mlab_Pin_Headers__Straight_2x05_JUMP_5X2"><g id="pref_15pin" style="display:inline">
    <rect style="opacity:1;fill:#000000;fill-opacity:1;fill-rule:nonzero;stroke:#141414;stroke-width:1.15387;stroke-linecap:round;stroke-linejoin:bevel;stroke-miterlimit:4;stroke-dasharray:none;stroke-opacity:1" id="pref_15rect4686" width="1.4461316" height="1.4461316" x="0.57693499" y="0.57693422"/>
    <rect y="1.0419546" x="1.0419546" height="0.51612419" width="0.51612419" id="pref_15rect156830" style="opacity:1;fill:#fcf23a;fill-opacity:1;fill-rule:nonzero;stroke:#eb9d02;stroke-width:0.123876;stroke-linecap:round;stroke-linejoin:bevel;stroke-miterlimit:4;stroke-dasharray:none;stroke-opacity:1"/>
  </g>
  <g transform="translate(0,2.5400144)" id="pref_15g13" style="display:inline">
    <rect style="opacity:1;fill:#000000;fill-opacity:1;fill-rule:nonzero;stroke:#141414;stroke-width:1.15387;stroke-linecap:round;stroke-linejoin:bevel;stroke-miterlimit:4;stroke-dasharray:none;stroke-opacity:1" id="pref_15rect9" width="1.4461316" height="1.4461316" x="0.57693499" y="0.57693422"/>
    <rect y="1.0419546" x="1.0419546" height="0.51612419" width="0.51612419" id="pref_15rect11" style="opacity:1;fill:#fcf23a;fill-opacity:1;fill-rule:nonzero;stroke:#eb9d02;stroke-width:0.123876;stroke-linecap:round;stroke-linejoin:bevel;stroke-miterlimit:4;stroke-dasharray:none;stroke-opacity:1"/>
  </g>
  <g transform="translate(0,5.0800144)" id="pref_15g19">
    <rect style="opacity:1;fill:#000000;fill-opacity:1;fill-rule:nonzero;stroke:#141414;stroke-width:1.15387;stroke-linecap:round;stroke-linejoin:bevel;stroke-miterlimit:4;stroke-dasharray:none;stroke-opacity:1" id="pref_15rect15" width="1.4461316" height="1.4461316" x="0.57693499" y="0.57693422"/>
    <rect y="1.0419546" x="1.0419546" height="0.51612419" width="0.51612419" id="pref_15rect17" style="opacity:1;fill:#fcf23a;fill-opacity:1;fill-rule:nonzero;stroke:#eb9d02;stroke-width:0.123876;stroke-linecap:round;stroke-linejoin:bevel;stroke-miterlimit:4;stroke-dasharray:none;stroke-opacity:1"/>
  </g>
  <g transform="translate(0,7.6200144)" id="pref_15g25">
    <rect style="opacity:1;fill:#000000;fill-opacity:1;fill-rule:nonzero;stroke:#141414;stroke-width:1.15387;stroke-linecap:round;stroke-linejoin:bevel;stroke-miterlimit:4;stroke-dasharray:none;stroke-opacity:1" id="pref_15rect21" width="1.4461316" height="1.4461316" x="0.57693499" y="0.57693422"/>
    <rect y="1.0419546" x="1.0419546" height="0.51612419" width="0.51612419" id="pref_15rect23" style="opacity:1;fill:#fcf23a;fill-opacity:1;fill-rule:nonzero;stroke:#eb9d02;stroke-width:0.123876;stroke-linecap:round;stroke-linejoin:bevel;stroke-miterlimit:4;stroke-dasharray:none;stroke-opacity:1"/>
  </g>
  <g transform="translate(0,10.160018)" id="pref_15g31">
    <rect style="opacity:1;fill:#000000;fill-opacity:1;fill-rule:nonzero;stroke:#141414;stroke-width:1.15387;stroke-linecap:round;stroke-linejoin:bevel;stroke-miterlimit:4;stroke-dasharray:none;stroke-opacity:1" id="pref_15rect27" width="1.4461316" height="1.4461316" x="0.57693499" y="0.57693422"/>
    <rect y="1.0419546" x="1.0419546" height="0.51612419" width="0.51612419" id="pref_15rect29" style="opacity:1;fill:#fcf23a;fill-opacity:1;fill-rule:nonzero;stroke:#eb9d02;stroke-width:0.123876;stroke-linecap:round;stroke-linejoin:bevel;stroke-miterlimit:4;stroke-dasharray:none;stroke-opacity:1"/>
  </g>
  <g transform="translate(0,99.060018)" id="pref_15g241" style="display:inline">
    <rect style="display:inline;fill:#000000;fill-opacity:1;fill-rule:nonzero;stroke:#141414;stroke-width:1.15387;stroke-linecap:round;stroke-linejoin:bevel;stroke-miterlimit:4;stroke-dasharray:none;stroke-opacity:1" id="pref_15rect4686-3" width="1.4461316" height="1.4461316" x="3.116935" y="-98.483063"/>
    <rect y="-98.018044" x="3.5819547" height="0.51612419" width="0.51612419" id="pref_15rect156830-6" style="display:inline;fill:#fcf23a;fill-opacity:1;fill-rule:nonzero;stroke:#eb9d02;stroke-width:0.123876;stroke-linecap:round;stroke-linejoin:bevel;stroke-miterlimit:4;stroke-dasharray:none;stroke-opacity:1"/>
    <rect style="display:inline;fill:#000000;fill-opacity:1;fill-rule:nonzero;stroke:#141414;stroke-width:1.15387;stroke-linecap:round;stroke-linejoin:bevel;stroke-miterlimit:4;stroke-dasharray:none;stroke-opacity:1" id="pref_15rect9-5" width="1.4461316" height="1.4461316" x="3.116935" y="-95.943069"/>
    <rect y="-95.478043" x="3.5819547" height="0.51612419" width="0.51612419" id="pref_15rect11-3" style="display:inline;fill:#fcf23a;fill-opacity:1;fill-rule:nonzero;stroke:#eb9d02;stroke-width:0.123876;stroke-linecap:round;stroke-linejoin:bevel;stroke-miterlimit:4;stroke-dasharray:none;stroke-opacity:1"/>
    <rect style="fill:#000000;fill-opacity:1;fill-rule:nonzero;stroke:#141414;stroke-width:1.15387;stroke-linecap:round;stroke-linejoin:bevel;stroke-miterlimit:4;stroke-dasharray:none;stroke-opacity:1" id="pref_15rect15-5" width="1.4461316" height="1.4461316" x="3.116935" y="-93.403069"/>
    <rect y="-92.938042" x="3.5819547" height="0.51612419" width="0.51612419" id="pref_15rect17-6" style="fill:#fcf23a;fill-opacity:1;fill-rule:nonzero;stroke:#eb9d02;stroke-width:0.123876;stroke-linecap:round;stroke-linejoin:bevel;stroke-miterlimit:4;stroke-dasharray:none;stroke-opacity:1"/>
    <rect style="fill:#000000;fill-opacity:1;fill-rule:nonzero;stroke:#141414;stroke-width:1.15387;stroke-linecap:round;stroke-linejoin:bevel;stroke-miterlimit:4;stroke-dasharray:none;stroke-opacity:1" id="pref_15rect21-2" width="1.4461316" height="1.4461316" x="3.116935" y="-90.863068"/>
    <rect y="-90.398048" x="3.5819547" height="0.51612419" width="0.51612419" id="pref_15rect23-9" style="fill:#fcf23a;fill-opacity:1;fill-rule:nonzero;stroke:#eb9d02;stroke-width:0.123876;stroke-linecap:round;stroke-linejoin:bevel;stroke-miterlimit:4;stroke-dasharray:none;stroke-opacity:1"/>
    <rect style="fill:#000000;fill-opacity:1;fill-rule:nonzero;stroke:#141414;stroke-width:1.15387;stroke-linecap:round;stroke-linejoin:bevel;stroke-miterlimit:4;stroke-dasharray:none;stroke-opacity:1" id="pref_15rect27-1" width="1.4461316" height="1.4461316" x="3.116935" y="-88.323067"/>
    <rect y="-87.858047" x="3.5819547" height="0.51612419" width="0.51612419" id="pref_15rect29-2" style="fill:#fcf23a;fill-opacity:1;fill-rule:nonzero;stroke:#eb9d02;stroke-width:0.123876;stroke-linecap:round;stroke-linejoin:bevel;stroke-miterlimit:4;stroke-dasharray:none;stroke-opacity:1"/>
  </g>
  </g></g><!--Mlab_Mechanical:MountingHole_3mm.back:M1--><g transform="translate(5.08 -4.572) scale(1.0, 1.0) rotate(-0.0) translate(-0.75 -0.75)"><g id="pref_12_Mlab_Mechanical__MountingHole_3mmback_HOLE"><defs xmlns:xlink="http://www.w3.org/1999/xlink" id="pref_16defs13">
    <linearGradient id="pref_16linearGradient3674">
      <stop style="stop-color:#2b2b2b;stop-opacity:1" offset="0" id="pref_16stop3666"/>
      <stop style="stop-color:#5e5e5e;stop-opacity:0.78431374" offset="0.48605427" id="pref_16stop4288"/>
      <stop style="stop-color:#838383;stop-opacity:0" offset="0.53796667" id="pref_16stop3668"/>
      <stop style="stop-color:#dcdcdc;stop-opacity:0" offset="0.76845002" id="pref_16stop3670"/>
      <stop style="stop-color:#e4e4e4;stop-opacity:0.88235301" offset="1" id="pref_16stop3672"/>
    </linearGradient>
    <linearGradient id="pref_16linearGradient2885">
      <stop style="stop-color:#8f8f8f;stop-opacity:1" offset="0" id="pref_16stop2881"/>
      <stop style="stop-color:#e5e5e5;stop-opacity:1" offset="1" id="pref_16stop2883"/>
    </linearGradient>
    <linearGradient id="pref_16linearGradient1894">
      <stop style="stop-color:#b2b2b2;stop-opacity:1" offset="0" id="pref_16stop1890"/>
      <stop style="stop-color:#838383;stop-opacity:1" offset="0.3359659" id="pref_16stop2785"/>
      <stop style="stop-color:#dcdcdc;stop-opacity:1" offset="0.76141548" id="pref_16stop2655"/>
      <stop style="stop-color:#bebebe;stop-opacity:1" offset="1" id="pref_16stop1892"/>
    </linearGradient>
    <linearGradient id="pref_16linearGradient3692-7">
      <stop style="stop-color:#d3d3d3;stop-opacity:1;" offset="0" id="pref_16stop3688"/>
      <stop style="stop-color:#b2b2b2;stop-opacity:1" offset="0.81006318" id="pref_16stop5318"/>
      <stop style="stop-color:#c8c8c8;stop-opacity:1" offset="0.87439835" id="pref_16stop4242"/>
      <stop style="stop-color:#b8b8b8;stop-opacity:1;" offset="0.94349736" id="pref_16stop4310"/>
      <stop style="stop-color:#aeaeae;stop-opacity:1" offset="1" id="pref_16stop3690"/>
    </linearGradient>
    <radialGradient xlink:href="#pref_16linearGradient3692-7" id="pref_16radialGradient1176" cx="0.75" cy="0.75" fx="0.75" fy="0.75" r="1.5" gradientUnits="userSpaceOnUse"/>
    <linearGradient xlink:href="#pref_16linearGradient1894" id="pref_16linearGradient1902" x1="-0.24704969" y1="-10.608996" x2="8.4657993" y2="-5.57863" gradientUnits="userSpaceOnUse"/>
    <linearGradient xlink:href="#pref_16linearGradient2885" id="pref_16linearGradient2887" x1="-0.24704971" y1="-8.0938129" x2="8.4657997" y2="-8.0938129" gradientUnits="userSpaceOnUse"/>
    <radialGradient xlink:href="#pref_16linearGradient3674" id="pref_16radialGradient3506" cx="4.109375" cy="-8.0938129" fx="4.109375" fy="-8.0938129" r="4.3564248" gradientTransform="matrix(1.1330715,0.01077876,-0.01098402,1.1546483,-0.63574335,1.2074004)" gradientUnits="userSpaceOnUse"/>
    <linearGradient xlink:href="#pref_16linearGradient1894" id="pref_16linearGradient1902-1" x1="-0.24704969" y1="-10.608996" x2="8.4657993" y2="-5.57863" gradientUnits="userSpaceOnUse"/>
    <linearGradient xlink:href="#pref_16linearGradient2885" id="pref_16linearGradient2887-3" x1="-0.2470497" y1="-8.0938129" x2="8.4657993" y2="-8.0938129" gradientUnits="userSpaceOnUse"/>
    <radialGradient xlink:href="#pref_16linearGradient3674" id="pref_16radialGradient3506-6" cx="4.109375" cy="-8.0938129" fx="4.109375" fy="-8.0938129" r="4.3564248" gradientTransform="matrix(1.1330715,0.01077876,-0.01098402,1.1546483,-0.63574335,1.2074004)" gradientUnits="userSpaceOnUse"/>
    <linearGradient xlink:href="#pref_16linearGradient3692" id="pref_16linearGradient6924" gradientUnits="userSpaceOnUse" x1="1.4987922" y1="4.3924975" x2="-1.0811033" y2="-3.0084407"/>
    <linearGradient id="pref_16linearGradient3692">
      <stop style="stop-color:#e4e4e4;stop-opacity:1" offset="0" id="pref_16stop6926"/>
      <stop style="stop-color:#e5e5e5;stop-opacity:1" offset="0.1656336" id="pref_16stop6928"/>
      <stop style="stop-color:#f5f5f5;stop-opacity:1" offset="0.29162589" id="pref_16stop6930"/>
      <stop style="stop-color:#c6c6c6;stop-opacity:1;" offset="0.38067153" id="pref_16stop6932"/>
      <stop style="stop-color:#dddddd;stop-opacity:1" offset="0.57577699" id="pref_16stop6934"/>
      <stop style="stop-color:#f2f2f2;stop-opacity:1" offset="0.66836077" id="pref_16stop6936"/>
      <stop style="stop-color:#ebebeb;stop-opacity:1" offset="0.79280978" id="pref_16stop6938"/>
      <stop style="stop-color:#efefef;stop-opacity:1" offset="1" id="pref_16stop6940"/>
    </linearGradient>
  </defs>
  <circle style="fill:url(#pref_16linearGradient6924);fill-opacity:1;stroke:#cecece;stroke-width:0.05;stroke-miterlimit:4;stroke-dasharray:none;stroke-opacity:1" id="pref_16path6642" cx="0.75" cy="0.75" r="3.5"/>
  <g xmlns:sodipodi="http://sodipodi.sourceforge.net/DTD/sodipodi-0.dtd" id="pref_16g5432-9" transform="rotate(16.945707,0.75000009,0.75000001)">
    <path sodipodi:type="star" style="opacity:1;fill:url(#pref_16linearGradient1902-1);fill-opacity:1;stroke:url(#pref_16linearGradient2887-3);stroke-width:0.0984229;stroke-linecap:round;stroke-linejoin:round;stroke-miterlimit:4;stroke-dasharray:none" id="pref_16path1634-2" sodipodi:sides="6" sodipodi:cx="4.109375" sodipodi:cy="-8.0938129" sodipodi:r1="5.0303659" sodipodi:r2="4.3564248" sodipodi:arg1="0.52359878" sodipodi:arg2="1.0471976" transform="matrix(0.47378978,0.39955401,-0.39955401,0.47378978,-4.4308952,2.9428486)" d="m 8.4657997,-5.57863 -4.3564247,2.515183 -4.35642471,-2.515183 2e-8,-5.030366 4.35642469,-2.515183 4.3564247,2.515183 z"/>
    <path sodipodi:type="star" style="opacity:1;fill:url(#pref_16radialGradient3506-6);fill-opacity:1;stroke:none;stroke-width:0.0984229;stroke-linecap:round;stroke-linejoin:round;stroke-miterlimit:4;stroke-dasharray:none" id="pref_16path1634-9-0" sodipodi:sides="6" sodipodi:cx="4.109375" sodipodi:cy="-8.0938129" sodipodi:r1="5.0303659" sodipodi:r2="4.3564248" sodipodi:arg1="0.52359878" sodipodi:arg2="1.0471976" transform="matrix(0.47378978,0.39955401,-0.39955401,0.47378978,-4.4308952,2.9428486)" d="m 8.4657997,-5.57863 -4.3564247,2.515183 -4.35642471,-2.515183 2e-8,-5.030366 4.35642469,-2.515183 4.3564247,2.515183 z"/>
  </g>
  <g xmlns:sodipodi="http://sodipodi.sourceforge.net/DTD/sodipodi-0.dtd" id="pref_16g5432">
    <path sodipodi:type="star" style="opacity:1;fill:url(#pref_16linearGradient1902);fill-opacity:1;stroke:url(#pref_16linearGradient2887);stroke-width:0.0984229;stroke-linecap:round;stroke-linejoin:round;stroke-miterlimit:4;stroke-dasharray:none" id="pref_16path1634" sodipodi:sides="6" sodipodi:cx="4.109375" sodipodi:cy="-8.0938129" sodipodi:r1="5.0303659" sodipodi:r2="4.3564248" sodipodi:arg1="0.52359878" sodipodi:arg2="1.0471976" d="m 8.4657997,-5.57863 -4.3564247,2.515183 -4.35642471,-2.515183 2e-8,-5.030366 4.35642469,-2.515183 4.3564247,2.515183 z" transform="matrix(0.47378978,0.39955401,-0.39955401,0.47378978,-4.4308952,2.9428486)"/>
    <path sodipodi:type="star" style="opacity:1;fill:url(#pref_16radialGradient3506);fill-opacity:1;stroke:none;stroke-width:0.0984229;stroke-linecap:round;stroke-linejoin:round;stroke-miterlimit:4;stroke-dasharray:none" id="pref_16path1634-9" sodipodi:sides="6" sodipodi:cx="4.109375" sodipodi:cy="-8.0938129" sodipodi:r1="5.0303659" sodipodi:r2="4.3564248" sodipodi:arg1="0.52359878" sodipodi:arg2="1.0471976" transform="matrix(0.47378978,0.39955401,-0.39955401,0.47378978,-4.4308952,2.9428486)" d="m 8.4657997,-5.57863 -4.3564247,2.515183 -4.35642471,-2.515183 2e-8,-5.030366 4.35642469,-2.515183 4.3564247,2.515183 z"/>
  </g>
  <circle style="opacity:1;fill:url(#pref_16radialGradient1176);fill-opacity:1;stroke-width:0.0202753;stroke:#848484;stroke-opacity:1" id="pref_16path1030" cx="0.75" cy="0.75" r="1.5"/>
</g></g><!--Mlab_Mechanical:MountingHole_3mm.back:M2--><g transform="translate(25.4 -4.572) scale(1.0, 1.0) rotate(-0.0) translate(-0.75 -0.75)"><use xmlns:xlink="http://www.w3.org/1999/xlink" xlink:href="#pref_12_Mlab_Mechanical__MountingHole_3mmback_HOLE"/></g></g></svg>