%TF.GenerationSoftware,KiCad,Pcbnew,7.0.7-7.0.7~ubuntu23.04.1*%
%TF.CreationDate,2023-09-17T11:45:57+00:00*%
%TF.ProjectId,RGBC01,52474243-3031-42e6-9b69-6361645f7063,rev?*%
%TF.SameCoordinates,Original*%
%TF.FileFunction,Soldermask,Bot*%
%TF.FilePolarity,Negative*%
%FSLAX46Y46*%
G04 Gerber Fmt 4.6, Leading zero omitted, Abs format (unit mm)*
G04 Created by KiCad (PCBNEW 7.0.7-7.0.7~ubuntu23.04.1) date 2023-09-17 11:45:57*
%MOMM*%
%LPD*%
G01*
G04 APERTURE LIST*
%ADD10R,1.000000X1.000000*%
%ADD11R,1.524000X1.524000*%
%ADD12C,6.000000*%
%ADD13R,1.000000X0.400000*%
%ADD14R,1.397000X0.889000*%
%ADD15R,1.300480X1.699260*%
%ADD16R,0.889000X1.397000*%
G04 APERTURE END LIST*
D10*
%TO.C,J3*%
X38735000Y5572000D03*
X38735000Y3572000D03*
%TD*%
%TO.C,J2*%
X31115000Y4699000D03*
%TD*%
D11*
%TO.C,J1*%
X10287000Y2032000D03*
X10287000Y4572000D03*
X12827000Y2032000D03*
X12827000Y4572000D03*
X15367000Y2032000D03*
X15367000Y4572000D03*
X17907000Y2032000D03*
X17907000Y4572000D03*
X20447000Y2032000D03*
X20447000Y4572000D03*
%TD*%
D12*
%TO.C,M1*%
X5080000Y4572000D03*
%TD*%
%TO.C,M2*%
X25400000Y4572000D03*
%TD*%
D13*
%TO.C,X1*%
X34405000Y5349000D03*
X34405000Y4699000D03*
X34405000Y4049000D03*
X32905000Y4049000D03*
X32905000Y4699000D03*
X32905000Y5349000D03*
%TD*%
D14*
%TO.C,C1*%
X35687000Y571500D03*
X35687000Y2476500D03*
%TD*%
%TO.C,C2*%
X31115000Y6794500D03*
X31115000Y8699500D03*
%TD*%
%TO.C,R1*%
X30607000Y571500D03*
X30607000Y2476500D03*
%TD*%
%TO.C,R3*%
X33655000Y571500D03*
X33655000Y2476500D03*
%TD*%
%TO.C,R4*%
X33401000Y8699500D03*
X33401000Y6794500D03*
%TD*%
D15*
%TO.C,D1*%
X11584940Y7366000D03*
X15085060Y7366000D03*
%TD*%
D14*
%TO.C,D2*%
X37465000Y5524500D03*
X37465000Y3619500D03*
%TD*%
D16*
%TO.C,C3*%
X39433500Y7493000D03*
X37528500Y7493000D03*
%TD*%
D14*
%TO.C,R2*%
X35814000Y8699500D03*
X35814000Y6794500D03*
%TD*%
M02*
