M48
; DRILL file {KiCad 7.0.7-7.0.7~ubuntu23.04.1} date Sun Sep 17 11:45:57 2023
; FORMAT={3:3/ absolute / metric / suppress leading zeros}
; #@! TF.CreationDate,2023-09-17T11:45:57+00:00
; #@! TF.GenerationSoftware,Kicad,Pcbnew,7.0.7-7.0.7~ubuntu23.04.1
; #@! TF.FileFunction,Plated,1,2,PTH
FMAT,2
METRIC,TZ
; #@! TA.AperFunction,Plated,PTH,ViaDrill
T1C0.400
; #@! TA.AperFunction,Plated,PTH,ComponentDrill
T2C0.762
; #@! TA.AperFunction,Plated,PTH,ComponentDrill
T3C0.889
; #@! TA.AperFunction,Plated,PTH,ComponentDrill
T4C3.000
%
G90
G05
T1
X13335Y8382
X20447Y6858
X28552Y531
X29972Y5276
X34671Y6985
X36068Y4445
X37084Y1651
X37465Y6604
X37846Y1651
T2
X31115Y4699
X38735Y5572
X38735Y3572
T3
X10287Y4572
X10287Y2032
X12827Y4572
X12827Y2032
X15367Y4572
X15367Y2032
X17907Y4572
X17907Y2032
X20447Y4572
X20447Y2032
T4
X5080Y4572
X25400Y4572
T0
M30
