%TF.GenerationSoftware,KiCad,Pcbnew,7.0.7-7.0.7~ubuntu23.04.1*%
%TF.CreationDate,2023-09-17T11:45:57+00:00*%
%TF.ProjectId,RGBC01,52474243-3031-42e6-9b69-6361645f7063,rev?*%
%TF.SameCoordinates,Original*%
%TF.FileFunction,Copper,L1,Top*%
%TF.FilePolarity,Positive*%
%FSLAX46Y46*%
G04 Gerber Fmt 4.6, Leading zero omitted, Abs format (unit mm)*
G04 Created by KiCad (PCBNEW 7.0.7-7.0.7~ubuntu23.04.1) date 2023-09-17 11:45:57*
%MOMM*%
%LPD*%
G01*
G04 APERTURE LIST*
%TA.AperFunction,ComponentPad*%
%ADD10R,1.000000X1.000000*%
%TD*%
%TA.AperFunction,ComponentPad*%
%ADD11R,1.524000X1.524000*%
%TD*%
%TA.AperFunction,SMDPad,CuDef*%
%ADD12R,4.000000X1.200000*%
%TD*%
%TA.AperFunction,ComponentPad*%
%ADD13C,6.000000*%
%TD*%
%TA.AperFunction,ViaPad*%
%ADD14C,0.600000*%
%TD*%
%TA.AperFunction,Conductor*%
%ADD15C,0.400000*%
%TD*%
G04 APERTURE END LIST*
D10*
%TO.P,J3,1*%
%TO.N,VDD*%
X38735000Y5572000D03*
%TO.P,J3,2*%
%TO.N,Net-(D2-Pad2)*%
X38735000Y3572000D03*
%TD*%
%TO.P,J2,1*%
%TO.N,Net-(J2-Pad1)*%
X31115000Y4699000D03*
%TD*%
D11*
%TO.P,J1,1*%
%TO.N,GND*%
X10287000Y2032000D03*
%TO.P,J1,2*%
X10287000Y4572000D03*
%TO.P,J1,3*%
%TO.N,/SCL*%
X12827000Y2032000D03*
%TO.P,J1,4*%
X12827000Y4572000D03*
%TO.P,J1,5*%
%TO.N,VDD*%
X15367000Y2032000D03*
%TO.P,J1,6*%
X15367000Y4572000D03*
%TO.P,J1,7*%
%TO.N,/SDA*%
X17907000Y2032000D03*
%TO.P,J1,8*%
X17907000Y4572000D03*
%TO.P,J1,9*%
%TO.N,GND*%
X20447000Y2032000D03*
%TO.P,J1,10*%
X20447000Y4572000D03*
%TD*%
D12*
%TO.P,J4,1*%
%TO.N,VDD*%
X34925000Y3175000D03*
%TD*%
%TO.P,J5,1*%
%TO.N,/SCL*%
X34925000Y8001000D03*
%TD*%
%TO.P,J6,1*%
%TO.N,/SDA*%
X34925000Y5842000D03*
%TD*%
%TO.P,J7,1*%
%TO.N,GND*%
X34925000Y1016000D03*
%TD*%
D13*
%TO.P,M1,1*%
%TO.N,GND*%
X5080000Y4572000D03*
%TD*%
%TO.P,M2,1*%
%TO.N,GND*%
X25400000Y4572000D03*
%TD*%
D14*
%TO.N,VDD*%
X28552482Y530518D03*
%TO.N,GND*%
X36068000Y4445000D03*
X37465000Y6604000D03*
X37846000Y1651000D03*
X37084000Y1651000D03*
X20447000Y6858000D03*
%TO.N,/SCL*%
X34671000Y6985000D03*
X13335000Y8382000D03*
%TO.N,/SDA*%
X29972000Y5276002D03*
%TD*%
D15*
%TO.N,VDD*%
X34925000Y3175000D02*
X33782000Y3175000D01*
X33525000Y3175000D02*
X34925000Y3175000D01*
X15367000Y2032000D02*
X15367000Y870000D01*
X28575000Y508000D02*
X28552482Y530518D01*
X29057313Y508000D02*
X28575000Y508000D01*
X34925000Y3175000D02*
X36325000Y3175000D01*
X15367000Y870000D02*
X15729000Y508000D01*
X15729000Y508000D02*
X29057313Y508000D01*
X29057313Y508000D02*
X30858000Y508000D01*
X30858000Y508000D02*
X33525000Y3175000D01*
%TO.N,GND*%
X34925000Y1016000D02*
X37084000Y1651000D01*
X20447000Y4572000D02*
X20447000Y6858000D01*
%TO.N,/SCL*%
X13725001Y8772001D02*
X13335000Y8382000D01*
X34925000Y8001000D02*
X28187002Y8001000D01*
X28187002Y8001000D02*
X27416001Y8772001D01*
X27416001Y8772001D02*
X16284163Y8772001D01*
X36139498Y8001000D02*
X34925000Y8001000D01*
X34671000Y6985000D02*
X34671000Y7747000D01*
X16284163Y8772001D02*
X13725001Y8772001D01*
X34671000Y7747000D02*
X34925000Y8001000D01*
%TO.N,/SDA*%
X34925000Y5842000D02*
X30537998Y5842000D01*
X34798000Y5715000D02*
X34925000Y5842000D01*
X30537998Y5842000D02*
X29972000Y5276002D01*
%TD*%
%TA.AperFunction,Conductor*%
%TO.N,GND*%
G36*
X12982703Y9327498D02*
G01*
X13029196Y9273842D01*
X13039300Y9203568D01*
X13009806Y9138988D01*
X12981618Y9114813D01*
X12827720Y9018112D01*
X12827718Y9018111D01*
X12698888Y8889281D01*
X12698887Y8889279D01*
X12601958Y8735018D01*
X12601957Y8735015D01*
X12541783Y8563047D01*
X12521384Y8382000D01*
X12541783Y8200953D01*
X12541783Y8200950D01*
X12541784Y8200949D01*
X12601957Y8028984D01*
X12601958Y8028981D01*
X12698887Y7874720D01*
X12698888Y7874718D01*
X12827718Y7745888D01*
X12827720Y7745887D01*
X12981981Y7648958D01*
X12981984Y7648957D01*
X13153949Y7588784D01*
X13153950Y7588783D01*
X13153953Y7588783D01*
X13304183Y7571856D01*
X13334999Y7568384D01*
X13335000Y7568384D01*
X13516047Y7588783D01*
X13688015Y7648957D01*
X13688018Y7648958D01*
X13842279Y7745887D01*
X13842281Y7745888D01*
X13971111Y7874718D01*
X13971112Y7874720D01*
X14052682Y8004537D01*
X14105860Y8051575D01*
X14159369Y8063501D01*
X16241304Y8063501D01*
X27070340Y8063501D01*
X27138461Y8043499D01*
X27159436Y8026596D01*
X27669528Y7516502D01*
X27672136Y7513731D01*
X27713728Y7466784D01*
X27765341Y7431157D01*
X27768403Y7428904D01*
X27817771Y7390227D01*
X27817781Y7390222D01*
X27827082Y7386035D01*
X27846923Y7374846D01*
X27855328Y7369045D01*
X27913963Y7346807D01*
X27917478Y7345351D01*
X27974667Y7319613D01*
X27974671Y7319611D01*
X27974673Y7319611D01*
X27974674Y7319610D01*
X27974680Y7319609D01*
X27984713Y7317770D01*
X28006663Y7311651D01*
X28016201Y7308034D01*
X28078443Y7300476D01*
X28082203Y7299904D01*
X28143908Y7288598D01*
X28143909Y7288598D01*
X28206513Y7292385D01*
X28210317Y7292500D01*
X32335267Y7292500D01*
X32403388Y7272498D01*
X32449881Y7218842D01*
X32453312Y7210558D01*
X32474111Y7154797D01*
X32474113Y7154791D01*
X32561739Y7037737D01*
X32582272Y7022367D01*
X32624818Y6965531D01*
X32629882Y6894715D01*
X32595856Y6832403D01*
X32582272Y6820633D01*
X32561739Y6805262D01*
X32474113Y6688208D01*
X32474113Y6688207D01*
X32474111Y6688204D01*
X32453320Y6632464D01*
X32410776Y6575632D01*
X32344256Y6550821D01*
X32335267Y6550500D01*
X30561313Y6550500D01*
X30557509Y6550614D01*
X30494905Y6554402D01*
X30433180Y6543090D01*
X30429476Y6542527D01*
X30367197Y6534965D01*
X30367194Y6534964D01*
X30357666Y6531351D01*
X30335702Y6525227D01*
X30325669Y6523389D01*
X30270034Y6498349D01*
X30268471Y6497646D01*
X30264966Y6496194D01*
X30232457Y6483865D01*
X30206330Y6473957D01*
X30206327Y6473955D01*
X30206323Y6473954D01*
X30206320Y6473952D01*
X30206318Y6473951D01*
X30197933Y6468163D01*
X30178068Y6456958D01*
X30168772Y6452775D01*
X30146418Y6435261D01*
X30119399Y6414093D01*
X30116346Y6411846D01*
X30064725Y6376215D01*
X30064722Y6376212D01*
X30023124Y6329257D01*
X30020531Y6326503D01*
X29875232Y6181204D01*
X29768669Y6074641D01*
X29721192Y6044808D01*
X29618985Y6009045D01*
X29618980Y6009042D01*
X29464720Y5912114D01*
X29464718Y5912113D01*
X29335888Y5783283D01*
X29335887Y5783281D01*
X29238958Y5629020D01*
X29238957Y5629017D01*
X29178783Y5457049D01*
X29158384Y5276002D01*
X29178783Y5094955D01*
X29178783Y5094952D01*
X29178784Y5094951D01*
X29238957Y4922986D01*
X29238958Y4922983D01*
X29335887Y4768722D01*
X29335888Y4768720D01*
X29464718Y4639890D01*
X29464720Y4639889D01*
X29618981Y4542960D01*
X29618984Y4542959D01*
X29790949Y4482786D01*
X29790950Y4482785D01*
X29790953Y4482785D01*
X29972000Y4462386D01*
X29972001Y4462386D01*
X29972003Y4462386D01*
X29979076Y4462386D01*
X29979076Y4459537D01*
X30036350Y4449492D01*
X30088546Y4401367D01*
X30106499Y4336547D01*
X30106499Y4150368D01*
X30106501Y4150349D01*
X30113009Y4089803D01*
X30113011Y4089795D01*
X30164110Y3952797D01*
X30164112Y3952792D01*
X30251738Y3835738D01*
X30368792Y3748112D01*
X30368797Y3748110D01*
X30505795Y3697011D01*
X30505803Y3697009D01*
X30566350Y3690500D01*
X30566362Y3690500D01*
X31663649Y3690500D01*
X31724196Y3697009D01*
X31724204Y3697011D01*
X31861202Y3748110D01*
X31861207Y3748112D01*
X31978261Y3835738D01*
X32065887Y3952792D01*
X32065889Y3952797D01*
X32116988Y4089795D01*
X32116990Y4089803D01*
X32123499Y4150350D01*
X32123500Y4150367D01*
X32123500Y5007500D01*
X32143502Y5075621D01*
X32197158Y5122114D01*
X32249500Y5133500D01*
X32335267Y5133500D01*
X32403388Y5113498D01*
X32449881Y5059842D01*
X32453312Y5051558D01*
X32463834Y5023350D01*
X32474113Y4995791D01*
X32561738Y4878738D01*
X32678792Y4791112D01*
X32678797Y4791110D01*
X32815795Y4740011D01*
X32815803Y4740009D01*
X32876350Y4733500D01*
X32876362Y4733500D01*
X36973649Y4733500D01*
X37034196Y4740009D01*
X37034204Y4740011D01*
X37171202Y4791110D01*
X37171207Y4791112D01*
X37288261Y4878738D01*
X37375887Y4995792D01*
X37375889Y4995797D01*
X37386171Y5023362D01*
X37399777Y5059842D01*
X37426988Y5132795D01*
X37426990Y5132803D01*
X37433499Y5193350D01*
X37433500Y5193367D01*
X37433500Y6490632D01*
X37433499Y6490649D01*
X37426990Y6551196D01*
X37426988Y6551204D01*
X37396678Y6632467D01*
X37375889Y6688204D01*
X37288261Y6805261D01*
X37267728Y6820632D01*
X37225181Y6877467D01*
X37220116Y6948283D01*
X37254141Y7010595D01*
X37267728Y7022368D01*
X37288261Y7037738D01*
X37375887Y7154792D01*
X37375889Y7154797D01*
X37426988Y7291795D01*
X37426990Y7291803D01*
X37433499Y7352350D01*
X37433500Y7352367D01*
X37433500Y8649632D01*
X37433499Y8649649D01*
X37426990Y8710196D01*
X37426988Y8710204D01*
X37396678Y8791467D01*
X37375889Y8847204D01*
X37344390Y8889281D01*
X37288261Y8964261D01*
X37171207Y9051887D01*
X37171206Y9051887D01*
X37171204Y9051889D01*
X37093784Y9080765D01*
X37032980Y9103445D01*
X36976144Y9145992D01*
X36951334Y9212512D01*
X36966426Y9281886D01*
X37016628Y9332088D01*
X37077013Y9347500D01*
X40209500Y9347500D01*
X40277621Y9327498D01*
X40324114Y9273842D01*
X40335500Y9221500D01*
X40335500Y-77500D01*
X40315498Y-145621D01*
X40261842Y-192114D01*
X40209500Y-203500D01*
X31454173Y-203500D01*
X31386052Y-183498D01*
X31339559Y-129842D01*
X31329455Y-59568D01*
X31358949Y5012D01*
X31359857Y6049D01*
X31364551Y11348D01*
X31372883Y20753D01*
X31375447Y23477D01*
X33381565Y2029595D01*
X33443877Y2063621D01*
X33470660Y2066500D01*
X36973649Y2066500D01*
X37034196Y2073009D01*
X37034204Y2073011D01*
X37171202Y2124110D01*
X37171207Y2124112D01*
X37288261Y2211738D01*
X37375887Y2328792D01*
X37375889Y2328797D01*
X37426988Y2465795D01*
X37426990Y2465803D01*
X37433499Y2526350D01*
X37433500Y2526367D01*
X37433500Y3023350D01*
X37726500Y3023350D01*
X37733009Y2962803D01*
X37733011Y2962795D01*
X37784110Y2825797D01*
X37784112Y2825792D01*
X37871738Y2708738D01*
X37988792Y2621112D01*
X37988797Y2621110D01*
X38125795Y2570011D01*
X38125803Y2570009D01*
X38186350Y2563500D01*
X38186362Y2563500D01*
X39283649Y2563500D01*
X39344196Y2570009D01*
X39344204Y2570011D01*
X39481202Y2621110D01*
X39481207Y2621112D01*
X39598261Y2708738D01*
X39685887Y2825792D01*
X39685889Y2825797D01*
X39692169Y2842632D01*
X39736989Y2962799D01*
X39736990Y2962803D01*
X39743499Y3023350D01*
X39743500Y3023367D01*
X39743500Y4120632D01*
X39743499Y4120649D01*
X39736990Y4181196D01*
X39736988Y4181204D01*
X39720321Y4225889D01*
X39685889Y4318204D01*
X39598261Y4435261D01*
X39550342Y4471132D01*
X39507796Y4527967D01*
X39502731Y4598783D01*
X39536756Y4661095D01*
X39550343Y4672868D01*
X39598261Y4708738D01*
X39685887Y4825792D01*
X39685889Y4825797D01*
X39736988Y4962795D01*
X39736990Y4962803D01*
X39743499Y5023350D01*
X39743500Y5023367D01*
X39743500Y6120632D01*
X39743499Y6120649D01*
X39736990Y6181196D01*
X39736988Y6181204D01*
X39729960Y6200045D01*
X39685889Y6318204D01*
X39642462Y6376215D01*
X39598261Y6435261D01*
X39481207Y6522887D01*
X39481206Y6522887D01*
X39481204Y6522889D01*
X39344201Y6573989D01*
X39344199Y6573989D01*
X39344196Y6573990D01*
X39283649Y6580499D01*
X39283645Y6580499D01*
X39283638Y6580500D01*
X38186362Y6580500D01*
X38186355Y6580499D01*
X38186350Y6580499D01*
X38125803Y6573990D01*
X38125795Y6573988D01*
X38062823Y6550500D01*
X37988796Y6522889D01*
X37988794Y6522888D01*
X37988792Y6522887D01*
X37871738Y6435261D01*
X37784112Y6318207D01*
X37784110Y6318202D01*
X37733011Y6181204D01*
X37733009Y6181196D01*
X37726500Y6120649D01*
X37726500Y5023350D01*
X37733009Y4962803D01*
X37733011Y4962795D01*
X37784110Y4825797D01*
X37784112Y4825792D01*
X37871737Y4708740D01*
X37919657Y4672868D01*
X37962203Y4616032D01*
X37967267Y4545216D01*
X37933242Y4482904D01*
X37919657Y4471132D01*
X37871739Y4435261D01*
X37871738Y4435259D01*
X37871737Y4435259D01*
X37784112Y4318207D01*
X37784110Y4318202D01*
X37733011Y4181204D01*
X37733009Y4181196D01*
X37726500Y4120649D01*
X37726500Y3023350D01*
X37433500Y3023350D01*
X37433500Y3823632D01*
X37433499Y3823649D01*
X37426990Y3884196D01*
X37426988Y3884204D01*
X37419960Y3903045D01*
X37375889Y4021204D01*
X37288261Y4138261D01*
X37171204Y4225889D01*
X37034201Y4276989D01*
X37034199Y4276989D01*
X37034196Y4276990D01*
X36973649Y4283499D01*
X36973645Y4283499D01*
X36973638Y4283500D01*
X32876362Y4283500D01*
X32876355Y4283499D01*
X32876350Y4283499D01*
X32815803Y4276990D01*
X32815795Y4276988D01*
X32737875Y4247924D01*
X32678796Y4225889D01*
X32678794Y4225888D01*
X32678792Y4225887D01*
X32561738Y4138261D01*
X32474112Y4021207D01*
X32474110Y4021202D01*
X32423011Y3884204D01*
X32423009Y3884196D01*
X32416500Y3823649D01*
X32416499Y3823632D01*
X32416499Y3120660D01*
X32396497Y3052539D01*
X32379594Y3031565D01*
X30601435Y1253405D01*
X30539123Y1219380D01*
X30512340Y1216500D01*
X29016694Y1216500D01*
X28949658Y1235812D01*
X28905497Y1263561D01*
X28733529Y1323735D01*
X28552482Y1344134D01*
X28371435Y1323735D01*
X28199467Y1263561D01*
X28155305Y1235812D01*
X28088270Y1216500D01*
X19303500Y1216500D01*
X19235379Y1236502D01*
X19188886Y1290158D01*
X19177500Y1342500D01*
X19177500Y2842632D01*
X19177499Y2842649D01*
X19170990Y2903196D01*
X19170988Y2903204D01*
X19126175Y3023350D01*
X19119889Y3040204D01*
X19032261Y3157261D01*
X18973657Y3201132D01*
X18931110Y3257968D01*
X18926046Y3328784D01*
X18960071Y3391096D01*
X18973657Y3402868D01*
X19032261Y3446738D01*
X19119887Y3563792D01*
X19119889Y3563797D01*
X19170988Y3700795D01*
X19170990Y3700803D01*
X19177499Y3761350D01*
X19177500Y3761367D01*
X19177500Y5382632D01*
X19177499Y5382649D01*
X19170990Y5443196D01*
X19170988Y5443204D01*
X19163960Y5462045D01*
X19119889Y5580204D01*
X19032261Y5697261D01*
X18917352Y5783281D01*
X18915207Y5784887D01*
X18915206Y5784887D01*
X18915204Y5784889D01*
X18778201Y5835989D01*
X18778199Y5835989D01*
X18778196Y5835990D01*
X18717649Y5842499D01*
X18717645Y5842499D01*
X18717638Y5842500D01*
X17096362Y5842500D01*
X17096355Y5842499D01*
X17096350Y5842499D01*
X17035803Y5835990D01*
X17035795Y5835988D01*
X16957875Y5806924D01*
X16898796Y5784889D01*
X16898794Y5784888D01*
X16898792Y5784887D01*
X16781738Y5697261D01*
X16737868Y5638657D01*
X16681032Y5596110D01*
X16610216Y5591046D01*
X16547904Y5625071D01*
X16536132Y5638657D01*
X16492261Y5697261D01*
X16375207Y5784887D01*
X16375206Y5784887D01*
X16375204Y5784889D01*
X16238201Y5835989D01*
X16238199Y5835989D01*
X16238196Y5835990D01*
X16177649Y5842499D01*
X16177645Y5842499D01*
X16177638Y5842500D01*
X14556362Y5842500D01*
X14556355Y5842499D01*
X14556350Y5842499D01*
X14495803Y5835990D01*
X14495795Y5835988D01*
X14417875Y5806924D01*
X14358796Y5784889D01*
X14358794Y5784888D01*
X14358792Y5784887D01*
X14241738Y5697261D01*
X14197868Y5638657D01*
X14141032Y5596110D01*
X14070216Y5591046D01*
X14007904Y5625071D01*
X13996132Y5638657D01*
X13952261Y5697261D01*
X13835207Y5784887D01*
X13835206Y5784887D01*
X13835204Y5784889D01*
X13698201Y5835989D01*
X13698199Y5835989D01*
X13698196Y5835990D01*
X13637649Y5842499D01*
X13637645Y5842499D01*
X13637638Y5842500D01*
X12016362Y5842500D01*
X12016355Y5842499D01*
X12016350Y5842499D01*
X11955803Y5835990D01*
X11955795Y5835988D01*
X11877875Y5806924D01*
X11818796Y5784889D01*
X11818794Y5784888D01*
X11818792Y5784887D01*
X11701738Y5697261D01*
X11614112Y5580207D01*
X11614110Y5580202D01*
X11563011Y5443204D01*
X11563009Y5443196D01*
X11556500Y5382649D01*
X11556500Y3761350D01*
X11563009Y3700803D01*
X11563011Y3700795D01*
X11614110Y3563797D01*
X11614112Y3563792D01*
X11701739Y3446738D01*
X11760343Y3402867D01*
X11802889Y3346031D01*
X11807953Y3275216D01*
X11773928Y3212904D01*
X11760343Y3201133D01*
X11701739Y3157261D01*
X11614112Y3040207D01*
X11614110Y3040202D01*
X11563011Y2903204D01*
X11563009Y2903196D01*
X11556500Y2842649D01*
X11556500Y1221350D01*
X11563009Y1160803D01*
X11563011Y1160795D01*
X11614110Y1023797D01*
X11614112Y1023792D01*
X11701738Y906738D01*
X11818792Y819112D01*
X11818797Y819110D01*
X11955795Y768011D01*
X11955803Y768009D01*
X12016350Y761500D01*
X12016362Y761500D01*
X13637649Y761500D01*
X13698196Y768009D01*
X13698204Y768011D01*
X13835202Y819110D01*
X13835207Y819112D01*
X13952261Y906739D01*
X13996133Y965343D01*
X14052969Y1007889D01*
X14123784Y1012953D01*
X14186096Y978928D01*
X14197867Y965343D01*
X14241738Y906739D01*
X14358792Y819112D01*
X14358797Y819110D01*
X14495795Y768011D01*
X14495803Y768009D01*
X14556350Y761500D01*
X14556362Y761500D01*
X14561576Y761500D01*
X14629697Y741498D01*
X14676190Y687842D01*
X14685511Y658219D01*
X14685611Y657672D01*
X14685613Y657665D01*
X14711351Y600476D01*
X14712807Y596961D01*
X14735045Y538326D01*
X14740846Y529921D01*
X14752035Y510080D01*
X14756222Y500779D01*
X14756227Y500769D01*
X14794904Y451401D01*
X14797157Y448339D01*
X14832784Y396726D01*
X14879740Y355126D01*
X14882510Y352518D01*
X15211534Y23494D01*
X15214126Y20741D01*
X15214129Y20738D01*
X15227138Y6053D01*
X15257339Y-58195D01*
X15248010Y-128576D01*
X15202111Y-182741D01*
X15134215Y-203492D01*
X15132827Y-203500D01*
X430500Y-203500D01*
X362379Y-183498D01*
X315886Y-129842D01*
X304500Y-77500D01*
X304500Y9221500D01*
X324502Y9289621D01*
X378158Y9336114D01*
X430500Y9347500D01*
X12914582Y9347500D01*
X12982703Y9327498D01*
G37*
%TD.AperFunction*%
%TD*%
M02*
