%TF.GenerationSoftware,KiCad,Pcbnew,7.0.7-7.0.7~ubuntu23.04.1*%
%TF.CreationDate,2023-09-17T11:45:57+00:00*%
%TF.ProjectId,RGBC01,52474243-3031-42e6-9b69-6361645f7063,rev?*%
%TF.SameCoordinates,Original*%
%TF.FileFunction,Copper,L2,Bot*%
%TF.FilePolarity,Positive*%
%FSLAX46Y46*%
G04 Gerber Fmt 4.6, Leading zero omitted, Abs format (unit mm)*
G04 Created by KiCad (PCBNEW 7.0.7-7.0.7~ubuntu23.04.1) date 2023-09-17 11:45:57*
%MOMM*%
%LPD*%
G01*
G04 APERTURE LIST*
%ADD10C,0.300000*%
%TA.AperFunction,NonConductor*%
%ADD11C,0.300000*%
%TD*%
%TA.AperFunction,ComponentPad*%
%ADD12R,1.000000X1.000000*%
%TD*%
%TA.AperFunction,ComponentPad*%
%ADD13R,1.524000X1.524000*%
%TD*%
%TA.AperFunction,ComponentPad*%
%ADD14C,6.000000*%
%TD*%
%TA.AperFunction,SMDPad,CuDef*%
%ADD15R,1.000000X0.400000*%
%TD*%
%TA.AperFunction,SMDPad,CuDef*%
%ADD16R,1.397000X0.889000*%
%TD*%
%TA.AperFunction,SMDPad,CuDef*%
%ADD17R,1.300480X1.699260*%
%TD*%
%TA.AperFunction,SMDPad,CuDef*%
%ADD18R,0.889000X1.397000*%
%TD*%
%TA.AperFunction,ViaPad*%
%ADD19C,0.600000*%
%TD*%
%TA.AperFunction,Conductor*%
%ADD20C,0.400000*%
%TD*%
G04 APERTURE END LIST*
D10*
D11*
X1855804Y8168857D02*
X1236757Y8602190D01*
X1855804Y8911714D02*
X555804Y8911714D01*
X555804Y8911714D02*
X555804Y8416476D01*
X555804Y8416476D02*
X617709Y8292666D01*
X617709Y8292666D02*
X679614Y8230761D01*
X679614Y8230761D02*
X803423Y8168857D01*
X803423Y8168857D02*
X989138Y8168857D01*
X989138Y8168857D02*
X1112947Y8230761D01*
X1112947Y8230761D02*
X1174852Y8292666D01*
X1174852Y8292666D02*
X1236757Y8416476D01*
X1236757Y8416476D02*
X1236757Y8911714D01*
X617709Y6930761D02*
X555804Y7054571D01*
X555804Y7054571D02*
X555804Y7240285D01*
X555804Y7240285D02*
X617709Y7425999D01*
X617709Y7425999D02*
X741519Y7549809D01*
X741519Y7549809D02*
X865328Y7611714D01*
X865328Y7611714D02*
X1112947Y7673618D01*
X1112947Y7673618D02*
X1298661Y7673618D01*
X1298661Y7673618D02*
X1546280Y7611714D01*
X1546280Y7611714D02*
X1670090Y7549809D01*
X1670090Y7549809D02*
X1793900Y7425999D01*
X1793900Y7425999D02*
X1855804Y7240285D01*
X1855804Y7240285D02*
X1855804Y7116476D01*
X1855804Y7116476D02*
X1793900Y6930761D01*
X1793900Y6930761D02*
X1731995Y6868857D01*
X1731995Y6868857D02*
X1298661Y6868857D01*
X1298661Y6868857D02*
X1298661Y7116476D01*
X1174852Y5878380D02*
X1236757Y5692666D01*
X1236757Y5692666D02*
X1298661Y5630761D01*
X1298661Y5630761D02*
X1422471Y5568857D01*
X1422471Y5568857D02*
X1608185Y5568857D01*
X1608185Y5568857D02*
X1731995Y5630761D01*
X1731995Y5630761D02*
X1793900Y5692666D01*
X1793900Y5692666D02*
X1855804Y5816476D01*
X1855804Y5816476D02*
X1855804Y6311714D01*
X1855804Y6311714D02*
X555804Y6311714D01*
X555804Y6311714D02*
X555804Y5878380D01*
X555804Y5878380D02*
X617709Y5754571D01*
X617709Y5754571D02*
X679614Y5692666D01*
X679614Y5692666D02*
X803423Y5630761D01*
X803423Y5630761D02*
X927233Y5630761D01*
X927233Y5630761D02*
X1051042Y5692666D01*
X1051042Y5692666D02*
X1112947Y5754571D01*
X1112947Y5754571D02*
X1174852Y5878380D01*
X1174852Y5878380D02*
X1174852Y6311714D01*
X1731995Y4268857D02*
X1793900Y4330761D01*
X1793900Y4330761D02*
X1855804Y4516476D01*
X1855804Y4516476D02*
X1855804Y4640285D01*
X1855804Y4640285D02*
X1793900Y4825999D01*
X1793900Y4825999D02*
X1670090Y4949809D01*
X1670090Y4949809D02*
X1546280Y5011714D01*
X1546280Y5011714D02*
X1298661Y5073618D01*
X1298661Y5073618D02*
X1112947Y5073618D01*
X1112947Y5073618D02*
X865328Y5011714D01*
X865328Y5011714D02*
X741519Y4949809D01*
X741519Y4949809D02*
X617709Y4825999D01*
X617709Y4825999D02*
X555804Y4640285D01*
X555804Y4640285D02*
X555804Y4516476D01*
X555804Y4516476D02*
X617709Y4330761D01*
X617709Y4330761D02*
X679614Y4268857D01*
X555804Y3464095D02*
X555804Y3340285D01*
X555804Y3340285D02*
X617709Y3216476D01*
X617709Y3216476D02*
X679614Y3154571D01*
X679614Y3154571D02*
X803423Y3092666D01*
X803423Y3092666D02*
X1051042Y3030761D01*
X1051042Y3030761D02*
X1360566Y3030761D01*
X1360566Y3030761D02*
X1608185Y3092666D01*
X1608185Y3092666D02*
X1731995Y3154571D01*
X1731995Y3154571D02*
X1793900Y3216476D01*
X1793900Y3216476D02*
X1855804Y3340285D01*
X1855804Y3340285D02*
X1855804Y3464095D01*
X1855804Y3464095D02*
X1793900Y3587904D01*
X1793900Y3587904D02*
X1731995Y3649809D01*
X1731995Y3649809D02*
X1608185Y3711714D01*
X1608185Y3711714D02*
X1360566Y3773618D01*
X1360566Y3773618D02*
X1051042Y3773618D01*
X1051042Y3773618D02*
X803423Y3711714D01*
X803423Y3711714D02*
X679614Y3649809D01*
X679614Y3649809D02*
X617709Y3587904D01*
X617709Y3587904D02*
X555804Y3464095D01*
X1855804Y1792666D02*
X1855804Y2535523D01*
X1855804Y2164095D02*
X555804Y2164095D01*
X555804Y2164095D02*
X741519Y2287904D01*
X741519Y2287904D02*
X865328Y2411714D01*
X865328Y2411714D02*
X927233Y2535523D01*
X1484376Y1297428D02*
X1484376Y678381D01*
X1855804Y1421238D02*
X555804Y987905D01*
X555804Y987905D02*
X1855804Y554571D01*
D10*
D11*
X8643666Y7796195D02*
X8643666Y9096195D01*
X8643666Y9096195D02*
X8210332Y8167623D01*
X8210332Y8167623D02*
X7776999Y9096195D01*
X7776999Y9096195D02*
X7776999Y7796195D01*
X6538904Y7796195D02*
X7157952Y7796195D01*
X7157952Y7796195D02*
X7157952Y9096195D01*
X6167475Y8167623D02*
X5548428Y8167623D01*
X6291285Y7796195D02*
X5857952Y9096195D01*
X5857952Y9096195D02*
X5424618Y7796195D01*
X4557951Y8477147D02*
X4372237Y8415242D01*
X4372237Y8415242D02*
X4310332Y8353338D01*
X4310332Y8353338D02*
X4248428Y8229528D01*
X4248428Y8229528D02*
X4248428Y8043814D01*
X4248428Y8043814D02*
X4310332Y7920004D01*
X4310332Y7920004D02*
X4372237Y7858100D01*
X4372237Y7858100D02*
X4496047Y7796195D01*
X4496047Y7796195D02*
X4991285Y7796195D01*
X4991285Y7796195D02*
X4991285Y9096195D01*
X4991285Y9096195D02*
X4557951Y9096195D01*
X4557951Y9096195D02*
X4434142Y9034290D01*
X4434142Y9034290D02*
X4372237Y8972385D01*
X4372237Y8972385D02*
X4310332Y8848576D01*
X4310332Y8848576D02*
X4310332Y8724766D01*
X4310332Y8724766D02*
X4372237Y8600957D01*
X4372237Y8600957D02*
X4434142Y8539052D01*
X4434142Y8539052D02*
X4557951Y8477147D01*
X4557951Y8477147D02*
X4991285Y8477147D01*
D12*
%TO.P,J3,1*%
%TO.N,VDD*%
X38735000Y5572000D03*
%TO.P,J3,2*%
%TO.N,Net-(D2-Pad2)*%
X38735000Y3572000D03*
%TD*%
%TO.P,J2,1*%
%TO.N,Net-(J2-Pad1)*%
X31115000Y4699000D03*
%TD*%
D13*
%TO.P,J1,1*%
%TO.N,GND*%
X10287000Y2032000D03*
%TO.P,J1,2*%
X10287000Y4572000D03*
%TO.P,J1,3*%
%TO.N,/SCL*%
X12827000Y2032000D03*
%TO.P,J1,4*%
X12827000Y4572000D03*
%TO.P,J1,5*%
%TO.N,VDD*%
X15367000Y2032000D03*
%TO.P,J1,6*%
X15367000Y4572000D03*
%TO.P,J1,7*%
%TO.N,/SDA*%
X17907000Y2032000D03*
%TO.P,J1,8*%
X17907000Y4572000D03*
%TO.P,J1,9*%
%TO.N,GND*%
X20447000Y2032000D03*
%TO.P,J1,10*%
X20447000Y4572000D03*
%TD*%
D14*
%TO.P,M1,1*%
%TO.N,GND*%
X5080000Y4572000D03*
%TD*%
%TO.P,M2,1*%
%TO.N,GND*%
X25400000Y4572000D03*
%TD*%
D15*
%TO.P,X1,1*%
%TO.N,Net-(C2-Pad1)*%
X34405000Y5349000D03*
%TO.P,X1,2*%
%TO.N,/SCL*%
X34405000Y4699000D03*
%TO.P,X1,3*%
%TO.N,GND*%
X34405000Y4049000D03*
%TO.P,X1,4*%
%TO.N,Net-(D2-Pad2)*%
X32905000Y4049000D03*
%TO.P,X1,5*%
%TO.N,Net-(J2-Pad1)*%
X32905000Y4699000D03*
%TO.P,X1,6*%
%TO.N,/SDA*%
X32905000Y5349000D03*
%TD*%
D16*
%TO.P,C1,1*%
%TO.N,VDD*%
X35687000Y571500D03*
%TO.P,C1,2*%
%TO.N,GND*%
X35687000Y2476500D03*
%TD*%
%TO.P,C2,1*%
%TO.N,Net-(C2-Pad1)*%
X31115000Y6794500D03*
%TO.P,C2,2*%
%TO.N,GND*%
X31115000Y8699500D03*
%TD*%
%TO.P,R1,1*%
%TO.N,VDD*%
X30607000Y571500D03*
%TO.P,R1,2*%
%TO.N,/SDA*%
X30607000Y2476500D03*
%TD*%
%TO.P,R3,1*%
%TO.N,VDD*%
X33655000Y571500D03*
%TO.P,R3,2*%
%TO.N,Net-(J2-Pad1)*%
X33655000Y2476500D03*
%TD*%
%TO.P,R4,1*%
%TO.N,VDD*%
X33401000Y8699500D03*
%TO.P,R4,2*%
%TO.N,Net-(C2-Pad1)*%
X33401000Y6794500D03*
%TD*%
D17*
%TO.P,D1,1*%
%TO.N,GND*%
X11584940Y7366000D03*
%TO.P,D1,2*%
%TO.N,VDD*%
X15085060Y7366000D03*
%TD*%
D16*
%TO.P,D2,1*%
%TO.N,VDD*%
X37465000Y5524500D03*
%TO.P,D2,2*%
%TO.N,Net-(D2-Pad2)*%
X37465000Y3619500D03*
%TD*%
D18*
%TO.P,C3,1*%
%TO.N,VDD*%
X39433500Y7493000D03*
%TO.P,C3,2*%
%TO.N,GND*%
X37528500Y7493000D03*
%TD*%
D16*
%TO.P,R2,1*%
%TO.N,VDD*%
X35814000Y8699500D03*
%TO.P,R2,2*%
%TO.N,/SCL*%
X35814000Y6794500D03*
%TD*%
D19*
%TO.N,VDD*%
X28552482Y530518D03*
%TO.N,GND*%
X36068000Y4445000D03*
X37465000Y6604000D03*
X37846000Y1651000D03*
X37084000Y1651000D03*
X20447000Y6858000D03*
%TO.N,/SCL*%
X34671000Y6985000D03*
X13335000Y8382000D03*
%TO.N,/SDA*%
X29972000Y5276002D03*
%TD*%
D20*
%TO.N,VDD*%
X35687000Y571500D02*
X38691502Y571500D01*
X35814000Y8699500D02*
X36912500Y8699500D01*
X15367000Y4572000D02*
X15367000Y7084060D01*
X39635001Y1514999D02*
X39635001Y4671999D01*
X38417500Y8890000D02*
X39433500Y7874000D01*
X39433500Y7620000D02*
X39433500Y6270500D01*
X15367000Y7084060D02*
X15085060Y7366000D01*
X38735000Y5572000D02*
X37512500Y5572000D01*
X36912500Y8699500D02*
X37103000Y8890000D01*
X39433500Y6270500D02*
X38735000Y5572000D01*
X37655500Y5588000D02*
X37719000Y5524500D01*
X37512500Y5572000D02*
X37465000Y5524500D01*
X33655000Y571500D02*
X30607000Y571500D01*
X35814000Y8699500D02*
X33401000Y8699500D01*
X39635001Y4671999D02*
X38735000Y5572000D01*
X39433500Y7874000D02*
X39433500Y7620000D01*
X37103000Y8890000D02*
X38417500Y8890000D01*
X33655000Y571500D02*
X35687000Y571500D01*
X28552482Y530518D02*
X30566018Y530518D01*
X30566018Y530518D02*
X30607000Y571500D01*
X15367000Y4572000D02*
X15367000Y2032000D01*
X38691502Y571500D02*
X39635001Y1514999D01*
%TO.N,GND*%
X37528500Y8001000D02*
X37528500Y7810500D01*
X31369000Y8699500D02*
X32213501Y7854999D01*
X32213501Y7854999D02*
X37382499Y7854999D01*
X37084000Y1651000D02*
X37846000Y1651000D01*
X37528500Y6667500D02*
X37465000Y6604000D01*
X35672000Y4049000D02*
X36068000Y4445000D01*
X34405000Y4049000D02*
X35672000Y4049000D01*
X31115000Y8699500D02*
X31369000Y8699500D01*
X37528500Y7620000D02*
X37528500Y6667500D01*
X37382499Y7854999D02*
X37528500Y8001000D01*
%TO.N,Net-(C2-Pad1)*%
X34405000Y5349000D02*
X34405000Y6171500D01*
X33401000Y6794500D02*
X31115000Y6794500D01*
X34405000Y6171500D02*
X33782000Y6794500D01*
%TO.N,Net-(D2-Pad2)*%
X32905000Y4049000D02*
X32905001Y3448999D01*
X37671500Y3826000D02*
X37465000Y3619500D01*
X37548499Y3448999D02*
X37719000Y3619500D01*
X38735000Y3572000D02*
X37512500Y3572000D01*
X32905001Y3448999D02*
X37548499Y3448999D01*
X37512500Y3572000D02*
X37465000Y3619500D01*
%TO.N,Net-(J2-Pad1)*%
X32905000Y4699000D02*
X31115000Y4699000D01*
X31115000Y3799000D02*
X31115000Y4699000D01*
X32437500Y2476500D02*
X31115000Y3799000D01*
X33655000Y2476500D02*
X32437500Y2476500D01*
%TO.N,/SCL*%
X12827000Y4572000D02*
X12827000Y2032000D01*
X12827000Y7874000D02*
X12827000Y4572000D01*
X34405000Y4699000D02*
X35305000Y4699000D01*
X35814000Y5208000D02*
X35814000Y5950000D01*
X35814000Y6794500D02*
X34861500Y6794500D01*
X35305000Y4699000D02*
X35814000Y5208000D01*
X13335000Y8382000D02*
X12827000Y7874000D01*
X34861500Y6794500D02*
X34671000Y6985000D01*
X35814000Y5950000D02*
X35814000Y6794500D01*
%TO.N,/SDA*%
X30607000Y3321000D02*
X29972000Y3956000D01*
X32605000Y5349000D02*
X32005000Y5949000D01*
X32905000Y5349000D02*
X32605000Y5349000D01*
X29972000Y3956000D02*
X29972000Y5276002D01*
X29508500Y2476500D02*
X27403999Y371999D01*
X18405001Y371999D02*
X17907000Y870000D01*
X17907000Y870000D02*
X17907000Y2032000D01*
X27403999Y371999D02*
X18405001Y371999D01*
X32005000Y5949000D02*
X30644998Y5949000D01*
X30607000Y2476500D02*
X29508500Y2476500D01*
X30607000Y2476500D02*
X30607000Y3321000D01*
X30644998Y5949000D02*
X29972000Y5276002D01*
X17907000Y4572000D02*
X17907000Y2032000D01*
%TD*%
%TA.AperFunction,Conductor*%
%TO.N,GND*%
G36*
X3527037Y9327498D02*
G01*
X3573530Y9273842D01*
X3584916Y9221500D01*
X3584916Y7132404D01*
X9306870Y7132404D01*
X9306870Y9221500D01*
X9326872Y9289621D01*
X9380528Y9336114D01*
X9432870Y9347500D01*
X12914582Y9347500D01*
X12982703Y9327498D01*
X13029196Y9273842D01*
X13039300Y9203568D01*
X13009806Y9138988D01*
X12981618Y9114813D01*
X12827720Y9018112D01*
X12827718Y9018111D01*
X12698888Y8889281D01*
X12698887Y8889279D01*
X12601958Y8735018D01*
X12601957Y8735015D01*
X12566194Y8632810D01*
X12536360Y8585330D01*
X12342486Y8391456D01*
X12339740Y8388871D01*
X12292785Y8347273D01*
X12292783Y8347270D01*
X12257154Y8295655D01*
X12254899Y8292590D01*
X12216225Y8243226D01*
X12216225Y8243225D01*
X12216223Y8243222D01*
X12212035Y8233919D01*
X12200841Y8214070D01*
X12195046Y8205675D01*
X12195046Y8205674D01*
X12172809Y8147043D01*
X12171353Y8143528D01*
X12146689Y8088725D01*
X12145611Y8086329D01*
X12144422Y8079841D01*
X12143771Y8076289D01*
X12137650Y8054333D01*
X12134034Y8044798D01*
X12134033Y8044794D01*
X12126475Y7982544D01*
X12125902Y7978782D01*
X12114598Y7917094D01*
X12118385Y7854490D01*
X12118500Y7850685D01*
X12118500Y5966660D01*
X12098498Y5898539D01*
X12044842Y5852046D01*
X12005968Y5841382D01*
X11986948Y5839337D01*
X11955803Y5835990D01*
X11955795Y5835988D01*
X11877875Y5806924D01*
X11818796Y5784889D01*
X11818794Y5784888D01*
X11818792Y5784887D01*
X11701738Y5697261D01*
X11614112Y5580207D01*
X11614110Y5580202D01*
X11563011Y5443204D01*
X11563009Y5443196D01*
X11556500Y5382649D01*
X11556500Y3761350D01*
X11563009Y3700803D01*
X11563011Y3700795D01*
X11614110Y3563797D01*
X11614112Y3563792D01*
X11701739Y3446738D01*
X11760343Y3402867D01*
X11802889Y3346031D01*
X11807953Y3275216D01*
X11773928Y3212904D01*
X11760343Y3201133D01*
X11701739Y3157261D01*
X11614112Y3040207D01*
X11614110Y3040202D01*
X11563011Y2903204D01*
X11563009Y2903196D01*
X11556500Y2842649D01*
X11556500Y1221350D01*
X11563009Y1160803D01*
X11563011Y1160795D01*
X11614110Y1023797D01*
X11614112Y1023792D01*
X11701738Y906738D01*
X11818792Y819112D01*
X11818797Y819110D01*
X11955795Y768011D01*
X11955803Y768009D01*
X12016350Y761500D01*
X12016362Y761500D01*
X13637649Y761500D01*
X13698196Y768009D01*
X13698204Y768011D01*
X13835202Y819110D01*
X13835207Y819112D01*
X13952261Y906739D01*
X13996133Y965343D01*
X14052969Y1007889D01*
X14123784Y1012953D01*
X14186096Y978928D01*
X14197867Y965343D01*
X14241738Y906739D01*
X14358792Y819112D01*
X14358797Y819110D01*
X14495795Y768011D01*
X14495803Y768009D01*
X14556350Y761500D01*
X14556362Y761500D01*
X16177649Y761500D01*
X16238196Y768009D01*
X16238204Y768011D01*
X16375202Y819110D01*
X16375207Y819112D01*
X16492261Y906739D01*
X16536133Y965343D01*
X16592969Y1007889D01*
X16663784Y1012953D01*
X16726096Y978928D01*
X16737867Y965343D01*
X16781738Y906739D01*
X16898792Y819112D01*
X16898797Y819110D01*
X17035795Y768011D01*
X17035803Y768009D01*
X17096350Y761500D01*
X17096362Y761500D01*
X17101576Y761500D01*
X17169697Y741498D01*
X17216190Y687842D01*
X17225511Y658219D01*
X17225611Y657672D01*
X17225613Y657665D01*
X17251351Y600476D01*
X17252807Y596961D01*
X17275045Y538326D01*
X17280846Y529921D01*
X17292035Y510080D01*
X17296222Y500779D01*
X17296227Y500769D01*
X17334904Y451401D01*
X17337157Y448339D01*
X17372784Y396726D01*
X17419731Y355134D01*
X17422502Y352526D01*
X17763434Y11596D01*
X17797459Y-50716D01*
X17792395Y-121532D01*
X17749848Y-178368D01*
X17683328Y-203179D01*
X17674339Y-203500D01*
X2645595Y-203500D01*
X2577474Y-183498D01*
X2530981Y-129842D01*
X2519595Y-77500D01*
X2519595Y9221500D01*
X2539597Y9289621D01*
X2593253Y9336114D01*
X2645595Y9347500D01*
X3458916Y9347500D01*
X3527037Y9327498D01*
G37*
%TD.AperFunction*%
%TA.AperFunction,Conductor*%
G36*
X32138498Y9327498D02*
G01*
X32184991Y9273842D01*
X32195655Y9208029D01*
X32194000Y9192642D01*
X32194000Y8206350D01*
X32200509Y8145803D01*
X32200511Y8145795D01*
X32251610Y8008797D01*
X32251612Y8008792D01*
X32339239Y7891738D01*
X32397843Y7847867D01*
X32440389Y7791031D01*
X32445453Y7720216D01*
X32411428Y7657904D01*
X32397844Y7646133D01*
X32371577Y7626469D01*
X32339239Y7602261D01*
X32339237Y7602258D01*
X32333511Y7597972D01*
X32266991Y7573160D01*
X32197617Y7588250D01*
X32182490Y7597971D01*
X32176763Y7602258D01*
X32176761Y7602261D01*
X32059704Y7689889D01*
X31922701Y7740989D01*
X31922699Y7740989D01*
X31922696Y7740990D01*
X31862149Y7747499D01*
X31862145Y7747499D01*
X31862138Y7747500D01*
X30367862Y7747500D01*
X30367855Y7747499D01*
X30367850Y7747499D01*
X30307303Y7740990D01*
X30307295Y7740988D01*
X30251605Y7720216D01*
X30170296Y7689889D01*
X30170294Y7689888D01*
X30170292Y7689887D01*
X30053238Y7602261D01*
X29965612Y7485207D01*
X29965610Y7485202D01*
X29914511Y7348204D01*
X29914509Y7348196D01*
X29908000Y7287649D01*
X29908000Y6301367D01*
X29908001Y6301347D01*
X29910039Y6282390D01*
X29897433Y6212522D01*
X29873856Y6179828D01*
X29768669Y6074641D01*
X29721192Y6044808D01*
X29618985Y6009045D01*
X29618980Y6009042D01*
X29464720Y5912114D01*
X29464718Y5912113D01*
X29335888Y5783283D01*
X29335887Y5783281D01*
X29238958Y5629020D01*
X29238957Y5629017D01*
X29178783Y5457049D01*
X29158384Y5276002D01*
X29178783Y5094955D01*
X29178783Y5094952D01*
X29178784Y5094951D01*
X29238957Y4922986D01*
X29238958Y4922984D01*
X29244191Y4914655D01*
X29263499Y4847626D01*
X29263499Y3979310D01*
X29263384Y3975506D01*
X29259598Y3912907D01*
X29270904Y3851201D01*
X29271476Y3847441D01*
X29279034Y3785199D01*
X29282651Y3775661D01*
X29288770Y3753711D01*
X29290609Y3743678D01*
X29290613Y3743665D01*
X29316351Y3686476D01*
X29317807Y3682961D01*
X29340045Y3624326D01*
X29345846Y3615921D01*
X29357035Y3596080D01*
X29361222Y3586779D01*
X29361227Y3586769D01*
X29399904Y3537401D01*
X29402157Y3534339D01*
X29437784Y3482726D01*
X29484740Y3441126D01*
X29487511Y3438518D01*
X29509362Y3416666D01*
X29543388Y3354354D01*
X29538323Y3283539D01*
X29521136Y3252063D01*
X29515766Y3244889D01*
X29504787Y3230223D01*
X29447951Y3187676D01*
X29426634Y3181796D01*
X29403698Y3177593D01*
X29399970Y3177025D01*
X29337699Y3169465D01*
X29337696Y3169464D01*
X29328168Y3165851D01*
X29306204Y3159727D01*
X29296171Y3157889D01*
X29240536Y3132849D01*
X29238973Y3132146D01*
X29235468Y3130694D01*
X29202959Y3118365D01*
X29176832Y3108457D01*
X29176829Y3108455D01*
X29176825Y3108454D01*
X29176822Y3108452D01*
X29176820Y3108451D01*
X29168435Y3102663D01*
X29148570Y3091458D01*
X29139274Y3087275D01*
X29099496Y3056110D01*
X29089901Y3048593D01*
X29086848Y3046346D01*
X29035227Y3010715D01*
X29035224Y3010712D01*
X28993626Y2963757D01*
X28991033Y2961003D01*
X28020678Y1990648D01*
X27147434Y1117404D01*
X27085122Y1083378D01*
X27058339Y1080499D01*
X19302628Y1080499D01*
X19234507Y1100501D01*
X19188014Y1154157D01*
X19177676Y1217969D01*
X19177319Y1217989D01*
X19177406Y1219630D01*
X19177351Y1219976D01*
X19177499Y1221354D01*
X19177500Y1221367D01*
X19177500Y2842632D01*
X19177499Y2842649D01*
X19170990Y2903196D01*
X19170988Y2903204D01*
X19148930Y2962342D01*
X19119889Y3040204D01*
X19032261Y3157261D01*
X19015960Y3169464D01*
X18973657Y3201132D01*
X18931110Y3257968D01*
X18926046Y3328784D01*
X18960071Y3391096D01*
X18973657Y3402868D01*
X19032261Y3446738D01*
X19119887Y3563792D01*
X19119889Y3563797D01*
X19128458Y3586769D01*
X19164336Y3682961D01*
X19170988Y3700795D01*
X19170990Y3700803D01*
X19177499Y3761350D01*
X19177500Y3761367D01*
X19177500Y5382632D01*
X19177499Y5382649D01*
X19170990Y5443196D01*
X19170988Y5443204D01*
X19156180Y5482904D01*
X19119889Y5580204D01*
X19032261Y5697261D01*
X18917352Y5783281D01*
X18915207Y5784887D01*
X18915206Y5784887D01*
X18915204Y5784889D01*
X18778201Y5835989D01*
X18778199Y5835989D01*
X18778196Y5835990D01*
X18717649Y5842499D01*
X18717645Y5842499D01*
X18717638Y5842500D01*
X17096362Y5842500D01*
X17096355Y5842499D01*
X17096350Y5842499D01*
X17035803Y5835990D01*
X17035795Y5835988D01*
X16957875Y5806924D01*
X16898796Y5784889D01*
X16898794Y5784888D01*
X16898792Y5784887D01*
X16781738Y5697261D01*
X16737868Y5638657D01*
X16681032Y5596110D01*
X16610216Y5591046D01*
X16547904Y5625071D01*
X16536132Y5638657D01*
X16492261Y5697261D01*
X16375207Y5784887D01*
X16375206Y5784887D01*
X16375204Y5784889D01*
X16238201Y5835989D01*
X16238199Y5835989D01*
X16238196Y5835990D01*
X16209574Y5839066D01*
X16188032Y5841382D01*
X16122441Y5868549D01*
X16081949Y5926866D01*
X16075500Y5966660D01*
X16075500Y6080366D01*
X16095502Y6148487D01*
X16100632Y6155875D01*
X16186187Y6270162D01*
X16186189Y6270167D01*
X16197825Y6301362D01*
X16208224Y6329245D01*
X16237288Y6407165D01*
X16237290Y6407173D01*
X16243799Y6467720D01*
X16243800Y6467737D01*
X16243800Y8264262D01*
X16243799Y8264279D01*
X16237290Y8324826D01*
X16237288Y8324834D01*
X16228918Y8347273D01*
X16186189Y8461834D01*
X16098561Y8578891D01*
X15981504Y8666519D01*
X15844501Y8717619D01*
X15844499Y8717619D01*
X15844496Y8717620D01*
X15783949Y8724129D01*
X15783945Y8724129D01*
X15783938Y8724130D01*
X14386182Y8724130D01*
X14386175Y8724129D01*
X14386170Y8724129D01*
X14325623Y8717620D01*
X14325615Y8717618D01*
X14221936Y8678947D01*
X14151121Y8673881D01*
X14088808Y8707906D01*
X14071216Y8729966D01*
X13971112Y8889279D01*
X13971111Y8889281D01*
X13842281Y9018111D01*
X13842279Y9018112D01*
X13688382Y9114813D01*
X13641344Y9167991D01*
X13630524Y9238159D01*
X13659357Y9303037D01*
X13718688Y9342028D01*
X13755418Y9347500D01*
X32070377Y9347500D01*
X32138498Y9327498D01*
G37*
%TD.AperFunction*%
%TA.AperFunction,Conductor*%
G36*
X36511691Y2726828D02*
G01*
X36511853Y2727260D01*
X36515869Y2725761D01*
X36518506Y2725089D01*
X36520300Y2724109D01*
X36657295Y2673011D01*
X36657303Y2673009D01*
X36717850Y2666500D01*
X36717862Y2666500D01*
X37886227Y2666500D01*
X37954348Y2646498D01*
X37961736Y2641368D01*
X37988796Y2621111D01*
X37988798Y2621109D01*
X38125795Y2570011D01*
X38125803Y2570009D01*
X38186350Y2563500D01*
X38186362Y2563500D01*
X38800501Y2563500D01*
X38868622Y2543498D01*
X38915115Y2489842D01*
X38926501Y2437500D01*
X38926501Y1860658D01*
X38906499Y1792537D01*
X38889604Y1771572D01*
X38434934Y1316902D01*
X38372625Y1282879D01*
X38345842Y1280000D01*
X36886138Y1280000D01*
X36818017Y1300002D01*
X36785270Y1330491D01*
X36748761Y1379261D01*
X36631707Y1466887D01*
X36631706Y1466887D01*
X36631704Y1466889D01*
X36513545Y1510960D01*
X36494704Y1517988D01*
X36494703Y1517988D01*
X36494701Y1517989D01*
X36494699Y1517989D01*
X36494696Y1517990D01*
X36434149Y1524499D01*
X36434145Y1524499D01*
X36434138Y1524500D01*
X34939862Y1524500D01*
X34939855Y1524499D01*
X34939850Y1524499D01*
X34871461Y1517147D01*
X34871218Y1519403D01*
X34811793Y1522581D01*
X34754202Y1564099D01*
X34728199Y1630162D01*
X34742041Y1699796D01*
X34752828Y1716918D01*
X34804387Y1785792D01*
X34804389Y1785797D01*
X34807864Y1795112D01*
X34855489Y1922799D01*
X34855490Y1922803D01*
X34861999Y1983350D01*
X34862000Y1983367D01*
X34862000Y2614499D01*
X34882002Y2682620D01*
X34935658Y2729113D01*
X34988000Y2740499D01*
X36458124Y2740499D01*
X36511691Y2726828D01*
G37*
%TD.AperFunction*%
%TA.AperFunction,Conductor*%
G36*
X36414253Y4702117D02*
G01*
X36445729Y4684930D01*
X36461841Y4672869D01*
X36504388Y4616034D01*
X36509454Y4545218D01*
X36475429Y4482906D01*
X36461843Y4471133D01*
X36403239Y4427261D01*
X36315613Y4310208D01*
X36315612Y4310205D01*
X36315611Y4310204D01*
X36289225Y4239462D01*
X36246681Y4182631D01*
X36180161Y4157820D01*
X36171172Y4157499D01*
X36069659Y4157499D01*
X36001538Y4177501D01*
X35955045Y4231157D01*
X35944941Y4301431D01*
X35974435Y4366011D01*
X35980564Y4372594D01*
X36281126Y4673156D01*
X36343438Y4707182D01*
X36414253Y4702117D01*
G37*
%TD.AperFunction*%
%TA.AperFunction,Conductor*%
G36*
X38139960Y8161498D02*
G01*
X38160935Y8144595D01*
X38443596Y7861933D01*
X38477621Y7799621D01*
X38480500Y7772838D01*
X38480500Y6745867D01*
X38480501Y6745845D01*
X38483283Y6719966D01*
X38470676Y6650098D01*
X38422297Y6598137D01*
X38358005Y6580500D01*
X38186362Y6580500D01*
X38186355Y6580499D01*
X38186350Y6580499D01*
X38125803Y6573990D01*
X38125795Y6573988D01*
X37988798Y6522890D01*
X37988797Y6522889D01*
X37988796Y6522889D01*
X37963377Y6503860D01*
X37961736Y6502632D01*
X37895215Y6477821D01*
X37886227Y6477500D01*
X37147000Y6477500D01*
X37078879Y6497502D01*
X37032386Y6551158D01*
X37021000Y6603500D01*
X37021000Y7287632D01*
X37020999Y7287649D01*
X37014490Y7348196D01*
X37014488Y7348204D01*
X37007460Y7367045D01*
X36963389Y7485204D01*
X36875761Y7602261D01*
X36850993Y7620802D01*
X36817157Y7646132D01*
X36774610Y7702968D01*
X36769546Y7773784D01*
X36803571Y7836096D01*
X36817157Y7847868D01*
X36875761Y7891738D01*
X36916213Y7945776D01*
X36973049Y7988323D01*
X36994370Y7994203D01*
X36997654Y7994805D01*
X37017282Y7998401D01*
X37021042Y7998974D01*
X37083295Y8006533D01*
X37083298Y8006534D01*
X37083301Y8006535D01*
X37092836Y8010150D01*
X37114786Y8016270D01*
X37124829Y8018111D01*
X37124830Y8018111D01*
X37124832Y8018112D01*
X37182028Y8043853D01*
X37185543Y8045309D01*
X37221205Y8058834D01*
X37244175Y8067546D01*
X37252570Y8073341D01*
X37272419Y8084535D01*
X37281722Y8088723D01*
X37281726Y8088725D01*
X37312646Y8112949D01*
X37331090Y8127399D01*
X37334155Y8129653D01*
X37376949Y8159194D01*
X37444373Y8181431D01*
X37448528Y8181500D01*
X38071839Y8181500D01*
X38139960Y8161498D01*
G37*
%TD.AperFunction*%
%TD*%
M02*
